<?xml version="1.0" encoding="UTF-8" standalone="no"?>
<!-- Created with Inkscape (http://www.inkscape.org/) -->
<svg
   xmlns:i="http://ns.adobe.com/AdobeIllustrator/10.0/"
   xmlns:dc="http://purl.org/dc/elements/1.1/"
   xmlns:cc="http://creativecommons.org/ns#"
   xmlns:rdf="http://www.w3.org/1999/02/22-rdf-syntax-ns#"
   xmlns:svg="http://www.w3.org/2000/svg"
   xmlns="http://www.w3.org/2000/svg"
   xmlns:sodipodi="http://sodipodi.sourceforge.net/DTD/sodipodi-0.dtd"
   xmlns:inkscape="http://www.inkscape.org/namespaces/inkscape"
   width="1052.3622"
   height="744.09448"
   id="svg2"
   sodipodi:version="0.32"
   inkscape:version="0.46"
   version="1.0"
   sodipodi:docname="t-shirts2.svg"
   inkscape:output_extension="org.inkscape.output.svg.inkscape"
   inkscape:export-filename="/home/jun/Desktop/t-shirts2-seino.png"
   inkscape:export-xdpi="68.419998"
   inkscape:export-ydpi="68.419998">
  <defs
     id="defs4">
    <inkscape:perspective
       sodipodi:type="inkscape:persp3d"
       inkscape:vp_x="0 : 526.18109 : 1"
       inkscape:vp_y="0 : 1000 : 0"
       inkscape:vp_z="744.09448 : 526.18109 : 1"
       inkscape:persp3d-origin="372.04724 : 350.78739 : 1"
       id="perspective10" />
    <inkscape:perspective
       id="perspective2493"
       inkscape:persp3d-origin="43.5205 : 36.148333 : 1"
       inkscape:vp_z="87.041 : 54.2225 : 1"
       inkscape:vp_y="0 : 1000 : 0"
       inkscape:vp_x="0 : 54.2225 : 1"
       sodipodi:type="inkscape:persp3d" />
    <inkscape:perspective
       id="perspective2580"
       inkscape:persp3d-origin="372.04724 : 350.78739 : 1"
       inkscape:vp_z="744.09448 : 526.18109 : 1"
       inkscape:vp_y="0 : 1000 : 0"
       inkscape:vp_x="0 : 526.18109 : 1"
       sodipodi:type="inkscape:persp3d" />
    <inkscape:perspective
       id="perspective3538"
       inkscape:persp3d-origin="43.5205 : 36.148333 : 1"
       inkscape:vp_z="87.041 : 54.2225 : 1"
       inkscape:vp_y="0 : 1000 : 0"
       inkscape:vp_x="0 : 54.2225 : 1"
       sodipodi:type="inkscape:persp3d" />
  </defs>
  <sodipodi:namedview
     id="base"
     pagecolor="#ffffff"
     bordercolor="#666666"
     borderopacity="1.0"
     gridtolerance="10000"
     guidetolerance="10"
     objecttolerance="10"
     inkscape:pageopacity="0.0"
     inkscape:pageshadow="2"
     inkscape:zoom="1"
     inkscape:cx="463.77523"
     inkscape:cy="338.4659"
     inkscape:document-units="mm"
     inkscape:current-layer="layer2"
     showgrid="false"
     units="mm"
     inkscape:window-width="1280"
     inkscape:window-height="775"
     inkscape:window-x="0"
     inkscape:window-y="25" />
  <metadata
     id="metadata7">
    <rdf:RDF>
      <cc:Work
         rdf:about="">
        <dc:format>image/svg+xml</dc:format>
        <dc:type
           rdf:resource="http://purl.org/dc/dcmitype/StillImage" />
      </cc:Work>
    </rdf:RDF>
  </metadata>
  <g
     inkscape:label="Layer 1"
     inkscape:groupmode="layer"
     id="layer1"
     sodipodi:insensitive="true">
    <path
       style="fill:#d40000;fill-opacity:1;fill-rule:evenodd;stroke:none;stroke-width:1px;stroke-linecap:butt;stroke-linejoin:miter;stroke-opacity:1"
       d="M 508.57142,190.52304 L 508.57142,331.23733 L 403.57142,331.23733 L 348.57142,191.23733 L 508.57142,190.52304 z"
       id="path2630" />
    <path
       style="fill:#d40000;fill-opacity:1;fill-rule:evenodd;stroke:none;stroke-width:1px;stroke-linecap:butt;stroke-linejoin:miter;stroke-opacity:1"
       d="M 30.714288,191.59448 L 30.714288,332.30877 L 135.71429,332.30877 L 190.71429,192.30877 L 30.714288,191.59448 z"
       id="path2632" />
    <path
       style="fill:#d40000;fill-opacity:1;fill-rule:evenodd;stroke:none;stroke-width:1px;stroke-linecap:butt;stroke-linejoin:miter;stroke-opacity:1"
       d="M 1021.7968,188.3284 L 1021.7968,329.04269 L 916.79678,329.04269 L 861.79678,189.04269 L 1021.7968,188.3284 z"
       id="path3404" />
    <path
       style="fill:#d40000;fill-opacity:1;fill-rule:evenodd;stroke:none;stroke-width:1px;stroke-linecap:butt;stroke-linejoin:miter;stroke-opacity:1"
       d="M 543.93965,189.39984 L 543.93965,330.11413 L 648.93965,330.11413 L 703.93965,190.11413 L 543.93965,189.39984 z"
       id="path3406" />
    <text
       xml:space="preserve"
       style="font-size:12px;font-style:normal;font-weight:normal;fill:#000000;fill-opacity:1;stroke:none;stroke-width:1px;stroke-linecap:butt;stroke-linejoin:miter;stroke-opacity:1;font-family:Bitstream Vera Sans"
       x="242.71651"
       y="102.95768"
       id="text2391"><tspan
         sodipodi:role="line"
         x="242.71651"
         y="102.95768"
         id="tspan2395"
         style="font-size:36px">表</tspan></text>
    <text
       xml:space="preserve"
       style="font-size:12px;font-style:normal;font-weight:normal;fill:#000000;fill-opacity:1;stroke:none;stroke-width:1px;stroke-linecap:butt;stroke-linejoin:miter;stroke-opacity:1;font-family:Bitstream Vera Sans"
       x="774.21259"
       y="102.95768"
       id="text2407"><tspan
         sodipodi:role="line"
         x="774.21259"
         y="102.95768"
         id="tspan2409"
         style="font-size:36px">裏</tspan></text>
    <path
       style="fill:none;fill-rule:evenodd;stroke:#000000;stroke-width:1px;stroke-linecap:butt;stroke-linejoin:miter;stroke-opacity:1"
       d="M 30.118076,191.54036 L 30.118076,333.27264 L 136.41729,333.27264 L 136.41729,669.88681 L 402.16533,669.88681 L 402.16533,333.27264 L 508.46454,333.27264 L 508.46454,191.54036 C 344.8739,191.54036 185.10897,191.54036 30.118076,191.54036 z"
       id="path4665" />
    <path
       style="fill:none;fill-rule:evenodd;stroke:#000000;stroke-width:1px;stroke-linecap:butt;stroke-linejoin:miter;stroke-opacity:1"
       d="M 543.8976,191.54037 L 543.8976,333.27264 L 650.19681,333.27264 L 650.19681,669.88681 L 915.94485,669.88681 L 915.94485,333.27264 L 1022.2441,333.27264 L 1022.2441,191.54037 L 543.8976,191.54037 z"
       id="path4667"
       sodipodi:nodetypes="ccccccccc" />
    <path
       style="fill:none;fill-rule:evenodd;stroke:#000000;stroke-width:1.06027377px;stroke-linecap:butt;stroke-linejoin:miter;stroke-opacity:1"
       d="M 189.47204,191.57049 C 189.47204,191.57049 209.41122,244.65982 269.22881,244.65982 C 329.04638,244.65982 348.98558,191.57049 348.98558,191.57049 L 348.98558,191.57049"
       id="path4669" />
    <path
       style="fill:none;fill-rule:evenodd;stroke:#000000;stroke-width:1px;stroke-linecap:butt;stroke-linejoin:miter;stroke-opacity:1"
       d="M 189.5669,191.54036 L 136.41729,333.27264"
       id="path4673" />
    <path
       style="fill:none;fill-rule:evenodd;stroke:#000000;stroke-width:1px;stroke-linecap:butt;stroke-linejoin:miter;stroke-opacity:1"
       d="M 349.01572,191.54036 L 402.16532,333.27264"
       id="path4675" />
    <path
       style="fill:none;fill-rule:evenodd;stroke:#000000;stroke-width:1px;stroke-linecap:butt;stroke-linejoin:miter;stroke-opacity:1"
       d="M 650.19682,333.27264 L 703.34643,191.54036"
       id="path4677" />
    <path
       style="fill:none;fill-rule:evenodd;stroke:#000000;stroke-width:1px;stroke-linecap:butt;stroke-linejoin:miter;stroke-opacity:1"
       d="M 915.94485,333.27264 L 862.79525,191.54036"
       id="path4679" />
  </g>
  <g
     inkscape:groupmode="layer"
     id="layer2"
     inkscape:label="a">
    <g
       i:rgbTrio="#4F008000FFFF"
       i:dimmedPercent="50"
       i:layer="yes"
       id="Layer_1"
       transform="matrix(0.7170678,0,0,0.7170678,236.25045,284.95943)"
       style="opacity:1;fill:#d40000;fill-opacity:1">
      <g
         id="g3509"
         style="fill:#d40000;fill-opacity:1">
        <path
           id="path3511"
           d="M 51.986,57.297 C 50.189,57.322 52.326,58.223 54.672,58.584 C 55.32,58.078 55.908,57.566 56.432,57.068 C 54.971,57.426 53.484,57.434 51.986,57.297"
           i:knockout="Off"
           style="fill:#d40000;fill-opacity:1" />
        <path
           id="path3513"
           d="M 61.631,54.893 C 62.701,53.416 63.481,51.799 63.756,50.127 C 63.516,51.319 62.869,52.348 62.26,53.434 C 58.901,55.549 61.944,52.178 62.258,50.897 C 58.646,55.443 61.762,53.623 61.631,54.893"
           i:knockout="Off"
           style="fill:#d40000;fill-opacity:1" />
        <path
           id="path3515"
           d="M 65.191,45.629 C 65.408,42.393 64.554,43.416 64.267,44.651 C 64.602,44.825 64.867,46.932 65.191,45.629"
           i:knockout="Off"
           style="fill:#d40000;fill-opacity:1" />
        <path
           id="path3517"
           d="M 45.172,1.399 C 46.131,1.571 47.244,1.703 47.088,1.932 C 48.137,1.702 48.375,1.49 45.172,1.399"
           i:knockout="Off"
           style="fill:#d40000;fill-opacity:1" />
        <path
           id="path3519"
           d="M 47.088,1.932 L 46.41,2.072 L 47.041,2.016 L 47.088,1.932"
           i:knockout="Off"
           style="fill:#d40000;fill-opacity:1" />
        <path
           id="path3521"
           d="M 76.992,46.856 C 77.099,49.762 76.142,51.172 75.279,53.668 L 73.726,54.444 C 72.455,56.912 73.849,56.011 72.939,57.974 C 70.955,59.738 66.918,63.494 65.626,63.837 C 64.683,63.816 66.265,62.724 66.472,62.296 C 63.816,64.12 64.341,65.034 60.279,66.142 L 60.16,65.878 C 50.142,70.591 36.226,61.251 36.409,48.507 C 36.302,49.316 36.105,49.114 35.883,49.441 C 35.366,42.884 38.911,36.298 44.89,33.609 C 50.738,30.714 57.594,31.902 61.783,35.806 C 59.482,32.792 54.902,29.597 49.474,29.896 C 44.157,29.98 39.183,33.359 37.523,37.027 C 34.799,38.742 34.483,43.638 33.296,44.534 C 31.699,56.271 36.3,61.342 44.083,67.307 C 45.308,68.133 44.428,68.258 44.594,68.887 C 42.008,67.676 39.64,65.848 37.693,63.61 C 38.726,65.122 39.841,66.592 41.282,67.747 C 38.844,66.921 35.587,61.839 34.636,61.632 C 38.839,69.157 51.688,74.829 58.416,72.015 C 55.303,72.13 51.348,72.079 47.85,70.786 C 46.381,70.03 44.383,68.464 44.74,68.171 C 53.922,71.601 63.407,70.769 71.352,64.4 C 73.373,62.826 75.581,60.148 76.219,60.111 C 75.258,61.556 76.383,60.806 75.645,62.082 C 77.659,58.834 74.77,60.76 77.727,56.473 L 78.819,57.977 C 78.413,55.281 82.167,52.007 81.786,47.743 C 82.647,46.439 82.747,49.146 81.833,52.146 C 83.101,48.818 82.167,48.283 82.493,45.537 C 82.845,46.46 83.307,47.441 83.544,48.415 C 82.718,45.199 84.392,42.999 84.806,41.13 C 84.398,40.949 83.531,42.552 83.333,38.753 C 83.362,37.103 83.792,37.888 83.958,37.482 C 83.634,37.296 82.784,36.031 82.267,33.605 C 82.642,33.035 83.269,35.083 83.779,35.167 C 83.451,33.238 82.886,31.767 82.863,30.287 C 81.373,27.173 82.336,30.702 81.127,28.95 C 79.541,24.003 82.443,27.802 82.639,25.554 C 85.043,29.037 86.414,34.435 87.043,36.671 C 86.563,33.945 85.787,31.304 84.84,28.749 C 85.57,29.056 83.664,23.14 85.789,27.058 C 83.519,18.706 76.074,10.902 69.225,7.24 C 70.063,8.007 71.121,8.97 70.741,9.121 C 67.335,7.093 67.934,6.935 67.446,6.078 C 64.671,4.949 64.489,6.169 62.651,6.08 C 57.421,3.306 56.413,3.601 51.6,1.863 L 51.819,2.886 C 48.354,1.732 47.782,3.324 44.037,2.89 C 43.809,2.712 45.237,2.246 46.412,2.075 C 43.062,2.517 43.219,1.415 39.941,2.197 C 40.749,1.63 41.603,1.255 42.465,0.773 C 39.733,0.939 35.943,2.363 37.113,1.068 C 32.657,3.056 24.743,5.847 20.302,10.011 L 20.162,9.078 C 18.127,11.521 11.288,16.374 10.743,19.538 L 10.199,19.665 C 9.14,21.458 8.455,23.49 7.615,25.335 C 6.23,27.695 5.585,26.243 5.782,26.613 C 3.058,32.136 1.705,36.777 0.536,40.583 C 1.369,41.828 0.556,48.078 0.871,53.08 C -0.497,77.784 18.209,101.77 38.656,107.308 C 41.653,108.38 46.11,108.339 49.901,108.449 C 45.428,107.17 44.85,107.771 40.493,106.252 C 37.35,104.772 36.661,103.082 34.435,101.15 L 35.316,102.707 C 30.95,101.162 32.777,100.795 29.225,99.67 L 30.166,98.441 C 28.751,98.334 26.418,96.056 25.78,94.795 L 24.232,94.856 C 22.372,92.561 21.381,90.907 21.453,89.626 L 20.953,90.517 C 20.386,89.544 14.11,81.91 17.366,83.687 C 16.761,83.134 15.957,82.787 15.085,81.203 L 15.748,80.445 C 14.181,78.429 12.864,75.845 12.964,74.984 C 13.8,76.113 14.38,76.324 14.954,76.517 C 10.997,66.699 10.775,75.976 7.778,66.523 L 8.412,66.472 C 7.926,65.74 7.631,64.945 7.24,64.165 L 7.516,61.415 C 4.667,58.121 6.719,47.409 7.13,41.534 C 7.415,39.145 9.508,36.602 11.1,32.614 L 10.13,32.447 C 11.984,29.213 20.716,19.459 24.76,19.961 C 26.719,17.5 24.371,19.952 23.988,19.332 C 28.291,14.879 29.644,16.186 32.548,15.385 C 35.68,13.526 29.86,16.11 31.345,14.676 C 36.759,13.293 35.182,11.532 42.245,10.83 C 42.99,11.254 40.516,11.485 39.895,12.035 C 44.406,9.828 54.17,10.33 60.512,13.26 C 67.871,16.699 76.139,26.865 76.465,36.43 L 76.836,36.53 C 76.648,40.332 77.418,44.729 76.084,48.768 L 76.992,46.856"
           i:knockout="Off"
           style="fill:#d40000;fill-opacity:1" />
        <path
           id="path3523"
           d="M 32.372,59.764 L 32.12,61.024 C 33.301,62.628 34.238,64.366 35.746,65.62 C 34.661,63.502 33.855,62.627 32.372,59.764"
           i:knockout="Off"
           style="fill:#d40000;fill-opacity:1" />
        <path
           id="path3525"
           d="M 35.164,59.654 C 34.539,58.963 34.169,58.131 33.755,57.302 C 34.151,58.759 34.962,60.011 35.717,61.284 L 35.164,59.654"
           i:knockout="Off"
           style="fill:#d40000;fill-opacity:1" />
        <path
           id="path3527"
           d="M 84.568,48.916 L 84.304,49.578 C 83.82,53.016 82.775,56.418 81.173,59.572 C 82.943,56.244 84.088,52.604 84.568,48.916"
           i:knockout="Off"
           style="fill:#d40000;fill-opacity:1" />
        <path
           id="path3529"
           d="M 45.527,0.537 C 46.742,0.092 48.514,0.293 49.803,0 C 48.123,0.141 46.451,0.225 44.8,0.438 L 45.527,0.537"
           i:knockout="Off"
           style="fill:#d40000;fill-opacity:1" />
        <path
           id="path3531"
           d="M 2.872,23.219 C 3.152,25.811 0.922,26.817 3.366,25.108 C 4.676,22.157 2.854,24.293 2.872,23.219"
           i:knockout="Off"
           style="fill:#d40000;fill-opacity:1" />
        <path
           id="path3533"
           d="M 0,35.215 C 0.563,33.487 0.665,32.449 0.88,31.449 C -0.676,33.438 0.164,33.862 0,35.215"
           i:knockout="Off"
           style="fill:#d40000;fill-opacity:1" />
      </g>
    </g>
    <text
       xml:space="preserve"
       style="font-size:48px;font-style:normal;font-variant:normal;font-weight:normal;font-stretch:normal;fill:#000000;fill-opacity:1;stroke:none;stroke-width:1px;stroke-linecap:butt;stroke-linejoin:miter;stroke-opacity:1;font-family:Marcelle Swashes;-inkscape-font-specification:Marcelle Swashes"
       x="605.28339"
       y="-42.20826"
       id="text3567"><tspan
         sodipodi:role="line"
         id="tspan3569"
         x="605.28339"
         y="-42.20826" /></text>
    <text
       xml:space="preserve"
       style="font-size:48px;font-style:normal;font-variant:normal;font-weight:bold;font-stretch:normal;fill:#000000;fill-opacity:1;stroke:none;stroke-width:1px;stroke-linecap:butt;stroke-linejoin:miter;stroke-opacity:1;font-family:Marcelle Script;-inkscape-font-specification:Marcelle Script Bold"
       x="543.05798"
       y="49.715622"
       id="text2428"><tspan
         sodipodi:role="line"
         id="tspan2430"
         x="543.05798"
         y="49.715622" /></text>
    <text
       xml:space="preserve"
       style="font-size:48px;font-style:normal;font-variant:normal;font-weight:bold;font-stretch:normal;fill:#000000;fill-opacity:1;stroke:none;stroke-width:1px;stroke-linecap:butt;stroke-linejoin:miter;stroke-opacity:1;font-family:Marcelle Script;-inkscape-font-specification:Marcelle Script Bold"
       x="540.22955"
       y="24.259777"
       id="text2432"><tspan
         sodipodi:role="line"
         id="tspan2434"
         x="540.22955"
         y="24.259777" /></text>
    <g
       id="g5408"
       transform="translate(-7.8284267,-53)">
      <g
         id="g2425"
         transform="translate(519,2.3302164e-8)">
        <text
           xml:space="preserve"
           style="font-size:12px;font-style:normal;font-variant:normal;font-weight:normal;font-stretch:normal;fill:#d40000;fill-opacity:1;stroke:none;stroke-width:1px;stroke-linecap:butt;stroke-linejoin:miter;stroke-opacity:1;font-family:Bitstream Vera Serif;-inkscape-font-specification:Bitstream Vera Serif"
           x="169.67009"
           y="364.66495"
           id="text5396"><tspan
             dy="0 0 0 1 1"
             dx="0 -2 -1.5 0.5 -0.5"
             sodipodi:role="line"
             id="tspan5398"
             x="169.67009"
             y="364.66495"
             style="font-size:36px;font-style:normal;font-variant:normal;font-weight:normal;font-stretch:normal;fill:#d40000;fill-opacity:1;font-family:Cooper Black;-inkscape-font-specification:Cooper Black">dpkg-</tspan></text>
        <text
           xml:space="preserve"
           style="font-size:12px;font-style:normal;font-variant:normal;font-weight:normal;font-stretch:normal;fill:#d40000;fill-opacity:1;stroke:none;stroke-width:1px;stroke-linecap:butt;stroke-linejoin:miter;stroke-opacity:1;font-family:Bitstream Vera Serif;-inkscape-font-specification:Bitstream Vera Serif"
           x="157.85637"
           y="392.035"
           id="text5400"><tspan
             dx="0 0 -0.5 -0.5 -1.5 0 0 0 -0.5 -0.5 -0.5"
             sodipodi:role="line"
             id="tspan5402"
             x="157.85637"
             y="392.035"
             style="font-size:36px;font-style:normal;font-variant:normal;font-weight:normal;font-stretch:normal;fill:#d40000;fill-opacity:1;font-family:Cooper Black;-inkscape-font-specification:Cooper Black">reconfigure</tspan></text>
        <text
           xml:space="preserve"
           style="font-size:12px;font-style:normal;font-variant:normal;font-weight:normal;font-stretch:normal;fill:#d40000;fill-opacity:1;stroke:none;stroke-width:1px;stroke-linecap:butt;stroke-linejoin:miter;stroke-opacity:1;font-family:Bitstream Vera Serif;-inkscape-font-specification:Bitstream Vera Serif"
           x="195.88329"
           y="420.40506"
           id="text5404"><tspan
             dy="0 0 0 0 0 0 0.5"
             dx="0 -2.5 -1.5 -0.5 0 -0.5 -1.5 -0.5"
             sodipodi:role="line"
             id="tspan5406"
             x="195.88329"
             y="420.40506"
             style="font-size:36px;font-style:normal;font-variant:normal;font-weight:normal;font-stretch:normal;fill:#d40000;fill-opacity:1;font-family:Cooper Black;-inkscape-font-specification:Cooper Black">yourself!</tspan></text>
      </g>
    </g>
  </g>
</svg>
