<?xml version="1.0" encoding="UTF-8" standalone="no"?>
<!-- Created with Inkscape (http://www.inkscape.org/) -->

<svg
   xmlns:dc="http://purl.org/dc/elements/1.1/"
   xmlns:cc="http://creativecommons.org/ns#"
   xmlns:rdf="http://www.w3.org/1999/02/22-rdf-syntax-ns#"
   xmlns:svg="http://www.w3.org/2000/svg"
   xmlns="http://www.w3.org/2000/svg"
   xmlns:sodipodi="http://sodipodi.sourceforge.net/DTD/sodipodi-0.dtd"
   xmlns:inkscape="http://www.inkscape.org/namespaces/inkscape"
   width="744.09448"
   height="1052.3622"
   id="svg2"
   sodipodi:version="0.32"
   inkscape:version="0.48.4 r9939"
   version="1.0"
   sodipodi:docname="debian_flyer.svg"
   inkscape:output_extension="org.inkscape.output.svg.inkscape"
   inkscape:export-filename="/home/jun/Desktop/kansai_debian/flyer/debian_flyer2.png"
   inkscape:export-xdpi="300.01077"
   inkscape:export-ydpi="300.01077">
  <defs
     id="defs4">
    <marker
       orient="auto"
       markerHeight="3"
       markerWidth="4"
       markerUnits="strokeWidth"
       refY="5"
       refX="10"
       viewBox="0 0 10 10"
       id="ArrowStart">
      <path
         id="path4139"
         d="M 10,0 L 0,5 L 10,10 L 10,0 z " />
    </marker>
    <marker
       orient="auto"
       markerHeight="3"
       markerWidth="4"
       markerUnits="strokeWidth"
       refY="5"
       refX="0"
       viewBox="0 0 10 10"
       id="ArrowEnd">
      <path
         id="path4136"
         d="M 0,0 L 10,5 L 0,10 L 0,0 z " />
    </marker>
  </defs>
  <sodipodi:namedview
     id="base"
     pagecolor="#ffffff"
     bordercolor="#666666"
     borderopacity="1.0"
     gridtolerance="50"
     guidetolerance="50"
     objecttolerance="10"
     inkscape:pageopacity="0.0"
     inkscape:pageshadow="2"
     inkscape:zoom="1.4567299"
     inkscape:cx="445.01144"
     inkscape:cy="780.99202"
     inkscape:document-units="mm"
     inkscape:current-layer="layer4"
     width="210.00001mm"
     height="297.00001mm"
     units="mm"
     gridanglex="8.4666669mm"
     gridanglez="8.4666669mm"
     grid_units="mm"
     showguides="false"
     inkscape:guide-bbox="true"
     inkscape:window-width="982"
     inkscape:window-height="985"
     inkscape:window-x="0"
     inkscape:window-y="35"
     showgrid="false"
     inkscape:object-paths="false"
     inkscape:grid-bbox="false"
     inkscape:guide-points="true"
     inkscape:window-maximized="0">
    <sodipodi:guide
       orientation="vertical"
       position="17.716535"
       id="guide3134" />
    <sodipodi:guide
       orientation="vertical"
       position="726.37795"
       id="guide3136" />
    <sodipodi:guide
       orientation="horizontal"
       position="35.433071"
       id="guide3138" />
    <sodipodi:guide
       orientation="horizontal"
       position="1016.9291"
       id="guide3140" />
    <sodipodi:guide
       orientation="vertical"
       position="223.22835"
       id="guide10083" />
    <sodipodi:guide
       orientation="vertical"
       position="201.9685"
       id="guide10085" />
    <sodipodi:guide
       orientation="vertical"
       position="212.59843"
       id="guide10087" />
    <sodipodi:guide
       orientation="vertical"
       position="655.51181"
       id="guide10183" />
    <sodipodi:guide
       orientation="vertical"
       position="690.94488"
       id="guide2784" />
    <sodipodi:guide
       orientation="vertical"
       position="187.79528"
       id="guide2796" />
    <inkscape:grid
       id="GridFromPre046Settings"
       type="xygrid"
       originx="0px"
       originy="0px"
       spacingx="0.28222223mm"
       spacingy="0.28222223mm"
       color="#0000ff"
       empcolor="#0000ff"
       opacity="0.2"
       empopacity="0.4"
       empspacing="5" />
  </sodipodi:namedview>
  <metadata
     id="metadata7">
    <rdf:RDF>
      <cc:Work
         rdf:about="">
        <dc:format>image/svg+xml</dc:format>
        <dc:type
           rdf:resource="http://purl.org/dc/dcmitype/StillImage" />
        <dc:title />
      </cc:Work>
    </rdf:RDF>
  </metadata>
  <g
     inkscape:label="Layer 1"
     inkscape:groupmode="layer"
     id="layer1"
     style="display:inline"
     sodipodi:insensitive="true">
    <rect
       style="fill:#ffffff;fill-opacity:1;stroke:none"
       id="rect2338"
       width="744.09448"
       height="1052.3622"
       x="0"
       y="0" />
    <path
       style="fill:#d62766;fill-opacity:1;stroke:none"
       d="m -0.65625,0.09375 0,49.3125 C 1.8236995,47.128722 3.9572077,45.07351 5.375,43.375 l 0.4375,3.09375 c 14.785451,-13.872454 41.170498,-23.165442 56,-29.78125 -3.896599,4.317096 8.721769,-0.424027 17.8125,-0.96875 -2.863379,1.609941 -5.731095,2.844457 -8.40625,4.71875 10.92089,-2.579124 10.394108,1.094774 21.53125,-0.375 -3.908613,0.560741 -8.655135,2.11078 -7.90625,2.6875 12.470719,1.441622 14.37664,-3.832523 25.90625,0 l -0.71875,-3.40625 c 16.03092,5.78683 19.39994,4.800396 36.8125,14.03125 6.11521,0.29639 6.71061,-3.756352 15.9375,0 1.62992,2.847361 -0.37262,3.385003 10.96875,10.125 1.2655,-0.51661 -2.26399,-3.702914 -5.03125,-6.25 2.57013,1.373292 5.18846,2.91809 7.78125,4.625 l 0,-41.78125 -177.15625,0 z m 96.875,48.625 c -9.938161,0.06964 -18.930299,1.575442 -25.03125,4.5625 2.066439,-1.83024 10.283415,-2.5943 7.8125,-4 -23.527769,2.330751 -18.259981,8.17982 -36.28125,12.78125 -4.941833,4.753611 14.420298,-3.835543 4,2.34375 -9.667411,2.675158 -14.171088,-1.657237 -28.5,13.15625 1.281512,2.05042 9.0862,-6.119152 2.5625,2.0625 -5.444171,-0.670201 -13.4356659,4.266783 -21.4375,11.0625 l 0,211.84375 c 3.7639041,5.26686 7.9558813,10.6028 8.75,11.96875 L 9.75,311.53125 c -0.2362789,4.26904 3.070708,9.80449 9.25,17.4375 L 24.15625,328.75 c 2.130515,4.20496 9.884191,11.79584 14.59375,12.15625 l -3.125,4.0625 c 11.825958,3.74042 5.716849,4.99496 20.25,10.125 l -2.90625,-5.1875 c 7.412749,6.42759 9.703911,12.0742 20.15625,17 14.517135,5.06998 16.418919,3.02823 31.3125,7.28125 C 91.8146,373.84309 76.967765,373.97446 67,370.40625 42.794815,363.85376 19.339366,349.52649 -0.65625,330.09375 l 0,723.59375 177.15625,0 0,-826.71875 c -0.21696,0.17523 -0.44039,0.36318 -0.65625,0.53125 -26.46723,21.19702 -58.05692,23.96798 -88.625,12.5625 -0.03717,0.0303 -0.04035,0.0866 -0.0625,0.125 0.224256,-0.75069 0.05212,-1.5343 -2.125,-3 C 59.112659,217.32405 43.806723,200.42186 49.125,161.34375 c 3.940651,-2.98753 5.007813,-19.27803 14.0625,-24.96875 5.538537,-12.21842 22.088372,-23.46967 39.78125,-23.75 18.06933,-0.98516 33.31972,9.65966 40.96875,19.6875 -13.93645,-12.99934 -36.78703,-16.96711 -56.25,-7.34375 -19.911501,8.96258 -31.690782,30.89699 -29.96875,52.71875 0.73687,-1.08128 1.374342,-0.40257 1.71875,-3.09375 -0.596705,42.4421 45.74238,73.53426 79.09375,57.84375 l 0.40625,0.875 c 13.51595,-3.69236 11.78657,-6.74134 20.625,-12.8125 -0.68882,1.40967 -5.94419,5.06092 -2.8125,5.125 3.47457,-0.93496 12.77034,-9.14388 19.75,-15.40625 l 0,-120.0625 c -10.25185,-14.725825 -23.86159,-26.830369 -36.65625,-32.8125 -12.53817,-5.775739 -29.09999,-8.726778 -43.625,-8.625 z M 154.375,157.8125 c 0.73687,-0.0195 1.23543,1.8364 0.875,7.21875 -1.07727,4.33311 -1.96921,-2.66931 -3.0625,-3.25 0.47656,-2.04842 1.45063,-3.94923 2.1875,-3.96875 z M 150.46875,180 c -0.90291,5.55726 -3.48017,10.93948 -7.03125,15.84375 0.38343,-4.17661 -9.9204,1.82119 2.0625,-13.28125 -1.04924,4.26904 -11.18522,15.47781 0,8.4375 2.0344,-3.61226 4.17181,-7.04333 4.96875,-11 z m -24.40625,23.09375 c -1.73404,1.65795 -3.6812,3.34526 -5.84375,5.03125 -7.80522,-1.20142 -14.91256,-4.16991 -8.9375,-4.25 l 0,-0.0312 c 4.98989,0.45254 9.93153,0.43939 14.78125,-0.75 z m -75.46875,0.8125 c 1.393645,2.75124 2.605041,5.51379 4.6875,7.8125 l 1.84375,5.4375 c -2.518973,-4.237 -5.217699,-8.40028 -6.53125,-13.25 z m -4.625,8.1875 c 4.941832,9.54327 7.622505,12.42844 11.21875,19.46875 -5.021927,-4.17693 -8.137866,-9.94696 -12.0625,-15.28125 l 0.84375,-4.1875 z m 7.625,6.1875 c 3.159729,0.68881 14.007419,17.60451 22.125,20.34375 -4.801667,-3.84854 -8.52869,-8.72808 -11.96875,-13.75 6.475643,7.46481 14.366596,13.54176 22.96875,17.5625 -0.236501,-0.90948 0.1601,-1.51903 0.375,-2.125 -0.231323,1.38018 5.912084,6.10722 10.5,8.46875 11.65376,4.28506 24.83128,4.43494 35.1875,4.0625 -22.41445,9.36706 -65.202996,-9.50092 -79.1875,-34.5625 z"
       id="rect2160"
       inkscape:connector-curvature="0" />
    <path
       style="fill:#ffffff;fill-rule:evenodd;stroke:none"
       d="m 88.594845,17.730753 c 3.191767,0.560701 6.900144,1.001181 6.367515,1.766124 3.488117,-0.764943 4.285058,-1.453756 -6.367515,-1.766124"
       id="path5239"
       inkscape:connector-curvature="0" />
    <path
       style="fill:#ffff00;fill-rule:evenodd;stroke:none"
       d="m 94.978379,19.496877 -2.238642,0.452574 2.098477,-0.188222 0.140165,-0.264352"
       id="path5241"
       inkscape:connector-curvature="0" />
    <path
       style="fill:#ffffff;fill-rule:evenodd;stroke:none"
       d="m 89.784249,14.867373 c 4.036764,-1.469735 9.931722,-0.796941 14.236801,-1.786028 -5.586592,0.456459 -11.157167,0.73683 -16.663666,1.441622 l 2.426865,0.328427"
       id="path5251"
       inkscape:connector-curvature="0" />
    <path
       style="fill:none;stroke:#d62766;stroke-width:2.36405325;stroke-linecap:butt;stroke-linejoin:miter;stroke-miterlimit:4;stroke-opacity:1;stroke-dasharray:none"
       d="m 173.41336,146.66885 570.67159,0"
       id="path5710"
       inkscape:connector-curvature="0" />
    <g
       id="g2380"
       transform="translate(-12.44755,2)">
      <g
         transform="matrix(2.2805426,0,0,2.2805426,-646.50108,-964.57622)"
         id="g5347">
        <path
           style="fill:#000000;fill-rule:evenodd;stroke:none"
           d="m 385.49324,465.80169 c -0.043,0.047 -0.043,7.504 -0.137,9.45 -0.09,1.574 -0.23,4.953 -3.56602,4.953 -3.42599,0 -4.26199,-3.938 -4.539,-5.649 -0.32098,-1.898 -0.32098,-3.472 -0.32098,-4.168 0,-2.222 0.13699,-8.433 5.375,-8.433 1.575,0 2.453,0.465 3.149,0.832 l 0.043,3.011 -0.004,0.004 z m -13.438,5.469 c 0,13.063 6.949,13.063 7.96899,13.063 2.87101,0 4.72701,-1.575 5.51201,-4.305 l 0.09,4.121 c 0.878,-0.047 1.757,-0.137 3.195,-0.137 0.508,0 0.926,0 1.297,0.047 0.367,0 0.738,0.043 1.156,0.09 -0.738,-1.48 -1.297,-4.816 -1.297,-12.047 0,-7.043 0,-18.949 0.602,-22.562 -1.664,0.785 -3.102,1.296 -6.254,1.574 1.25,1.344 1.25,2.035 1.25,8.152 -0.879,-0.273 -1.988,-0.597 -3.89101,-0.597 -8.293,0 -9.63699,7.226 -9.63699,12.601"
           id="path5349"
           inkscape:connector-curvature="0" />
        <path
           style="fill:#000000;fill-rule:evenodd;stroke:none"
           d="m 397.18424,468.90769 c 0.047,-3.844 0.832,-7.274 4.121,-7.274 3.614,0 3.891,3.985 3.797,7.274 l -7.922,0 0.004,0 z m 12.512,0.465 c 0,-5.422 -1.063,-10.75 -7.922,-10.75 -9.449,0 -9.449,10.472 -9.449,12.695 0,9.402 4.215,13.109 11.305,13.109 3.148,0 4.679,-0.461 5.511,-0.691 -0.043,-1.668 0.184,-2.731 0.465,-4.168 -0.973,0.602 -2.223,1.391 -5.004,1.391 -7.226,0 -7.32,-6.579 -7.32,-8.852 l 12.324,0 0.09,-2.73"
           id="path5351"
           inkscape:connector-curvature="0" />
        <path
           style="fill:#000000;fill-rule:evenodd;stroke:none"
           d="m 424.77024,471.36469 c 0,4.308 -0.785,10.101 -6.16,10.101 -0.738,0 -1.668,-0.14 -2.27,-0.277 -0.089,-1.668 -0.089,-4.539 -0.089,-7.875 0,-3.984 0.414,-6.066 0.738,-7.09 0.969,-3.285 3.148,-3.332 3.562,-3.332 3.52,0 4.215,4.863 4.215,8.477 l 0.004,-0.004 z m -13.297,5.051 c 0,3.425 0,5.375 -0.554,6.855 1.898,0.738 4.261,1.156 7.089,1.156 1.805,0 7.043,0 9.868,-5.789 1.343,-2.683 1.804,-6.301 1.804,-9.035 0,-1.668 -0.183,-5.324 -1.527,-7.644 -1.297,-2.176 -3.383,-3.286 -5.606,-3.286 -4.445,0 -5.742,3.704 -6.437,5.606 0,-2.359 0.043,-10.609 0.414,-14.824 -3.008,1.39 -4.863,1.617 -6.855,1.804 1.804,0.739 1.804,3.797 1.804,13.762 l 0,11.399"
           id="path5353"
           inkscape:connector-curvature="0" />
        <path
           style="fill:#000000;fill-rule:evenodd;stroke:none"
           d="m 438.59024,484.14969 c -0.925,-0.137 -1.574,-0.23 -2.918,-0.23 -1.476,0 -2.5,0.089 -3.562,0.23 0.461,-0.879 0.644,-1.297 0.785,-4.309 0.184,-4.125 0.231,-15.152 -0.09,-17.468 -0.23,-1.762 -0.644,-2.036 -1.297,-2.5 3.797,-0.368 4.864,-0.649 6.625,-1.481 -0.367,2.035 -0.414,3.059 -0.414,6.16 -0.089,15.989 -0.136,17.7 0.879,19.602"
           id="path5355"
           inkscape:connector-curvature="0" />
        <path
           style="fill:#000000;fill-rule:evenodd;stroke:none"
           d="m 453.42624,471.03669 c -0.089,2.918 -0.136,4.957 -0.925,6.578 -0.973,2.086 -2.594,2.683 -3.797,2.683 -2.782,0 -3.383,-2.312 -3.383,-4.585 0,-4.352 3.891,-4.68 5.648,-4.68 l 2.453,0 0.004,0.004 z m -12.742,5.703 c 0,2.918 0.879,5.836 3.477,7.09 1.156,0.507 2.312,0.507 2.683,0.507 4.262,0 5.696,-3.148 6.578,-5.093 -0.046,2.035 0,3.285 0.137,4.91 0.832,-0.047 1.668,-0.137 3.059,-0.137 0.785,0 1.527,0.09 2.312,0.137 -0.508,-0.785 -0.785,-1.25 -0.926,-3.059 -0.089,-1.758 -0.089,-3.519 -0.089,-5.972 l 0.047,-9.45 c 0,-3.523 -0.926,-6.996 -7.879,-6.996 -4.582,0 -7.27,1.387 -8.614,2.086 0.555,1.016 1.02,1.895 1.434,3.891 1.805,-1.574 4.172,-2.406 6.578,-2.406 3.848,0 3.848,2.547 3.848,6.16 -0.879,-0.043 -1.621,-0.137 -2.875,-0.137 -5.883,0 -9.778,2.266 -9.778,8.477"
           id="path5357"
           inkscape:connector-curvature="0" />
        <path
           style="fill:#000000;fill-rule:evenodd;stroke:none"
           d="m 480.11824,479.56369 c 0.047,1.574 0.047,3.242 0.691,4.586 -1.019,-0.09 -1.621,-0.23 -3.519,-0.23 -1.114,0 -1.715,0.089 -2.594,0.23 0.184,-0.602 0.277,-0.832 0.367,-1.621 0.137,-1.063 0.231,-4.633 0.231,-5.883 l 0,-5.004 c 0,-2.176 0,-5.328 -0.137,-6.437 -0.09,-0.785 -0.32,-2.918 -3.012,-2.918 -2.641,0 -3.519,1.941 -3.844,3.519 -0.367,1.621 -0.367,3.383 -0.367,10.239 0.043,5.929 0.043,6.484 0.508,8.105 -0.785,-0.09 -1.758,-0.184 -3.148,-0.184 -1.114,0 -1.852,0.043 -2.778,0.184 0.324,-0.738 0.508,-1.109 0.602,-3.703 0.094,-2.547 0.277,-15.059 -0.141,-18.024 -0.226,-1.808 -0.691,-2.222 -1.199,-2.687 3.754,-0.184 4.953,-0.785 6.113,-1.387 l 0,4.91 c 0.555,-1.437 1.711,-4.632 6.348,-4.632 5.793,0 5.836,4.214 5.883,6.992 l 0,13.945"
           id="path5359"
           inkscape:connector-curvature="0" />
        <path
           style="fill:#d62766;fill-rule:evenodd;stroke:none"
           d="m 438.98124,451.82969 -3.836,3.836 -3.836,-3.836 3.836,-3.836 3.836,3.836"
           id="path5361"
           inkscape:connector-curvature="0" />
      </g>
      <path
         id="text10250"
         d="m 483.9372,84.435482 -3.648,0 0,20.543998 -3.904,0 0,-20.543998 -3.68,0 0,-3.904 11.232,0 0,3.904 m 12.76758,20.543998 -3.904,0 0,-10.271998 -3.424,0 0,10.271998 -3.904,0 0,-24.447998 3.904,0 0,10.272 3.424,0 0,-10.272 3.904,0 0,24.447998 m 11.90397,0 -9.76,0 0,-24.415998 9.76,0 0,3.904 -5.856,0 0,6.336 4.64,0 0,3.936 -4.64,0 0,6.335998 5.856,0 0,3.904 m 19.42415,-5.631998 c -1e-5,1.557338 -0.55467,2.890668 -1.664,3.999998 -1.08801,1.088 -2.4,1.632 -3.936,1.632 -1.55733,0 -2.89067,-0.544 -4,-1.632 -1.088,-1.10933 -1.632,-2.44266 -1.632,-3.999998 l 0,-18.816 3.904,0 0,18.816 c 0,0.469338 0.16,0.874668 0.48,1.215998 0.34133,0.32001 0.75733,0.48001 1.248,0.48 0.46933,1e-5 0.864,-0.15999 1.184,-0.48 0.34133,-0.34133 0.512,-0.74666 0.512,-1.215998 l 0,-18.816 3.904,0 0,18.816 m 13.24805,5.631998 -3.904,0 0,-0.032 -3.424,-12.191998 0,12.223998 -3.904,0 0,-24.447998 3.904,0 0,0.032 3.424,12.192 0,-12.224 3.904,0 0,24.447998 m 6.04798,0 -3.904,0 0,-24.447998 3.904,0 0,24.447998 m 14.84785,-24.447998 -4.16,24.447998 -4.224,0 -4.32,-24.447998 3.904,0 2.496,14.08 2.4,-14.08 3.904,0 m 11.48764,24.447998 -9.76,0 0,-24.415998 9.76,0 0,3.904 -5.856,0 0,6.336 4.64,0 0,3.936 -4.64,0 0,6.335998 5.856,0 0,3.904 m 12.73567,0 -3.488,0 c -0.23467,-0.27733 -0.37334,-1.36533 -0.416,-3.264 -10e-6,-1.17333 0.0107,-2.34666 0.032,-3.519998 -0.0213,-1.087993 -0.096,-1.941325 -0.224,-2.56 -0.0853,-0.469324 -0.40534,-0.789324 -0.96,-0.96 -0.448,-0.149323 -1.20534,-0.22399 -2.272,-0.224 l 0,10.527998 -3.904,0 0,-24.447998 7.808,0 c 0.87466,2.4e-5 1.62132,0.309357 2.24,0.928 0.63999,0.618689 0.95999,1.365355 0.96,2.24 l 0,5.888 c -1e-5,0.874681 -0.32001,1.621347 -0.96,2.24 -0.61868,0.618679 -1.36534,0.928012 -2.24,0.928 0.98133,0.213345 1.69599,0.501345 2.144,0.864 0.53332,0.405344 0.79999,1.397343 0.8,2.976 -10e-6,4.138668 -10e-6,5.887998 0,5.247998 0.0427,1.87734 0.20266,2.92267 0.48,3.136 m -3.648,-16.287998 0,-2.752 c -10e-6,-0.554648 -0.20267,-1.034647 -0.608,-1.44 -0.38401,-0.405313 -0.86401,-0.607979 -1.44,-0.608 l -1.632,0 0,6.848 1.632,0 c 0.57599,1.4e-5 1.05599,-0.202653 1.44,-0.608 0.40533,-0.405319 0.60799,-0.885318 0.608,-1.44 m 18.39989,8.928 c -0.0213,3.114668 -1.02401,5.269338 -3.008,6.463998 -1.00267,0.576 -2.31467,0.864 -3.936,0.864 -0.98134,0 -1.94134,-0.33066 -2.88,-0.992 -0.93867,-0.66133 -1.664,-1.48266 -2.176,-2.464 -0.704,-1.77066 -0.992,-3.519991 -0.864,-5.247998 l 3.84,0.032 c -0.064,8e-6 -0.064,0.373341 0,1.12 0.064,0.682673 0.11733,1.098673 0.16,1.248 0.23466,0.874672 0.62933,1.493338 1.184,1.855998 0.46933,0.32001 0.91733,0.48001 1.344,0.48 0.66133,1e-5 1.21599,-0.29866 1.664,-0.896 0.44799,-0.61866 0.67199,-1.311992 0.672,-2.079998 -10e-6,-0.319993 -0.0427,-0.629326 -0.128,-0.928 -0.46934,-1.045325 -1.33334,-2.047991 -2.592,-3.008 -1.088,-0.746656 -2.176,-1.503988 -3.264,-2.272 -1.13067,-0.91732 -1.81333,-1.930652 -2.048,-3.04 -0.17067,-0.725317 -0.256,-1.439983 -0.256,-2.144 0,-1.557314 0.39467,-2.815979 1.184,-3.776 1.23733,-1.578643 2.79466,-2.367976 4.672,-2.368 0.53333,2.4e-5 1.06666,0.06402 1.6,0.192 1.40799,0.36269 2.52799,1.290689 3.36,2.784 0.55466,1.002687 0.83199,2.272019 0.832,3.808 -0.42668,1.7e-5 -1.05601,1.7e-5 -1.888,0 -0.91734,-0.02132 -1.55734,-0.03198 -1.92,-0.032 0.0213,-0.213316 -0.0213,-0.586649 -0.128,-1.12 -0.21334,-0.938647 -0.72534,-1.461313 -1.536,-1.568 -0.66134,-0.06398 -1.17334,0.09602 -1.536,0.48 -0.36267,0.384019 -0.544,0.874685 -0.544,1.472 0,0.490684 0.11733,0.938684 0.352,1.344 0.34133,0.597349 0.96,1.162682 1.856,1.696 1.36533,0.832014 2.10133,1.29068 2.208,1.376 2.53866,2.026678 3.79732,4.266676 3.776,6.72 m 14.27187,7.359998 -3.904,0 -0.416,-2.208 -4.096,0 -0.384,2.208 -3.904,0 4.128,-24.447998 4.224,0 4.352,24.447998 m -4.8,-4.896 -1.6,-9.183998 -1.568,9.183998 3.168,0 m 16.4478,4.896 -9.76,0 0,-24.447998 3.904,0 0,20.511998 5.856,0 0,3.936 m -142.14245,29.024 c -10e-6,1.70667 -0.59734,3.16801 -1.792,4.384 -1.19468,1.19467 -2.63467,1.792 -4.32,1.792 -1.68534,0 -3.12534,-0.59733 -4.32,-1.792 -1.19467,-1.21599 -1.792,-2.67733 -1.792,-4.384 l 0,-12.352 c 0,-1.70664 0.59733,-3.15731 1.792,-4.352 1.19466,-1.19464 2.63466,-1.79197 4.32,-1.792 1.68533,3e-5 3.12532,0.59736 4.32,1.792 1.19466,1.19469 1.79199,2.64536 1.792,4.352 l 0,12.352 m -3.904,0 0,-12.352 c -10e-6,-0.59731 -0.22401,-1.10931 -0.672,-1.536 -0.42667,-0.44798 -0.93867,-0.67198 -1.536,-0.672 -0.61867,2e-5 -1.14134,0.22402 -1.568,0.672 -0.42667,0.42669 -0.64,0.93869 -0.64,1.536 l 0,12.352 c 0,0.61867 0.21333,1.14134 0.64,1.568 0.42666,0.42667 0.94933,0.64001 1.568,0.64 0.59733,1e-5 1.10933,-0.21333 1.536,-0.64 0.44799,-0.42666 0.67199,-0.94933 0.672,-1.568 m 17.05555,-8 c -1e-5,1.00268 -0.36267,1.86668 -1.088,2.592 -0.704,0.70401 -1.55734,1.05601 -2.56,1.056 l -3.68,0 0,10.528 -3.904,0 0,-24.448 7.584,0 c 1.00266,3e-5 1.856,0.36269 2.56,1.088 0.72533,0.70402 1.08799,1.56802 1.088,2.592 l 0,6.592 m -3.424,-1.472 0,-3.68 c 0,-0.46931 -0.17067,-0.86398 -0.512,-1.184 -0.32,-0.34131 -0.71467,-0.51198 -1.184,-0.512 l -2.208,0 0,7.104 2.208,0 0,-0.032 c 0.46933,2e-5 0.864,-0.15998 1.184,-0.48 0.34133,-0.34132 0.512,-0.74665 0.512,-1.216 m 14.97642,15.648 -9.76,0 0,-24.416 9.76,0 0,3.904 -5.856,0 0,6.336 4.64,0 0,3.936 -4.64,0 0,6.336 5.856,0 0,3.904 m 12.73567,0 -3.488,0 c -0.23467,-0.27733 -0.37334,-1.36533 -0.416,-3.264 -10e-6,-1.17333 0.0107,-2.34666 0.032,-3.52 -0.0213,-1.08799 -0.096,-1.94132 -0.224,-2.56 -0.0853,-0.46932 -0.40534,-0.78932 -0.96,-0.96 -0.448,-0.14932 -1.20534,-0.22399 -2.272,-0.224 l 0,10.528 -3.904,0 0,-24.448 7.808,0 c 0.87466,3e-5 1.62132,0.30936 2.24,0.928 0.63999,0.61869 0.95999,1.36536 0.96,2.24 l 0,5.888 c -1e-5,0.87468 -0.32001,1.62135 -0.96,2.24 -0.61868,0.61868 -1.36534,0.92801 -2.24,0.928 0.98133,0.21335 1.69599,0.50135 2.144,0.864 0.53332,0.40535 0.79999,1.39735 0.8,2.976 -10e-6,4.13867 -10e-6,5.888 0,5.248 0.0427,1.87734 0.20266,2.92267 0.48,3.136 m -3.648,-16.288 0,-2.752 c -10e-6,-0.55464 -0.20267,-1.03464 -0.608,-1.44 -0.38401,-0.40531 -0.86401,-0.60798 -1.44,-0.608 l -1.632,0 0,6.848 1.632,0 c 0.57599,2e-5 1.05599,-0.20265 1.44,-0.608 0.40533,-0.40532 0.60799,-0.88532 0.608,-1.44 m 18.20789,16.288 -3.904,0 -0.416,-2.208 -4.096,0 -0.384,2.208 -3.904,0 4.128,-24.448 4.224,0 4.352,24.448 m -4.8,-4.896 -1.6,-9.184 -1.568,9.184 3.168,0 m 14.7323,-15.648 -3.648,0 0,20.544 -3.904,0 0,-20.544 -3.68,0 0,-3.904 11.232,0 0,3.904 m 5.50403,20.544 -3.904,0 0,-24.448 3.904,0 0,24.448 m 13.37585,0 -3.904,0 0,-0.032 -3.424,-12.192 0,12.224 -3.904,0 0,-24.448 3.904,0 0,0.032 3.424,12.192 0,-12.224 3.904,0 0,24.448 m 14.17598,-5.696 c -10e-6,1.57867 -0.58668,2.92267 -1.76,4.032 -1.17334,1.10934 -2.59201,1.664 -4.256,1.664 -1.66401,0 -3.08267,-0.55466 -4.256,-1.664 -1.17334,-1.10933 -1.76,-2.45333 -1.76,-4.032 l 0,-13.312 c 0,-1.57864 0.58666,-2.91198 1.76,-4 1.17333,-1.10931 2.59199,-1.66397 4.256,-1.664 1.66399,3e-5 3.08266,0.55469 4.256,1.664 1.17332,1.08802 1.75999,2.42136 1.76,4 l 0,5.184 -4.192,0 0,-5.184 c -10e-6,-0.46931 -0.18134,-0.87464 -0.544,-1.216 -0.34134,-0.34131 -0.76801,-0.51198 -1.28,-0.512 -0.51201,2e-5 -0.94934,0.17069 -1.312,0.512 -0.34134,0.34136 -0.51201,0.74669 -0.512,1.216 l 0,13.312 c -1e-5,0.49067 0.17066,0.90667 0.512,1.248 0.36266,0.32001 0.79999,0.48001 1.312,0.48 0.51199,1e-5 0.93866,-0.15999 1.28,-0.48 0.36266,-0.34133 0.54399,-0.75733 0.544,-1.248 l 0,-3.2 -1.952,0 0,-3.456 6.144,0 0,6.656 m 21.44017,-1.664 c -0.0214,3.11467 -1.02401,5.26934 -3.008,6.464 -1.00268,0.576 -2.31467,0.864 -3.936,0.864 -0.98134,0 -1.94134,-0.33066 -2.88,-0.992 -0.93867,-0.66133 -1.664,-1.48266 -2.176,-2.464 -0.704,-1.77066 -0.992,-3.51999 -0.864,-5.248 l 3.84,0.032 c -0.064,1e-5 -0.064,0.37334 0,1.12 0.064,0.68268 0.11733,1.09868 0.16,1.248 0.23466,0.87467 0.62933,1.49334 1.184,1.856 0.46933,0.32001 0.91733,0.48001 1.344,0.48 0.66133,10e-6 1.21599,-0.29866 1.664,-0.896 0.44799,-0.61866 0.67199,-1.31199 0.672,-2.08 -1e-5,-0.31999 -0.0427,-0.62932 -0.128,-0.928 -0.46934,-1.04532 -1.33334,-2.04799 -2.592,-3.008 -1.08801,-0.74665 -2.176,-1.50399 -3.264,-2.272 -1.13067,-0.91732 -1.81333,-1.93065 -2.048,-3.04 -0.17067,-0.72531 -0.256,-1.43998 -0.256,-2.144 0,-1.55731 0.39467,-2.81598 1.184,-3.776 1.23733,-1.57864 2.79466,-2.36797 4.672,-2.368 0.53333,3e-5 1.06666,0.064 1.6,0.192 1.40799,0.36269 2.52799,1.29069 3.36,2.784 0.55465,1.00269 0.83199,2.27202 0.832,3.808 -0.42668,2e-5 -1.05601,2e-5 -1.888,0 -0.91734,-0.0213 -1.55734,-0.032 -1.92,-0.032 0.0213,-0.21331 -0.0213,-0.58665 -0.128,-1.12 -0.21334,-0.93864 -0.72534,-1.46131 -1.536,-1.568 -0.66134,-0.064 -1.17334,0.096 -1.536,0.48 -0.36267,0.38402 -0.54401,0.87469 -0.544,1.472 -1e-5,0.49069 0.11733,0.93869 0.352,1.344 0.34133,0.59735 0.95999,1.16268 1.856,1.696 1.36532,0.83202 2.10132,1.29068 2.208,1.376 2.53865,2.02668 3.79732,4.26668 3.776,6.72 m 13.00187,-17.088 -4.64,14.656 0,0 0,9.792 -3.904,0 0,-9.792 0,0 -4.64,-14.656 4.16,0 2.432,8.16 2.432,-8.16 4.16,0 m 12.80086,17.088 c -0.0213,3.11467 -1.02401,5.26934 -3.008,6.464 -1.00267,0.576 -2.31467,0.864 -3.936,0.864 -0.98133,0 -1.94133,-0.33066 -2.88,-0.992 -0.93866,-0.66133 -1.664,-1.48266 -2.176,-2.464 -0.704,-1.77066 -0.992,-3.51999 -0.864,-5.248 l 3.84,0.032 c -0.064,1e-5 -0.064,0.37334 0,1.12 0.064,0.68268 0.11733,1.09868 0.16,1.248 0.23467,0.87467 0.62933,1.49334 1.184,1.856 0.46933,0.32001 0.91733,0.48001 1.344,0.48 0.66133,10e-6 1.216,-0.29866 1.664,-0.896 0.448,-0.61866 0.672,-1.31199 0.672,-2.08 0,-0.31999 -0.0427,-0.62932 -0.128,-0.928 -0.46934,-1.04532 -1.33334,-2.04799 -2.592,-3.008 -1.088,-0.74665 -2.176,-1.50399 -3.264,-2.272 -1.13066,-0.91732 -1.81333,-1.93065 -2.048,-3.04 -0.17066,-0.72531 -0.256,-1.43998 -0.256,-2.144 0,-1.55731 0.39467,-2.81598 1.184,-3.776 1.23733,-1.57864 2.79467,-2.36797 4.672,-2.368 0.53333,3e-5 1.06666,0.064 1.6,0.192 1.40799,0.36269 2.52799,1.29069 3.36,2.784 0.55466,1.00269 0.83199,2.27202 0.832,3.808 -0.42667,2e-5 -1.05601,2e-5 -1.888,0 -0.91734,-0.0213 -1.55734,-0.032 -1.92,-0.032 0.0213,-0.21331 -0.0213,-0.58665 -0.128,-1.12 -0.21334,-0.93864 -0.72534,-1.46131 -1.536,-1.568 -0.66134,-0.064 -1.17333,0.096 -1.536,0.48 -0.36267,0.38402 -0.544,0.87469 -0.544,1.472 0,0.49069 0.11733,0.93869 0.352,1.344 0.34133,0.59735 0.96,1.16268 1.856,1.696 1.36533,0.83202 2.10133,1.29068 2.208,1.376 2.53866,2.02668 3.79732,4.26668 3.776,6.72 m 12.79987,-13.184 -3.648,0 0,20.544 -3.904,0 0,-20.544 -3.68,0 0,-3.904 11.232,0 0,3.904 m 11.36003,20.544 -9.76,0 0,-24.416 9.76,0 0,3.904 -5.856,0 0,6.336 4.64,0 0,3.936 -4.64,0 0,6.336 5.856,0 0,3.904 m 16.63967,0 -3.904,0 0,-12.288 -2.72,12.288 -1.952,0 0,-0.032 0,0.032 -2.656,-11.936 0,11.936 -3.904,0 0,-24.448 4.064,0 3.456,15.456 3.488,-15.456 4.128,0 0,24.448"
         style="font-size:22px;font-style:normal;font-variant:normal;font-weight:normal;font-stretch:normal;text-align:start;line-height:110.00000238%;writing-mode:lr-tb;text-anchor:start;fill:#000000;fill-opacity:1;stroke:none;font-family:QUICKONE"
         inkscape:connector-curvature="0" />
    </g>
    <path
       style="fill:none;stroke:#d62766;stroke-width:2.37401581;stroke-linecap:butt;stroke-linejoin:miter;stroke-miterlimit:4;stroke-opacity:1;stroke-dasharray:none;display:inline"
       d="m 169.9685,997.6111 574.85096,0"
       id="path2698"
       inkscape:connector-curvature="0" />
  </g>
  <g
     inkscape:groupmode="layer"
     id="layer4"
     inkscape:label="text"
     style="display:inline">
    <text
       xml:space="preserve"
       style="font-size:9px;font-style:normal;font-variant:normal;font-weight:normal;font-stretch:normal;text-align:start;line-height:100%;writing-mode:lr-tb;text-anchor:start;fill:#000000;fill-opacity:1;stroke:none;font-family:'IPA P明朝'"
       x="221.44814"
       y="964.02814"
       id="text2800"
       sodipodi:linespacing="100%"><tspan
         sodipodi:role="line"
         id="tspan2802"
         x="221.44814"
         y="964.02814"
         style="font-size:20px;font-style:normal;font-variant:normal;font-weight:bold;font-stretch:normal;text-align:start;line-height:100%;letter-spacing:-1.89447951;writing-mode:lr-tb;text-anchor:start;font-family:aqua_pfont"
         dx="0 -2 -1 0 0 0 0 0 0 0 0 0 0 0 0 0 0 -2 0 1 0 0 -2">ブースにはDebian開発者と勉強会のメンバーがいますので</tspan><tspan
         sodipodi:role="line"
         x="221.44814"
         y="984.02814"
         style="font-size:20px;font-style:normal;font-variant:normal;font-weight:bold;font-stretch:normal;text-align:start;line-height:100%;letter-spacing:-1.89447951;writing-mode:lr-tb;text-anchor:start;font-family:aqua_pfont"
         dx="0 0 0 0 -0.5 0 0 0 -1 2.6381797e-10 0 0"
         dy="0 0 0 0 0 0 0 0 1.5 -1.5 0.5 0"
         id="tspan3154">気軽に声をかけてください。</tspan></text>
    <flowRoot
       xml:space="preserve"
       id="flowRoot2403"
       style="font-size:12px;font-style:normal;font-variant:normal;font-weight:normal;font-stretch:normal;text-align:start;line-height:120.00000477%;writing-mode:lr-tb;text-anchor:start;font-family:'IPA P明朝'"
       transform="translate(-588.52165,-315.49955)"><flowRegion
         id="flowRegion2405"><rect
           id="rect2407"
           width="467.54327"
           height="94.11731"
           x="811.75861"
           y="514.96106"
           style="font-size:12px;font-style:normal;font-variant:normal;font-weight:normal;font-stretch:normal;text-align:start;line-height:120.00000477%;writing-mode:lr-tb;text-anchor:start;font-family:'IPA P明朝'" /></flowRegion><flowPara
         id="flowPara2409"
         style="text-align:start;text-anchor:start">　Debianはあなたのコンピュータのための「フリー」な OS です。Debianは現在 LinuxカーネルとFreeBSDカーネルを基盤とし、35,000 以上もの各種ソフトウェアパッケージを収録しています。これほど多くのソフトウェアを利用できるのは、Debianをおいて他にありません。 </flowPara><flowPara
         id="flowPara2411"
         style="text-align:start;text-anchor:start"> 　Intel x86，IA64，AMD64，ARM，PowerPC，SPARC,MIPSといった多数のアーキテクチャがサポートされており、1,000名にものぼるボランティア開発者たちが、Debianの高品質を維持すべく活動しています。</flowPara></flowRoot>    <rect
       style="opacity:0.6;fill:none;stroke:none;display:inline"
       id="rect2918"
       width="467.71194"
       height="34.803677"
       x="223.23294"
       y="343.77963" />
    <rect
       style="opacity:0.6;fill:none;stroke:none;display:inline"
       id="rect2920"
       width="467.71194"
       height="48.945812"
       x="223.22835"
       y="437.42068" />
    <rect
       style="opacity:0.6;fill:none;stroke:none;display:inline"
       id="rect2922"
       width="467.71194"
       height="44.703171"
       x="223.22835"
       y="539.41925" />
    <g
       id="g3071"
       transform="translate(0,2)">
      <text
         id="text5694"
         y="432.46127"
         x="221.51836"
         style="font-size:12px;font-style:normal;font-weight:normal;fill:#000000;fill-opacity:1;stroke:none;font-family:Systema"
         xml:space="preserve"><tspan
           style="font-size:18px;letter-spacing:-0.54392827;font-family:'IPA Pゴシック'"
           y="432.46127"
           x="221.51836"
           id="tspan5696"
           sodipodi:role="line">Debianは長く使えます</tspan></text>
      <flowRoot
         style="font-size:12px;font-style:normal;font-variant:normal;font-weight:normal;font-stretch:normal;text-align:start;line-height:120.00000477%;writing-mode:lr-tb;text-anchor:start;font-family:'IPA P明朝'"
         transform="translate(-503.77165,183.62792)"
         xml:space="preserve"
         id="flowRoot2429"><flowRegion
           id="flowRegion2431"><rect
             style="font-size:12px;font-style:normal;font-variant:normal;font-weight:normal;font-stretch:normal;text-align:start;line-height:120.00000477%;writing-mode:lr-tb;text-anchor:start;font-family:'IPA P明朝'"
             id="rect2433"
             width="475.23401"
             height="73.798988"
             x="727"
             y="253.36218" /></flowRegion><flowPara
           style="text-align:justify;text-anchor:start"
           id="flowPara2503">　あるパッケージをインストールしようとすると、Debianは関連する他のパッケージも調べて提案してくれます。いらなくなったパッケージも、不要な依存パッケージと合わせて削除してくれます。</flowPara><flowPara
           style="text-align:justify;text-anchor:start"
           id="flowPara2505"> 新しいバージョンがリリースされても、再インストールの必要はありません。今の環境を維持したままで、新しいバージョンに移行することができます。</flowPara></flowRoot>    </g>
    <g
       id="g3063"
       transform="translate(0,4)">
      <text
         sodipodi:linespacing="125%"
         id="text5690"
         y="356.23395"
         x="221.51836"
         style="font-size:18px;font-style:normal;font-variant:normal;font-weight:normal;font-stretch:normal;text-align:start;line-height:125%;writing-mode:lr-tb;text-anchor:start;fill:#000000;fill-opacity:1;stroke:none;font-family:Systema"
         xml:space="preserve"><tspan
           style="font-size:18px;font-style:normal;font-variant:normal;font-weight:normal;font-stretch:normal;text-align:start;line-height:125%;letter-spacing:-0.58925563;writing-mode:lr-tb;text-anchor:start;font-family:'IPA Pゴシック'"
           y="356.23395"
           x="221.51836"
           id="tspan5692"
           sodipodi:role="line">Debianは自由です </tspan></text>
      <flowRoot
         transform="translate(-525.77165,-41.599398)"
         style="font-size:12px;font-style:normal;font-variant:normal;font-weight:normal;font-stretch:normal;text-align:justify;line-height:120.00000477%;writing-mode:lr-tb;text-anchor:start;font-family:'IPA P明朝'"
         id="flowRoot2417"
         xml:space="preserve"><flowRegion
           id="flowRegion2419"><rect
             style="font-size:12px;font-style:normal;font-variant:normal;font-weight:normal;font-stretch:normal;text-align:justify;line-height:120.00000477%;writing-mode:lr-tb;text-anchor:start;font-family:'IPA P明朝'"
             y="401.36218"
             x="749"
             height="52.987804"
             width="468.8894"
             id="rect2421" /></flowRegion><flowPara
           id="flowPara2423">　Debian は無料で使用できるだけでなく、好きな場所で好きなように使う。友人と一緒に使う。ソースコードを読んだり変更する。そうやって変更したものを再配布する。といったことを自由に行うことができます。</flowPara></flowRoot>    </g>
    <g
       id="g3080">
      <text
         id="text5698"
         y="523.08862"
         x="221.51836"
         style="font-size:12px;font-style:normal;font-weight:normal;fill:#000000;fill-opacity:1;stroke:none;font-family:Systema"
         xml:space="preserve"><tspan
           style="font-size:18px;letter-spacing:-0.64282435;font-family:'IPA Pゴシック'"
           y="523.08862"
           x="221.51836"
           id="tspan5700"
           sodipodi:role="line">Debianは安全です</tspan></text>
      <flowRoot
         transform="translate(-723.77165,216.25525)"
         style="font-size:12px;font-style:normal;font-variant:normal;font-weight:normal;font-stretch:normal;text-align:justify;line-height:120.00000477%;writing-mode:lr-tb;text-anchor:start;font-family:'IPA P明朝'"
         id="flowRoot2439"
         xml:space="preserve"><flowRegion
           id="flowRegion2441"><rect
             style="font-size:12px;font-style:normal;font-variant:normal;font-weight:normal;font-stretch:normal;text-align:justify;line-height:120.00000477%;writing-mode:lr-tb;text-anchor:start;font-family:'IPA P明朝'"
             y="310.36218"
             x="947"
             height="45.878681"
             width="468.98126"
             id="rect2443" /></flowRegion><flowPara
           id="flowPara2507">　発見されたセキュリティ問題については、Debianセキュリティチームがほぼ48時間以内に対策を施します。Debianのパッケージ管理システムを使えば、これらの更新版をすぐに適用できますし、不要なパッケージを削除し、必要なパッケージだけを構成することも簡単にできます。</flowPara></flowRoot>    </g>
    <text
       xml:space="preserve"
       style="font-size:9px;font-style:normal;font-variant:normal;font-weight:normal;font-stretch:normal;text-align:start;line-height:125%;writing-mode:lr-tb;text-anchor:start;fill:#000000;fill-opacity:1;stroke:none;display:inline;font-family:'IPA明朝'"
       x="223.22835"
       y="771.49738"
       id="text8171"
       sodipodi:linespacing="125%"><tspan
         sodipodi:role="line"
         id="tspan8173"
         x="223.22835"
         y="771.49738"
         style="font-size:16px;letter-spacing:-1.01015258;font-family:'IPA Pゴシック'">インターネット上での情報は？</tspan></text>
    <text
       xml:space="preserve"
       style="font-size:9px;font-style:normal;font-variant:normal;font-weight:bold;font-stretch:normal;text-align:start;line-height:125%;writing-mode:lr-tb;text-anchor:start;fill:#000000;fill-opacity:1;stroke:none;display:inline;font-family:'IPA明朝'"
       x="223.22835"
       y="645.50177"
       id="text8163"
       sodipodi:linespacing="125%"><tspan
         sodipodi:role="line"
         id="tspan8165"
         x="223.22835"
         y="645.50177"
         style="font-size:16px;font-weight:normal;letter-spacing:-0.74432296;font-family:'IPA Pゴシック'">関東・関西にて毎月勉強会を開いています</tspan></text>
    <flowRoot
       xml:space="preserve"
       id="flowRoot2481"
       style="font-size:10px;font-style:normal;font-variant:normal;font-weight:bold;font-stretch:normal;text-align:start;line-height:100%;writing-mode:lr-tb;text-anchor:start;display:inline;font-family:Sans"
       transform="translate(17.04835,-236.35203)"><flowRegion
         id="flowRegion2483"><rect
           id="rect2485"
           width="453.51181"
           height="66.566933"
           x="202"
           y="950.36218"
           style="font-size:10px;font-style:normal;font-variant:normal;font-weight:bold;font-stretch:normal;text-align:start;line-height:100%;writing-mode:lr-tb;text-anchor:start;font-family:Sans" /></flowRegion><flowPara
         id="flowPara2489"
         style="font-size:10px;font-style:normal;font-variant:normal;font-weight:bold;font-stretch:normal;text-align:start;line-height:129.99999523%;writing-mode:lr-tb;text-anchor:start;font-family:Sans">・東京エリアDebian勉強会：http://tokyodebian.alioth.debian.org/</flowPara><flowPara
         id="flowPara2527"
         style="font-size:10px;font-style:normal;font-variant:normal;font-weight:bold;font-stretch:normal;text-align:start;line-height:129.99999523%;writing-mode:lr-tb;text-anchor:start;font-family:Sans">・関西Debian勉強会：http://wiki.debian.org/KansaiDebianMeeting</flowPara><flowPara
         style="font-size:10px;font-style:normal;font-variant:normal;font-weight:bold;font-stretch:normal;text-align:start;line-height:129.99999523%;writing-mode:lr-tb;text-anchor:start;font-family:Sans"
         id="flowPara3159">・福岡Debian勉強会：http://fukuoka-debian.github.io/web/</flowPara></flowRoot>    <flowRoot
       xml:space="preserve"
       id="flowRoot2536"
       transform="translate(0.3696599,204.70058)"
       style="font-size:12px;font-style:normal;font-variant:normal;font-weight:normal;font-stretch:normal;text-align:start;line-height:120.00000477%;writing-mode:lr-tb;text-anchor:start;font-family:'IPA P明朝'"><flowRegion
         id="flowRegion2538"><rect
           id="rect2540"
           width="465.94489"
           height="95"
           x="224"
           y="685.36218"
           style="font-size:12px;font-style:normal;font-variant:normal;font-weight:normal;font-stretch:normal;text-align:start;line-height:120.00000477%;writing-mode:lr-tb;text-anchor:start;font-family:'IPA P明朝'" /></flowRegion><flowPara
         id="flowPara2548"
         style="text-align:justify;text-anchor:start">　ブースでは2013年5月にリリースされたDebian GNU/Linux 7.x (Wheezy)を配布しています。i386(32bit PC),amd64(64bit PC)用の2アーキテキクチャで使えるインストールCDです（一部ネットワークよりダウンロードが必要になります）。</flowPara><flowPara
         style="text-align:justify;text-anchor:start"
         id="flowPara2784" /><flowPara
         id="flowPara2550"
         style="text-align:justify;text-anchor:start" /></flowRoot>    <flowRoot
       xml:space="preserve"
       id="flowRoot2554"
       style="font-size:12px;font-style:normal;font-variant:normal;font-weight:normal;font-stretch:normal;text-align:start;line-height:120.00000477%;writing-mode:lr-tb;text-anchor:start;font-family:'IPA P明朝'"
       transform="translate(-12.77165,-181.79394)"><flowRegion
         id="flowRegion2556"><rect
           id="rect2558"
           width="454.94489"
           height="59"
           x="236"
           y="832.36218"
           style="font-size:12px;font-style:normal;font-variant:normal;font-weight:normal;font-stretch:normal;text-align:start;line-height:120.00000477%;writing-mode:lr-tb;text-anchor:start;font-family:'IPA P明朝'" /></flowRegion><flowPara
         id="flowPara2596">　東京／関西/福岡Debian勉強会では、Debianのさまざまなトピックについて、定期的に顔をつきあわせて話し合っています。参加者はDebianユーザのみならず、開発の最前線に立つDebianの公式開発者や開発者予備軍の方もおりますので、普段は聞けないような情報を得るチャンスです。興味を持たれた方は、お気軽にご参加ください。</flowPara><flowPara
         id="flowPara2598">　また、勉強会で話をしてみたい、協力したいという方も歓迎します</flowPara><flowPara
         id="flowPara2600" /><flowPara
         id="flowPara2602" /><flowPara
         id="flowPara2604" /><flowPara
         id="flowPara2606" /><flowPara
         id="flowPara2608" /></flowRoot>    <flowRoot
       xml:space="preserve"
       id="flowRoot2586"
       style="font-size:12px;font-style:normal;font-variant:normal;font-weight:normal;font-stretch:normal;text-align:start;line-height:120.00000477%;writing-mode:lr-tb;text-anchor:start;font-family:'IPA P明朝'"
       transform="translate(-20.771643,-123.37973)"><flowRegion
         id="flowRegion2588"><rect
           id="rect2590"
           width="482.37796"
           height="62"
           x="244"
           y="900.36218"
           style="font-size:12px;font-style:normal;font-variant:normal;font-weight:normal;font-stretch:normal;text-align:start;line-height:120.00000477%;writing-mode:lr-tb;text-anchor:start;font-family:'IPA P明朝'" /></flowRegion><flowPara
         id="flowPara2786">　Webブラウザで <flowSpan
   style="font-weight:bold;font-family:Sans"
   id="flowSpan2790">http://www.debian.or.jp/</flowSpan> を開いてみましょう。各種ドキュメントやコミュニティの案内をはじめ、日本語によるDebianの情報はここで得ることができます。また<flowSpan
   style="font-weight:bold;font-family:Sans"
   id="flowSpan2798">http://www.debian.org/</flowSpan>を見ることもお忘れなく。Debianは日本だけでなく全世界の人々によるプロジェクトです。世界に向けたDebianの情報は、ここから発信されています。</flowPara><flowPara
         id="flowPara2788" /></flowRoot>    <g
       id="g2747">
      <g
         id="g2752" />
    </g>
    <g
       id="g2728"
       transform="translate(2.5986516e-6,-118.62237)">
      <g
         transform="matrix(0.08959496,0,0,0.08959496,226.63965,670.95377)"
         id="g10203"
         style="display:inline">
        <path
           style="fill:#d62766;fill-opacity:1;fill-rule:evenodd;stroke:none"
           d="m -197.20376,569.03603 c -8.14423,0.10918 1.53386,4.18129 12.17267,5.81887 2.94764,-2.29807 5.61144,-4.6016 7.97501,-6.86146 -6.61036,1.62121 -13.3681,1.63758 -20.16952,1.02076"
           id="path10205"
           inkscape:connector-curvature="0" />
        <path
           style="fill:#d62766;fill-opacity:1;fill-rule:evenodd;stroke:none"
           d="m -153.42581,558.14067 c 4.85816,-6.6977 8.40079,-14.02859 9.63443,-21.6215 -1.08626,5.39309 -4.00661,10.06565 -6.77958,14.98931 -15.24586,9.59621 -1.43015,-5.69332 0,-11.51219 -16.37579,20.63896 -2.23802,12.36373 -2.83847,18.14438"
           id="path10207"
           inkscape:connector-curvature="0" />
        <path
           style="fill:#d62766;fill-opacity:1;fill-rule:evenodd;stroke:none"
           d="m -137.26835,516.09309 c 0.98254,-14.67271 -2.87669,-10.02199 -4.17583,-4.43784 1.49019,0.7915 2.70746,10.34404 4.17583,4.43784"
           id="path10209"
           inkscape:connector-curvature="0" />
        <path
           style="fill:#d62766;fill-opacity:1;fill-rule:evenodd;stroke:none"
           d="m -228.1431,315.32028 c 4.35051,0.76426 9.40517,1.36465 8.67917,2.4073 4.75444,-1.04265 5.8407,-1.98153 -8.67917,-2.4073"
           id="path10211"
           inkscape:connector-curvature="0" />
        <path
           style="fill:#d62766;fill-opacity:1;fill-rule:evenodd;stroke:none"
           d="m -219.44209,317.72758 -3.05136,0.61687 2.86031,-0.25655 0.19105,-0.36032"
           id="path10213"
           inkscape:connector-curvature="0" />
        <path
           style="fill:#d62766;fill-opacity:1;fill-rule:evenodd;stroke:none"
           d="m -83.703131,521.6554 c 0.491274,13.17706 -3.837394,19.59637 -7.762126,30.9175 l -7.036133,3.49896 c -5.75882,11.19559 0.556777,7.10164 -3.55901,16.01553 -9.00122,7.99685 -27.31482,25.03313 -33.17736,26.61067 -4.26862,-0.0873 2.87669,-5.05466 3.81556,-6.97609 -12.04712,8.27523 -9.68355,12.41285 -28.10632,17.44568 l -0.52948,-1.19543 c -45.45921,21.38678 -108.62065,-20.98286 -107.80732,-78.83308 -0.46944,3.66818 -1.36465,2.75113 -2.36903,4.22496 -2.3472,-29.74391 13.73383,-59.64065 40.87399,-71.85699 26.52878,-13.11701 57.65917,-7.74029 76.65509,9.97832 -10.42592,-13.66833 -31.21226,-28.16637 -55.84146,-26.82356 -24.11609,0.38211 -46.69831,15.71531 -54.24755,32.36949 -12.34189,7.75667 -13.79388,29.97862 -19.16514,34.05074 -7.24902,53.265 13.62466,76.27299 48.95271,103.34764 5.54594,3.73368 1.56116,4.31229 2.30353,7.16714 -11.72507,-5.48044 -22.47305,-13.77205 -31.2996,-23.94687 4.68893,6.84508 9.7436,13.52094 16.28845,18.76666 -11.06457,-3.73368 -25.841,-26.80172 -30.14783,-27.7406 19.06142,34.15991 77.38109,59.89174 107.93286,47.12408 -14.11594,0.50765 -32.06927,0.27293 -47.95379,-5.56777 -6.6704,-3.43346 -15.73713,-10.5351 -14.11593,-11.85608 41.66548,15.54609 84.71744,11.76874 120.79332,-17.12362 9.17044,-7.13984 19.19243,-19.29614 22.090946,-19.46536 -4.350503,6.54486 0.747827,3.13324 -2.581917,8.93573 9.126776,-14.73276 -3.962943,-5.99355 9.426999,-25.43707 l 4.94549,6.82325 c -1.834089,-12.24364 15.180361,-27.10194 13.455444,-46.46359 3.902898,-5.90621 4.350503,6.37564 0.191051,19.97847 5.758821,-15.09849 1.51749,-17.52756 2.985853,-29.97862 1.577535,4.17582 3.690013,8.6355 4.776274,13.04605 -3.733681,-14.57992 3.81556,-24.5637 5.715152,-33.04636 -1.855923,-0.81333 -5.780655,6.43569 -6.675866,-10.76981 0.131007,-7.48374 2.068809,-3.92473 2.816637,-5.75882 -1.451987,-0.82971 -5.311216,-6.5667 -7.652955,-17.58761 1.681249,-2.58191 4.51972,6.69224 6.839624,7.07981 -1.468363,-8.74468 -4.05028,-15.42054 -4.153993,-22.13462 -6.763203,-14.13777 -2.390866,1.87776 -7.871299,-6.05359 -7.183515,-22.45667 5.949872,-5.2075 6.845082,-15.3987 10.895362,15.80264 17.123623,40.30083 19.97847,50.44836 -2.172522,-12.36372 -5.693318,-24.3508 -10.000152,-35.94487 3.329745,1.38103 -5.327592,-25.44252 4.306834,-7.65841 -10.294916,-37.88813 -44.072722,-73.32546 -75.159434,-89.93597 3.77189,3.47178 8.59183,7.82222 6.86691,8.52638 -15.45875,-9.18687 -12.72945,-9.91287 -14.9511,-13.79393 -12.57661,-5.12006 -13.41177,0.40399 -21.74705,0 -23.73399,-12.58201 -28.29738,-11.2392 -50.14815,-19.12687 l 0.97709,4.64532 c -15.7153,-5.22388 -18.31359,1.96498 -35.31167,0 -1.02076,-0.78609 5.44222,-2.92035 10.76982,-3.68466 -15.18037,2.00336 -14.47621,-2.98586 -29.3618,0.52959 3.64634,-2.55473 7.54924,-4.26322 11.45214,-6.45763 -12.39102,0.74248 -29.59652,7.2054 -24.28531,1.32103 -20.21319,9.01761 -56.14168,21.68696 -76.29483,40.59565 l -0.61682,-4.21955 c -9.23594,11.06463 -40.27899,33.09008 -42.7299,47.46257 l -2.45637,0.55677 c -4.79265,8.1224 -7.90951,17.35289 -11.70324,25.71546 -6.27193,10.70431 -9.21411,4.11578 -8.31344,5.79703 -12.34735,25.05497 -18.51011,46.1197 -23.79949,63.39616 3.77735,5.62782 0.0873,34.00707 1.51203,56.71484 -6.17913,112.13598 78.70207,221.00772 171.49824,246.12819 13.58645,4.86361 33.82147,4.68894 51.02698,5.15837 -20.30053,-5.79703 -22.89882,-3.04589 -42.68624,-9.95648 -14.24694,-6.71407 -17.38018,-14.39432 -27.48404,-23.15537 l 3.98477,7.05797 c -19.80925,-6.99247 -11.51218,-8.67918 -27.63142,-13.77751 l 4.26316,-5.56231 c -6.41931,-0.49127 -16.99261,-10.81348 -19.89659,-16.54501 l -7.0143,0.27293 c -8.42261,-10.40409 -12.9205,-17.90966 -12.59844,-23.72853 l -2.26532,4.02845 c -2.55462,-4.39417 -31.04305,-39.06173 -16.26662,-31.00484 -2.7293,-2.49458 -6.39748,-4.07211 -10.33859,-11.25563 l 3.00223,-3.43346 c -7.09617,-9.14861 -13.06788,-20.87367 -12.62028,-24.77657 3.7719,5.1147 6.41932,6.07542 9.01761,6.94879 -17.95333,-44.54216 -18.95771,-2.42907 -32.56054,-45.35003 l 2.86031,-0.21289 c -2.19982,-3.32974 -3.54264,-6.93242 -5.31122,-10.46959 l 1.2391,-12.45652 c -12.92596,-14.92381 -3.60813,-63.55992 -1.73037,-90.21425 1.28277,-10.82986 10.79164,-22.36934 17.99699,-40.49188 l -4.39417,-0.74783 c 8.40078,-14.66725 48.04112,-58.93103 66.39839,-56.67117 8.89206,-11.15191 -1.74675,-0.0437 -3.4935,-2.83847 19.53086,-20.19135 25.67178,-14.26332 38.84884,-17.90966 14.20327,-8.42262 -12.19451,3.28062 -5.4586,-3.19874 24.56369,-6.27193 17.40201,-14.26342 49.47128,-17.44033 3.36795,1.91602 -7.82763,2.96402 -10.64427,5.45871 20.46975,-10.0221 64.78265,-7.71857 93.56583,5.54048 33.39025,15.61159 70.918111,61.75312 72.413767,105.16535 l 1.659414,0.4476 c -0.829707,17.24918 2.625586,37.20581 -3.411624,55.5467 l 4.115783,-8.67917"
           id="path10215"
           inkscape:connector-curvature="0" />
        <path
           style="fill:#d62766;fill-opacity:1;fill-rule:evenodd;stroke:none"
           d="m -286.24442,580.23162 -1.15176,5.71515 c 5.34943,7.27085 9.61259,15.15853 16.45767,20.85185 -4.90182,-9.59622 -8.57,-13.55916 -15.30591,-26.567"
           id="path10217"
           inkscape:connector-curvature="0" />
        <path
           style="fill:#d62766;fill-opacity:1;fill-rule:evenodd;stroke:none"
           d="m -273.55863,579.74035 c -2.83848,-3.13324 -4.49789,-6.91059 -6.39748,-10.66065 1.79042,6.61037 5.48043,12.28185 8.91389,18.05705 l -2.51641,-7.3964"
           id="path10219"
           inkscape:connector-curvature="0" />
        <path
           style="fill:#d62766;fill-opacity:1;fill-rule:evenodd;stroke:none"
           d="m -49.308503,530.99506 -1.195433,3.00769 c -2.172522,15.58976 -6.926961,31.02667 -14.203273,45.35549 8.018681,-15.09848 13.220725,-31.62166 15.398706,-48.36318"
           id="path10221"
           inkscape:connector-curvature="0" />
        <path
           style="fill:#d62766;fill-opacity:1;fill-rule:evenodd;stroke:none"
           d="m -226.52189,311.41738 c 5.50226,-2.0033 13.53732,-1.08626 19.40531,-2.43442 -7.61474,0.62217 -15.20765,1.00433 -22.71322,1.96498 l 3.30791,0.44766"
           id="path10223"
           inkscape:connector-curvature="0" />
        <path
           style="fill:#d62766;fill-opacity:1;fill-rule:evenodd;stroke:none"
           d="m -420.15475,414.3612 c 1.26094,11.7469 -8.82655,16.31029 2.22165,8.55362 5.94442,-13.3954 -2.30353,-3.69001 -2.22165,-8.55362"
           id="path10225"
           inkscape:connector-curvature="0" />
        <path
           style="fill:#d62766;fill-opacity:1;fill-rule:evenodd;stroke:none"
           d="m -433.17896,468.82163 c 2.55462,-7.82763 3.00223,-12.5384 3.98477,-17.07995 -7.05796,9.0176 -3.2424,10.93903 -3.98477,17.07995"
           id="path10227"
           inkscape:connector-curvature="0" />
      </g>
      <text
         sodipodi:linespacing="100%"
         id="text10229"
         y="729.17133"
         x="223.22835"
         style="font-size:9px;font-style:normal;font-variant:normal;font-weight:normal;font-stretch:normal;text-align:start;line-height:100%;writing-mode:lr-tb;text-anchor:start;fill:#000000;fill-opacity:1;stroke:none;font-family:Ume Mincho"
         xml:space="preserve"><tspan
           style="font-size:24px;font-style:normal;font-variant:normal;font-weight:normal;font-stretch:normal;text-align:start;line-height:100%;letter-spacing:-0.67343503;writing-mode:lr-tb;text-anchor:start;font-family:'HGP創英角ｺﾞｼｯｸUB'"
           y="729.17133"
           x="223.22835"
           id="tspan10231"
           sodipodi:role="line"
           dx="0 0 0 0 0 0 0 0 0 0 0 0 0 0 0 0 0 -5"><tspan
   style="font-weight:bold;font-family:Arial"
   id="tspan2803">Debian</tspan>についてもっと知りたい！ </tspan></text>
      <path
         id="path6043"
         d="m 223.75985,733.94231 502.68482,0"
         style="fill:none;stroke:#d62766;stroke-width:1.41732287;stroke-linecap:butt;stroke-linejoin:miter;stroke-miterlimit:4;stroke-opacity:1;stroke-dasharray:1.41732283, 2.83464567;stroke-dashoffset:0;marker-mid:none;marker-end:none;display:inline"
         inkscape:connector-curvature="0" />
    </g>
    <g
       id="g2708"
       transform="translate(-0.03372014,264.70058)">
      <text
         id="text5706"
         y="614.36359"
         x="223.22835"
         style="font-size:12px;font-style:normal;font-weight:normal;fill:#000000;fill-opacity:1;stroke:none;font-family:Systema"
         xml:space="preserve"><tspan
           style="font-size:24px;letter-spacing:-0.37037036;font-family:'HGP創英角ｺﾞｼｯｸUB'"
           y="614.36359"
           x="223.22835"
           id="tspan5708"
           sodipodi:role="line">インストール<tspan
   style="font-size:24px;font-weight:bold;font-family:Arial"
   id="tspan4199">DVD<tspan
   style="font-family:'HGP創英角ｺﾞｼｯｸUB'"
   id="tspan2552">を配布しています</tspan></tspan></tspan></text>
      <g
         transform="matrix(0.08959496,0,0,0.08959496,226.63965,555.6304)"
         id="g10157"
         style="display:inline">
        <path
           style="fill:#d62766;fill-opacity:1;fill-rule:evenodd;stroke:none"
           d="m -197.20376,569.03603 c -8.14423,0.10918 1.53386,4.18129 12.17267,5.81887 2.94764,-2.29807 5.61144,-4.6016 7.97501,-6.86146 -6.61036,1.62121 -13.3681,1.63758 -20.16952,1.02076"
           id="path10159"
           inkscape:connector-curvature="0" />
        <path
           style="fill:#d62766;fill-opacity:1;fill-rule:evenodd;stroke:none"
           d="m -153.42581,558.14067 c 4.85816,-6.6977 8.40079,-14.02859 9.63443,-21.6215 -1.08626,5.39309 -4.00661,10.06565 -6.77958,14.98931 -15.24586,9.59621 -1.43015,-5.69332 0,-11.51219 -16.37579,20.63896 -2.23802,12.36373 -2.83847,18.14438"
           id="path10161"
           inkscape:connector-curvature="0" />
        <path
           style="fill:#d62766;fill-opacity:1;fill-rule:evenodd;stroke:none"
           d="m -137.26835,516.09309 c 0.98254,-14.67271 -2.87669,-10.02199 -4.17583,-4.43784 1.49019,0.7915 2.70746,10.34404 4.17583,4.43784"
           id="path10163"
           inkscape:connector-curvature="0" />
        <path
           style="fill:#d62766;fill-opacity:1;fill-rule:evenodd;stroke:none"
           d="m -228.1431,315.32028 c 4.35051,0.76426 9.40517,1.36465 8.67917,2.4073 4.75444,-1.04265 5.8407,-1.98153 -8.67917,-2.4073"
           id="path10165"
           inkscape:connector-curvature="0" />
        <path
           style="fill:#d62766;fill-opacity:1;fill-rule:evenodd;stroke:none"
           d="m -219.44209,317.72758 -3.05136,0.61687 2.86031,-0.25655 0.19105,-0.36032"
           id="path10167"
           inkscape:connector-curvature="0" />
        <path
           style="fill:#d62766;fill-opacity:1;fill-rule:evenodd;stroke:none"
           d="m -83.703131,521.6554 c 0.491274,13.17706 -3.837394,19.59637 -7.762126,30.9175 l -7.036133,3.49896 c -5.75882,11.19559 0.556777,7.10164 -3.55901,16.01553 -9.00122,7.99685 -27.31482,25.03313 -33.17736,26.61067 -4.26862,-0.0873 2.87669,-5.05466 3.81556,-6.97609 -12.04712,8.27523 -9.68355,12.41285 -28.10632,17.44568 l -0.52948,-1.19543 c -45.45921,21.38678 -108.62065,-20.98286 -107.80732,-78.83308 -0.46944,3.66818 -1.36465,2.75113 -2.36903,4.22496 -2.3472,-29.74391 13.73383,-59.64065 40.87399,-71.85699 26.52878,-13.11701 57.65917,-7.74029 76.65509,9.97832 -10.42592,-13.66833 -31.21226,-28.16637 -55.84146,-26.82356 -24.11609,0.38211 -46.69831,15.71531 -54.24755,32.36949 -12.34189,7.75667 -13.79388,29.97862 -19.16514,34.05074 -7.24902,53.265 13.62466,76.27299 48.95271,103.34764 5.54594,3.73368 1.56116,4.31229 2.30353,7.16714 -11.72507,-5.48044 -22.47305,-13.77205 -31.2996,-23.94687 4.68893,6.84508 9.7436,13.52094 16.28845,18.76666 -11.06457,-3.73368 -25.841,-26.80172 -30.14783,-27.7406 19.06142,34.15991 77.38109,59.89174 107.93286,47.12408 -14.11594,0.50765 -32.06927,0.27293 -47.95379,-5.56777 -6.6704,-3.43346 -15.73713,-10.5351 -14.11593,-11.85608 41.66548,15.54609 84.71744,11.76874 120.79332,-17.12362 9.17044,-7.13984 19.19243,-19.29614 22.090946,-19.46536 -4.350503,6.54486 0.747827,3.13324 -2.581917,8.93573 9.126776,-14.73276 -3.962943,-5.99355 9.426999,-25.43707 l 4.94549,6.82325 c -1.834089,-12.24364 15.180361,-27.10194 13.455444,-46.46359 3.902898,-5.90621 4.350503,6.37564 0.191051,19.97847 5.758821,-15.09849 1.51749,-17.52756 2.985853,-29.97862 1.577535,4.17582 3.690013,8.6355 4.776274,13.04605 -3.733681,-14.57992 3.81556,-24.5637 5.715152,-33.04636 -1.855923,-0.81333 -5.780655,6.43569 -6.675866,-10.76981 0.131007,-7.48374 2.068809,-3.92473 2.816637,-5.75882 -1.451987,-0.82971 -5.311216,-6.5667 -7.652955,-17.58761 1.681249,-2.58191 4.51972,6.69224 6.839624,7.07981 -1.468363,-8.74468 -4.05028,-15.42054 -4.153993,-22.13462 -6.763203,-14.13777 -2.390866,1.87776 -7.871299,-6.05359 -7.183515,-22.45667 5.949872,-5.2075 6.845082,-15.3987 10.895362,15.80264 17.123623,40.30083 19.97847,50.44836 -2.172522,-12.36372 -5.693318,-24.3508 -10.000152,-35.94487 3.329745,1.38103 -5.327592,-25.44252 4.306834,-7.65841 -10.294916,-37.88813 -44.072722,-73.32546 -75.159434,-89.93597 3.77189,3.47178 8.59183,7.82222 6.86691,8.52638 -15.45875,-9.18687 -12.72945,-9.91287 -14.9511,-13.79393 -12.57661,-5.12006 -13.41177,0.40399 -21.74705,0 -23.73399,-12.58201 -28.29738,-11.2392 -50.14815,-19.12687 l 0.97709,4.64532 c -15.7153,-5.22388 -18.31359,1.96498 -35.31167,0 -1.02076,-0.78609 5.44222,-2.92035 10.76982,-3.68466 -15.18037,2.00336 -14.47621,-2.98586 -29.3618,0.52959 3.64634,-2.55473 7.54924,-4.26322 11.45214,-6.45763 -12.39102,0.74248 -29.59652,7.2054 -24.28531,1.32103 -20.21319,9.01761 -56.14168,21.68696 -76.29483,40.59565 l -0.61682,-4.21955 c -9.23594,11.06463 -40.27899,33.09008 -42.7299,47.46257 l -2.45637,0.55677 c -4.79265,8.1224 -7.90951,17.35289 -11.70324,25.71546 -6.27193,10.70431 -9.21411,4.11578 -8.31344,5.79703 -12.34735,25.05497 -18.51011,46.1197 -23.79949,63.39616 3.77735,5.62782 0.0873,34.00707 1.51203,56.71484 -6.17913,112.13598 78.70207,221.00772 171.49824,246.12819 13.58645,4.86361 33.82147,4.68894 51.02698,5.15837 -20.30053,-5.79703 -22.89882,-3.04589 -42.68624,-9.95648 -14.24694,-6.71407 -17.38018,-14.39432 -27.48404,-23.15537 l 3.98477,7.05797 c -19.80925,-6.99247 -11.51218,-8.67918 -27.63142,-13.77751 l 4.26316,-5.56231 c -6.41931,-0.49127 -16.99261,-10.81348 -19.89659,-16.54501 l -7.0143,0.27293 c -8.42261,-10.40409 -12.9205,-17.90966 -12.59844,-23.72853 l -2.26532,4.02845 c -2.55462,-4.39417 -31.04305,-39.06173 -16.26662,-31.00484 -2.7293,-2.49458 -6.39748,-4.07211 -10.33859,-11.25563 l 3.00223,-3.43346 c -7.09617,-9.14861 -13.06788,-20.87367 -12.62028,-24.77657 3.7719,5.1147 6.41932,6.07542 9.01761,6.94879 -17.95333,-44.54216 -18.95771,-2.42907 -32.56054,-45.35003 l 2.86031,-0.21289 c -2.19982,-3.32974 -3.54264,-6.93242 -5.31122,-10.46959 l 1.2391,-12.45652 c -12.92596,-14.92381 -3.60813,-63.55992 -1.73037,-90.21425 1.28277,-10.82986 10.79164,-22.36934 17.99699,-40.49188 l -4.39417,-0.74783 c 8.40078,-14.66725 48.04112,-58.93103 66.39839,-56.67117 8.89206,-11.15191 -1.74675,-0.0437 -3.4935,-2.83847 19.53086,-20.19135 25.67178,-14.26332 38.84884,-17.90966 14.20327,-8.42262 -12.19451,3.28062 -5.4586,-3.19874 24.56369,-6.27193 17.40201,-14.26342 49.47128,-17.44033 3.36795,1.91602 -7.82763,2.96402 -10.64427,5.45871 20.46975,-10.0221 64.78265,-7.71857 93.56583,5.54048 33.39025,15.61159 70.918111,61.75312 72.413767,105.16535 l 1.659414,0.4476 c -0.829707,17.24918 2.625586,37.20581 -3.411624,55.5467 l 4.115783,-8.67917"
           id="path10169"
           inkscape:connector-curvature="0" />
        <path
           style="fill:#d62766;fill-opacity:1;fill-rule:evenodd;stroke:none"
           d="m -286.24442,580.23162 -1.15176,5.71515 c 5.34943,7.27085 9.61259,15.15853 16.45767,20.85185 -4.90182,-9.59622 -8.57,-13.55916 -15.30591,-26.567"
           id="path10171"
           inkscape:connector-curvature="0" />
        <path
           style="fill:#d62766;fill-opacity:1;fill-rule:evenodd;stroke:none"
           d="m -273.55863,579.74035 c -2.83848,-3.13324 -4.49789,-6.91059 -6.39748,-10.66065 1.79042,6.61037 5.48043,12.28185 8.91389,18.05705 l -2.51641,-7.3964"
           id="path10173"
           inkscape:connector-curvature="0" />
        <path
           style="fill:#d62766;fill-opacity:1;fill-rule:evenodd;stroke:none"
           d="m -49.308503,530.99506 -1.195433,3.00769 c -2.172522,15.58976 -6.926961,31.02667 -14.203273,45.35549 8.018681,-15.09848 13.220725,-31.62166 15.398706,-48.36318"
           id="path10175"
           inkscape:connector-curvature="0" />
        <path
           style="fill:#d62766;fill-opacity:1;fill-rule:evenodd;stroke:none"
           d="m -226.52189,311.41738 c 5.50226,-2.0033 13.53732,-1.08626 19.40531,-2.43442 -7.61474,0.62217 -15.20765,1.00433 -22.71322,1.96498 l 3.30791,0.44766"
           id="path10177"
           inkscape:connector-curvature="0" />
        <path
           style="fill:#d62766;fill-opacity:1;fill-rule:evenodd;stroke:none"
           d="m -420.15475,414.3612 c 1.26094,11.7469 -8.82655,16.31029 2.22165,8.55362 5.94442,-13.3954 -2.30353,-3.69001 -2.22165,-8.55362"
           id="path10179"
           inkscape:connector-curvature="0" />
        <path
           style="fill:#d62766;fill-opacity:1;fill-rule:evenodd;stroke:none"
           d="m -433.17896,468.82163 c 2.55462,-7.82763 3.00223,-12.5384 3.98477,-17.07995 -7.05796,9.0176 -3.2424,10.93903 -3.98477,17.07995"
           id="path10181"
           inkscape:connector-curvature="0" />
      </g>
      <path
         id="path10249"
         d="m 223.93701,618.36218 502.68481,0"
         style="fill:none;stroke:#d62766;stroke-width:1.41732287;stroke-linecap:butt;stroke-linejoin:miter;stroke-miterlimit:4;stroke-opacity:1;stroke-dasharray:1.41732283, 2.83464567;stroke-dashoffset:0;marker-mid:none;marker-end:none;display:inline"
         inkscape:connector-curvature="0" />
    </g>
    <g
       id="g2746">
      <text
         id="text8655"
         y="330.34293"
         x="223.22835"
         style="font-size:12px;font-style:normal;font-weight:normal;fill:#000000;fill-opacity:1;stroke:none;font-family:Systema"
         xml:space="preserve"><tspan
           style="font-size:24px;font-weight:bold;letter-spacing:-0.78567398;font-family:'HGP創英角ｺﾞｼｯｸUB'"
           y="330.34293"
           x="223.22835"
           id="tspan8657"
           sodipodi:role="line"><tspan
   id="tspan8663"
   style="font-size:24px;letter-spacing:-0.78567398;font-family:Arial">Debian </tspan>の特徴</tspan></text>
      <g
         transform="matrix(0.08959496,0,0,0.08959496,226.63965,272.2191)"
         id="g9893"
         style="display:inline">
        <path
           style="fill:#d62766;fill-opacity:1;fill-rule:evenodd;stroke:none"
           d="m -197.20376,569.03603 c -8.14423,0.10918 1.53386,4.18129 12.17267,5.81887 2.94764,-2.29807 5.61144,-4.6016 7.97501,-6.86146 -6.61036,1.62121 -13.3681,1.63758 -20.16952,1.02076"
           id="path9895"
           inkscape:connector-curvature="0" />
        <path
           style="fill:#d62766;fill-opacity:1;fill-rule:evenodd;stroke:none"
           d="m -153.42581,558.14067 c 4.85816,-6.6977 8.40079,-14.02859 9.63443,-21.6215 -1.08626,5.39309 -4.00661,10.06565 -6.77958,14.98931 -15.24586,9.59621 -1.43015,-5.69332 0,-11.51219 -16.37579,20.63896 -2.23802,12.36373 -2.83847,18.14438"
           id="path9897"
           inkscape:connector-curvature="0" />
        <path
           style="fill:#d62766;fill-opacity:1;fill-rule:evenodd;stroke:none"
           d="m -137.26835,516.09309 c 0.98254,-14.67271 -2.87669,-10.02199 -4.17583,-4.43784 1.49019,0.7915 2.70746,10.34404 4.17583,4.43784"
           id="path9899"
           inkscape:connector-curvature="0" />
        <path
           style="fill:#d62766;fill-opacity:1;fill-rule:evenodd;stroke:none"
           d="m -228.1431,315.32028 c 4.35051,0.76426 9.40517,1.36465 8.67917,2.4073 4.75444,-1.04265 5.8407,-1.98153 -8.67917,-2.4073"
           id="path9901"
           inkscape:connector-curvature="0" />
        <path
           style="fill:#d62766;fill-opacity:1;fill-rule:evenodd;stroke:none"
           d="m -219.44209,317.72758 -3.05136,0.61687 2.86031,-0.25655 0.19105,-0.36032"
           id="path9903"
           inkscape:connector-curvature="0" />
        <path
           style="fill:#d62766;fill-opacity:1;fill-rule:evenodd;stroke:none"
           d="m -83.703131,521.6554 c 0.491274,13.17706 -3.837394,19.59637 -7.762126,30.9175 l -7.036133,3.49896 c -5.75882,11.19559 0.556777,7.10164 -3.55901,16.01553 -9.00122,7.99685 -27.31482,25.03313 -33.17736,26.61067 -4.26862,-0.0873 2.87669,-5.05466 3.81556,-6.97609 -12.04712,8.27523 -9.68355,12.41285 -28.10632,17.44568 l -0.52948,-1.19543 c -45.45921,21.38678 -108.62065,-20.98286 -107.80732,-78.83308 -0.46944,3.66818 -1.36465,2.75113 -2.36903,4.22496 -2.3472,-29.74391 13.73383,-59.64065 40.87399,-71.85699 26.52878,-13.11701 57.65917,-7.74029 76.65509,9.97832 -10.42592,-13.66833 -31.21226,-28.16637 -55.84146,-26.82356 -24.11609,0.38211 -46.69831,15.71531 -54.24755,32.36949 -12.34189,7.75667 -13.79388,29.97862 -19.16514,34.05074 -7.24902,53.265 13.62466,76.27299 48.95271,103.34764 5.54594,3.73368 1.56116,4.31229 2.30353,7.16714 -11.72507,-5.48044 -22.47305,-13.77205 -31.2996,-23.94687 4.68893,6.84508 9.7436,13.52094 16.28845,18.76666 -11.06457,-3.73368 -25.841,-26.80172 -30.14783,-27.7406 19.06142,34.15991 77.38109,59.89174 107.93286,47.12408 -14.11594,0.50765 -32.06927,0.27293 -47.95379,-5.56777 -6.6704,-3.43346 -15.73713,-10.5351 -14.11593,-11.85608 41.66548,15.54609 84.71744,11.76874 120.79332,-17.12362 9.17044,-7.13984 19.19243,-19.29614 22.090946,-19.46536 -4.350503,6.54486 0.747827,3.13324 -2.581917,8.93573 9.126776,-14.73276 -3.962943,-5.99355 9.426999,-25.43707 l 4.94549,6.82325 c -1.834089,-12.24364 15.180361,-27.10194 13.455444,-46.46359 3.902898,-5.90621 4.350503,6.37564 0.191051,19.97847 5.758821,-15.09849 1.51749,-17.52756 2.985853,-29.97862 1.577535,4.17582 3.690013,8.6355 4.776274,13.04605 -3.733681,-14.57992 3.81556,-24.5637 5.715152,-33.04636 -1.855923,-0.81333 -5.780655,6.43569 -6.675866,-10.76981 0.131007,-7.48374 2.068809,-3.92473 2.816637,-5.75882 -1.451987,-0.82971 -5.311216,-6.5667 -7.652955,-17.58761 1.681249,-2.58191 4.51972,6.69224 6.839624,7.07981 -1.468363,-8.74468 -4.05028,-15.42054 -4.153993,-22.13462 -6.763203,-14.13777 -2.390866,1.87776 -7.871299,-6.05359 -7.183515,-22.45667 5.949872,-5.2075 6.845082,-15.3987 10.895362,15.80264 17.123623,40.30083 19.97847,50.44836 -2.172522,-12.36372 -5.693318,-24.3508 -10.000152,-35.94487 3.329745,1.38103 -5.327592,-25.44252 4.306834,-7.65841 -10.294916,-37.88813 -44.072722,-73.32546 -75.159434,-89.93597 3.77189,3.47178 8.59183,7.82222 6.86691,8.52638 -15.45875,-9.18687 -12.72945,-9.91287 -14.9511,-13.79393 -12.57661,-5.12006 -13.41177,0.40399 -21.74705,0 -23.73399,-12.58201 -28.29738,-11.2392 -50.14815,-19.12687 l 0.97709,4.64532 c -15.7153,-5.22388 -18.31359,1.96498 -35.31167,0 -1.02076,-0.78609 5.44222,-2.92035 10.76982,-3.68466 -15.18037,2.00336 -14.47621,-2.98586 -29.3618,0.52959 3.64634,-2.55473 7.54924,-4.26322 11.45214,-6.45763 -12.39102,0.74248 -29.59652,7.2054 -24.28531,1.32103 -20.21319,9.01761 -56.14168,21.68696 -76.29483,40.59565 l -0.61682,-4.21955 c -9.23594,11.06463 -40.27899,33.09008 -42.7299,47.46257 l -2.45637,0.55677 c -4.79265,8.1224 -7.90951,17.35289 -11.70324,25.71546 -6.27193,10.70431 -9.21411,4.11578 -8.31344,5.79703 -12.34735,25.05497 -18.51011,46.1197 -23.79949,63.39616 3.77735,5.62782 0.0873,34.00707 1.51203,56.71484 -6.17913,112.13598 78.70207,221.00772 171.49824,246.12819 13.58645,4.86361 33.82147,4.68894 51.02698,5.15837 -20.30053,-5.79703 -22.89882,-3.04589 -42.68624,-9.95648 -14.24694,-6.71407 -17.38018,-14.39432 -27.48404,-23.15537 l 3.98477,7.05797 c -19.80925,-6.99247 -11.51218,-8.67918 -27.63142,-13.77751 l 4.26316,-5.56231 c -6.41931,-0.49127 -16.99261,-10.81348 -19.89659,-16.54501 l -7.0143,0.27293 c -8.42261,-10.40409 -12.9205,-17.90966 -12.59844,-23.72853 l -2.26532,4.02845 c -2.55462,-4.39417 -31.04305,-39.06173 -16.26662,-31.00484 -2.7293,-2.49458 -6.39748,-4.07211 -10.33859,-11.25563 l 3.00223,-3.43346 c -7.09617,-9.14861 -13.06788,-20.87367 -12.62028,-24.77657 3.7719,5.1147 6.41932,6.07542 9.01761,6.94879 -17.95333,-44.54216 -18.95771,-2.42907 -32.56054,-45.35003 l 2.86031,-0.21289 c -2.19982,-3.32974 -3.54264,-6.93242 -5.31122,-10.46959 l 1.2391,-12.45652 c -12.92596,-14.92381 -3.60813,-63.55992 -1.73037,-90.21425 1.28277,-10.82986 10.79164,-22.36934 17.99699,-40.49188 l -4.39417,-0.74783 c 8.40078,-14.66725 48.04112,-58.93103 66.39839,-56.67117 8.89206,-11.15191 -1.74675,-0.0437 -3.4935,-2.83847 19.53086,-20.19135 25.67178,-14.26332 38.84884,-17.90966 14.20327,-8.42262 -12.19451,3.28062 -5.4586,-3.19874 24.56369,-6.27193 17.40201,-14.26342 49.47128,-17.44033 3.36795,1.91602 -7.82763,2.96402 -10.64427,5.45871 20.46975,-10.0221 64.78265,-7.71857 93.56583,5.54048 33.39025,15.61159 70.918111,61.75312 72.413767,105.16535 l 1.659414,0.4476 c -0.829707,17.24918 2.625586,37.20581 -3.411624,55.5467 l 4.115783,-8.67917"
           id="path9905"
           inkscape:connector-curvature="0" />
        <path
           style="fill:#d62766;fill-opacity:1;fill-rule:evenodd;stroke:none"
           d="m -286.24442,580.23162 -1.15176,5.71515 c 5.34943,7.27085 9.61259,15.15853 16.45767,20.85185 -4.90182,-9.59622 -8.57,-13.55916 -15.30591,-26.567"
           id="path9907"
           inkscape:connector-curvature="0" />
        <path
           style="fill:#d62766;fill-opacity:1;fill-rule:evenodd;stroke:none"
           d="m -273.55863,579.74035 c -2.83848,-3.13324 -4.49789,-6.91059 -6.39748,-10.66065 1.79042,6.61037 5.48043,12.28185 8.91389,18.05705 l -2.51641,-7.3964"
           id="path9909"
           inkscape:connector-curvature="0" />
        <path
           style="fill:#d62766;fill-opacity:1;fill-rule:evenodd;stroke:none"
           d="m -49.308503,530.99506 -1.195433,3.00769 c -2.172522,15.58976 -6.926961,31.02667 -14.203273,45.35549 8.018681,-15.09848 13.220725,-31.62166 15.398706,-48.36318"
           id="path9911"
           inkscape:connector-curvature="0" />
        <path
           style="fill:#d62766;fill-opacity:1;fill-rule:evenodd;stroke:none"
           d="m -226.52189,311.41738 c 5.50226,-2.0033 13.53732,-1.08626 19.40531,-2.43442 -7.61474,0.62217 -15.20765,1.00433 -22.71322,1.96498 l 3.30791,0.44766"
           id="path9913"
           inkscape:connector-curvature="0" />
        <path
           style="fill:#d62766;fill-opacity:1;fill-rule:evenodd;stroke:none"
           d="m -420.15475,414.3612 c 1.26094,11.7469 -8.82655,16.31029 2.22165,8.55362 5.94442,-13.3954 -2.30353,-3.69001 -2.22165,-8.55362"
           id="path9915"
           inkscape:connector-curvature="0" />
        <path
           style="fill:#d62766;fill-opacity:1;fill-rule:evenodd;stroke:none"
           d="m -433.17896,468.82163 c 2.55462,-7.82763 3.00223,-12.5384 3.98477,-17.07995 -7.05796,9.0176 -3.2424,10.93903 -3.98477,17.07995"
           id="path9917"
           inkscape:connector-curvature="0" />
      </g>
      <path
         id="path10251"
         d="m 223.93701,335.36218 502.68481,0"
         style="fill:none;stroke:#d62766;stroke-width:1.41732287;stroke-linecap:butt;stroke-linejoin:miter;stroke-miterlimit:4;stroke-opacity:1;stroke-dasharray:1.41732283, 2.83464567;stroke-dashoffset:0;marker-mid:none;marker-end:none;display:inline"
         inkscape:connector-curvature="0" />
    </g>
    <g
       id="g2765">
      <text
         id="text5540"
         y="190.0215"
         x="223.22835"
         style="font-size:12px;font-style:normal;font-weight:normal;fill:#000000;fill-opacity:1;stroke:none;font-family:Systema"
         xml:space="preserve"><tspan
           dx="0 0 0 0 0 0 0 0.70710677 0 -3.5355339"
           style="font-size:24px;letter-spacing:-0.70710677;font-family:'HGP創英角ｺﾞｼｯｸUB'"
           y="190.0215"
           x="223.22835"
           id="tspan5542"
           sodipodi:role="line"><tspan
   dx="0 0 0 0 0 0"
   id="tspan8659"
   style="font-size:24px;font-weight:bold;font-family:Arial">Debian </tspan>とは？ </tspan></text>
      <g
         transform="matrix(0.08959496,0,0,0.08959496,226.63965,131.61642)"
         id="g8798"
         style="display:inline">
        <path
           style="fill:#d62766;fill-opacity:1;fill-rule:evenodd;stroke:none"
           d="m -197.20376,569.03603 c -8.14423,0.10918 1.53386,4.18129 12.17267,5.81887 2.94764,-2.29807 5.61144,-4.6016 7.97501,-6.86146 -6.61036,1.62121 -13.3681,1.63758 -20.16952,1.02076"
           id="path8800"
           inkscape:connector-curvature="0" />
        <path
           style="fill:#d62766;fill-opacity:1;fill-rule:evenodd;stroke:none"
           d="m -153.42581,558.14067 c 4.85816,-6.6977 8.40079,-14.02859 9.63443,-21.6215 -1.08626,5.39309 -4.00661,10.06565 -6.77958,14.98931 -15.24586,9.59621 -1.43015,-5.69332 0,-11.51219 -16.37579,20.63896 -2.23802,12.36373 -2.83847,18.14438"
           id="path8802"
           inkscape:connector-curvature="0" />
        <path
           style="fill:#d62766;fill-opacity:1;fill-rule:evenodd;stroke:none"
           d="m -137.26835,516.09309 c 0.98254,-14.67271 -2.87669,-10.02199 -4.17583,-4.43784 1.49019,0.7915 2.70746,10.34404 4.17583,4.43784"
           id="path8804"
           inkscape:connector-curvature="0" />
        <path
           style="fill:#d62766;fill-opacity:1;fill-rule:evenodd;stroke:none"
           d="m -228.1431,315.32028 c 4.35051,0.76426 9.40517,1.36465 8.67917,2.4073 4.75444,-1.04265 5.8407,-1.98153 -8.67917,-2.4073"
           id="path8806"
           inkscape:connector-curvature="0" />
        <path
           style="fill:#d62766;fill-opacity:1;fill-rule:evenodd;stroke:none"
           d="m -219.44209,317.72758 -3.05136,0.61687 2.86031,-0.25655 0.19105,-0.36032"
           id="path8808"
           inkscape:connector-curvature="0" />
        <path
           style="fill:#d62766;fill-opacity:1;fill-rule:evenodd;stroke:none"
           d="m -83.703131,521.6554 c 0.491274,13.17706 -3.837394,19.59637 -7.762126,30.9175 l -7.036133,3.49896 c -5.75882,11.19559 0.556777,7.10164 -3.55901,16.01553 -9.00122,7.99685 -27.31482,25.03313 -33.17736,26.61067 -4.26862,-0.0873 2.87669,-5.05466 3.81556,-6.97609 -12.04712,8.27523 -9.68355,12.41285 -28.10632,17.44568 l -0.52948,-1.19543 c -45.45921,21.38678 -108.62065,-20.98286 -107.80732,-78.83308 -0.46944,3.66818 -1.36465,2.75113 -2.36903,4.22496 -2.3472,-29.74391 13.73383,-59.64065 40.87399,-71.85699 26.52878,-13.11701 57.65917,-7.74029 76.65509,9.97832 -10.42592,-13.66833 -31.21226,-28.16637 -55.84146,-26.82356 -24.11609,0.38211 -46.69831,15.71531 -54.24755,32.36949 -12.34189,7.75667 -13.79388,29.97862 -19.16514,34.05074 -7.24902,53.265 13.62466,76.27299 48.95271,103.34764 5.54594,3.73368 1.56116,4.31229 2.30353,7.16714 -11.72507,-5.48044 -22.47305,-13.77205 -31.2996,-23.94687 4.68893,6.84508 9.7436,13.52094 16.28845,18.76666 -11.06457,-3.73368 -25.841,-26.80172 -30.14783,-27.7406 19.06142,34.15991 77.38109,59.89174 107.93286,47.12408 -14.11594,0.50765 -32.06927,0.27293 -47.95379,-5.56777 -6.6704,-3.43346 -15.73713,-10.5351 -14.11593,-11.85608 41.66548,15.54609 84.71744,11.76874 120.79332,-17.12362 9.17044,-7.13984 19.19243,-19.29614 22.090946,-19.46536 -4.350503,6.54486 0.747827,3.13324 -2.581917,8.93573 9.126776,-14.73276 -3.962943,-5.99355 9.426999,-25.43707 l 4.94549,6.82325 c -1.834089,-12.24364 15.180361,-27.10194 13.455444,-46.46359 3.902898,-5.90621 4.350503,6.37564 0.191051,19.97847 5.758821,-15.09849 1.51749,-17.52756 2.985853,-29.97862 1.577535,4.17582 3.690013,8.6355 4.776274,13.04605 -3.733681,-14.57992 3.81556,-24.5637 5.715152,-33.04636 -1.855923,-0.81333 -5.780655,6.43569 -6.675866,-10.76981 0.131007,-7.48374 2.068809,-3.92473 2.816637,-5.75882 -1.451987,-0.82971 -5.311216,-6.5667 -7.652955,-17.58761 1.681249,-2.58191 4.51972,6.69224 6.839624,7.07981 -1.468363,-8.74468 -4.05028,-15.42054 -4.153993,-22.13462 -6.763203,-14.13777 -2.390866,1.87776 -7.871299,-6.05359 -7.183515,-22.45667 5.949872,-5.2075 6.845082,-15.3987 10.895362,15.80264 17.123623,40.30083 19.97847,50.44836 -2.172522,-12.36372 -5.693318,-24.3508 -10.000152,-35.94487 3.329745,1.38103 -5.327592,-25.44252 4.306834,-7.65841 -10.294916,-37.88813 -44.072722,-73.32546 -75.159434,-89.93597 3.77189,3.47178 8.59183,7.82222 6.86691,8.52638 -15.45875,-9.18687 -12.72945,-9.91287 -14.9511,-13.79393 -12.57661,-5.12006 -13.41177,0.40399 -21.74705,0 -23.73399,-12.58201 -28.29738,-11.2392 -50.14815,-19.12687 l 0.97709,4.64532 c -15.7153,-5.22388 -18.31359,1.96498 -35.31167,0 -1.02076,-0.78609 5.44222,-2.92035 10.76982,-3.68466 -15.18037,2.00336 -14.47621,-2.98586 -29.3618,0.52959 3.64634,-2.55473 7.54924,-4.26322 11.45214,-6.45763 -12.39102,0.74248 -29.59652,7.2054 -24.28531,1.32103 -20.21319,9.01761 -56.14168,21.68696 -76.29483,40.59565 l -0.61682,-4.21955 c -9.23594,11.06463 -40.27899,33.09008 -42.7299,47.46257 l -2.45637,0.55677 c -4.79265,8.1224 -7.90951,17.35289 -11.70324,25.71546 -6.27193,10.70431 -9.21411,4.11578 -8.31344,5.79703 -12.34735,25.05497 -18.51011,46.1197 -23.79949,63.39616 3.77735,5.62782 0.0873,34.00707 1.51203,56.71484 -6.17913,112.13598 78.70207,221.00772 171.49824,246.12819 13.58645,4.86361 33.82147,4.68894 51.02698,5.15837 -20.30053,-5.79703 -22.89882,-3.04589 -42.68624,-9.95648 -14.24694,-6.71407 -17.38018,-14.39432 -27.48404,-23.15537 l 3.98477,7.05797 c -19.80925,-6.99247 -11.51218,-8.67918 -27.63142,-13.77751 l 4.26316,-5.56231 c -6.41931,-0.49127 -16.99261,-10.81348 -19.89659,-16.54501 l -7.0143,0.27293 c -8.42261,-10.40409 -12.9205,-17.90966 -12.59844,-23.72853 l -2.26532,4.02845 c -2.55462,-4.39417 -31.04305,-39.06173 -16.26662,-31.00484 -2.7293,-2.49458 -6.39748,-4.07211 -10.33859,-11.25563 l 3.00223,-3.43346 c -7.09617,-9.14861 -13.06788,-20.87367 -12.62028,-24.77657 3.7719,5.1147 6.41932,6.07542 9.01761,6.94879 -17.95333,-44.54216 -18.95771,-2.42907 -32.56054,-45.35003 l 2.86031,-0.21289 c -2.19982,-3.32974 -3.54264,-6.93242 -5.31122,-10.46959 l 1.2391,-12.45652 c -12.92596,-14.92381 -3.60813,-63.55992 -1.73037,-90.21425 1.28277,-10.82986 10.79164,-22.36934 17.99699,-40.49188 l -4.39417,-0.74783 c 8.40078,-14.66725 48.04112,-58.93103 66.39839,-56.67117 8.89206,-11.15191 -1.74675,-0.0437 -3.4935,-2.83847 19.53086,-20.19135 25.67178,-14.26332 38.84884,-17.90966 14.20327,-8.42262 -12.19451,3.28062 -5.4586,-3.19874 24.56369,-6.27193 17.40201,-14.26342 49.47128,-17.44033 3.36795,1.91602 -7.82763,2.96402 -10.64427,5.45871 20.46975,-10.0221 64.78265,-7.71857 93.56583,5.54048 33.39025,15.61159 70.918111,61.75312 72.413767,105.16535 l 1.659414,0.4476 c -0.829707,17.24918 2.625586,37.20581 -3.411624,55.5467 l 4.115783,-8.67917"
           id="path8810"
           inkscape:connector-curvature="0" />
        <path
           style="fill:#d62766;fill-opacity:1;fill-rule:evenodd;stroke:none"
           d="m -286.24442,580.23162 -1.15176,5.71515 c 5.34943,7.27085 9.61259,15.15853 16.45767,20.85185 -4.90182,-9.59622 -8.57,-13.55916 -15.30591,-26.567"
           id="path8812"
           inkscape:connector-curvature="0" />
        <path
           style="fill:#d62766;fill-opacity:1;fill-rule:evenodd;stroke:none"
           d="m -273.55863,579.74035 c -2.83848,-3.13324 -4.49789,-6.91059 -6.39748,-10.66065 1.79042,6.61037 5.48043,12.28185 8.91389,18.05705 l -2.51641,-7.3964"
           id="path8814"
           inkscape:connector-curvature="0" />
        <path
           style="fill:#d62766;fill-opacity:1;fill-rule:evenodd;stroke:none"
           d="m -49.308503,530.99506 -1.195433,3.00769 c -2.172522,15.58976 -6.926961,31.02667 -14.203273,45.35549 8.018681,-15.09848 13.220725,-31.62166 15.398706,-48.36318"
           id="path8816"
           inkscape:connector-curvature="0" />
        <path
           style="fill:#d62766;fill-opacity:1;fill-rule:evenodd;stroke:none"
           d="m -226.52189,311.41738 c 5.50226,-2.0033 13.53732,-1.08626 19.40531,-2.43442 -7.61474,0.62217 -15.20765,1.00433 -22.71322,1.96498 l 3.30791,0.44766"
           id="path8818"
           inkscape:connector-curvature="0" />
        <path
           style="fill:#d62766;fill-opacity:1;fill-rule:evenodd;stroke:none"
           d="m -420.15475,414.3612 c 1.26094,11.7469 -8.82655,16.31029 2.22165,8.55362 5.94442,-13.3954 -2.30353,-3.69001 -2.22165,-8.55362"
           id="path8820"
           inkscape:connector-curvature="0" />
        <path
           style="fill:#d62766;fill-opacity:1;fill-rule:evenodd;stroke:none"
           d="m -433.17896,468.82163 c 2.55462,-7.82763 3.00223,-12.5384 3.98477,-17.07995 -7.05796,9.0176 -3.2424,10.93903 -3.98477,17.07995"
           id="path8822"
           inkscape:connector-curvature="0" />
      </g>
      <path
         id="path10253"
         d="m 223.69313,194.36218 502.68482,0"
         style="fill:none;stroke:#d62766;stroke-width:1.41732287;stroke-linecap:butt;stroke-linejoin:miter;stroke-miterlimit:4;stroke-opacity:1;stroke-dasharray:1.41732283, 2.83464567;stroke-dashoffset:0;marker-mid:none;marker-end:none;display:inline"
         inkscape:connector-curvature="0" />
    </g>
  </g>
</svg>
