<?xml version="1.0" encoding="utf-8"?>
<!-- Generator: Adobe Illustrator 15.0.1, SVG Export Plug-In  -->
<!DOCTYPE svg PUBLIC "-//W3C//DTD SVG 1.1//EN" "http://www.w3.org/Graphics/SVG/1.1/DTD/svg11.dtd" [
	<!ENTITY ns_flows "http://ns.adobe.com/Flows/1.0/">
]>
<svg version="1.1"
	 xmlns="http://www.w3.org/2000/svg" xmlns:xlink="http://www.w3.org/1999/xlink" xmlns:a="http://ns.adobe.com/AdobeSVGViewerExtensions/3.0/"
	 x="0px" y="0px" width="1600px" height="1000px" viewBox="-113 -85 1600 1000"
	 overflow="visible" enable-background="new -113 -85 1600 1000" xml:space="preserve">
<defs>
</defs>
<rect fill="#000066" width="1400" height="876"/>
<path fill="#FFFFFF" stroke="#000066" stroke-miterlimit="10" d="M1204.5,65.5v30h-22v24h22v253h-22v24h22v41h-29v-41v-331h-32h-149
	h-40h-22h-19h-22h-125h-52h-29h-159h-52h-29h-157h-32h-3v372.088l-25-0.088v-41h17v-24h-17v-253h17v-24h-17v-30h-110v713h83h27h217
	h81h92v-41h205v-44h-205v-55h-20v-36h10v-10h6v-24h-16v-39h16v-24h-6v-12h-10v-12h63v142h68v-142h162v297h30h11h272h8h24v-297v-44
	v-372H1204.5z M183.5,85.5h-7v22h7v31h-54v-64h54V85.5z M373.5,639.5h-146v-157h70v142h61v-142h15V639.5z M444.5,438.5h-160v-41h160
	V438.5z M683.5,438.5h-178v-40h178V438.5z M917.5,438.5h-171v-40h171V438.5z M976.5,397.5h166v41h-166V397.5z M1204.5,624.5h-272
	v-143h17v142h84h40v-142h10v124h68v-124h53V624.5z"/>
<line fill="none" stroke="#000066" stroke-width="3" stroke-miterlimit="10" x1="475.5" y1="424" x2="475.5" y2="64"/>
<line fill="none" stroke="#000066" stroke-miterlimit="10" x1="446.5" y1="760" x2="446.5" y2="711"/>
<line fill="none" stroke="#000066" stroke-miterlimit="10" x1="440.5" y1="760" x2="440.5" y2="711"/>
<line fill="none" stroke="#000066" stroke-miterlimit="10" x1="433.5" y1="760" x2="433.5" y2="711"/>
<line fill="none" stroke="#000066" stroke-miterlimit="10" x1="427.5" y1="760" x2="427.5" y2="711"/>
<line fill="none" stroke="#000066" stroke-miterlimit="10" x1="420.5" y1="760" x2="420.5" y2="711"/>
<line fill="none" stroke="#000066" stroke-miterlimit="10" x1="414.5" y1="760" x2="414.5" y2="711"/>
<line fill="none" stroke="#000066" stroke-miterlimit="10" x1="407.5" y1="760" x2="407.5" y2="711"/>
<line fill="none" stroke="#000066" stroke-miterlimit="10" x1="401.5" y1="760" x2="401.5" y2="711"/>
<line fill="none" stroke="#000066" stroke-miterlimit="10" x1="394.5" y1="760" x2="394.5" y2="711"/>
<line fill="none" stroke="#000066" stroke-miterlimit="10" x1="388.5" y1="760" x2="388.5" y2="711"/>
<line fill="none" stroke="#000066" stroke-miterlimit="10" x1="327" y1="517.5" x2="298" y2="517.5"/>
<line fill="none" stroke="#000066" stroke-miterlimit="10" x1="327" y1="524.5" x2="298" y2="524.5"/>
<line fill="none" stroke="#000066" stroke-miterlimit="10" x1="327" y1="531.5" x2="298" y2="531.5"/>
<line fill="none" stroke="#000066" stroke-miterlimit="10" x1="327" y1="539.5" x2="298" y2="539.5"/>
<line fill="none" stroke="#000066" stroke-miterlimit="10" x1="327" y1="546.5" x2="298" y2="546.5"/>
<line fill="none" stroke="#000066" stroke-miterlimit="10" x1="327" y1="553.5" x2="298" y2="553.5"/>
<line fill="none" stroke="#000066" stroke-miterlimit="10" x1="327" y1="560.5" x2="298" y2="560.5"/>
<line fill="none" stroke="#000066" stroke-miterlimit="10" x1="327" y1="567.5" x2="298" y2="567.5"/>
<line fill="none" stroke="#000066" stroke-miterlimit="10" x1="327" y1="574.5" x2="298" y2="574.5"/>
<line fill="none" stroke="#000066" stroke-miterlimit="10" x1="327" y1="582.5" x2="298" y2="582.5"/>
<line fill="none" stroke="#000066" stroke-miterlimit="10" x1="327" y1="589.5" x2="298" y2="589.5"/>
<line fill="none" stroke="#000066" stroke-miterlimit="10" x1="327" y1="596.5" x2="298" y2="596.5"/>
<line fill="none" stroke="#000066" stroke-miterlimit="10" x1="359" y1="524.5" x2="327" y2="524.5"/>
<line fill="none" stroke="#000066" stroke-miterlimit="10" x1="359" y1="531.5" x2="327" y2="531.5"/>
<line fill="none" stroke="#000066" stroke-miterlimit="10" x1="359" y1="538.5" x2="327" y2="538.5"/>
<line fill="none" stroke="#000066" stroke-miterlimit="10" x1="359" y1="546.5" x2="327" y2="546.5"/>
<line fill="none" stroke="#000066" stroke-miterlimit="10" x1="359" y1="553.5" x2="327" y2="553.5"/>
<line fill="none" stroke="#000066" stroke-miterlimit="10" x1="359" y1="560.5" x2="327" y2="560.5"/>
<line fill="none" stroke="#000066" stroke-miterlimit="10" x1="359" y1="567.5" x2="327" y2="567.5"/>
<line fill="none" stroke="#000066" stroke-miterlimit="10" x1="359" y1="574.5" x2="327" y2="574.5"/>
<line fill="none" stroke="#000066" stroke-miterlimit="10" x1="359" y1="581.5" x2="327" y2="581.5"/>
<line fill="none" stroke="#000066" stroke-miterlimit="10" x1="359" y1="589.5" x2="327" y2="589.5"/>
<line fill="none" stroke="#000066" stroke-miterlimit="10" x1="359" y1="596.5" x2="327" y2="596.5"/>
<line fill="none" stroke="#000066" stroke-miterlimit="10" x1="359" y1="603.5" x2="327" y2="603.5"/>
<line fill="none" stroke="#000066" stroke-miterlimit="10" x1="381.5" y1="760" x2="381.5" y2="711"/>
<line fill="none" stroke="#000066" stroke-miterlimit="10" x1="375.5" y1="760" x2="375.5" y2="711"/>
<line fill="none" stroke="#000066" stroke-miterlimit="10" x1="368.5" y1="760" x2="368.5" y2="711"/>
<line fill="none" stroke="#000066" stroke-miterlimit="10" x1="362.5" y1="760" x2="362.5" y2="711"/>
<line fill="none" stroke="#000066" stroke-miterlimit="10" x1="706.5" y1="738" x2="706.5" y2="694"/>
<line fill="none" stroke="#000066" stroke-miterlimit="10" x1="699.5" y1="738" x2="699.5" y2="694"/>
<line fill="none" stroke="#000066" stroke-miterlimit="10" x1="693.5" y1="738" x2="693.5" y2="694"/>
<line fill="none" stroke="#000066" stroke-miterlimit="10" x1="686.5" y1="738" x2="686.5" y2="694"/>
<line fill="none" stroke="#000066" stroke-miterlimit="10" x1="680.5" y1="738" x2="680.5" y2="694"/>
<line fill="none" stroke="#000066" stroke-miterlimit="10" x1="673.5" y1="738" x2="673.5" y2="694"/>
<line fill="none" stroke="#000066" stroke-miterlimit="10" x1="667.5" y1="738" x2="667.5" y2="694"/>
<line fill="none" stroke="#000066" stroke-miterlimit="10" x1="660.5" y1="738" x2="660.5" y2="694"/>
<line fill="none" stroke="#000066" stroke-miterlimit="10" x1="654.5" y1="738" x2="654.5" y2="694"/>
<line fill="none" stroke="#000066" stroke-miterlimit="10" x1="647.5" y1="738" x2="647.5" y2="694"/>
<line fill="none" stroke="#000066" stroke-miterlimit="10" x1="641.5" y1="738" x2="641.5" y2="694"/>
<line fill="none" stroke="#000066" stroke-miterlimit="10" x1="634.5" y1="738" x2="634.5" y2="694"/>
<line fill="none" stroke="#000066" stroke-miterlimit="10" x1="628.5" y1="738" x2="628.5" y2="694"/>
<line fill="none" stroke="#000066" stroke-miterlimit="10" x1="816.5" y1="738" x2="816.5" y2="694"/>
<line fill="none" stroke="#000066" stroke-miterlimit="10" x1="810.5" y1="738" x2="810.5" y2="694"/>
<line fill="none" stroke="#000066" stroke-miterlimit="10" x1="803.5" y1="738" x2="803.5" y2="694"/>
<line fill="none" stroke="#000066" stroke-miterlimit="10" x1="797.5" y1="738" x2="797.5" y2="694"/>
<line fill="none" stroke="#000066" stroke-miterlimit="10" x1="790.5" y1="738" x2="790.5" y2="694"/>
<line fill="none" stroke="#000066" stroke-miterlimit="10" x1="784.5" y1="738" x2="784.5" y2="694"/>
<line fill="none" stroke="#000066" stroke-miterlimit="10" x1="777.5" y1="738" x2="777.5" y2="694"/>
<line fill="none" stroke="#000066" stroke-miterlimit="10" x1="771.5" y1="738" x2="771.5" y2="694"/>
<line fill="none" stroke="#000066" stroke-miterlimit="10" x1="764.5" y1="738" x2="764.5" y2="694"/>
<line fill="none" stroke="#000066" stroke-miterlimit="10" x1="758.5" y1="738" x2="758.5" y2="694"/>
<line fill="none" stroke="#000066" stroke-miterlimit="10" x1="751.5" y1="738" x2="751.5" y2="694"/>
<line fill="none" stroke="#000066" stroke-miterlimit="10" x1="745.5" y1="738" x2="745.5" y2="694"/>
<line fill="none" stroke="#000066" stroke-miterlimit="10" x1="738.5" y1="738" x2="738.5" y2="694"/>
<line fill="none" stroke="#000066" stroke-miterlimit="10" x1="732.5" y1="738" x2="732.5" y2="694"/>
<polyline fill="none" stroke="#000066" stroke-miterlimit="10" points="338,711.5 452.5,711.5 452.5,759.5 337,759.5 "/>
<polyline fill="none" stroke="#000066" stroke-miterlimit="10" stroke-dasharray="1,3" points="247.5,639 247.5,712.021 
	337.5,711.529 337.5,759.666 247.5,759.256 247.5,780 "/>
<rect x="467" y="423" fill="#000066" width="16" height="16"/>
<line fill="none" stroke="#000066" stroke-width="3" stroke-miterlimit="10" x1="715.5" y1="424" x2="715.5" y2="64"/>
<rect x="707" y="423" fill="#000066" width="16" height="16"/>
<line fill="none" stroke="#000066" stroke-width="3" stroke-miterlimit="10" x1="947.5" y1="424" x2="947.5" y2="64"/>
<rect x="939" y="423" fill="#000066" width="16" height="16"/>
<line fill="none" stroke="#000066" stroke-width="4" stroke-miterlimit="10" x1="327" y1="604" x2="327" y2="517"/>
<line fill="none" stroke="#000066" stroke-miterlimit="10" x1="1117" y1="589.5" x2="1151" y2="589.5"/>
<line fill="none" stroke="#000066" stroke-miterlimit="10" x1="1117" y1="582.5" x2="1151" y2="582.5"/>
<line fill="none" stroke="#000066" stroke-miterlimit="10" x1="1117" y1="575.5" x2="1151" y2="575.5"/>
<line fill="none" stroke="#000066" stroke-miterlimit="10" x1="1117" y1="567.5" x2="1151" y2="567.5"/>
<line fill="none" stroke="#000066" stroke-miterlimit="10" x1="1117" y1="560.5" x2="1151" y2="560.5"/>
<line fill="none" stroke="#000066" stroke-miterlimit="10" x1="1117" y1="553.5" x2="1151" y2="553.5"/>
<line fill="none" stroke="#000066" stroke-miterlimit="10" x1="1117" y1="546.5" x2="1151" y2="546.5"/>
<line fill="none" stroke="#000066" stroke-miterlimit="10" x1="1117" y1="539.5" x2="1151" y2="539.5"/>
<line fill="none" stroke="#000066" stroke-miterlimit="10" x1="1117" y1="532.5" x2="1151" y2="532.5"/>
<line fill="none" stroke="#000066" stroke-miterlimit="10" x1="1117" y1="524.5" x2="1151" y2="524.5"/>
<line fill="none" stroke="#000066" stroke-miterlimit="10" x1="1117" y1="517.5" x2="1151" y2="517.5"/>
<line fill="none" stroke="#000066" stroke-miterlimit="10" x1="1117" y1="510.5" x2="1151" y2="510.5"/>
<line fill="none" stroke="#000066" stroke-miterlimit="10" x1="1084" y1="582.5" x2="1117" y2="582.5"/>
<line fill="none" stroke="#000066" stroke-miterlimit="10" x1="1084" y1="575.5" x2="1117" y2="575.5"/>
<line fill="none" stroke="#000066" stroke-miterlimit="10" x1="1084" y1="568.5" x2="1117" y2="568.5"/>
<line fill="none" stroke="#000066" stroke-miterlimit="10" x1="1084" y1="560.5" x2="1117" y2="560.5"/>
<line fill="none" stroke="#000066" stroke-miterlimit="10" x1="1084" y1="553.5" x2="1117" y2="553.5"/>
<line fill="none" stroke="#000066" stroke-miterlimit="10" x1="1084" y1="546.5" x2="1117" y2="546.5"/>
<line fill="none" stroke="#000066" stroke-miterlimit="10" x1="1084" y1="539.5" x2="1117" y2="539.5"/>
<line fill="none" stroke="#000066" stroke-miterlimit="10" x1="1084" y1="532.5" x2="1117" y2="532.5"/>
<line fill="none" stroke="#000066" stroke-miterlimit="10" x1="1084" y1="525.5" x2="1117" y2="525.5"/>
<line fill="none" stroke="#000066" stroke-miterlimit="10" x1="1084" y1="517.5" x2="1117" y2="517.5"/>
<line fill="none" stroke="#000066" stroke-miterlimit="10" x1="1084" y1="510.5" x2="1117" y2="510.5"/>
<line fill="none" stroke="#000066" stroke-miterlimit="10" x1="1084" y1="503.5" x2="1117" y2="503.5"/>
<line fill="none" stroke="#000066" stroke-width="4" stroke-miterlimit="10" x1="1117" y1="503" x2="1117" y2="590"/>
<line fill="none" stroke="#000066" stroke-width="3" stroke-miterlimit="10" x1="1034.5" y1="481" x2="1034.5" y2="626"/>
<line fill="none" stroke="#000066" stroke-width="3" stroke-miterlimit="10" x1="506.5" y1="353" x2="506.5" y2="398"/>
<line fill="none" stroke="#000066" stroke-width="3" stroke-miterlimit="10" x1="682.5" y1="353" x2="682.5" y2="398"/>
<line fill="none" stroke="#000066" stroke-width="3" stroke-miterlimit="10" x1="747.5" y1="353" x2="747.5" y2="398"/>
<line fill="none" stroke="#000066" stroke-width="3" stroke-miterlimit="10" x1="916.5" y1="353" x2="916.5" y2="398"/>
<line fill="none" stroke="#000066" stroke-width="3" stroke-miterlimit="10" x1="1073" y1="482.5" x2="979" y2="482.5"/>
<line fill="none" stroke="#000066" stroke-width="3" stroke-miterlimit="10" x1="962" y1="482.5" x2="950" y2="482.5"/>
<line fill="none" stroke="#000066" stroke-width="3" stroke-miterlimit="10" x1="697" y1="482.5" x2="661" y2="482.5"/>
<line fill="none" stroke="#000066" stroke-width="3" stroke-miterlimit="10" x1="730" y1="482.5" x2="715" y2="482.5"/>
<circle fill="#000066" cx="132.065" cy="259.526" r="3.24"/>
<circle fill="#000066" cx="132.065" cy="769.526" r="3.24"/>
<circle fill="#000066" cx="233.065" cy="769.526" r="3.24"/>
<circle fill="#000066" cx="607.065" cy="769.526" r="3.24"/>
<circle fill="#000066" cx="945.065" cy="769.526" r="3.24"/>
<circle fill="#000066" cx="1074.065" cy="769.526" r="3.24"/>
<circle fill="#000066" cx="1203.065" cy="769.526" r="3.24"/>
<circle fill="#000066" cx="132.065" cy="642.026" r="3.24"/>
<circle fill="#000066" cx="132.065" cy="514.526" r="3.24"/>
<circle fill="#000066" cx="132.065" cy="387.026" r="3.24"/>
<line fill="none" stroke="#000066" stroke-width="3" stroke-miterlimit="10" x1="253" y1="397.5" x2="476" y2="397.5"/>
<line fill="none" stroke="#000066" stroke-width="3" stroke-miterlimit="10" x1="947" y1="397.5" x2="1176" y2="397.5"/>
<line fill="none" stroke="#000066" stroke-width="3" stroke-miterlimit="10" x1="475" y1="352.5" x2="947" y2="352.5"/>
<rect x="146.5" y="78.5" fill="#FFFFFF" stroke="#000000" stroke-miterlimit="10" width="27" height="36"/>
<rect x="618.5" y="492.5" fill="#FFFFFF" stroke="#000000" stroke-miterlimit="10" width="33" height="46"/>
<rect x="618.5" y="568.5" fill="#FFFFFF" stroke="#000000" stroke-miterlimit="10" width="33" height="46"/>
<path display="none" fill="#000066" d="M991.642,535.188c2.52,0,4.566-2.052,4.566-4.567c0-2.529-2.047-4.576-4.566-4.576
	c-2.525,0-4.568,2.047-4.568,4.576C987.073,533.137,989.116,535.188,991.642,535.188z"/>
<path display="none" fill="#000066" d="M1004.797,554.522l-3.689-13.026c-0.974-3.338-3.024-4.97-5.423-4.97h-8.091
	c-2.403,0-4.454,1.632-5.419,4.97l-3.698,13.026c-0.29,1.024,0.31,2.089,1.333,2.386c1.027,0.289,2.098-0.31,2.387-1.335
	l3.628-12.852c0.084-0.307,0.401-0.489,0.718-0.404l0,0c0.301,0.088,0.481,0.416,0.396,0.718l-6.034,21.339h5.9v16.62
	c0,1.169,0.952,2.126,2.122,2.126c1.176,0,2.123-0.957,2.123-2.126l0.004-16.042c0-0.314,0.268-0.578,0.588-0.578
	c0.317,0,0.578,0.264,0.578,0.578v16.042c0,1.169,0.952,2.126,2.122,2.126c1.179,0,2.131-0.957,2.131-2.126v-16.62h5.896
	l-6.03-21.339c-0.093-0.302,0.091-0.63,0.397-0.718l0,0c0.306-0.085,0.63,0.098,0.718,0.404l3.624,12.852
	c0.289,1.025,1.357,1.624,2.385,1.335C1004.486,556.611,1005.087,555.547,1004.797,554.522z"/>
<path display="none" fill="#000066" d="M696.666,535.628c2.524,0.055,4.613-1.954,4.672-4.466c0.05-2.529-1.946-4.623-4.472-4.674
	c-2.523-0.058-4.612,1.942-4.673,4.472C692.145,533.48,694.141,535.574,696.666,535.628z"/>
<path display="none" fill="#000066" d="M701.568,536.916l-9.851-0.209c-3.142-0.068-5.755,2.436-5.821,5.573l-0.035,1.488
	l-0.004,0.381l-0.275,12.691c-0.027,1.062,0.822,1.946,1.891,1.968c1.037,0.025,1.901-0.777,1.96-1.804l0.268-12.531
	c0.008-0.324,0.277-0.575,0.597-0.565c0.327,0.008,0.574,0.268,0.562,0.585l-0.746,35.548c-0.034,1.386,1.066,2.533,2.455,2.563
	c1.38,0.03,2.532-1.069,2.563-2.453l0.443-20.682c0.009-0.313,0.269-0.566,0.587-0.557c0.318,0.003,0.578,0.269,0.57,0.588
	l-0.448,20.677c-0.029,1.383,1.073,2.531,2.453,2.558c1.388,0.034,2.546-1.07,2.575-2.45l0.771-35.543
	c0.008-0.319,0.268-0.571,0.596-0.566c0.309,0.008,0.566,0.268,0.562,0.587l-0.267,12.532c0.02,1.031,0.837,1.869,1.877,1.891
	c1.075,0.024,1.955-0.822,1.972-1.887l0.276-12.691l0.009-0.378l0.033-1.492C707.205,539.604,704.702,536.986,701.568,536.916z"/>
<rect x="254" y="171" display="none" fill="none" width="219" height="30"/>
<text transform="matrix(1 0 0 1 332.3804 185.0801)" display="none" fill="#000066" font-family="'IPAPGothic'" font-size="16">131教室</text>
<rect x="484" y="171" display="none" fill="none" width="219" height="30"/>
<text transform="matrix(1 0 0 1 562.3804 185.0801)" display="none" fill="#000066" font-family="'IPAPGothic'" font-size="16">132教室</text>
<rect x="618.994" y="509.455" display="none" fill="none" width="33.01" height="26.539"/>
<text transform="matrix(1.1304 0 0 1 625.6426 521.9111)" display="none" fill="#000066" font-family="'IPAPGothic'" font-size="14.1541">EV</text>
<rect x="618.994" y="584.781" display="none" fill="none" width="33.01" height="26.539"/>
<text transform="matrix(1.1304 0 0 1 625.6426 597.2373)" display="none" fill="#000066" font-family="'IPAPGothic'" font-size="14.1541">EV</text>
<rect x="719.672" y="171" display="none" fill="none" width="219" height="30"/>
<text transform="matrix(1 0 0 1 798.0527 185.0801)" display="none" fill="#000066" font-family="'IPAPGothic'" font-size="16">133教室</text>
<rect x="953.672" y="171" display="none" fill="none" width="219" height="30"/>
<text transform="matrix(1 0 0 1 1032.0527 185.0801)" display="none" fill="#000066" font-family="'IPAPGothic'" font-size="16">134教室</text>
<rect x="953.672" y="689" display="none" fill="none" width="219" height="30"/>
<text transform="matrix(1 0 0 1 994.8047 703.0801)" display="none" fill="#000066" font-family="'IPAPGothic'" font-size="16">CST ギャラリー 13A</text>
<path fill="#000066" d="M991.642,535.188c2.52,0,4.566-2.052,4.566-4.567c0-2.529-2.047-4.576-4.566-4.576
	c-2.525,0-4.568,2.047-4.568,4.576C987.073,533.137,989.116,535.188,991.642,535.188z"/>
<path fill="#000066" d="M1004.797,554.522l-3.689-13.026c-0.974-3.338-3.024-4.97-5.423-4.97h-8.091
	c-2.403,0-4.454,1.632-5.419,4.97l-3.698,13.026c-0.29,1.024,0.31,2.089,1.333,2.386c1.027,0.289,2.098-0.31,2.387-1.335
	l3.628-12.852c0.084-0.307,0.401-0.489,0.718-0.404l0,0c0.301,0.088,0.481,0.416,0.396,0.718l-6.034,21.339h5.9v16.62
	c0,1.169,0.952,2.126,2.122,2.126c1.176,0,2.123-0.957,2.123-2.126l0.004-16.042c0-0.314,0.268-0.578,0.588-0.578
	c0.317,0,0.578,0.264,0.578,0.578v16.042c0,1.169,0.952,2.126,2.122,2.126c1.179,0,2.131-0.957,2.131-2.126v-16.62h5.896
	l-6.03-21.339c-0.093-0.302,0.091-0.63,0.397-0.718l0,0c0.306-0.085,0.63,0.098,0.718,0.404l3.624,12.852
	c0.289,1.025,1.357,1.624,2.385,1.335C1004.486,556.611,1005.087,555.547,1004.797,554.522z"/>
<path fill="#000066" d="M696.666,535.628c2.524,0.055,4.613-1.954,4.672-4.466c0.05-2.529-1.946-4.623-4.472-4.674
	c-2.523-0.058-4.612,1.942-4.673,4.472C692.145,533.48,694.141,535.574,696.666,535.628z"/>
<path fill="#000066" d="M701.568,536.916l-9.851-0.209c-3.142-0.068-5.755,2.436-5.821,5.573l-0.035,1.488l-0.004,0.381
	l-0.275,12.691c-0.027,1.062,0.822,1.946,1.891,1.968c1.037,0.025,1.901-0.777,1.96-1.804l0.268-12.531
	c0.008-0.324,0.277-0.575,0.597-0.565c0.327,0.008,0.574,0.268,0.562,0.585l-0.746,35.548c-0.034,1.386,1.066,2.533,2.455,2.563
	c1.38,0.03,2.532-1.069,2.563-2.453l0.443-20.682c0.009-0.313,0.269-0.566,0.587-0.557c0.318,0.003,0.578,0.269,0.57,0.588
	l-0.448,20.677c-0.029,1.383,1.073,2.531,2.453,2.558c1.388,0.034,2.546-1.07,2.575-2.45l0.771-35.543
	c0.008-0.319,0.268-0.571,0.596-0.566c0.309,0.008,0.566,0.268,0.562,0.587l-0.267,12.532c0.02,1.031,0.837,1.869,1.877,1.891
	c1.075,0.024,1.955-0.822,1.972-1.887l0.276-12.691l0.009-0.378l0.033-1.492C707.205,539.604,704.702,536.986,701.568,536.916z"/>
<path fill="#000066" d="M338.541,212.96h-1.408v-10.096c-0.864,0.31-1.792,0.565-2.784,0.768l-0.256-1.088
	c1.376-0.331,2.56-0.746,3.552-1.248h0.896V212.96z"/>
<path fill="#000066" d="M348.412,207.072c1.877,0.331,2.816,1.28,2.816,2.848c0,0.95-0.315,1.718-0.944,2.304
	c-0.704,0.651-1.691,0.976-2.96,0.976c-1.92,0-3.301-0.763-4.144-2.288l1.168-0.624c0.586,1.152,1.573,1.728,2.96,1.728
	c0.811,0,1.44-0.208,1.888-0.624c0.427-0.395,0.64-0.896,0.64-1.504c0-0.714-0.32-1.285-0.96-1.712
	c-0.598-0.395-1.366-0.592-2.304-0.592h-0.704v-1.136h0.736c0.949,0,1.68-0.181,2.192-0.544c0.544-0.384,0.816-0.901,0.816-1.552
	c0-0.704-0.304-1.227-0.912-1.568c-0.406-0.234-0.875-0.352-1.408-0.352c-1.163,0-2.021,0.582-2.576,1.744l-1.168-0.56
	c0.768-1.536,2.021-2.304,3.76-2.304c1.088,0,1.979,0.278,2.672,0.832c0.683,0.544,1.024,1.259,1.024,2.144
	c0,0.843-0.331,1.531-0.992,2.064c-0.416,0.342-0.949,0.56-1.6,0.656V207.072z"/>
<path fill="#000066" d="M358.7,212.96h-1.408v-10.096c-0.864,0.31-1.792,0.565-2.784,0.768l-0.256-1.088
	c1.376-0.331,2.56-0.746,3.552-1.248h0.896V212.96z"/>
<path fill="#000066" d="M376.38,203.68c-0.203,2.592-0.73,4.736-1.584,6.432c0.79,1.088,1.846,2.037,3.168,2.848l-0.784,1.12
	c-1.088-0.811-2.069-1.802-2.944-2.976c-0.758,1.195-1.846,2.25-3.264,3.168l-0.784-0.976c1.451-0.778,2.576-1.829,3.376-3.152
	c-0.672-1.035-1.179-2.325-1.52-3.872c-0.277,0.662-0.597,1.286-0.96,1.872l-0.752-0.848l-0.08,0.08
	c-0.619,0.63-1.323,1.232-2.112,1.808v0.56c1.024-0.139,2.016-0.304,2.976-0.496l0.048,0.896c-1.195,0.267-2.203,0.459-3.024,0.576
	v2.384c0,0.48-0.123,0.805-0.368,0.976c-0.203,0.128-0.549,0.192-1.04,0.192s-1.008-0.038-1.552-0.112l-0.128-1.152
	c0.544,0.128,1.045,0.192,1.504,0.192c0.362,0,0.544-0.17,0.544-0.512v-1.808c-1.099,0.15-2.171,0.272-3.216,0.368l-0.288-1.008
	c1.184-0.096,2.304-0.208,3.36-0.336l0.144-0.016v-0.992c0.714-0.49,1.243-0.928,1.584-1.312h-2.448
	c-0.811,0.726-1.622,1.339-2.432,1.84l-0.656-0.816c1.291-0.682,2.603-1.749,3.936-3.2h-3.76v-0.96h2.928v-1.76h-2.16v-0.928h2.256
	v-1.92h1.04v1.92h1.76v0.832c0.374-0.64,0.704-1.333,0.992-2.08l0.992,0.464c-0.566,1.237-1.222,2.363-1.968,3.376h1.648v0.96
	h-2.384c-0.31,0.374-0.709,0.816-1.2,1.328h2.624l0.496,0.544c0.981-1.664,1.68-4.09,2.096-7.28l1.088,0.208
	c-0.139,0.981-0.278,1.818-0.416,2.512h4.528v1.056H376.38z M369.084,202.688h-1.792v1.76h0.608
	C368.348,203.862,368.743,203.275,369.084,202.688z M375.276,203.68h-2.4c-0.075,0.288-0.149,0.571-0.224,0.848
	c0.277,1.75,0.768,3.259,1.472,4.528C374.689,207.744,375.073,205.952,375.276,203.68z"/>
<path fill="#000066" d="M387.164,207.936v1.808h5.04v0.992h-5.04v1.92h6.4v1.024H379.66v-1.024h6.304v-1.92h-4.944v-0.992h4.944V208
	l-0.64,0.032c-0.811,0.042-2.123,0.091-3.936,0.144l-0.416-1.04c0.725,0,1.28-0.005,1.664-0.016l0.592-0.016
	c0.438-0.683,0.837-1.376,1.2-2.08h-2.64v-0.96h9.648v0.96h-5.68c-0.491,0.843-0.934,1.531-1.328,2.064l0.624-0.016
	c1.429-0.021,2.938-0.069,4.528-0.144l0.368-0.016c-0.48-0.395-1.03-0.805-1.648-1.232l0.864-0.496
	c1.173,0.747,2.357,1.664,3.552,2.752l-0.88,0.72c-0.352-0.363-0.683-0.683-0.992-0.96l-1.2,0.096
	c-0.779,0.054-1.451,0.096-2.016,0.128L387.164,207.936z M387.164,201.744h5.984v3.28h-1.168v-2.304h-10.752v2.304h-1.152v-3.28
	h5.888v-1.904h1.2V201.744z"/>
<path fill="#000066" d="M568.541,212.96h-1.408v-10.096c-0.864,0.31-1.792,0.565-2.784,0.768l-0.256-1.088
	c1.376-0.331,2.56-0.746,3.552-1.248h0.896V212.96z"/>
<path fill="#000066" d="M578.412,207.072c1.877,0.331,2.816,1.28,2.816,2.848c0,0.95-0.315,1.718-0.944,2.304
	c-0.704,0.651-1.691,0.976-2.96,0.976c-1.92,0-3.301-0.763-4.144-2.288l1.168-0.624c0.586,1.152,1.573,1.728,2.96,1.728
	c0.811,0,1.44-0.208,1.888-0.624c0.427-0.395,0.64-0.896,0.64-1.504c0-0.714-0.32-1.285-0.96-1.712
	c-0.598-0.395-1.366-0.592-2.304-0.592h-0.704v-1.136h0.736c0.949,0,1.68-0.181,2.192-0.544c0.544-0.384,0.816-0.901,0.816-1.552
	c0-0.704-0.304-1.227-0.912-1.568c-0.406-0.234-0.875-0.352-1.408-0.352c-1.163,0-2.021,0.582-2.576,1.744l-1.168-0.56
	c0.768-1.536,2.021-2.304,3.76-2.304c1.088,0,1.979,0.278,2.672,0.832c0.683,0.544,1.024,1.259,1.024,2.144
	c0,0.843-0.331,1.531-0.992,2.064c-0.416,0.342-0.949,0.56-1.6,0.656V207.072z"/>
<path fill="#000066" d="M591.692,212.96h-8.032v-1.328c0.629-1.483,1.834-2.821,3.616-4.016l0.448-0.304
	c0.906-0.618,1.504-1.104,1.792-1.456c0.331-0.416,0.496-0.864,0.496-1.344c0-0.544-0.192-1.008-0.576-1.392
	c-0.438-0.426-0.998-0.64-1.68-0.64c-1.387,0-2.298,0.773-2.736,2.32l-1.232-0.448c0.597-2.026,1.946-3.04,4.048-3.04
	c1.152,0,2.069,0.342,2.752,1.024c0.597,0.608,0.896,1.35,0.896,2.224c0,0.64-0.192,1.227-0.576,1.76
	c-0.374,0.522-1.189,1.173-2.448,1.952l-0.336,0.208c-1.632,0.971-2.677,2.043-3.136,3.216h6.704V212.96z"/>
<path fill="#000066" d="M606.38,203.68c-0.203,2.592-0.73,4.736-1.584,6.432c0.79,1.088,1.846,2.037,3.168,2.848l-0.784,1.12
	c-1.088-0.811-2.069-1.802-2.944-2.976c-0.758,1.195-1.846,2.25-3.264,3.168l-0.784-0.976c1.451-0.778,2.576-1.829,3.376-3.152
	c-0.672-1.035-1.179-2.325-1.52-3.872c-0.277,0.662-0.597,1.286-0.96,1.872l-0.752-0.848l-0.08,0.08
	c-0.619,0.63-1.323,1.232-2.112,1.808v0.56c1.024-0.139,2.016-0.304,2.976-0.496l0.048,0.896c-1.195,0.267-2.203,0.459-3.024,0.576
	v2.384c0,0.48-0.123,0.805-0.368,0.976c-0.203,0.128-0.549,0.192-1.04,0.192s-1.008-0.038-1.552-0.112l-0.128-1.152
	c0.544,0.128,1.045,0.192,1.504,0.192c0.362,0,0.544-0.17,0.544-0.512v-1.808c-1.099,0.15-2.171,0.272-3.216,0.368l-0.288-1.008
	c1.184-0.096,2.304-0.208,3.36-0.336l0.144-0.016v-0.992c0.714-0.49,1.243-0.928,1.584-1.312h-2.448
	c-0.811,0.726-1.622,1.339-2.432,1.84l-0.656-0.816c1.291-0.682,2.603-1.749,3.936-3.2h-3.76v-0.96h2.928v-1.76h-2.16v-0.928h2.256
	v-1.92h1.04v1.92h1.76v0.832c0.374-0.64,0.704-1.333,0.992-2.08l0.992,0.464c-0.566,1.237-1.222,2.363-1.968,3.376h1.648v0.96
	h-2.384c-0.31,0.374-0.709,0.816-1.2,1.328h2.624l0.496,0.544c0.981-1.664,1.68-4.09,2.096-7.28l1.088,0.208
	c-0.139,0.981-0.278,1.818-0.416,2.512h4.528v1.056H606.38z M599.084,202.688h-1.792v1.76h0.608
	C598.348,203.862,598.743,203.275,599.084,202.688z M605.276,203.68h-2.4c-0.075,0.288-0.149,0.571-0.224,0.848
	c0.277,1.75,0.768,3.259,1.472,4.528C604.689,207.744,605.073,205.952,605.276,203.68z"/>
<path fill="#000066" d="M617.164,207.936v1.808h5.04v0.992h-5.04v1.92h6.4v1.024H609.66v-1.024h6.304v-1.92h-4.944v-0.992h4.944V208
	l-0.64,0.032c-0.811,0.042-2.123,0.091-3.936,0.144l-0.416-1.04c0.725,0,1.28-0.005,1.664-0.016l0.592-0.016
	c0.438-0.683,0.837-1.376,1.2-2.08h-2.64v-0.96h9.648v0.96h-5.68c-0.491,0.843-0.934,1.531-1.328,2.064l0.624-0.016
	c1.429-0.021,2.938-0.069,4.528-0.144l0.368-0.016c-0.48-0.395-1.03-0.805-1.648-1.232l0.864-0.496
	c1.173,0.747,2.357,1.664,3.552,2.752l-0.88,0.72c-0.352-0.363-0.683-0.683-0.992-0.96l-1.2,0.096
	c-0.779,0.054-1.451,0.096-2.016,0.128L617.164,207.936z M617.164,201.744h5.984v3.28h-1.168v-2.304h-10.752v2.304h-1.152v-3.28
	h5.888v-1.904h1.2V201.744z"/>
<path fill="#000066" d="M634.506,521.769h-7.344v-10.106h7.152v1.076h-5.76v3.312h5.104v1.019h-5.104v3.609h5.952V521.769z"/>
<path fill="#000066" d="M645.354,511.662l-4.64,10.248h-1.04l-4.528-10.248h1.568l2.704,6.342c0.32,0.745,0.597,1.467,0.832,2.165
	h0.048c0.202-0.613,0.474-1.335,0.816-2.165l2.672-6.342H645.354z"/>
<path fill="#000066" d="M634.506,597.096h-7.344v-10.106h7.152v1.076h-5.76v3.312h5.104v1.019h-5.104v3.609h5.952V597.096z"/>
<path fill="#000066" d="M645.354,586.989l-4.64,10.248h-1.04l-4.528-10.248h1.568l2.704,6.342c0.32,0.745,0.597,1.467,0.832,2.165
	h0.048c0.202-0.613,0.474-1.335,0.816-2.165l2.672-6.342H645.354z"/>
<path fill="#000066" d="M804.21,212.96h-1.408v-10.096c-0.864,0.31-1.792,0.565-2.784,0.768l-0.256-1.088
	c1.376-0.331,2.56-0.746,3.552-1.248h0.896V212.96z"/>
<path fill="#000066" d="M814.081,207.072c1.877,0.331,2.816,1.28,2.816,2.848c0,0.95-0.315,1.718-0.944,2.304
	c-0.704,0.651-1.69,0.976-2.96,0.976c-1.92,0-3.302-0.763-4.144-2.288l1.168-0.624c0.586,1.152,1.573,1.728,2.96,1.728
	c0.811,0,1.439-0.208,1.888-0.624c0.427-0.395,0.64-0.896,0.64-1.504c0-0.714-0.319-1.285-0.96-1.712
	c-0.598-0.395-1.365-0.592-2.304-0.592h-0.704v-1.136h0.736c0.949,0,1.68-0.181,2.191-0.544c0.544-0.384,0.816-0.901,0.816-1.552
	c0-0.704-0.304-1.227-0.912-1.568c-0.405-0.234-0.875-0.352-1.408-0.352c-1.162,0-2.021,0.582-2.576,1.744l-1.168-0.56
	c0.769-1.536,2.021-2.304,3.761-2.304c1.088,0,1.979,0.278,2.672,0.832c0.683,0.544,1.023,1.259,1.023,2.144
	c0,0.843-0.33,1.531-0.992,2.064c-0.415,0.342-0.949,0.56-1.6,0.656V207.072z"/>
<path fill="#000066" d="M824.161,207.072c1.877,0.331,2.816,1.28,2.816,2.848c0,0.95-0.315,1.718-0.944,2.304
	c-0.704,0.651-1.69,0.976-2.96,0.976c-1.92,0-3.302-0.763-4.144-2.288l1.168-0.624c0.586,1.152,1.573,1.728,2.96,1.728
	c0.811,0,1.439-0.208,1.888-0.624c0.427-0.395,0.64-0.896,0.64-1.504c0-0.714-0.319-1.285-0.96-1.712
	c-0.598-0.395-1.365-0.592-2.304-0.592h-0.704v-1.136h0.736c0.949,0,1.68-0.181,2.191-0.544c0.544-0.384,0.816-0.901,0.816-1.552
	c0-0.704-0.304-1.227-0.912-1.568c-0.405-0.234-0.875-0.352-1.408-0.352c-1.162,0-2.021,0.582-2.576,1.744l-1.168-0.56
	c0.769-1.536,2.021-2.304,3.761-2.304c1.088,0,1.979,0.278,2.672,0.832c0.683,0.544,1.023,1.259,1.023,2.144
	c0,0.843-0.33,1.531-0.992,2.064c-0.415,0.342-0.949,0.56-1.6,0.656V207.072z"/>
<path fill="#000066" d="M842.049,203.68c-0.202,2.592-0.73,4.736-1.584,6.432c0.79,1.088,1.846,2.037,3.169,2.848l-0.784,1.12
	c-1.088-0.811-2.069-1.802-2.944-2.976c-0.758,1.195-1.846,2.25-3.264,3.168l-0.784-0.976c1.45-0.778,2.576-1.829,3.376-3.152
	c-0.672-1.035-1.179-2.325-1.521-3.872c-0.277,0.662-0.597,1.286-0.96,1.872l-0.752-0.848l-0.08,0.08
	c-0.618,0.63-1.322,1.232-2.111,1.808v0.56c1.023-0.139,2.016-0.304,2.976-0.496l0.048,0.896c-1.194,0.267-2.202,0.459-3.023,0.576
	v2.384c0,0.48-0.123,0.805-0.368,0.976c-0.203,0.128-0.55,0.192-1.04,0.192c-0.491,0-1.008-0.038-1.552-0.112l-0.128-1.152
	c0.544,0.128,1.045,0.192,1.504,0.192c0.362,0,0.544-0.17,0.544-0.512v-1.808c-1.099,0.15-2.171,0.272-3.216,0.368l-0.288-1.008
	c1.184-0.096,2.304-0.208,3.359-0.336l0.145-0.016v-0.992c0.714-0.49,1.242-0.928,1.584-1.312h-2.448
	c-0.811,0.726-1.621,1.339-2.432,1.84l-0.656-0.816c1.29-0.682,2.603-1.749,3.936-3.2h-3.76v-0.96h2.928v-1.76h-2.159v-0.928h2.256
	v-1.92h1.04v1.92h1.76v0.832c0.373-0.64,0.704-1.333,0.992-2.08l0.992,0.464c-0.566,1.237-1.222,2.363-1.969,3.376h1.648v0.96
	h-2.384c-0.31,0.374-0.71,0.816-1.2,1.328h2.624l0.496,0.544c0.981-1.664,1.68-4.09,2.096-7.28l1.088,0.208
	c-0.139,0.981-0.277,1.818-0.416,2.512h4.528v1.056H842.049z M834.753,202.688h-1.792v1.76h0.608
	C834.018,203.862,834.412,203.275,834.753,202.688z M840.945,203.68h-2.4c-0.074,0.288-0.149,0.571-0.224,0.848
	c0.277,1.75,0.768,3.259,1.472,4.528C840.358,207.744,840.742,205.952,840.945,203.68z"/>
<path fill="#000066" d="M852.833,207.936v1.808h5.04v0.992h-5.04v1.92h6.4v1.024h-13.904v-1.024h6.305v-1.92h-4.944v-0.992h4.944
	V208l-0.641,0.032c-0.811,0.042-2.123,0.091-3.936,0.144l-0.416-1.04c0.725,0,1.279-0.005,1.664-0.016l0.592-0.016
	c0.438-0.683,0.837-1.376,1.2-2.08h-2.641v-0.96h9.648v0.96h-5.68c-0.491,0.843-0.934,1.531-1.328,2.064l0.624-0.016
	c1.429-0.021,2.938-0.069,4.527-0.144l0.368-0.016c-0.479-0.395-1.029-0.805-1.647-1.232l0.863-0.496
	c1.174,0.747,2.357,1.664,3.553,2.752l-0.881,0.72c-0.352-0.363-0.683-0.683-0.991-0.96l-1.2,0.096
	c-0.779,0.054-1.451,0.096-2.017,0.128L852.833,207.936z M852.833,201.744h5.984v3.28h-1.168v-2.304h-10.752v2.304h-1.152v-3.28
	h5.889v-1.904h1.199V201.744z"/>
<path fill="#000066" d="M1038.21,212.96h-1.408v-10.096c-0.864,0.31-1.792,0.565-2.784,0.768l-0.256-1.088
	c1.376-0.331,2.56-0.746,3.552-1.248h0.896V212.96z"/>
<path fill="#000066" d="M1048.081,207.072c1.877,0.331,2.816,1.28,2.816,2.848c0,0.95-0.315,1.718-0.944,2.304
	c-0.704,0.651-1.69,0.976-2.96,0.976c-1.92,0-3.302-0.763-4.144-2.288l1.168-0.624c0.586,1.152,1.573,1.728,2.96,1.728
	c0.811,0,1.439-0.208,1.888-0.624c0.427-0.395,0.64-0.896,0.64-1.504c0-0.714-0.319-1.285-0.96-1.712
	c-0.598-0.395-1.365-0.592-2.304-0.592h-0.704v-1.136h0.736c0.949,0,1.68-0.181,2.191-0.544c0.544-0.384,0.816-0.901,0.816-1.552
	c0-0.704-0.304-1.227-0.912-1.568c-0.405-0.234-0.875-0.352-1.408-0.352c-1.162,0-2.021,0.582-2.576,1.744l-1.168-0.56
	c0.769-1.536,2.021-2.304,3.761-2.304c1.088,0,1.979,0.278,2.672,0.832c0.683,0.544,1.023,1.259,1.023,2.144
	c0,0.843-0.33,1.531-0.992,2.064c-0.415,0.342-0.949,0.56-1.6,0.656V207.072z"/>
<path fill="#000066" d="M1061.745,210.224h-1.888v2.736h-1.28v-2.736h-5.872v-1.28l5.648-7.52h1.504v7.616h1.888V210.224z
	 M1058.657,202.848h-0.048c-0.438,0.726-0.901,1.414-1.393,2.064l-3.104,4.128h4.464v-3.776
	C1058.577,204.571,1058.604,203.766,1058.657,202.848z"/>
<path fill="#000066" d="M1076.049,203.68c-0.202,2.592-0.73,4.736-1.584,6.432c0.79,1.088,1.846,2.037,3.169,2.848l-0.784,1.12
	c-1.088-0.811-2.069-1.802-2.944-2.976c-0.758,1.195-1.846,2.25-3.264,3.168l-0.784-0.976c1.45-0.778,2.576-1.829,3.376-3.152
	c-0.672-1.035-1.179-2.325-1.521-3.872c-0.277,0.662-0.597,1.286-0.96,1.872l-0.752-0.848l-0.08,0.08
	c-0.618,0.63-1.322,1.232-2.111,1.808v0.56c1.023-0.139,2.016-0.304,2.976-0.496l0.048,0.896c-1.194,0.267-2.202,0.459-3.023,0.576
	v2.384c0,0.48-0.123,0.805-0.368,0.976c-0.203,0.128-0.55,0.192-1.04,0.192c-0.491,0-1.008-0.038-1.552-0.112l-0.128-1.152
	c0.544,0.128,1.045,0.192,1.504,0.192c0.362,0,0.544-0.17,0.544-0.512v-1.808c-1.099,0.15-2.171,0.272-3.216,0.368l-0.288-1.008
	c1.184-0.096,2.304-0.208,3.359-0.336l0.145-0.016v-0.992c0.714-0.49,1.242-0.928,1.584-1.312h-2.448
	c-0.811,0.726-1.621,1.339-2.432,1.84l-0.656-0.816c1.29-0.682,2.603-1.749,3.936-3.2h-3.76v-0.96h2.928v-1.76h-2.159v-0.928h2.256
	v-1.92h1.04v1.92h1.76v0.832c0.373-0.64,0.704-1.333,0.992-2.08l0.992,0.464c-0.566,1.237-1.222,2.363-1.969,3.376h1.648v0.96
	h-2.384c-0.31,0.374-0.71,0.816-1.2,1.328h2.624l0.496,0.544c0.981-1.664,1.68-4.09,2.096-7.28l1.088,0.208
	c-0.139,0.981-0.277,1.818-0.416,2.512h4.528v1.056H1076.049z M1068.753,202.688h-1.792v1.76h0.608
	C1068.018,203.862,1068.412,203.275,1068.753,202.688z M1074.945,203.68h-2.4c-0.074,0.288-0.149,0.571-0.224,0.848
	c0.277,1.75,0.768,3.259,1.472,4.528C1074.358,207.744,1074.742,205.952,1074.945,203.68z"/>
<path fill="#000066" d="M1086.833,207.936v1.808h5.04v0.992h-5.04v1.92h6.4v1.024h-13.904v-1.024h6.305v-1.92h-4.944v-0.992h4.944
	V208l-0.641,0.032c-0.811,0.042-2.123,0.091-3.936,0.144l-0.416-1.04c0.725,0,1.279-0.005,1.664-0.016l0.592-0.016
	c0.438-0.683,0.837-1.376,1.2-2.08h-2.641v-0.96h9.648v0.96h-5.68c-0.491,0.843-0.934,1.531-1.328,2.064l0.624-0.016
	c1.429-0.021,2.938-0.069,4.527-0.144l0.368-0.016c-0.479-0.395-1.029-0.805-1.647-1.232l0.863-0.496
	c1.174,0.747,2.357,1.664,3.553,2.752l-0.881,0.72c-0.352-0.363-0.683-0.683-0.991-0.96l-1.2,0.096
	c-0.779,0.054-1.451,0.096-2.017,0.128L1086.833,207.936z M1086.833,201.744h5.984v3.28h-1.168v-2.304h-10.752v2.304h-1.152v-3.28
	h5.889v-1.904h1.199V201.744z"/>
<path fill="#000066" d="M1005.682,700.359c-0.267,0.631-0.677,1.18-1.231,1.648c-0.907,0.768-1.989,1.152-3.248,1.152
	c-1.622,0-2.955-0.57-4-1.712c-0.971-1.067-1.456-2.464-1.456-4.192c0-1.792,0.528-3.248,1.584-4.367
	c1.013-1.078,2.282-1.617,3.808-1.617c2.123,0,3.61,0.912,4.464,2.736l-1.279,0.592c-0.641-1.408-1.696-2.111-3.168-2.111
	c-1.088,0-1.995,0.41-2.721,1.232c-0.768,0.874-1.151,2.059-1.151,3.551c0,1.281,0.325,2.336,0.976,3.168
	c0.769,0.971,1.749,1.457,2.944,1.457c1.493,0,2.592-0.705,3.296-2.112L1005.682,700.359z"/>
<path fill="#000066" d="M1013.697,693.977c-0.586-1.024-1.472-1.537-2.655-1.537c-0.673,0-1.206,0.209-1.601,0.625
	c-0.31,0.33-0.464,0.725-0.464,1.184c0,0.49,0.197,0.896,0.592,1.216c0.267,0.214,0.864,0.513,1.792,0.896l0.544,0.225
	c1.227,0.502,2.054,1.04,2.48,1.616c0.384,0.512,0.576,1.088,0.576,1.728c0,1.024-0.379,1.835-1.137,2.432
	c-0.672,0.534-1.535,0.801-2.592,0.801c-1.76,0-3.109-0.666-4.048-2l1.104-0.832c0.746,1.066,1.732,1.6,2.96,1.6
	c0.597,0,1.093-0.139,1.487-0.416c0.513-0.362,0.769-0.854,0.769-1.472c0-0.49-0.187-0.917-0.561-1.28
	c-0.395-0.384-1.136-0.783-2.224-1.199l-0.464-0.176c-1.813-0.684-2.72-1.686-2.72-3.009c0-0.864,0.293-1.584,0.88-2.159
	c0.65-0.63,1.53-0.945,2.64-0.945c1.632,0,2.88,0.641,3.744,1.92L1013.697,693.977z"/>
<path fill="#000066" d="M1025.426,692.729h-4.225v10.191h-1.424v-10.191h-4.096v-1.232h9.744V692.729z"/>
<path fill="#000066" d="M1036.001,690.439l0.624,3.057l0.688-0.111c1.194-0.203,2.154-0.369,2.88-0.496l0.72-0.129l0.208,1.12
	l-4.288,0.704l0.561,2.784c0.842-0.139,2.005-0.336,3.487-0.593l0.912-0.159l0.992-0.177l0.225,1.152l-5.393,0.881l1.008,4.976
	l-1.231,0.288l-1.008-5.057l-5.601,0.928l-0.224-1.168l1.168-0.176l0.928-0.144l1.536-0.24l0.944-0.144l1.023-0.16l-0.56-2.784
	l-4.353,0.704l-0.191-1.137l0.863-0.127c1.525-0.213,2.678-0.395,3.456-0.545l-0.607-3.008L1036.001,690.439z M1041.521,693
	c-0.405-0.725-0.886-1.402-1.44-2.031l0.8-0.513c0.48,0.47,0.981,1.126,1.505,1.968L1041.521,693z M1043.01,692.008
	c-0.427-0.703-0.929-1.35-1.505-1.936l0.801-0.561c0.533,0.502,1.056,1.131,1.567,1.889L1043.01,692.008z"/>
<path fill="#000066" d="M1048.705,693.32l0.607,2.72l5.152-0.88l0.816,0.688c-0.854,1.696-1.761,3.104-2.721,4.225l-1.088-0.608
	c0.875-0.96,1.59-1.994,2.145-3.104l-4.064,0.753l1.376,6.256l-1.2,0.288l-1.376-6.32l-3.12,0.576l-0.239-1.12l3.136-0.544
	l-0.592-2.688L1048.705,693.32z"/>
<path fill="#000066" d="M1057.185,695.112h10.688l0.768,0.72c-1.227,4.107-3.872,6.768-7.936,7.984l-0.832-1.185
	c1.824-0.384,3.37-1.162,4.64-2.336c1.174-1.077,2.011-2.41,2.512-4h-9.84V695.112z M1058.561,691.592h8.688v1.184h-8.688V691.592z"
	/>
<path fill="#000066" d="M1072.097,691.112h1.359v7.216h-1.359V691.112z M1078.112,690.809h1.36v5.392c0,1.995-0.4,3.626-1.2,4.896
	c-0.726,1.143-1.872,2.096-3.44,2.864l-0.943-1.071c1.546-0.662,2.64-1.51,3.28-2.545c0.629-1.002,0.943-2.362,0.943-4.08V690.809z"
	/>
<path fill="#000066" d="M1082.816,696.359h13.056v1.281h-13.056V696.359z"/>
<path fill="#000066" d="M1107.345,702.92h-1.408v-10.096c-0.864,0.31-1.792,0.565-2.784,0.768l-0.256-1.088
	c1.376-0.33,2.56-0.746,3.552-1.248h0.896V702.92z"/>
<path fill="#000066" d="M1117.216,697.032c1.877,0.331,2.816,1.28,2.816,2.848c0,0.95-0.315,1.718-0.944,2.304
	c-0.704,0.651-1.69,0.977-2.96,0.977c-1.92,0-3.302-0.763-4.144-2.288l1.168-0.624c0.586,1.152,1.573,1.729,2.96,1.729
	c0.811,0,1.439-0.209,1.888-0.625c0.427-0.395,0.64-0.896,0.64-1.504c0-0.714-0.319-1.285-0.96-1.711
	c-0.598-0.395-1.365-0.593-2.304-0.593h-0.704v-1.136h0.736c0.949,0,1.68-0.182,2.191-0.544c0.544-0.384,0.816-0.901,0.816-1.552
	c0-0.705-0.304-1.227-0.912-1.568c-0.405-0.234-0.875-0.352-1.408-0.352c-1.162,0-2.021,0.581-2.576,1.744l-1.168-0.561
	c0.769-1.536,2.021-2.305,3.761-2.305c1.088,0,1.979,0.278,2.672,0.832c0.683,0.545,1.023,1.26,1.023,2.145
	c0,0.843-0.33,1.531-0.992,2.064c-0.415,0.342-0.949,0.56-1.6,0.656V697.032z"/>
<path fill="#000066" d="M1131.488,702.92h-1.536l-1.264-3.359h-4.593l-1.248,3.359h-1.52l4.528-11.504h1.136L1131.488,702.92z
	 M1128.288,698.424l-1.152-3.039c-0.352-0.929-0.592-1.697-0.72-2.305h-0.048c-0.182,0.693-0.427,1.461-0.736,2.305l-1.136,3.039
	H1128.288z"/>
</svg>
