<?xml version="1.0" encoding="UTF-8" standalone="no"?>
<!-- Generator: Adobe Illustrator 10.0, SVG Export Plug-In . SVG Version: 3.0.0 Build 77)  -->
<svg
   xmlns:ns0="http://ns.adobe.com/SaveForWeb/1.0/"
   xmlns:ns="http://ns.adobe.com/Variables/1.0/"
   xmlns:i="http://ns.adobe.com/AdobeIllustrator/10.0/"
   xmlns:dc="http://purl.org/dc/elements/1.1/"
   xmlns:cc="http://creativecommons.org/ns#"
   xmlns:rdf="http://www.w3.org/1999/02/22-rdf-syntax-ns#"
   xmlns:svg="http://www.w3.org/2000/svg"
   xmlns="http://www.w3.org/2000/svg"
   xmlns:sodipodi="http://sodipodi.sourceforge.net/DTD/sodipodi-0.dtd"
   xmlns:inkscape="http://www.inkscape.org/namespaces/inkscape"
   i:viewOrigin="251 467"
   i:rulerOrigin="0 0"
   i:pageBounds="0 792 612 0"
   width="1052.3622"
   height="1488.189"
   viewBox="0 0 108.758 144.133"
   overflow="visible"
   enable-background="new 0 0 108.758 144.133"
   xml:space="preserve"
   id="svg2383"
   sodipodi:version="0.32"
   inkscape:version="0.46"
   sodipodi:docname="debian-tshirts-osc2009.svg"
   inkscape:output_extension="org.inkscape.output.svg.inkscape"
   version="1.0"
   style="overflow:visible"><sodipodi:namedview
   inkscape:window-height="817"
   inkscape:window-width="1152"
   inkscape:pageshadow="2"
   inkscape:pageopacity="0.0"
   guidetolerance="10.0"
   gridtolerance="10.0"
   objecttolerance="10.0"
   borderopacity="1.0"
   bordercolor="#666666"
   pagecolor="#ffffff"
   id="base"
   showgrid="false"
   inkscape:document-units="mm"
   units="mm"
   inkscape:zoom="0.40586244"
   inkscape:cx="208.33941"
   inkscape:cy="744.09448"
   inkscape:window-x="0"
   inkscape:window-y="25"
   inkscape:current-layer="svg2383"
   showguides="true"
   inkscape:guide-bbox="true" /><defs
   id="defs2429"><marker
   inkscape:stockid="Arrow1Mend"
   orient="auto"
   refY="0"
   refX="0"
   id="Arrow1Mend"
   style="overflow:visible"><path
     id="path3766"
     d="M 0,0 L 5,-5 L -12.5,0 L 5,5 L 0,0 z"
     style="fill-rule:evenodd;stroke:#000000;stroke-width:1pt;marker-start:none"
     transform="matrix(-0.4,0,0,-0.4,-4,0)" /></marker><marker
   inkscape:stockid="Arrow2Lend"
   orient="auto"
   refY="0"
   refX="0"
   id="Arrow2Lend"
   style="overflow:visible"><path
     id="path3364"
     style="font-size:12px;fill-rule:evenodd;stroke-width:0.625;stroke-linejoin:round"
     d="M 8.7185878,4.0337352 L -2.2072895,0.016013256 L 8.7185884,-4.0017078 C 6.97309,-1.6296469 6.9831476,1.6157441 8.7185878,4.0337352 z"
     transform="matrix(-1.1,0,0,-1.1,-1.1,0)" /></marker><marker
   inkscape:stockid="Arrow2Lstart"
   orient="auto"
   refY="0"
   refX="0"
   id="Arrow2Lstart"
   style="overflow:visible"><path
     id="path3361"
     style="font-size:12px;fill-rule:evenodd;stroke-width:0.625;stroke-linejoin:round"
     d="M 8.7185878,4.0337352 L -2.2072895,0.016013256 L 8.7185884,-4.0017078 C 6.97309,-1.6296469 6.9831476,1.6157441 8.7185878,4.0337352 z"
     transform="matrix(1.1,0,0,1.1,1.1,0)" /></marker><marker
   inkscape:stockid="Arrow1Mstart"
   orient="auto"
   refY="0"
   refX="0"
   id="Arrow1Mstart"
   style="overflow:visible"><path
     id="path3349"
     d="M 0,0 L 5,-5 L -12.5,0 L 5,5 L 0,0 z"
     style="fill-rule:evenodd;stroke:#000000;stroke-width:1pt;marker-start:none"
     transform="matrix(0.4,0,0,0.4,4,0)" /></marker><inkscape:perspective
   id="perspective2431"
   inkscape:persp3d-origin="54.379002 : 48.044332 : 1"
   inkscape:vp_z="108.758 : 72.066498 : 1"
   inkscape:vp_y="0 : 1000 : 0"
   inkscape:vp_x="0 : 72.066498 : 1"
   sodipodi:type="inkscape:persp3d" />
		
	
			
			
			
			
			
			
			
			
			
			
			
			
			
			
			
			
			
			
			
		<marker
   inkscape:stockid="Arrow1Lstart"
   style="overflow:visible"
   refY="0"
   refX="0"
   orient="auto"
   id="Arrow1Lstart"><path
     id="path2512"
     style="fill-rule:evenodd;stroke:#000000;stroke-width:1pt;marker-start:none"
     transform="matrix(0.8,0,0,0.8,10,0)"
     d="M 0,0 L 5,-5 L -12.5,0 L 5,5 L 0,0 z" /></marker><marker
   inkscape:stockid="Arrow1Lend"
   style="overflow:visible"
   refY="0"
   refX="0"
   orient="auto"
   id="Arrow1Lend"><path
     id="path2515"
     style="fill-rule:evenodd;stroke:#000000;stroke-width:1pt;marker-start:none"
     transform="matrix(-0.8,0,0,-0.8,-10,0)"
     d="M 0,0 L 5,-5 L -12.5,0 L 5,5 L 0,0 z" /></marker>


</defs>
	<metadata
   id="metadata2385">
		<ns:variableSets>
			<ns:variableSet
   locked="none"
   varSetName="binding1">
				<ns:variables />
				<ns:sampleDataSets />
			</ns:variableSet>
		</ns:variableSets>
		<ns0:sfw>
			<ns0:slices />
			<ns0:sliceSourceBounds
   bottomLeftOrigin="true"
   height="144.133"
   width="108.758"
   x="251"
   y="322.867" />
		</ns0:sfw>
	<rdf:RDF><cc:Work
     rdf:about=""><dc:format>image/svg+xml</dc:format><dc:type
       rdf:resource="http://purl.org/dc/dcmitype/StillImage" /></cc:Work></rdf:RDF></metadata>
	
<g
   id="g2407"
   transform="translate(-0.1410564,-9.9999998e-7)"><path
     d="M 87.790006,76.089029 L 85.864264,74.160996 L 83.93624,76.089029 L 85.864264,78.017058 L 87.790006,76.089029 z M 87.062402,66.733485 C 86.363399,65.220403 86.246938,64.286494 86.15347,63.28598 C 85.781614,64.194028 84.244393,64.19491 79.237783,64.19491 L 73.508778,64.19491 C 71.785145,64.19491 70.808306,64.194286 70.063571,63.914887 C 69.690704,64.869672 69.480574,66.056031 69.480574,67.477153 C 69.480574,68.385201 69.480907,71.017127 72.390984,72.437244 C 73.741751,73.112628 75.559453,73.346173 76.933334,73.346173 C 77.771524,73.346173 79.610784,73.252137 80.775627,72.577255 C 81.869104,71.92599 82.428228,70.878049 82.428228,69.760952 C 82.428235,67.525248 80.564403,66.87336 79.609625,66.524612 C 80.797079,66.524612 84.943283,66.547553 87.062402,66.733485 z M 87.016499,53.700912 C 86.620016,52.863214 86.363824,52.139819 86.22463,50.556383 C 85.54925,51.185033 85.198168,51.185284 82.125255,51.185284 C 82.264449,50.743573 82.428228,50.184495 82.428228,49.229712 C 82.427726,45.06183 78.795298,44.386682 76.093256,44.386682 C 69.527354,44.386682 69.526473,47.87987 69.526473,48.391937 C 69.526473,49.835673 70.319839,50.766853 71.693219,51.162335 L 69.620582,51.20824 C 69.644205,51.65096 69.691741,52.093316 69.691741,52.814932 C 69.691741,53.071217 69.690104,53.282149 69.666481,53.469086 C 69.666496,53.655519 69.644205,53.840239 69.620582,54.04979 C 70.365317,53.677424 72.041812,53.397935 75.675526,53.397935 C 79.214754,53.397935 85.199893,53.398397 87.016499,53.700912 z M 82.591193,92.543859 C 82.289677,91.96093 81.986895,91.354645 81.893421,89.468195 C 81.660752,89.723478 81.450554,89.958565 80.541509,90.074151 C 79.052043,90.2852 72.765265,90.19254 71.484346,90.145301 C 70.180814,90.099077 69.993456,90.005137 69.620582,89.842327 C 69.690438,90.307154 69.712396,90.678544 69.712388,91.23785 C 69.712388,91.936351 69.666815,92.426097 69.620582,92.821583 C 70.436171,92.588914 70.71376,92.589431 73.694703,92.566811 C 77.140463,92.566811 78.026126,92.565001 78.840707,92.75043 C 79.632675,92.91375 80.610363,93.3582 80.610363,94.685344 C 80.610363,96.037121 79.539165,96.151702 79.143686,96.197923 C 78.585383,96.26878 77.001828,96.26909 75.907339,96.26909 L 73.394014,96.26909 C 72.764862,96.26909 70.970087,96.221872 70.435401,96.15202 C 70.038926,96.105799 69.923104,96.058568 69.620582,95.96611 C 69.689928,96.408821 69.737647,96.710508 69.737647,97.269821 C 69.737647,98.223596 69.666815,98.526405 69.620582,99.039479 C 70.295978,98.713851 71.133075,98.714211 71.925046,98.690602 L 78.937109,98.690602 C 80.333609,98.666973 82.451172,98.643073 82.451172,95.731992 C 82.451172,93.402831 80.84639,92.822757 80.123764,92.543859 L 82.591193,92.543859 z M 82.568235,77.587844 C 82.14914,76.703412 82.008709,76.168758 81.822268,74.25969 C 81.589599,74.585827 81.452187,74.794967 80.566751,74.911553 C 79.402418,75.074369 73.860214,75.050926 71.787323,74.957457 C 70.274753,74.887607 70.063305,74.793037 69.620582,74.560373 C 69.689928,75.095053 69.737647,75.609259 69.737647,76.352987 C 69.737647,77.028369 69.69043,77.355627 69.620582,77.82196 C 70.575365,77.308891 71.437143,77.333243 79.471909,77.378972 C 81.031219,77.378972 81.544601,77.402414 82.568235,77.587844 z M 82.451172,59.319744 C 82.451172,54.569942 77.186904,54.57082 76.070312,54.57082 C 71.343627,54.570814 69.480574,56.688775 69.480574,60.251623 C 69.480574,61.834054 69.714158,62.60292 69.831748,63.022022 C 70.669947,62.998906 71.205713,63.115435 71.927337,63.256141 C 71.62382,62.766186 71.227271,62.137519 71.227271,60.740519 C 71.227271,57.107812 74.534802,57.061189 75.675526,57.061189 L 75.675526,63.256141 L 77.048098,63.302046 C 79.772753,63.302046 82.451172,62.766014 82.451172,59.319744 z M 82.428228,83.601466 C 82.428228,81.296917 81.728532,79.945672 81.379281,79.27029 C 80.866712,79.550195 80.426228,79.784253 79.423708,79.993303 C 80.215676,80.902359 80.635613,82.088433 80.635613,83.2985 C 80.635613,85.232183 79.354881,85.23341 77.539286,85.23341 C 77.561898,84.790694 77.608141,84.41654 77.608141,83.787383 C 77.607639,80.829071 76.466957,78.873193 73.345813,78.873193 C 71.878457,78.873193 70.412704,79.317658 69.783547,80.622206 C 69.527265,81.204121 69.526473,81.784883 69.526473,81.971823 C 69.526473,84.114565 71.112396,84.836605 72.090303,85.279316 C 71.065668,85.255697 70.436171,85.278317 69.620582,85.348178 C 69.644205,85.767274 69.691741,86.187009 69.691741,86.886014 C 69.691741,87.28149 69.644205,87.654239 69.620582,88.049714 C 70.016065,87.793432 70.250367,87.654631 71.158415,87.583777 C 72.042844,87.537543 72.926456,87.537869 74.160641,87.537869 L 78.911852,87.560826 C 80.68223,87.560818 82.428228,87.094473 82.428228,83.601466 z M 80.938585,59.087922 C 80.938585,60.904526 78.936006,61.041526 77.282217,60.995295 L 77.282217,57.015286 C 79.214903,57.038904 80.938585,57.43514 80.938585,59.087922 z M 80.775627,49.532689 C 80.77562,50.324657 80.541021,50.767179 80.355591,51.116429 L 78.840707,51.13938 C 78.81709,51.116766 75.070188,51.117259 74.091779,51.070526 C 73.300822,51.024292 71.601413,50.952016 71.601413,49.275619 C 71.601413,47.552486 73.579853,47.133812 74.440662,46.994112 C 75.395448,46.831297 76.188004,46.831152 76.53625,46.831152 C 77.654348,46.831152 80.775627,46.901503 80.775627,49.532689 z M 80.30739,68.757914 C 80.30739,70.527784 77.862955,70.876456 76.047353,70.876456 C 73.882013,70.876456 70.970206,70.481166 70.970206,67.780131 C 70.970206,67.407262 71.040875,66.941895 71.110221,66.639379 C 71.948415,66.592644 73.393165,66.593474 75.069573,66.593474 C 77.072606,66.593474 78.118264,66.801486 78.631838,66.965307 C 80.284623,67.453754 80.30739,68.548867 80.30739,68.757914 z M 76.210319,84.04216 L 76.210319,85.277027 C 74.742977,85.230793 73.719712,85.207576 72.905131,84.811086 C 71.856863,84.322134 71.55321,83.509241 71.55321,82.903704 C 71.55321,81.505195 72.716951,81.202904 73.857661,81.202904 C 76.046137,81.202904 76.210319,83.158233 76.210319,84.04216 z"
     id="path2414" /><path
     id="path2390"
     d="M 47.740206,35.049399 C 46.753479,35.13198 45.772377,35.180564 44.803296,35.304082 L 45.228842,35.365335 C 45.941006,35.10489 46.982164,35.220912 47.740206,35.049399 z M 43.433168,35.500735 C 41.830269,35.598138 39.606403,36.432463 40.293158,35.671599 C 37.678125,36.83901 33.031579,38.478989 30.425015,40.923216 L 30.344419,40.375167 C 29.150186,41.808669 25.135285,44.654936 24.815552,46.51334 L 24.496392,46.587486 C 23.875982,47.639852 23.473848,48.83247 22.981192,49.91448 C 22.168802,51.299987 21.788679,50.448241 21.904433,50.665632 C 20.305768,53.90672 19.511019,56.629232 18.825675,58.863832 C 19.314096,59.594346 18.838111,63.262572 19.022329,66.198043 C 18.220526,80.698242 29.198841,94.777354 41.199055,98.026909 C 42.957938,98.657194 45.570292,98.635359 47.795011,98.697468 C 45.170802,97.946488 44.833676,98.299379 42.275814,97.407934 C 40.431528,96.53837 40.027093,95.547243 38.719929,94.413001 L 39.238966,95.325342 C 36.67687,94.418375 37.748706,94.202499 35.663738,93.542569 L 36.215014,92.823654 C 35.384271,92.760133 34.016478,91.424842 33.642397,90.683028 L 32.733277,90.718487 C 31.642094,89.373214 31.058965,88.402511 31.102019,87.649407 L 30.80865,88.171668 C 30.476214,87.60067 26.792152,83.121258 28.70349,84.164447 C 28.348465,83.841181 27.87409,83.635018 27.362377,82.704053 L 27.752461,82.259164 C 26.834199,81.075518 26.05869,79.56004 26.117978,79.054678 C 26.608517,79.71673 26.950851,79.840492 27.288228,79.954128 C 24.965402,74.191879 24.832861,79.638368 23.074683,74.089981 L 23.448647,74.060964 C 23.164205,73.629714 22.987431,73.165029 22.758748,72.706957 L 22.923164,71.091819 C 21.251801,69.160715 22.4554,62.872669 22.697494,59.424779 C 22.86336,58.023036 24.09131,56.530454 25.0251,54.189278 L 24.457706,54.092563 C 25.546066,52.19534 30.668413,46.471177 33.042764,46.764798 C 34.192531,45.320707 32.816583,46.756845 32.591428,46.394057 C 35.11753,43.780434 35.909621,44.550123 37.614156,44.079346 C 39.451384,42.988867 36.037166,44.505506 36.908136,43.663472 C 40.08641,42.852496 39.158982,41.81828 43.304216,41.406792 C 43.741819,41.655237 42.29184,41.790254 41.927642,42.112809 C 44.574437,40.81694 50.30281,41.113073 54.026674,42.831725 C 58.344126,44.851052 63.199919,50.816518 63.391902,56.42984 L 63.607897,56.487869 C 63.497788,58.719646 63.95039,61.300446 63.166232,63.670562 L 63.698165,62.548669 C 63.761691,64.253911 63.199808,65.084176 62.692329,66.549441 L 61.779986,67.000776 C 61.033941,68.450515 61.853277,67.921109 61.318978,69.0737 C 60.152976,70.109128 57.786102,72.314888 57.028061,72.516751 C 56.473996,72.50475 57.403129,71.861418 57.52453,71.610854 C 55.96539,72.680864 56.272989,73.219295 53.888049,73.870759 L 53.817124,73.712793 C 47.937714,76.479577 39.77,70.997823 39.877285,63.519042 C 39.815173,63.993347 39.700891,63.876523 39.571022,64.067092 C 39.267521,60.219713 41.348805,56.353105 44.858102,54.77279 C 48.290465,53.074607 52.314449,53.772363 54.77138,56.065546 C 53.421866,54.296783 50.730693,52.419853 47.546776,52.593483 C 44.426381,52.644301 41.508967,54.627804 40.534946,56.781236 C 38.936986,57.787019 38.748527,60.658452 38.052597,61.184989 C 37.114572,68.073713 39.815479,71.049453 44.384198,74.550988 C 44.74544,74.794896 44.796372,74.934523 44.767835,75.060352 C 50.157413,77.072625 55.724698,76.582857 60.387291,72.84558 C 61.574469,71.92097 62.868819,70.348944 63.243604,70.327769 C 62.679663,71.176156 63.341694,70.736259 62.908326,71.485127 C 64.088444,69.578725 62.394567,70.709108 64.130158,68.193595 L 64.768477,69.0737 C 64.528501,67.489857 66.737016,65.570515 66.512568,63.067706 C 67.018634,62.302606 67.074776,63.8897 66.538359,65.649993 C 67.282993,63.697011 66.734649,63.3838 66.925218,61.771726 C 67.130607,62.31379 67.405149,62.888599 67.544194,63.461014 C 67.058595,61.572963 68.03824,60.283752 68.282451,59.186214 C 68.041062,59.080339 67.53563,60.01925 67.418464,57.790296 C 67.436111,56.821922 67.689285,57.284155 67.785981,57.04559 C 67.59682,56.936192 67.095835,56.19319 66.793041,54.769567 C 67.011137,54.434307 67.380331,55.636434 67.679595,55.685134 C 67.486911,54.55372 67.15533,53.69123 67.141215,52.822374 C 66.266008,50.994322 66.834344,53.068056 66.125708,52.038983 C 65.194035,49.135273 66.896508,51.365113 67.012262,50.046656 C 68.422477,52.08998 69.227223,55.25636 69.597773,56.568464 C 69.315448,54.968388 68.85868,53.419552 68.301793,51.919702 C 68.731635,52.101096 67.610229,48.627226 68.859517,50.92676 C 67.526235,46.024899 63.159267,41.443675 59.139669,39.295184 C 59.630209,39.744786 60.25107,40.312024 60.029446,40.400958 C 58.029174,39.211664 58.381708,39.117492 58.095147,38.614955 C 56.468251,37.952197 56.357108,38.667892 55.280745,38.614955 C 52.210462,36.985942 51.619762,37.158246 48.794398,36.139053 L 48.923352,36.74191 C 46.889906,36.064329 46.552376,36.996 44.355184,36.74191 C 44.221986,36.638307 45.058183,36.364672 45.74788,36.264782 C 43.784995,36.523326 43.876364,35.876487 41.953431,36.335707 C 42.427031,36.00327 42.927807,35.78306 43.433168,35.500735 z M 45.019293,35.868252 C 45.582533,35.968478 46.238283,36.046154 46.14441,36.180963 C 46.762701,36.044742 46.899575,35.921893 45.019293,35.868252 z M 46.14441,36.180963 L 45.751103,36.264782 L 46.118619,36.232544 L 46.14441,36.180963 z M 20.195803,48.676528 C 20.195327,48.706924 20.198028,48.731739 20.20225,48.753901 C 20.200254,48.727927 20.198674,48.70307 20.195803,48.676528 z M 20.20225,48.753901 C 20.314584,50.215587 19.074939,50.771669 20.482724,49.785527 C 21.214916,48.137086 20.285486,49.190774 20.20225,48.753901 z M 19.025553,53.505826 C 18.112937,54.673238 18.60573,54.923336 18.509739,55.717372 C 18.840765,54.703122 18.899212,54.093766 19.025553,53.505826 z M 56.612187,60.559565 C 56.481698,60.562917 56.312895,60.894184 56.22855,61.255913 C 56.424767,61.358964 56.58029,62.594854 56.770154,61.829756 C 56.834384,60.880086 56.742674,60.556212 56.612187,60.559565 z M 68.143826,63.757605 L 67.989083,64.147689 C 67.705346,66.1649 67.09164,68.16049 66.151498,70.011835 C 67.190456,68.058851 67.859384,65.922331 68.143826,63.757605 z M 55.928735,64.470072 C 55.786866,65.168824 55.410406,65.772762 55.051853,66.410817 C 53.080519,67.65234 54.863706,65.671284 55.048627,64.918183 C 52.929781,67.588267 54.758751,66.51909 54.681111,67.265133 C 55.311402,66.397691 55.767103,65.451149 55.928735,64.470072 z M 51.628145,68.541769 C 50.771995,68.751395 49.899508,68.756927 49.020067,68.67717 C 47.965583,68.691285 49.21948,69.219097 50.596519,69.431545 C 50.978362,69.133694 51.32041,68.833974 51.628145,68.541769 z M 38.320175,68.680393 C 38.553091,69.535134 39.028538,70.269508 39.471082,71.01767 L 39.145475,70.060193 C 38.778452,69.653645 38.564386,69.165993 38.320175,68.680393 z M 37.50777,70.124669 L 37.359473,70.862927 C 38.053287,71.805185 38.602818,72.827228 39.487201,73.561271 C 38.850558,72.31975 38.378742,71.805914 37.50777,70.124669 z M 38.839212,71.22077 C 41.306022,75.637744 48.844742,78.966117 52.795171,77.313809 C 50.967118,77.381569 48.648246,77.350419 46.595746,76.591673 C 45.812184,76.189338 44.776446,75.397424 44.745269,75.124829 C 44.70621,75.225704 44.644571,75.328054 44.684015,75.479449 C 43.16652,74.769406 41.775076,73.694866 40.631661,72.38135 C 41.23866,73.268554 41.893776,74.131313 42.740045,74.808894 C 41.307952,74.325412 39.396097,71.342171 38.839212,71.22077 z M 44.745269,75.124829 C 44.752903,75.105109 44.75982,75.0836 44.76461,75.063578 C 44.747773,75.079397 44.742257,75.09851 44.745269,75.124829 z"
     style="fill:#000000;stroke:none;stroke-width:0.1461615" /><path
     id="path2517"
     d="M 14.669846,34.922405 L 100.25885,34.922405 L 97.527281,34.922405"
     style="fill:none;fill-rule:evenodd;stroke:#000000;stroke-width:0.25836638;stroke-linecap:butt;stroke-linejoin:miter;stroke-miterlimit:4;stroke-dasharray:none;stroke-opacity:1" /><path
     id="path3325"
     d="M 8.7812627,98.841484 L 87.762218,98.841484 L 85.241548,98.841484"
     style="fill:none;fill-rule:evenodd;stroke:#000000;stroke-width:0.25836638;stroke-linecap:butt;stroke-linejoin:miter;stroke-miterlimit:4;stroke-dasharray:none;stroke-opacity:1;overflow:visible" /><path
     id="path3329"
     d="M 69.526343,34.994049 L 69.526343,120.12273"
     style="fill:none;fill-rule:evenodd;stroke:#000000;stroke-width:0.25836638;stroke-linecap:butt;stroke-linejoin:miter;stroke-miterlimit:4;stroke-dasharray:none;stroke-opacity:1" /><path
     id="path3331"
     d="M 18.575786,24.010272 L 18.575786,105.86685"
     style="fill:none;fill-rule:evenodd;stroke:#000000;stroke-width:0.25836638;stroke-linecap:butt;stroke-linejoin:miter;stroke-miterlimit:4;stroke-dasharray:none;stroke-opacity:1;overflow:visible" /><text
     sodipodi:linespacing="100%"
     id="text2407"
     y="34.841469"
     x="19.799393"
     style="font-size:8.26772404px;font-style:normal;font-variant:normal;font-weight:normal;font-stretch:normal;text-align:start;line-height:100%;writing-mode:lr-tb;text-anchor:start;fill:#000000;fill-opacity:1;stroke:none;stroke-width:1px;stroke-linecap:butt;stroke-linejoin:miter;stroke-opacity:1;font-family:Delphine;-inkscape-font-specification:Delphine"
     xml:space="preserve"><tspan
       dx="0 0 0.18005373 0 0 0 -0.825688 0 -0.36010745 0 0.06365861 0.12731722 0 0 0 0 0 0 -0.52923912 0 -0.54016119 0 0.29644886 0 0 -1.0803224"
       style="font-size:8.26772404px;font-style:normal;font-variant:normal;font-weight:normal;font-stretch:normal;text-align:start;line-height:100%;writing-mode:lr-tb;text-anchor:start;font-family:Delphine;-inkscape-font-specification:Delphine"
       y="34.841469"
       x="19.799393"
       id="tspan2409"
       sodipodi:role="line">The Universal Operating System</tspan></text>
</g></svg>