<?xml version="1.0" encoding="UTF-8" standalone="no"?>
<!-- Generator: Adobe Illustrator 10.0, SVG Export Plug-In . SVG Version: 3.0.0 Build 77)  -->

<svg
   xmlns:ns0="http://ns.adobe.com/SaveForWeb/1.0/"
   xmlns:ns="http://ns.adobe.com/Variables/1.0/"
   xmlns:i="http://ns.adobe.com/AdobeIllustrator/10.0/"
   xmlns:dc="http://purl.org/dc/elements/1.1/"
   xmlns:cc="http://creativecommons.org/ns#"
   xmlns:rdf="http://www.w3.org/1999/02/22-rdf-syntax-ns#"
   xmlns:svg="http://www.w3.org/2000/svg"
   xmlns="http://www.w3.org/2000/svg"
   xmlns:sodipodi="http://sodipodi.sourceforge.net/DTD/sodipodi-0.dtd"
   xmlns:inkscape="http://www.inkscape.org/namespaces/inkscape"
   i:viewOrigin="251 467"
   i:rulerOrigin="0 0"
   i:pageBounds="0 792 612 0"
   width="1052.3622"
   height="1488.189"
   viewBox="0 0 108.758 144.133"
   overflow="visible"
   enable-background="new 0 0 108.758 144.133"
   xml:space="preserve"
   id="svg2383"
   sodipodi:version="0.32"
   inkscape:version="0.48.3.1 r9886"
   sodipodi:docname="debian-tshirts-osc2009.svg"
   inkscape:output_extension="org.inkscape.output.svg.inkscape"
   version="1.0"
   style="overflow:visible"><sodipodi:namedview
   inkscape:window-height="1031"
   inkscape:window-width="1920"
   inkscape:pageshadow="2"
   inkscape:pageopacity="0.0"
   guidetolerance="10.0"
   gridtolerance="10.0"
   objecttolerance="10.0"
   borderopacity="1.0"
   bordercolor="#666666"
   pagecolor="#ffffff"
   id="base"
   showgrid="false"
   inkscape:document-units="mm"
   units="mm"
   inkscape:zoom="0.40586244"
   inkscape:cx="208.33941"
   inkscape:cy="744.09448"
   inkscape:window-x="0"
   inkscape:window-y="27"
   inkscape:current-layer="svg2383"
   showguides="true"
   inkscape:guide-bbox="true"
   inkscape:window-maximized="1" /><defs
   id="defs2429"><marker
   inkscape:stockid="Arrow1Mend"
   orient="auto"
   refY="0"
   refX="0"
   id="Arrow1Mend"
   style="overflow:visible"><path
     id="path3766"
     d="M 0,0 L 5,-5 L -12.5,0 L 5,5 L 0,0 z"
     style="fill-rule:evenodd;stroke:#000000;stroke-width:1pt;marker-start:none"
     transform="matrix(-0.4,0,0,-0.4,-4,0)" /></marker><marker
   inkscape:stockid="Arrow2Lend"
   orient="auto"
   refY="0"
   refX="0"
   id="Arrow2Lend"
   style="overflow:visible"><path
     id="path3364"
     style="font-size:12px;fill-rule:evenodd;stroke-width:0.625;stroke-linejoin:round"
     d="M 8.7185878,4.0337352 L -2.2072895,0.016013256 L 8.7185884,-4.0017078 C 6.97309,-1.6296469 6.9831476,1.6157441 8.7185878,4.0337352 z"
     transform="matrix(-1.1,0,0,-1.1,-1.1,0)" /></marker><marker
   inkscape:stockid="Arrow2Lstart"
   orient="auto"
   refY="0"
   refX="0"
   id="Arrow2Lstart"
   style="overflow:visible"><path
     id="path3361"
     style="font-size:12px;fill-rule:evenodd;stroke-width:0.625;stroke-linejoin:round"
     d="M 8.7185878,4.0337352 L -2.2072895,0.016013256 L 8.7185884,-4.0017078 C 6.97309,-1.6296469 6.9831476,1.6157441 8.7185878,4.0337352 z"
     transform="matrix(1.1,0,0,1.1,1.1,0)" /></marker><marker
   inkscape:stockid="Arrow1Mstart"
   orient="auto"
   refY="0"
   refX="0"
   id="Arrow1Mstart"
   style="overflow:visible"><path
     id="path3349"
     d="M 0,0 L 5,-5 L -12.5,0 L 5,5 L 0,0 z"
     style="fill-rule:evenodd;stroke:#000000;stroke-width:1pt;marker-start:none"
     transform="matrix(0.4,0,0,0.4,4,0)" /></marker><inkscape:perspective
   id="perspective2431"
   inkscape:persp3d-origin="54.379002 : 48.044332 : 1"
   inkscape:vp_z="108.758 : 72.066498 : 1"
   inkscape:vp_y="0 : 1000 : 0"
   inkscape:vp_x="0 : 72.066498 : 1"
   sodipodi:type="inkscape:persp3d" />
		
	
			
			
			
			
			
			
			
			
			
			
			
			
			
			
			
			
			
			
			
		<marker
   inkscape:stockid="Arrow1Lstart"
   style="overflow:visible"
   refY="0"
   refX="0"
   orient="auto"
   id="Arrow1Lstart"><path
     id="path2512"
     style="fill-rule:evenodd;stroke:#000000;stroke-width:1pt;marker-start:none"
     transform="matrix(0.8,0,0,0.8,10,0)"
     d="M 0,0 L 5,-5 L -12.5,0 L 5,5 L 0,0 z" /></marker><marker
   inkscape:stockid="Arrow1Lend"
   style="overflow:visible"
   refY="0"
   refX="0"
   orient="auto"
   id="Arrow1Lend"><path
     id="path2515"
     style="fill-rule:evenodd;stroke:#000000;stroke-width:1pt;marker-start:none"
     transform="matrix(-0.8,0,0,-0.8,-10,0)"
     d="M 0,0 L 5,-5 L -12.5,0 L 5,5 L 0,0 z" /></marker>



</defs>
	<metadata
   id="metadata2385">
		<ns:variableSets>
			<ns:variableSet
   locked="none"
   varSetName="binding1">
				<ns:variables />
				<ns:sampleDataSets />
			</ns:variableSet>
		</ns:variableSets>
		<ns0:sfw>
			<ns0:slices />
			<ns0:sliceSourceBounds
   bottomLeftOrigin="true"
   height="144.133"
   width="108.758"
   x="251"
   y="322.867" />
		</ns0:sfw>
	<rdf:RDF><cc:Work
     rdf:about=""><dc:format>image/svg+xml</dc:format><dc:type
       rdf:resource="http://purl.org/dc/dcmitype/StillImage" /><dc:title></dc:title></cc:Work></rdf:RDF></metadata>
	
<g
   id="g3011"><path
     d="m 87.64895,76.089028 -1.925742,-1.928033 -1.928024,1.928033 1.928024,1.928029 1.925742,-1.928029 z m -0.727604,-9.355544 c -0.699003,-1.513082 -0.815464,-2.446991 -0.908932,-3.447505 -0.371856,0.908048 -1.909077,0.90893 -6.915687,0.90893 l -5.729005,0 c -1.723633,0 -2.700472,-6.24e-4 -3.445207,-0.280023 -0.372867,0.954785 -0.582997,2.141144 -0.582997,3.562266 0,0.908048 3.33e-4,3.539974 2.91041,4.960091 1.350767,0.675384 3.168469,0.908929 4.54235,0.908929 0.83819,0 2.67745,-0.09404 3.842293,-0.768918 1.093477,-0.651265 1.652601,-1.699206 1.652601,-2.816303 7e-6,-2.235704 -1.863825,-2.887592 -2.818603,-3.23634 1.187454,0 5.333658,0.02294 7.452777,0.208873 z m -0.0459,-13.032573 c -0.396483,-0.837698 -0.652675,-1.561093 -0.791869,-3.144529 -0.67538,0.62865 -1.026462,0.628901 -4.099375,0.628901 0.139194,-0.441711 0.302973,-1.000789 0.302973,-1.955572 -5.02e-4,-4.167882 -3.63293,-4.84303 -6.334972,-4.84303 -6.565902,0 -6.566783,3.493188 -6.566783,4.005255 0,1.443736 0.793366,2.374916 2.166746,2.770398 l -2.072637,0.04591 c 0.02362,0.44272 0.07116,0.885076 0.07116,1.606692 0,0.256285 -0.0016,0.467217 -0.02526,0.654154 1.5e-5,0.186433 -0.02228,0.371153 -0.0459,0.580704 0.744735,-0.372366 2.42123,-0.651855 6.054944,-0.651855 3.539228,0 9.524367,4.62e-4 11.340973,0.302977 z M 82.45014,92.543858 c -0.301516,-0.582929 -0.604298,-1.189214 -0.697772,-3.075664 -0.232669,0.255283 -0.442867,0.49037 -1.351912,0.605956 -1.489466,0.211049 -7.776244,0.118389 -9.057163,0.07115 -1.303532,-0.04622 -1.49089,-0.140164 -1.863764,-0.302974 0.06986,0.464827 0.09181,0.836217 0.09181,1.395523 0,0.698501 -0.04557,1.188247 -0.09181,1.583733 0.815589,-0.232669 1.093178,-0.232152 4.074121,-0.254772 3.44576,0 4.331423,-0.0018 5.146004,0.183619 0.791968,0.16332 1.769656,0.60777 1.769656,1.934914 0,1.351777 -1.071198,1.466358 -1.466677,1.512579 -0.558303,0.07086 -2.141858,0.07117 -3.236347,0.07117 l -2.513325,0 c -0.629152,0 -2.423927,-0.04722 -2.958613,-0.11707 -0.396475,-0.04622 -0.512297,-0.09345 -0.814819,-0.18591 0.06935,0.442711 0.117065,0.744398 0.117065,1.303711 0,0.953775 -0.07083,1.256584 -0.117065,1.769658 0.675396,-0.325628 1.512493,-0.325268 2.304464,-0.348877 l 7.012063,0 c 1.3965,-0.02363 3.514063,-0.04753 3.514063,-2.95861 0,-2.329161 -1.604782,-2.909235 -2.327408,-3.188133 l 2.467429,0 z M 82.42718,77.587843 c -0.419095,-0.884432 -0.559526,-1.419086 -0.745967,-3.328154 -0.232669,0.326137 -0.370081,0.535277 -1.255517,0.651863 -1.164333,0.162816 -6.706537,0.139373 -8.779428,0.0459 -1.51257,-0.06985 -1.724018,-0.16442 -2.166741,-0.397084 0.06935,0.53468 0.117065,1.048886 0.117065,1.792614 0,0.675382 -0.04722,1.00264 -0.117065,1.468973 0.954783,-0.513069 1.816561,-0.488717 9.851327,-0.442988 1.55931,0 2.072692,0.02344 3.096326,0.208872 z m -0.117063,-18.2681 c 0,-4.749802 -5.264268,-4.748924 -6.38086,-4.748924 -4.726685,-6e-6 -6.589738,2.117955 -6.589738,5.680803 0,1.582431 0.233584,2.351297 0.351174,2.770399 0.838199,-0.02312 1.373965,0.09341 2.095589,0.234119 -0.303517,-0.489955 -0.700066,-1.118622 -0.700066,-2.515622 0,-3.632707 3.307531,-3.67933 4.448255,-3.67933 l 0,6.194952 1.372572,0.0459 c 2.724655,0 5.403074,-0.536032 5.403074,-3.982302 z m -0.02294,24.281722 c 0,-2.304549 -0.699696,-3.655794 -1.048947,-4.331176 -0.512569,0.279905 -0.953053,0.513963 -1.955573,0.723013 0.791968,0.909056 1.211905,2.09513 1.211905,3.305197 0,1.933683 -1.280732,1.93491 -3.096327,1.93491 0.02261,-0.442716 0.06885,-0.81687 0.06885,-1.446027 -5.02e-4,-2.958312 -1.141184,-4.91419 -4.262328,-4.91419 -1.467356,0 -2.933109,0.444465 -3.562266,1.749013 -0.256282,0.581915 -0.257074,1.162677 -0.257074,1.349617 0,2.142742 1.585923,2.864782 2.56383,3.307493 -1.024635,-0.02362 -1.654132,-9.99e-4 -2.469721,0.06886 0.02362,0.419096 0.07116,0.838831 0.07116,1.537836 0,0.395476 -0.04754,0.768225 -0.07116,1.1637 0.395483,-0.256282 0.629785,-0.395083 1.537833,-0.465937 0.884429,-0.04623 1.768041,-0.04591 3.002226,-0.04591 l 4.751211,0.02296 c 1.770378,-8e-6 3.516376,-0.466353 3.516376,-3.95936 z M 80.797529,59.087921 c 0,1.816604 -2.002579,1.953604 -3.656368,1.907373 l 0,-3.980009 c 1.932686,0.02362 3.656368,0.419854 3.656368,2.072636 z m -0.162958,-9.555233 c -7e-6,0.791968 -0.234606,1.23449 -0.420036,1.58374 l -1.514884,0.02295 c -0.02362,-0.02261 -3.770519,-0.02212 -4.748928,-0.06885 -0.790957,-0.04623 -2.490366,-0.11851 -2.490366,-1.794907 0,-1.723133 1.97844,-2.141807 2.839249,-2.281507 0.954786,-0.162815 1.747342,-0.16296 2.095588,-0.16296 1.118098,0 4.239377,0.07035 4.239377,2.701537 z m -0.468237,19.225225 c 0,1.76987 -2.444435,2.118542 -4.260037,2.118542 -2.16534,0 -5.077147,-0.39529 -5.077147,-3.096325 0,-0.372869 0.07067,-0.838236 0.140015,-1.140752 0.838194,-0.04673 2.282944,-0.04591 3.959352,-0.04591 2.003033,0 3.048691,0.208012 3.562265,0.371833 1.652785,0.488447 1.675552,1.58356 1.675552,1.792607 z m -4.097071,15.284246 0,1.234867 c -1.467342,-0.04623 -2.490607,-0.06945 -3.305188,-0.465941 -1.048268,-0.488952 -1.351921,-1.301845 -1.351921,-1.907382 0,-1.398509 1.163741,-1.7008 2.304451,-1.7008 2.188476,0 2.352658,1.955329 2.352658,2.839256 z"
     id="path2414"
     inkscape:connector-curvature="0" /><path
     id="path2390"
     d="m 47.59915,35.049398 c -0.986727,0.08258 -1.967829,0.131165 -2.93691,0.254683 l 0.425546,0.06125 c 0.712164,-0.260445 1.753322,-0.144423 2.511364,-0.315936 z m -4.307038,0.451336 c -1.602899,0.0974 -3.826765,0.931728 -3.14001,0.170864 -2.615033,1.167411 -7.261579,2.80739 -9.868143,5.251617 l -0.0806,-0.548049 c -1.194233,1.433502 -5.209134,4.279769 -5.528867,6.138173 l -0.31916,0.07415 c -0.62041,1.052366 -1.022544,2.244984 -1.5152,3.326994 -0.81239,1.385507 -1.192513,0.533761 -1.076759,0.751152 -1.598665,3.241088 -2.393414,5.9636 -3.078758,8.1982 0.488421,0.730514 0.01244,4.39874 0.196654,7.334211 -0.801803,14.500199 10.176512,28.579311 22.176726,31.828866 1.758883,0.630285 4.371237,0.60845 6.595956,0.670559 -2.624209,-0.75098 -2.961335,-0.398089 -5.519197,-1.289534 -1.844286,-0.869564 -2.248721,-1.860691 -3.555885,-2.994933 l 0.519037,0.912341 c -2.562096,-0.906967 -1.49026,-1.122843 -3.575228,-1.782773 l 0.551276,-0.718915 c -0.830743,-0.06352 -2.198536,-1.398812 -2.572617,-2.140626 l -0.90912,0.03546 c -1.091183,-1.345273 -1.674312,-2.315976 -1.631258,-3.06908 l -0.293369,0.522261 c -0.332436,-0.570998 -4.016498,-5.05041 -2.10516,-4.007221 -0.355025,-0.323266 -0.8294,-0.529429 -1.341113,-1.460394 l 0.390084,-0.444889 c -0.918262,-1.183646 -1.693771,-2.699124 -1.634483,-3.204486 0.490539,0.662052 0.832873,0.785814 1.17025,0.89945 -2.322826,-5.762249 -2.455367,-0.31576 -4.213545,-5.864147 l 0.373964,-0.02902 c -0.284442,-0.43125 -0.461216,-0.895935 -0.689899,-1.354007 l 0.164416,-1.615138 c -1.671359,-1.931106 -0.46776,-8.219152 -0.225666,-11.667042 0.165866,-1.401743 1.393816,-2.894325 2.327606,-5.235501 l -0.567394,-0.09672 c 1.08836,-1.897223 6.210707,-7.621386 8.585058,-7.327765 1.149767,-1.444091 -0.226181,-0.008 -0.451336,-0.370741 2.526102,-2.613623 3.318193,-1.843934 5.022728,-2.314711 1.837228,-1.090479 -1.57699,0.42616 -0.70602,-0.415874 3.178274,-0.810976 2.250846,-1.845192 6.39608,-2.25668 0.437603,0.248445 -1.012376,0.383462 -1.376574,0.706017 2.646795,-1.295869 8.375168,-0.999736 12.099032,0.718916 4.317452,2.019327 9.173245,7.984793 9.365228,13.598115 l 0.215995,0.05803 c -0.110109,2.231777 0.342493,4.812577 -0.441665,7.182693 l 0.531933,-1.121893 c 0.06353,1.705242 -0.498357,2.535507 -1.005836,4.000772 l -0.912343,0.451335 c -0.746045,1.449739 0.07329,0.920333 -0.461008,2.072924 -1.166002,1.035428 -3.532876,3.241188 -4.290917,3.443051 -0.554065,-0.012 0.375068,-0.655333 0.496469,-0.905897 -1.55914,1.07001 -1.251541,1.608441 -3.636481,2.259905 l -0.07093,-0.157966 c -5.879405,2.766788 -14.047119,-2.714966 -13.939834,-10.193747 -0.06211,0.474305 -0.176394,0.357481 -0.306263,0.54805 -0.303501,-3.847379 1.777783,-7.713987 5.28708,-9.294302 3.432363,-1.698183 7.456347,-1.000427 9.913278,1.292756 -1.349514,-1.768763 -4.040687,-3.645693 -7.224604,-3.472063 -3.120395,0.05082 -6.037809,2.034321 -7.01183,4.187753 -1.59796,1.005783 -1.786419,3.877216 -2.482349,4.403753 -0.938025,6.888724 1.762882,9.864464 6.331601,13.365999 0.361242,0.243908 0.412174,0.383535 0.383637,0.509364 5.389578,2.012273 10.956863,1.522505 15.619456,-2.214772 1.187178,-0.92461 2.481528,-2.496636 2.856313,-2.517811 -0.563941,0.848387 0.09809,0.40849 -0.335278,1.157358 1.180118,-1.906402 -0.513759,-0.776019 1.221832,-3.291532 l 0.638319,0.880105 c -0.239976,-1.583843 1.968539,-3.503185 1.744091,-6.005994 0.506066,-0.7651 0.562208,0.821994 0.02579,2.582287 0.744634,-1.952982 0.19629,-2.266193 0.386859,-3.878267 0.205389,0.542064 0.479931,1.116873 0.618976,1.689288 -0.485599,-1.888051 0.494046,-3.177262 0.738257,-4.2748 -0.241389,-0.105875 -0.746821,0.833036 -0.863987,-1.395918 0.01765,-0.968374 0.270821,-0.506141 0.367517,-0.744706 -0.189161,-0.109398 -0.690146,-0.8524 -0.99294,-2.276023 0.218096,-0.33526 0.58729,0.866867 0.886554,0.915567 -0.192684,-1.131414 -0.524265,-1.993904 -0.53838,-2.86276 -0.875207,-1.828052 -0.306871,0.245682 -1.015507,-0.783391 -0.931673,-2.90371 0.7708,-0.67387 0.886554,-1.992327 1.410215,2.043324 2.214961,5.209704 2.585511,6.521808 -0.282325,-1.600076 -0.739093,-3.148912 -1.29598,-4.648762 0.429842,0.181394 -0.691564,-3.292476 0.557724,-0.992942 -1.333282,-4.901861 -5.70025,-9.483085 -9.719848,-11.631576 0.49054,0.449602 1.111401,1.01684 0.889777,1.105774 -2.000272,-1.189294 -1.647738,-1.283466 -1.934299,-1.786003 -1.626896,-0.662758 -1.738039,0.05294 -2.814402,0 -3.070283,-1.629013 -3.660983,-1.456709 -6.486347,-2.475902 l 0.128954,0.602857 c -2.033446,-0.677581 -2.370976,0.25409 -4.568168,0 -0.133198,-0.103603 0.702999,-0.377238 1.392696,-0.477128 -1.962885,0.258544 -1.871516,-0.388295 -3.794449,0.07093 0.4736,-0.332437 0.974376,-0.552647 1.479737,-0.834972 z m 1.586125,0.367517 c 0.56324,0.100226 1.21899,0.177902 1.125117,0.312711 0.618291,-0.136221 0.755165,-0.25907 -1.125117,-0.312711 z m 1.125117,0.312711 -0.393307,0.08382 0.367516,-0.03224 0.02579,-0.05158 z M 20.054747,48.676527 c -4.76e-4,0.0304 0.0022,0.05521 0.0064,0.07737 -0.002,-0.02597 -0.0036,-0.05083 -0.0064,-0.07737 z m 0.0064,0.07737 c 0.112334,1.461686 -1.127311,2.017768 0.280474,1.031626 0.732192,-1.648441 -0.197238,-0.594753 -0.280474,-1.031626 z m -1.176697,4.751925 c -0.912616,1.167412 -0.419823,1.41751 -0.515814,2.211546 0.331026,-1.01425 0.389473,-1.623606 0.515814,-2.211546 z m 37.586634,7.053739 c -0.130489,0.0034 -0.299292,0.334619 -0.383637,0.696348 0.196217,0.103051 0.35174,1.338941 0.541604,0.573843 0.06423,-0.94967 -0.02748,-1.273544 -0.157967,-1.270191 z m 11.531639,3.19804 -0.154743,0.390084 c -0.283737,2.017211 -0.897443,4.012801 -1.837585,5.864146 1.038958,-1.952984 1.707886,-4.089504 1.992328,-6.25423 z m -12.215091,0.712467 c -0.141869,0.698752 -0.518329,1.30269 -0.876882,1.940745 -1.971334,1.241523 -0.188147,-0.739533 -0.0032,-1.492634 -2.118846,2.670084 -0.289876,1.600907 -0.367516,2.34695 0.630291,-0.867442 1.085992,-1.813984 1.247624,-2.795061 z m -4.30059,4.071697 c -0.85615,0.209626 -1.728637,0.215158 -2.608078,0.135401 -1.054484,0.01411 0.199413,0.541927 1.576452,0.754375 0.381843,-0.297851 0.723891,-0.597571 1.031626,-0.889776 z m -13.30797,0.138624 c 0.232916,0.854741 0.708363,1.589115 1.150907,2.337277 l -0.325607,-0.957477 c -0.367023,-0.406548 -0.581089,-0.8942 -0.8253,-1.3798 z m -0.812405,1.444276 -0.148297,0.738258 c 0.693814,0.942258 1.243345,1.964301 2.127728,2.698344 -0.636643,-1.241521 -1.108459,-1.755357 -1.979431,-3.436602 z m 1.331442,1.096101 c 2.46681,4.416974 10.00553,7.745347 13.955959,6.093039 -1.828053,0.06776 -4.146925,0.03661 -6.199425,-0.722136 -0.783562,-0.402335 -1.8193,-1.194249 -1.850477,-1.466844 -0.03906,0.100875 -0.100698,0.203225 -0.06125,0.35462 -1.517495,-0.710043 -2.908939,-1.784583 -4.052354,-3.098099 0.606999,0.887204 1.262115,1.749963 2.108384,2.427544 -1.432093,-0.483482 -3.343948,-3.466723 -3.900833,-3.588124 z m 5.906057,3.904059 c 0.0076,-0.01972 0.01455,-0.04123 0.01934,-0.06125 -0.01684,0.01582 -0.02235,0.03493 -0.01934,0.06125 z"
     style="fill:#000000;stroke:none"
     inkscape:connector-curvature="0" /><path
     id="path2517"
     d="m 14.52879,34.922404 85.589,0 -2.731565,0"
     style="fill:none;stroke:#000000;stroke-width:0.25836638;stroke-linecap:butt;stroke-linejoin:miter;stroke-miterlimit:4;stroke-opacity:1;stroke-dasharray:none"
     inkscape:connector-curvature="0" /><path
     id="path3325"
     d="m 8.6402063,98.841483 78.9809557,0 -2.52067,0"
     style="fill:none;stroke:#000000;stroke-width:0.25836638;stroke-linecap:butt;stroke-linejoin:miter;stroke-miterlimit:4;stroke-opacity:1;stroke-dasharray:none;overflow:visible"
     inkscape:connector-curvature="0" /><path
     id="path3329"
     d="m 69.385287,34.994048 0,85.128682"
     style="fill:none;stroke:#000000;stroke-width:0.25836638;stroke-linecap:butt;stroke-linejoin:miter;stroke-miterlimit:4;stroke-opacity:1;stroke-dasharray:none"
     inkscape:connector-curvature="0" /><path
     id="path3331"
     d="m 18.43473,24.010271 0,81.856579"
     style="fill:none;stroke:#000000;stroke-width:0.25836638;stroke-linecap:butt;stroke-linejoin:miter;stroke-miterlimit:4;stroke-opacity:1;stroke-dasharray:none;overflow:visible"
     inkscape:connector-curvature="0" /><text
     sodipodi:linespacing="100%"
     id="text2407"
     y="34.841469"
     x="19.658337"
     style="font-size:8.26772404px;font-style:normal;font-variant:normal;font-weight:normal;font-stretch:normal;text-align:start;line-height:100%;writing-mode:lr-tb;text-anchor:start;fill:#000000;fill-opacity:1;stroke:none;font-family:Delphine;-inkscape-font-specification:Delphine"
     xml:space="preserve"><tspan
       dx="0 0 0.18005373 0 0 0 -0.825688 0 -0.36010745 0 0.06365861 0.12731722 0 0 0 0 0 0 -0.52923912 0 -0.54016119 0 0.29644886 0 0 -1.0803224"
       style="font-size:8.26772404px;font-style:normal;font-variant:normal;font-weight:normal;font-stretch:normal;text-align:start;line-height:100%;writing-mode:lr-tb;text-anchor:start;font-family:Delphine;-inkscape-font-specification:Delphine"
       y="34.841469"
       x="19.658337"
       id="tspan2409"
       sodipodi:role="line">The Universal Operating System</tspan></text>
</g></svg>