<?xml version="1.0" encoding="UTF-8" standalone="no"?>
<!-- Created with Inkscape (http://www.inkscape.org/) -->
<svg
   xmlns:dc="http://purl.org/dc/elements/1.1/"
   xmlns:cc="http://web.resource.org/cc/"
   xmlns:rdf="http://www.w3.org/1999/02/22-rdf-syntax-ns#"
   xmlns:svg="http://www.w3.org/2000/svg"
   xmlns="http://www.w3.org/2000/svg"
   xmlns:sodipodi="http://sodipodi.sourceforge.net/DTD/sodipodi-0.dtd"
   xmlns:inkscape="http://www.inkscape.org/namespaces/inkscape"
   width="744.09448"
   height="1052.3622"
   id="svg2"
   sodipodi:version="0.32"
   inkscape:version="0.45.1"
   version="1.0"
   sodipodi:docbase="/home/jun/Desktop"
   sodipodi:docname="debian_flyer.svg"
   inkscape:output_extension="org.inkscape.output.svg.inkscape">
  <defs
     id="defs4">
    <marker
       orient="auto"
       markerHeight="3"
       markerWidth="4"
       markerUnits="strokeWidth"
       refY="5"
       refX="10"
       viewBox="0 0 10 10"
       id="ArrowStart">
      <path
         id="path4139"
         d="M 10,0 L 0,5 L 10,10 L 10,0 z " />
    </marker>
    <marker
       orient="auto"
       markerHeight="3"
       markerWidth="4"
       markerUnits="strokeWidth"
       refY="5"
       refX="0"
       viewBox="0 0 10 10"
       id="ArrowEnd">
      <path
         id="path4136"
         d="M 0,0 L 10,5 L 0,10 L 0,0 z " />
    </marker>
  </defs>
  <sodipodi:namedview
     id="base"
     pagecolor="#ffffff"
     bordercolor="#666666"
     borderopacity="1.0"
     gridtolerance="50"
     guidetolerance="50"
     objecttolerance="10"
     inkscape:pageopacity="0.0"
     inkscape:pageshadow="2"
     inkscape:zoom="0.5"
     inkscape:cx="698.63878"
     inkscape:cy="502.61352"
     inkscape:document-units="mm"
     inkscape:current-layer="layer4"
     width="210.00001mm"
     height="297.00001mm"
     units="mm"
     gridspacingx="0.28222223mm"
     gridspacingy="0.28222223mm"
     gridanglex="8.4666669mm"
     gridanglez="8.4666669mm"
     grid_units="mm"
     showguides="false"
     inkscape:guide-bbox="false"
     inkscape:window-width="1280"
     inkscape:window-height="752"
     inkscape:window-x="0"
     inkscape:window-y="48"
     showgrid="false"
     inkscape:object-paths="false"
     inkscape:grid-bbox="false">
    <sodipodi:guide
       orientation="vertical"
       position="17.716535"
       id="guide3134" />
    <sodipodi:guide
       orientation="vertical"
       position="726.37795"
       id="guide3136" />
    <sodipodi:guide
       orientation="horizontal"
       position="35.433071"
       id="guide3138" />
    <sodipodi:guide
       orientation="horizontal"
       position="1016.9291"
       id="guide3140" />
    <sodipodi:guide
       orientation="vertical"
       position="187.79528"
       id="guide10083" />
    <sodipodi:guide
       orientation="vertical"
       position="201.9685"
       id="guide10085" />
    <sodipodi:guide
       orientation="vertical"
       position="212.59843"
       id="guide10087" />
    <sodipodi:guide
       orientation="vertical"
       position="655.51181"
       id="guide10183" />
  </sodipodi:namedview>
  <metadata
     id="metadata7">
    <rdf:RDF>
      <cc:Work
         rdf:about="">
        <dc:format>image/svg+xml</dc:format>
        <dc:type
           rdf:resource="http://purl.org/dc/dcmitype/StillImage" />
      </cc:Work>
    </rdf:RDF>
  </metadata>
  <g
     inkscape:label="Layer 1"
     inkscape:groupmode="layer"
     id="layer1"
     style="display:inline"
     sodipodi:insensitive="true">
    <path
       style="opacity:1;fill:#d62766;fill-opacity:1;stroke:none;stroke-width:2.17509913;stroke-miterlimit:4;stroke-dasharray:none;stroke-opacity:1"
       d="M -0.65625,0.09375 L -0.65625,49.40625 C 1.8236995,47.128722 3.9572077,45.07351 5.375,43.375 L 5.8125,46.46875 C 20.597951,32.596296 46.982998,23.303308 61.8125,16.6875 C 57.915901,21.004596 70.534269,16.263473 79.625,15.71875 C 76.761621,17.328691 73.893905,18.563207 71.21875,20.4375 C 82.13964,17.858376 81.612858,21.532274 92.75,20.0625 C 88.841387,20.623241 84.094865,22.17328 84.84375,22.75 C 97.314469,24.191622 99.22039,18.917477 110.75,22.75 L 110.03125,19.34375 C 126.06217,25.13058 129.43119,24.144146 146.84375,33.375 C 152.95896,33.67139 153.55436,29.618648 162.78125,33.375 C 164.41117,36.222361 162.40863,36.760003 173.75,43.5 C 175.0155,42.98339 171.48601,39.797086 168.71875,37.25 C 171.28888,38.623292 173.90721,40.16809 176.5,41.875 L 176.5,0.09375 L -0.65625,0.09375 z M 96.21875,48.71875 C 86.280589,48.788388 77.288451,50.294192 71.1875,53.28125 C 73.253939,51.45101 81.470915,50.68695 79,49.28125 C 55.472231,51.612001 60.740019,57.46107 42.71875,62.0625 C 37.776917,66.816111 57.139048,58.226957 46.71875,64.40625 C 37.051339,67.081408 32.547662,62.749013 18.21875,77.5625 C 19.500262,79.61292 27.30495,71.443348 20.78125,79.625 C 15.337079,78.954799 7.3455841,83.891783 -0.65625,90.6875 L -0.65625,302.53125 C 3.1076541,307.79811 7.2996313,313.13405 8.09375,314.5 L 9.75,311.53125 C 9.5137211,315.80029 12.820708,321.33574 19,328.96875 L 24.15625,328.75 C 26.286765,332.95496 34.040441,340.54584 38.75,340.90625 L 35.625,344.96875 C 47.450958,348.70917 41.341849,349.96371 55.875,355.09375 L 52.96875,349.90625 C 60.381499,356.33384 62.672661,361.98045 73.125,366.90625 C 87.642135,371.97623 89.543919,369.93448 104.4375,374.1875 C 91.8146,373.84309 76.967765,373.97446 67,370.40625 C 42.794815,363.85376 19.339366,349.52649 -0.65625,330.09375 L -0.65625,1053.6875 L 176.5,1053.6875 L 176.5,226.96875 C 176.28304,227.14398 176.05961,227.33193 175.84375,227.5 C 149.37652,248.69702 117.78683,251.46798 87.21875,240.0625 C 87.181581,240.09279 87.178397,240.14914 87.15625,240.1875 C 87.380506,239.43681 87.208372,238.6532 85.03125,237.1875 C 59.112659,217.32405 43.806723,200.42186 49.125,161.34375 C 53.065651,158.35622 54.132813,142.06572 63.1875,136.375 C 68.726037,124.15658 85.275872,112.90533 102.96875,112.625 C 121.03808,111.63984 136.28847,122.28466 143.9375,132.3125 C 130.00105,119.31316 107.15047,115.34539 87.6875,124.96875 C 67.775999,133.93133 55.996718,155.86574 57.71875,177.6875 C 58.45562,176.60622 59.093092,177.28493 59.4375,174.59375 C 58.840795,217.03585 105.17988,248.12801 138.53125,232.4375 L 138.9375,233.3125 C 152.45345,229.62014 150.72407,226.57116 159.5625,220.5 C 158.87368,221.90967 153.61831,225.56092 156.75,225.625 C 160.22457,224.69004 169.52034,216.48112 176.5,210.21875 L 176.5,90.15625 C 166.24815,75.430425 152.63841,63.325881 139.84375,57.34375 C 127.30558,51.568011 110.74376,48.616972 96.21875,48.71875 z M 154.375,157.8125 C 155.11187,157.79298 155.61043,159.6489 155.25,165.03125 C 154.17273,169.36436 153.28079,162.36194 152.1875,161.78125 C 152.66406,159.73283 153.63813,157.83202 154.375,157.8125 z M 150.46875,180 C 149.56584,185.55726 146.98858,190.93948 143.4375,195.84375 C 143.82093,191.66714 133.5171,197.66494 145.5,182.5625 C 144.45076,186.83154 134.31478,198.04031 145.5,191 C 147.5344,187.38774 149.67181,183.95667 150.46875,180 z M 126.0625,203.09375 C 124.32846,204.7517 122.3813,206.43901 120.21875,208.125 C 112.41353,206.92358 105.30619,203.95509 111.28125,203.875 L 111.28125,203.84375 C 116.27114,204.29629 121.21278,204.28314 126.0625,203.09375 z M 50.59375,203.90625 C 51.987395,206.65749 53.198791,209.42004 55.28125,211.71875 L 57.125,217.15625 C 54.606027,212.91925 51.907301,208.75597 50.59375,203.90625 z M 45.96875,212.09375 C 50.910582,221.63702 53.591255,224.52219 57.1875,231.5625 C 52.165573,227.38557 49.049634,221.61554 45.125,216.28125 L 45.96875,212.09375 z M 53.59375,218.28125 C 56.753479,218.97006 67.601169,235.88576 75.71875,238.625 C 70.917083,234.77646 67.19006,229.89692 63.75,224.875 C 70.225643,232.33981 78.116596,238.41676 86.71875,242.4375 C 86.482249,241.52802 86.87885,240.91847 87.09375,240.3125 C 86.862427,241.69268 93.005834,246.41972 97.59375,248.78125 C 109.24751,253.06631 122.42503,253.21619 132.78125,252.84375 C 110.3668,262.21081 67.578254,243.34283 53.59375,218.28125 z "
       id="rect2160" />
    <path
       style="fill:#ffff00;fill-rule:evenodd;stroke:none"
       d="M 88.594845,17.730753 C 91.786612,18.291454 95.494989,18.731934 94.96236,19.496877 C 98.450477,18.731934 99.247418,18.043121 88.594845,17.730753"
       id="path5239" />
    <path
       style="fill:#ffff00;fill-rule:evenodd;stroke:none"
       d="M 94.978379,19.496877 L 92.739737,19.949451 L 94.838214,19.761229 L 94.978379,19.496877"
       id="path5241" />
    <path
       style="fill:#ffff00;fill-rule:evenodd;stroke:none"
       d="M 89.784249,14.867373 C 93.821013,13.397638 99.715971,14.070432 104.02105,13.081345 C 98.434458,13.537804 92.863883,13.818175 87.357384,14.522967 L 89.784249,14.851394"
       id="path5251" />
    <g
       id="g5347"
       transform="matrix(2.2805426,0,0,2.2805426,-655.20627,-990.91937)">
      <path
         id="path5349"
         d="M 385.49324,465.80169 C 385.45024,465.84869 385.45024,473.30569 385.35624,475.25169 C 385.26624,476.82569 385.12624,480.20469 381.79022,480.20469 C 378.36423,480.20469 377.52823,476.26669 377.25122,474.55569 C 376.93024,472.65769 376.93024,471.08369 376.93024,470.38769 C 376.93024,468.16569 377.06723,461.95469 382.30524,461.95469 C 383.88024,461.95469 384.75824,462.41969 385.45424,462.78669 L 385.49724,465.79769 L 385.49324,465.80169 z M 372.05524,471.27069 C 372.05524,484.33369 379.00424,484.33369 380.02423,484.33369 C 382.89524,484.33369 384.75124,482.75869 385.53624,480.02869 L 385.62624,484.14969 C 386.50424,484.10269 387.38324,484.01269 388.82124,484.01269 C 389.32924,484.01269 389.74724,484.01269 390.11824,484.05969 C 390.48524,484.05969 390.85624,484.10269 391.27424,484.14969 C 390.53624,482.66969 389.97724,479.33369 389.97724,472.10269 C 389.97724,465.05969 389.97724,453.15369 390.57924,449.54069 C 388.91524,450.32569 387.47724,450.83669 384.32524,451.11469 C 385.57524,452.45869 385.57524,453.14969 385.57524,459.26669 C 384.69624,458.99369 383.58724,458.66969 381.68423,458.66969 C 373.39123,458.66969 372.04724,465.89569 372.04724,471.27069"
         style="fill:#000000;fill-rule:evenodd;stroke:none" />
      <path
         id="path5351"
         d="M 397.18424,468.90769 C 397.23124,465.06369 398.01624,461.63369 401.30524,461.63369 C 404.91924,461.63369 405.19624,465.61869 405.10224,468.90769 L 397.18024,468.90769 L 397.18424,468.90769 z M 409.69624,469.37269 C 409.69624,463.95069 408.63324,458.62269 401.77424,458.62269 C 392.32524,458.62269 392.32524,469.09469 392.32524,471.31769 C 392.32524,480.71969 396.54024,484.42669 403.63024,484.42669 C 406.77824,484.42669 408.30924,483.96569 409.14124,483.73569 C 409.09824,482.06769 409.32524,481.00469 409.60624,479.56769 C 408.63324,480.16969 407.38324,480.95869 404.60224,480.95869 C 397.37624,480.95869 397.28224,474.37969 397.28224,472.10669 L 409.60624,472.10669 L 409.69624,469.37669"
         style="fill:#000000;fill-rule:evenodd;stroke:none" />
      <path
         id="path5353"
         d="M 424.77024,471.36469 C 424.77024,475.67269 423.98524,481.46569 418.61024,481.46569 C 417.87224,481.46569 416.94224,481.32569 416.34024,481.18869 C 416.25124,479.52069 416.25124,476.64969 416.25124,473.31369 C 416.25124,469.32969 416.66524,467.24769 416.98924,466.22369 C 417.95824,462.93869 420.13724,462.89169 420.55124,462.89169 C 424.07124,462.89169 424.76624,467.75469 424.76624,471.36869 L 424.77024,471.36469 z M 411.47324,476.41569 C 411.47324,479.84069 411.47324,481.79069 410.91924,483.27069 C 412.81724,484.00869 415.18024,484.42669 418.00824,484.42669 C 419.81324,484.42669 425.05124,484.42669 427.87624,478.63769 C 429.21924,475.95469 429.68024,472.33669 429.68024,469.60269 C 429.68024,467.93469 429.49724,464.27869 428.15324,461.95869 C 426.85624,459.78269 424.77024,458.67269 422.54724,458.67269 C 418.10224,458.67269 416.80524,462.37669 416.11024,464.27869 C 416.11024,461.91969 416.15324,453.66969 416.52424,449.45469 C 413.51624,450.84469 411.66124,451.07169 409.66924,451.25869 C 411.47324,451.99769 411.47324,455.05569 411.47324,465.02069 L 411.47324,476.41969"
         style="fill:#000000;fill-rule:evenodd;stroke:none" />
      <path
         id="path5355"
         d="M 438.59024,484.14969 C 437.66524,484.01269 437.01624,483.91969 435.67224,483.91969 C 434.19624,483.91969 433.17224,484.00869 432.11024,484.14969 C 432.57124,483.27069 432.75424,482.85269 432.89524,479.84069 C 433.07924,475.71569 433.12624,464.68869 432.80524,462.37269 C 432.57524,460.61069 432.16124,460.33669 431.50824,459.87269 C 435.30524,459.50469 436.37224,459.22369 438.13324,458.39169 C 437.76624,460.42669 437.71924,461.45069 437.71924,464.55169 C 437.63024,480.54069 437.58324,482.25169 438.59824,484.15369"
         style="fill:#000000;fill-rule:evenodd;stroke:none" />
      <path
         id="path5357"
         d="M 453.42624,471.03669 C 453.33724,473.95469 453.29024,475.99369 452.50124,477.61469 C 451.52824,479.70069 449.90724,480.29769 448.70424,480.29769 C 445.92224,480.29769 445.32124,477.98569 445.32124,475.71269 C 445.32124,471.36069 449.21224,471.03269 450.96924,471.03269 L 453.42224,471.03269 L 453.42624,471.03669 z M 440.68424,476.73969 C 440.68424,479.65769 441.56324,482.57569 444.16124,483.82969 C 445.31724,484.33669 446.47324,484.33669 446.84424,484.33669 C 451.10624,484.33669 452.54024,481.18869 453.42224,479.24369 C 453.37624,481.27869 453.42224,482.52869 453.55924,484.15369 C 454.39124,484.10669 455.22724,484.01669 456.61824,484.01669 C 457.40324,484.01669 458.14524,484.10669 458.93024,484.15369 C 458.42224,483.36869 458.14524,482.90369 458.00424,481.09469 C 457.91524,479.33669 457.91524,477.57569 457.91524,475.12269 L 457.96224,465.67269 C 457.96224,462.14969 457.03624,458.67669 450.08324,458.67669 C 445.50124,458.67669 442.81324,460.06369 441.46924,460.76269 C 442.02424,461.77869 442.48924,462.65769 442.90324,464.65369 C 444.70824,463.07969 447.07524,462.24769 449.48124,462.24769 C 453.32924,462.24769 453.32924,464.79469 453.32924,468.40769 C 452.45024,468.36469 451.70824,468.27069 450.45424,468.27069 C 444.57124,468.27069 440.67624,470.53669 440.67624,476.74769"
         style="fill:#000000;fill-rule:evenodd;stroke:none" />
      <path
         id="path5359"
         d="M 480.11824,479.56369 C 480.16524,481.13769 480.16524,482.80569 480.80924,484.14969 C 479.79024,484.05969 479.18824,483.91969 477.29024,483.91969 C 476.17624,483.91969 475.57524,484.00869 474.69624,484.14969 C 474.88024,483.54769 474.97324,483.31769 475.06324,482.52869 C 475.20024,481.46569 475.29424,477.89569 475.29424,476.64569 L 475.29424,471.64169 C 475.29424,469.46569 475.29424,466.31369 475.15724,465.20469 C 475.06724,464.41969 474.83724,462.28669 472.14524,462.28669 C 469.50424,462.28669 468.62624,464.22769 468.30124,465.80569 C 467.93424,467.42669 467.93424,469.18869 467.93424,476.04469 C 467.97724,481.97369 467.97724,482.52869 468.44224,484.14969 C 467.65724,484.05969 466.68424,483.96569 465.29424,483.96569 C 464.18024,483.96569 463.44224,484.00869 462.51624,484.14969 C 462.84024,483.41169 463.02424,483.04069 463.11824,480.44669 C 463.21224,477.89969 463.39524,465.38769 462.97724,462.42269 C 462.75124,460.61469 462.28624,460.20069 461.77824,459.73569 C 465.53224,459.55169 466.73124,458.95069 467.89124,458.34869 L 467.89124,463.25869 C 468.44624,461.82169 469.60224,458.62669 474.23924,458.62669 C 480.03224,458.62669 480.07524,462.84069 480.12224,465.61869 L 480.12224,479.56369"
         style="fill:#000000;fill-rule:evenodd;stroke:none" />
      <path
         id="path5361"
         d="M 438.98124,451.82969 L 435.14524,455.66569 L 431.30924,451.82969 L 435.14524,447.99369 L 438.98124,451.82969"
         style="fill:#d62766;fill-rule:evenodd;stroke:none" />
    </g>
    <path
       style="fill:#000000;fill-opacity:1;fill-rule:evenodd;stroke:#d62766;stroke-width:3.17391467;stroke-linecap:butt;stroke-linejoin:miter;stroke-miterlimit:4;stroke-dasharray:none;stroke-opacity:1"
       d="M 173.43268,125.63426 L 751.1367,125.63426"
       id="path5710" />
    <text
       xml:space="preserve"
       style="font-size:22px;font-style:normal;font-variant:normal;font-weight:normal;font-stretch:normal;text-align:start;line-height:110.00000238%;writing-mode:lr-tb;text-anchor:start;fill:#000000;fill-opacity:1;stroke:none;stroke-width:1px;stroke-linecap:butt;stroke-linejoin:miter;stroke-opacity:1;font-family:QUICKONE"
       x="461"
       y="78.572334"
       id="text10250"
       sodipodi:linespacing="110%"><tspan
         sodipodi:role="line"
         x="461"
         y="78.572334"
         id="tspan10258"
         style="font-size:32px;font-family:QUICKONE">The Universal</tspan><tspan
         sodipodi:role="line"
         x="461"
         y="113.77234"
         style="font-size:32px;font-family:QUICKONE"
         id="tspan10266">Operating System</tspan></text>
  </g>
  <g
     inkscape:groupmode="layer"
     id="layer4"
     inkscape:label="text">
    <text
       xml:space="preserve"
       style="font-size:12px;font-style:normal;font-weight:normal;fill:#000000;fill-opacity:1;stroke:none;stroke-width:1px;stroke-linecap:butt;stroke-linejoin:miter;stroke-opacity:1;font-family:Systema"
       x="212.09375"
       y="286.98715"
       id="text5690"><tspan
         sodipodi:role="line"
         id="tspan5692"
         x="212.09375"
         y="286.98715"
         style="font-size:16px">Debianは自由です </tspan></text>
    <text
       xml:space="preserve"
       style="font-size:12px;font-style:normal;font-weight:normal;fill:#000000;fill-opacity:1;stroke:none;stroke-width:1px;stroke-linecap:butt;stroke-linejoin:miter;stroke-opacity:1;font-family:Systema"
       x="211.09375"
       y="356.87881"
       id="text5694"><tspan
         sodipodi:role="line"
         id="tspan5696"
         x="211.09375"
         y="356.87881"
         style="font-size:16px">Debianは、ずっと使えます</tspan></text>
    <text
       xml:space="preserve"
       style="font-size:12px;font-style:normal;font-weight:normal;fill:#000000;fill-opacity:1;stroke:none;stroke-width:1px;stroke-linecap:butt;stroke-linejoin:miter;stroke-opacity:1;font-family:Systema"
       x="212.09375"
       y="435.1778"
       id="text5698"><tspan
         sodipodi:role="line"
         id="tspan5700"
         x="212.09375"
         y="435.1778"
         style="font-size:16px">Debianとセキュリティ </tspan></text>
    <text
       xml:space="preserve"
       style="font-size:12px;font-style:normal;font-weight:normal;fill:#000000;fill-opacity:1;stroke:none;stroke-width:1px;stroke-linecap:butt;stroke-linejoin:miter;stroke-opacity:1;font-family:Systema"
       x="212.09375"
       y="522.30267"
       id="text5702"><tspan
         sodipodi:role="line"
         id="tspan5704"
         x="212.09375"
         y="522.30267"
         style="font-size:16px">Debianパッケージと品質</tspan></text>
    <g
       id="g10121"
       transform="translate(3e-6,-4.1071174)">
      <text
         id="text5540"
         y="166.46838"
         x="226.20979"
         style="font-size:12px;font-style:normal;font-weight:normal;fill:#000000;fill-opacity:1;stroke:none;stroke-width:1px;stroke-linecap:butt;stroke-linejoin:miter;stroke-opacity:1;font-family:Systema"
         xml:space="preserve"><tspan
           style="font-size:22px;font-family:HGP創英角ｺﾞｼｯｸUB"
           y="166.46838"
           x="226.20979"
           id="tspan5542"
           sodipodi:role="line"><tspan
   id="tspan8659"
   style="font-weight:bold;font-family:Arial">Debian GNU/Linux</tspan>とは？ </tspan></text>
      <g
         transform="matrix(8.9594956e-2,0,0,8.9594956e-2,226.63965,108.78596)"
         id="g8798"
         style="display:inline">
        <path
           style="fill:#d62766;fill-opacity:1;fill-rule:evenodd;stroke:none"
           d="M -197.20376,569.03603 C -205.34799,569.14521 -195.6699,573.21732 -185.03109,574.8549 C -182.08345,572.55683 -179.41965,570.2533 -177.05608,567.99344 C -183.66644,569.61465 -190.42418,569.63102 -197.2256,569.0142"
           id="path8800" />
        <path
           style="fill:#d62766;fill-opacity:1;fill-rule:evenodd;stroke:none"
           d="M -153.42581,558.14067 C -148.56765,551.44297 -145.02502,544.11208 -143.79138,536.51917 C -144.87764,541.91226 -147.79799,546.58482 -150.57096,551.50848 C -165.81682,561.10469 -152.00111,545.81516 -150.57096,539.99629 C -166.94675,560.63525 -152.80898,552.36002 -153.40943,558.14067"
           id="path8802" />
        <path
           style="fill:#d62766;fill-opacity:1;fill-rule:evenodd;stroke:none"
           d="M -137.26835,516.09309 C -136.28581,501.42038 -140.14504,506.0711 -141.44418,511.65525 C -139.95399,512.44675 -138.73672,521.99929 -137.26835,516.09309"
           id="path8804" />
        <path
           style="fill:#d62766;fill-opacity:1;fill-rule:evenodd;stroke:none"
           d="M -228.1431,315.32028 C -223.79259,316.08454 -218.73793,316.68493 -219.46393,317.72758 C -214.70949,316.68493 -213.62323,315.74605 -228.1431,315.32028"
           id="path8806" />
        <path
           style="fill:#d62766;fill-opacity:1;fill-rule:evenodd;stroke:none"
           d="M -219.44209,317.72758 L -222.49345,318.34445 L -219.63314,318.0879 L -219.44209,317.72758"
           id="path8808" />
        <path
           style="fill:#d62766;fill-opacity:1;fill-rule:evenodd;stroke:none"
           d="M -83.703131,521.6554 C -83.211857,534.83246 -87.540525,541.25177 -91.465257,552.5729 L -98.50139,556.07186 C -104.26021,567.26745 -97.944613,563.1735 -102.0604,572.08739 C -111.06162,580.08424 -129.37522,597.12052 -135.23776,598.69806 C -139.50638,598.61072 -132.36107,593.6434 -131.4222,591.72197 C -143.46932,599.9972 -141.10575,604.13482 -159.52852,609.16765 L -160.058,607.97222 C -205.51721,629.359 -268.67865,586.98936 -267.86532,529.13914 C -268.33476,532.80732 -269.22997,531.89027 -270.23435,533.3641 C -272.58155,503.62019 -256.50052,473.72345 -229.36036,461.50711 C -202.83158,448.3901 -171.70119,453.76682 -152.70527,471.48543 C -163.13119,457.8171 -183.91753,443.31906 -208.54673,444.66187 C -232.66282,445.04398 -255.24504,460.37718 -262.79428,477.03136 C -275.13617,484.78803 -276.58816,507.00998 -281.95942,511.0821 C -289.20844,564.3471 -268.33476,587.35509 -233.00671,614.42974 C -227.46077,618.16342 -231.44555,618.74203 -230.70318,621.59688 C -242.42825,616.11644 -253.17623,607.82483 -262.00278,597.65001 C -257.31385,604.49509 -252.25918,611.17095 -245.71433,616.41667 C -256.7789,612.68299 -271.55533,589.61495 -275.86216,588.67607 C -256.80074,622.83598 -198.48107,648.56781 -167.9293,635.80015 C -182.04524,636.3078 -199.99857,636.07308 -215.88309,630.23238 C -222.55349,626.79892 -231.62022,619.69728 -229.99902,618.3763 C -188.33354,633.92239 -145.28158,630.14504 -109.2057,601.25268 C -100.03526,594.11284 -90.01327,581.95654 -87.114754,581.78732 C -91.465257,588.33218 -86.366927,584.92056 -89.696671,590.72305 C -80.569895,575.99029 -93.659614,584.7295 -80.269672,565.28598 L -75.324182,572.10923 C -77.158271,559.86559 -60.143821,545.00729 -61.868738,525.64564 C -57.96584,519.73943 -57.518235,532.02128 -61.677687,545.62411 C -55.918866,530.52562 -60.160197,528.09655 -58.691834,515.64549 C -57.114299,519.82131 -55.001821,524.28099 -53.91556,528.69154 C -57.649241,514.11162 -50.1,504.12784 -48.200408,495.64518 C -50.056331,494.83185 -53.981063,502.08087 -54.876274,484.87537 C -54.745267,477.39163 -52.807465,480.95064 -52.059637,479.11655 C -53.511624,478.28684 -57.370853,472.54985 -59.712592,461.52894 C -58.031343,458.94703 -55.192872,468.22118 -52.872968,468.60875 C -54.341331,459.86407 -56.923248,453.18821 -57.026961,446.47413 C -63.790164,432.33636 -59.417827,448.35189 -64.89826,440.42054 C -72.081775,417.96387 -58.948388,435.21304 -58.053178,425.02184 C -47.157816,440.82448 -40.929555,465.32267 -38.074708,475.4702 C -40.24723,463.10648 -43.768026,451.1194 -48.07486,439.52533 C -44.745115,440.90636 -53.402452,414.08281 -43.768026,431.86692 C -54.062942,393.97879 -87.840748,358.54146 -118.92746,341.93095 C -115.15557,345.40273 -110.33563,349.75317 -112.06055,350.45733 C -127.5193,341.27046 -124.79,340.54446 -127.01165,336.6634 C -139.58826,331.54334 -140.42342,337.06739 -148.7587,336.6634 C -172.49269,324.08139 -177.05608,325.4242 -198.90685,317.53653 L -197.92976,322.18185 C -213.64506,316.95797 -216.24335,324.14683 -233.24143,322.18185 C -234.26219,321.39576 -227.79921,319.2615 -222.47161,318.49719 C -237.65198,320.50055 -236.94782,315.51133 -251.83341,319.02678 C -248.18707,316.47205 -244.28417,314.76356 -240.38127,312.56915 C -252.77229,313.31163 -269.97779,319.77455 -264.66658,313.89018 C -284.87977,322.90779 -320.80826,335.57714 -340.96141,354.48583 L -341.57823,350.26628 C -350.81417,361.33091 -381.85722,383.35636 -384.30813,397.72885 L -386.7645,398.28562 C -391.55715,406.40802 -394.67401,415.63851 -398.46774,424.00108 C -404.73967,434.70539 -407.68185,428.11686 -406.78118,429.79811 C -419.12853,454.85308 -425.29129,475.91781 -430.58067,493.19427 C -426.80332,498.82209 -430.49333,527.20134 -429.06864,549.90911 C -435.24777,662.04509 -350.36657,770.91683 -257.5704,796.0373 C -243.98395,800.90091 -223.74893,800.72624 -206.54342,801.19567 C -226.84395,795.39864 -229.44224,798.14978 -249.22966,791.23919 C -263.4766,784.52512 -266.60984,776.84487 -276.7137,768.08382 L -272.72893,775.14179 C -292.53818,768.14932 -284.24111,766.46261 -300.36035,761.36428 L -296.09719,755.80197 C -302.5165,755.3107 -313.0898,744.98849 -315.99378,739.25696 L -323.00808,739.52989 C -331.43069,729.1258 -335.92858,721.62023 -335.60652,715.80136 L -337.87184,719.82981 C -340.42646,715.43564 -368.91489,680.76808 -354.13846,688.82497 C -356.86776,686.33039 -360.53594,684.75286 -364.47705,677.56934 L -361.47482,674.13588 C -368.57099,664.98727 -374.5427,653.26221 -374.0951,649.35931 C -370.3232,654.47401 -367.67578,655.43473 -365.07749,656.3081 C -383.03082,611.76594 -384.0352,653.87903 -397.63803,610.95807 L -394.77772,610.74518 C -396.97754,607.41544 -398.32036,603.81276 -400.08894,600.27559 L -398.84984,587.81907 C -411.7758,572.89526 -402.45797,524.25915 -400.58021,497.60482 C -399.29744,486.77496 -389.78857,475.23548 -382.58322,457.11294 L -386.97739,456.36511 C -378.57661,441.69786 -338.93627,397.43408 -320.579,399.69394 C -311.68694,388.54203 -322.32575,399.65027 -324.0725,396.85547 C -304.54164,376.66412 -298.40072,382.59215 -285.22366,378.94581 C -271.02039,370.52319 -297.41817,382.22643 -290.68226,375.74707 C -266.11857,369.47514 -273.28025,361.48365 -241.21098,358.30674 C -237.84303,360.22276 -249.03861,361.27076 -251.85525,363.76545 C -231.3855,353.74335 -187.0726,356.04688 -158.28942,369.30593 C -124.89917,384.91752 -87.371309,431.05905 -85.875653,474.47128 L -84.216239,474.91888 C -85.045946,492.16806 -81.590653,512.12469 -87.627863,530.46558 L -83.51208,521.78641"
           id="path8810" />
        <path
           style="fill:#d62766;fill-opacity:1;fill-rule:evenodd;stroke:none"
           d="M -286.24442,580.23162 L -287.39618,585.94677 C -282.04675,593.21762 -277.78359,601.1053 -270.93851,606.79862 C -275.84033,597.2024 -279.50851,593.23946 -286.24442,580.23162"
           id="path8812" />
        <path
           style="fill:#d62766;fill-opacity:1;fill-rule:evenodd;stroke:none"
           d="M -273.55863,579.74035 C -276.39711,576.60711 -278.05652,572.82976 -279.95611,569.0797 C -278.16569,575.69007 -274.47568,581.36155 -271.04222,587.13675 L -273.55863,579.74035"
           id="path8814" />
        <path
           style="fill:#d62766;fill-opacity:1;fill-rule:evenodd;stroke:none"
           d="M -49.308503,530.99506 L -50.503936,534.00275 C -52.676458,549.59251 -57.430897,565.02942 -64.707209,579.35824 C -56.688528,564.25976 -51.486484,547.73658 -49.308503,530.99506"
           id="path8816" />
        <path
           style="fill:#d62766;fill-opacity:1;fill-rule:evenodd;stroke:none"
           d="M -226.52189,311.41738 C -221.01963,309.41408 -212.98457,310.33112 -207.11658,308.98296 C -214.73132,309.60513 -222.32423,309.98729 -229.8298,310.94794 L -226.52189,311.3956"
           id="path8818" />
        <path
           style="fill:#d62766;fill-opacity:1;fill-rule:evenodd;stroke:none"
           d="M -420.15475,414.3612 C -418.89381,426.1081 -428.9813,430.67149 -417.9331,422.91482 C -411.98868,409.51942 -420.23663,419.22481 -420.15475,414.3612"
           id="path8820" />
        <path
           style="fill:#d62766;fill-opacity:1;fill-rule:evenodd;stroke:none"
           d="M -433.17896,468.82163 C -430.62434,460.994 -430.17673,456.28323 -429.19419,451.74168 C -436.25215,460.75928 -432.43659,462.68071 -433.17896,468.82163"
           id="path8822" />
      </g>
    </g>
    <flowRoot
       xml:space="preserve"
       id="flowRoot9837"
       transform="translate(-25.5,-75.154801)"
       style="font-size:9px;font-style:normal;font-variant:normal;font-weight:normal;font-stretch:normal;text-align:start;line-height:120.00000477%;writing-mode:lr-tb;text-anchor:start;font-family:IPA明朝"><flowRegion
         id="flowRegion9839"><rect
           id="rect9841"
           width="444.62033"
           height="47.472744"
           x="238.5"
           y="364.86218"
           style="font-size:9px;font-style:normal;font-variant:normal;font-weight:normal;font-stretch:normal;text-align:start;line-height:120.00000477%;writing-mode:lr-tb;text-anchor:start;font-family:IPA明朝" /></flowRegion><flowPara
         id="flowPara10438">　Debian 社会契約に宣言されているように、Debian は完全なフリーソフトウェアで構成されています。</flowPara><flowPara
         id="flowPara10440">　フリーソフトウェアというのは、単に無料で使用できるということだけを意味するのではありません。好きなように好きな場所で使う、友人と共有する、ソースコードを読んだり変更する、そしてそれらの改変物を配布する、そういった自由も意味するのです。</flowPara></flowRoot>    <flowRoot
       xml:space="preserve"
       id="flowRoot9863"
       transform="translate(-242,-102)"
       style="font-size:9px;font-style:normal;font-variant:normal;font-weight:normal;font-stretch:normal;text-align:start;line-height:120.00000477%;writing-mode:lr-tb;text-anchor:start;font-family:IPA明朝"><flowRegion
         id="flowRegion9865"><rect
           id="rect9867"
           width="447.35611"
           height="57.999386"
           x="455"
           y="460.36218"
           style="font-size:9px;font-style:normal;font-variant:normal;font-weight:normal;font-stretch:normal;text-align:start;line-height:120.00000477%;writing-mode:lr-tb;text-anchor:start;font-family:IPA明朝" /></flowRegion><flowPara
         id="flowPara10444">　DebianのパッケージシステムはO<flowSpan
   style="font-size:9px;font-style:normal;font-variant:normal;font-weight:normal;font-stretch:normal;text-align:start;line-height:120.00000477%;writing-mode:lr-tb;text-anchor:start;font-family:IPA明朝"
   id="flowSpan10456">Sの再インストールをすることなく、</flowSpan>新しいバージョンに移行することができます。そのため、古い設定ファイルも削除されることはありません。プログラム間の依存関係も自動的に処理されます。</flowPara><flowPara
         id="flowPara10446">　インストールしたいパッケージが他のパッケージを必要とする場合、インストーラはその依存関係を解決します。インストールやアップグレードにはハードディスクからやCD-ROMを用いたり、ネットワーク越しに行うことができます。 </flowPara><flowPara
         id="flowPara10448"></flowPara><flowPara
         id="flowPara10450"></flowPara><flowPara
         id="flowPara10452"></flowPara><flowPara
         id="flowPara10454"></flowPara></flowRoot>    <g
       id="g10139"
       transform="translate(3e-6,-24.76009)">
      <text
         id="text8655"
         y="282.76379"
         x="226.11327"
         style="font-size:12px;font-style:normal;font-weight:normal;fill:#000000;fill-opacity:1;stroke:none;stroke-width:1px;stroke-linecap:butt;stroke-linejoin:miter;stroke-opacity:1;font-family:Systema"
         xml:space="preserve"><tspan
           style="font-size:22px;font-weight:bold;font-family:HGP創英角ｺﾞｼｯｸUB"
           y="282.76379"
           x="226.11327"
           id="tspan8657"
           sodipodi:role="line"><tspan
   id="tspan8663"
   style="font-family:Arial">Debian GNU/Linux</tspan>の特徴</tspan></text>
      <g
         transform="matrix(8.9594956e-2,0,0,8.9594956e-2,226.63965,225.33916)"
         id="g9893"
         style="display:inline">
        <path
           style="fill:#d62766;fill-opacity:1;fill-rule:evenodd;stroke:none"
           d="M -197.20376,569.03603 C -205.34799,569.14521 -195.6699,573.21732 -185.03109,574.8549 C -182.08345,572.55683 -179.41965,570.2533 -177.05608,567.99344 C -183.66644,569.61465 -190.42418,569.63102 -197.2256,569.0142"
           id="path9895" />
        <path
           style="fill:#d62766;fill-opacity:1;fill-rule:evenodd;stroke:none"
           d="M -153.42581,558.14067 C -148.56765,551.44297 -145.02502,544.11208 -143.79138,536.51917 C -144.87764,541.91226 -147.79799,546.58482 -150.57096,551.50848 C -165.81682,561.10469 -152.00111,545.81516 -150.57096,539.99629 C -166.94675,560.63525 -152.80898,552.36002 -153.40943,558.14067"
           id="path9897" />
        <path
           style="fill:#d62766;fill-opacity:1;fill-rule:evenodd;stroke:none"
           d="M -137.26835,516.09309 C -136.28581,501.42038 -140.14504,506.0711 -141.44418,511.65525 C -139.95399,512.44675 -138.73672,521.99929 -137.26835,516.09309"
           id="path9899" />
        <path
           style="fill:#d62766;fill-opacity:1;fill-rule:evenodd;stroke:none"
           d="M -228.1431,315.32028 C -223.79259,316.08454 -218.73793,316.68493 -219.46393,317.72758 C -214.70949,316.68493 -213.62323,315.74605 -228.1431,315.32028"
           id="path9901" />
        <path
           style="fill:#d62766;fill-opacity:1;fill-rule:evenodd;stroke:none"
           d="M -219.44209,317.72758 L -222.49345,318.34445 L -219.63314,318.0879 L -219.44209,317.72758"
           id="path9903" />
        <path
           style="fill:#d62766;fill-opacity:1;fill-rule:evenodd;stroke:none"
           d="M -83.703131,521.6554 C -83.211857,534.83246 -87.540525,541.25177 -91.465257,552.5729 L -98.50139,556.07186 C -104.26021,567.26745 -97.944613,563.1735 -102.0604,572.08739 C -111.06162,580.08424 -129.37522,597.12052 -135.23776,598.69806 C -139.50638,598.61072 -132.36107,593.6434 -131.4222,591.72197 C -143.46932,599.9972 -141.10575,604.13482 -159.52852,609.16765 L -160.058,607.97222 C -205.51721,629.359 -268.67865,586.98936 -267.86532,529.13914 C -268.33476,532.80732 -269.22997,531.89027 -270.23435,533.3641 C -272.58155,503.62019 -256.50052,473.72345 -229.36036,461.50711 C -202.83158,448.3901 -171.70119,453.76682 -152.70527,471.48543 C -163.13119,457.8171 -183.91753,443.31906 -208.54673,444.66187 C -232.66282,445.04398 -255.24504,460.37718 -262.79428,477.03136 C -275.13617,484.78803 -276.58816,507.00998 -281.95942,511.0821 C -289.20844,564.3471 -268.33476,587.35509 -233.00671,614.42974 C -227.46077,618.16342 -231.44555,618.74203 -230.70318,621.59688 C -242.42825,616.11644 -253.17623,607.82483 -262.00278,597.65001 C -257.31385,604.49509 -252.25918,611.17095 -245.71433,616.41667 C -256.7789,612.68299 -271.55533,589.61495 -275.86216,588.67607 C -256.80074,622.83598 -198.48107,648.56781 -167.9293,635.80015 C -182.04524,636.3078 -199.99857,636.07308 -215.88309,630.23238 C -222.55349,626.79892 -231.62022,619.69728 -229.99902,618.3763 C -188.33354,633.92239 -145.28158,630.14504 -109.2057,601.25268 C -100.03526,594.11284 -90.01327,581.95654 -87.114754,581.78732 C -91.465257,588.33218 -86.366927,584.92056 -89.696671,590.72305 C -80.569895,575.99029 -93.659614,584.7295 -80.269672,565.28598 L -75.324182,572.10923 C -77.158271,559.86559 -60.143821,545.00729 -61.868738,525.64564 C -57.96584,519.73943 -57.518235,532.02128 -61.677687,545.62411 C -55.918866,530.52562 -60.160197,528.09655 -58.691834,515.64549 C -57.114299,519.82131 -55.001821,524.28099 -53.91556,528.69154 C -57.649241,514.11162 -50.1,504.12784 -48.200408,495.64518 C -50.056331,494.83185 -53.981063,502.08087 -54.876274,484.87537 C -54.745267,477.39163 -52.807465,480.95064 -52.059637,479.11655 C -53.511624,478.28684 -57.370853,472.54985 -59.712592,461.52894 C -58.031343,458.94703 -55.192872,468.22118 -52.872968,468.60875 C -54.341331,459.86407 -56.923248,453.18821 -57.026961,446.47413 C -63.790164,432.33636 -59.417827,448.35189 -64.89826,440.42054 C -72.081775,417.96387 -58.948388,435.21304 -58.053178,425.02184 C -47.157816,440.82448 -40.929555,465.32267 -38.074708,475.4702 C -40.24723,463.10648 -43.768026,451.1194 -48.07486,439.52533 C -44.745115,440.90636 -53.402452,414.08281 -43.768026,431.86692 C -54.062942,393.97879 -87.840748,358.54146 -118.92746,341.93095 C -115.15557,345.40273 -110.33563,349.75317 -112.06055,350.45733 C -127.5193,341.27046 -124.79,340.54446 -127.01165,336.6634 C -139.58826,331.54334 -140.42342,337.06739 -148.7587,336.6634 C -172.49269,324.08139 -177.05608,325.4242 -198.90685,317.53653 L -197.92976,322.18185 C -213.64506,316.95797 -216.24335,324.14683 -233.24143,322.18185 C -234.26219,321.39576 -227.79921,319.2615 -222.47161,318.49719 C -237.65198,320.50055 -236.94782,315.51133 -251.83341,319.02678 C -248.18707,316.47205 -244.28417,314.76356 -240.38127,312.56915 C -252.77229,313.31163 -269.97779,319.77455 -264.66658,313.89018 C -284.87977,322.90779 -320.80826,335.57714 -340.96141,354.48583 L -341.57823,350.26628 C -350.81417,361.33091 -381.85722,383.35636 -384.30813,397.72885 L -386.7645,398.28562 C -391.55715,406.40802 -394.67401,415.63851 -398.46774,424.00108 C -404.73967,434.70539 -407.68185,428.11686 -406.78118,429.79811 C -419.12853,454.85308 -425.29129,475.91781 -430.58067,493.19427 C -426.80332,498.82209 -430.49333,527.20134 -429.06864,549.90911 C -435.24777,662.04509 -350.36657,770.91683 -257.5704,796.0373 C -243.98395,800.90091 -223.74893,800.72624 -206.54342,801.19567 C -226.84395,795.39864 -229.44224,798.14978 -249.22966,791.23919 C -263.4766,784.52512 -266.60984,776.84487 -276.7137,768.08382 L -272.72893,775.14179 C -292.53818,768.14932 -284.24111,766.46261 -300.36035,761.36428 L -296.09719,755.80197 C -302.5165,755.3107 -313.0898,744.98849 -315.99378,739.25696 L -323.00808,739.52989 C -331.43069,729.1258 -335.92858,721.62023 -335.60652,715.80136 L -337.87184,719.82981 C -340.42646,715.43564 -368.91489,680.76808 -354.13846,688.82497 C -356.86776,686.33039 -360.53594,684.75286 -364.47705,677.56934 L -361.47482,674.13588 C -368.57099,664.98727 -374.5427,653.26221 -374.0951,649.35931 C -370.3232,654.47401 -367.67578,655.43473 -365.07749,656.3081 C -383.03082,611.76594 -384.0352,653.87903 -397.63803,610.95807 L -394.77772,610.74518 C -396.97754,607.41544 -398.32036,603.81276 -400.08894,600.27559 L -398.84984,587.81907 C -411.7758,572.89526 -402.45797,524.25915 -400.58021,497.60482 C -399.29744,486.77496 -389.78857,475.23548 -382.58322,457.11294 L -386.97739,456.36511 C -378.57661,441.69786 -338.93627,397.43408 -320.579,399.69394 C -311.68694,388.54203 -322.32575,399.65027 -324.0725,396.85547 C -304.54164,376.66412 -298.40072,382.59215 -285.22366,378.94581 C -271.02039,370.52319 -297.41817,382.22643 -290.68226,375.74707 C -266.11857,369.47514 -273.28025,361.48365 -241.21098,358.30674 C -237.84303,360.22276 -249.03861,361.27076 -251.85525,363.76545 C -231.3855,353.74335 -187.0726,356.04688 -158.28942,369.30593 C -124.89917,384.91752 -87.371309,431.05905 -85.875653,474.47128 L -84.216239,474.91888 C -85.045946,492.16806 -81.590653,512.12469 -87.627863,530.46558 L -83.51208,521.78641"
           id="path9905" />
        <path
           style="fill:#d62766;fill-opacity:1;fill-rule:evenodd;stroke:none"
           d="M -286.24442,580.23162 L -287.39618,585.94677 C -282.04675,593.21762 -277.78359,601.1053 -270.93851,606.79862 C -275.84033,597.2024 -279.50851,593.23946 -286.24442,580.23162"
           id="path9907" />
        <path
           style="fill:#d62766;fill-opacity:1;fill-rule:evenodd;stroke:none"
           d="M -273.55863,579.74035 C -276.39711,576.60711 -278.05652,572.82976 -279.95611,569.0797 C -278.16569,575.69007 -274.47568,581.36155 -271.04222,587.13675 L -273.55863,579.74035"
           id="path9909" />
        <path
           style="fill:#d62766;fill-opacity:1;fill-rule:evenodd;stroke:none"
           d="M -49.308503,530.99506 L -50.503936,534.00275 C -52.676458,549.59251 -57.430897,565.02942 -64.707209,579.35824 C -56.688528,564.25976 -51.486484,547.73658 -49.308503,530.99506"
           id="path9911" />
        <path
           style="fill:#d62766;fill-opacity:1;fill-rule:evenodd;stroke:none"
           d="M -226.52189,311.41738 C -221.01963,309.41408 -212.98457,310.33112 -207.11658,308.98296 C -214.73132,309.60513 -222.32423,309.98729 -229.8298,310.94794 L -226.52189,311.3956"
           id="path9913" />
        <path
           style="fill:#d62766;fill-opacity:1;fill-rule:evenodd;stroke:none"
           d="M -420.15475,414.3612 C -418.89381,426.1081 -428.9813,430.67149 -417.9331,422.91482 C -411.98868,409.51942 -420.23663,419.22481 -420.15475,414.3612"
           id="path9915" />
        <path
           style="fill:#d62766;fill-opacity:1;fill-rule:evenodd;stroke:none"
           d="M -433.17896,468.82163 C -430.62434,460.994 -430.17673,456.28323 -429.19419,451.74168 C -436.25215,460.75928 -432.43659,462.68071 -433.17896,468.82163"
           id="path9917" />
      </g>
    </g>
    <flowRoot
       xml:space="preserve"
       id="flowRoot9955"
       transform="translate(-19,-323.31162)"
       style="font-size:9px;font-style:normal;font-variant:normal;font-weight:normal;font-stretch:normal;text-align:start;line-height:120.00000477%;writing-mode:lr-tb;text-anchor:start;font-family:IPA明朝"><flowRegion
         id="flowRegion9957"><rect
           id="rect9959"
           width="450.94012"
           height="65.802887"
           x="232"
           y="760.36218"
           style="font-size:9px;font-style:normal;font-variant:normal;font-weight:normal;font-stretch:normal;text-align:start;line-height:120.00000477%;writing-mode:lr-tb;text-anchor:start;font-family:IPA明朝" /></flowRegion><flowPara
         id="flowPara10007"
         style="font-size:9px;font-style:normal;font-variant:normal;font-weight:normal;font-stretch:normal;text-align:start;line-height:120.00000477%;writing-mode:lr-tb;text-anchor:start;font-family:IPA明朝">　Debianはそのままでも安全ですし、高度なセキュリティが要求される場合に容易に調整可能です。 </flowPara><flowPara
         id="flowPara10009"
         style="font-size:9px;font-style:normal;font-variant:normal;font-weight:normal;font-stretch:normal;text-align:start;line-height:120.00000477%;writing-mode:lr-tb;text-anchor:start;font-family:IPA明朝">　極少数のソフトウェアだけの構成で Debian システムをインストールするのも簡単です。 </flowPara><flowPara
         id="flowPara10011"
         style="font-size:9px;font-style:normal;font-variant:normal;font-weight:normal;font-stretch:normal;text-align:start;line-height:120.00000477%;writing-mode:lr-tb;text-anchor:start;font-family:IPA明朝">　セキュリティの問題が発見されると、Debian セキュリティチームはが、ほぼ48時間以内にセキュリティホールを塞ぎ(最新版から現在の安定版へ) バックポートを行います。</flowPara><flowPara
         id="flowPara10013"
         style="font-size:9px;font-style:normal;font-variant:normal;font-weight:normal;font-stretch:normal;text-align:start;line-height:120.00000477%;writing-mode:lr-tb;text-anchor:start;font-family:IPA明朝">　Debian のパッケージ管理システムを使えば、経験の少ない管理者でもセキュリティを最新に保つことが容易になります。このサービスは誰でも無料で利用できます。 </flowPara></flowRoot>    <flowRoot
       xml:space="preserve"
       id="flowRoot9977"
       style="font-size:9px;font-style:normal;font-variant:normal;font-weight:normal;font-stretch:normal;text-align:start;line-height:120.00000477%;writing-mode:lr-tb;text-anchor:start;font-family:IPA明朝"
       transform="translate(-213,-232.74011)"><flowRegion
         id="flowRegion9979"><rect
           id="rect9981"
           width="445.61218"
           height="64.722397"
           x="426"
           y="756.36218"
           style="font-size:9px;font-style:normal;font-variant:normal;font-weight:normal;font-stretch:normal;text-align:start;line-height:120.00000477%;writing-mode:lr-tb;text-anchor:start;font-family:IPA明朝" /></flowRegion><flowPara
         id="flowPara9997"
         style="font-size:9px;font-style:normal;font-variant:normal;font-weight:normal;font-stretch:normal;text-align:start;line-height:120.00000477%;writing-mode:lr-tb;text-anchor:start;font-family:IPA明朝">　Debian 開発者それぞれの献身によるのでパッケージの品質は一定ではありません。 </flowPara><flowPara
         id="flowPara9999"
         style="font-size:9px;font-style:normal;font-variant:normal;font-weight:normal;font-stretch:normal;text-align:start;line-height:120.00000477%;writing-mode:lr-tb;text-anchor:start;font-family:IPA明朝">パッケージの品質はパッケージの振る舞いやシステムとの相互関係を厳密に記述した Debian ポリシーマニュアルによって維持されています。</flowPara><flowPara
         id="flowPara10003"
         style="font-size:9px;font-style:normal;font-variant:normal;font-weight:normal;font-stretch:normal;text-align:start;line-height:120.00000477%;writing-mode:lr-tb;text-anchor:start;font-family:IPA明朝">　他の品質管理における手助けとしては、Debian バグ追跡システムがあります。Debian は問題を隠しません。Debian には商業的な圧力がないので、単に市場が要求しているからという理由で不安定な可能性のあるリリースを行うことはありません。</flowPara><flowPara
         id="flowPara10005"
         style="font-size:9px;font-style:normal;font-variant:normal;font-weight:normal;font-stretch:normal;text-align:start;line-height:120.00000477%;writing-mode:lr-tb;text-anchor:start;font-family:IPA明朝" /></flowRoot>    <g
       id="g10185"
       transform="translate(-24.803147,-141.48023)">
      <text
         id="text5706"
         y="757.00555"
         x="254.59796"
         style="font-size:12px;font-style:normal;font-weight:normal;fill:#000000;fill-opacity:1;stroke:none;stroke-width:1px;stroke-linecap:butt;stroke-linejoin:miter;stroke-opacity:1;font-family:Systema"
         xml:space="preserve"><tspan
           style="font-size:22px;letter-spacing:-0.37037036;font-family:HGP創英角ｺﾞｼｯｸUB"
           y="757.00555"
           x="254.59796"
           id="tspan5708"
           sodipodi:role="line"><tspan
   id="tspan8682"
   style="font-weight:bold;font-family:Arial">Debian</tspan>のインストールと豊富なパッケージ</tspan></text>
      <g
         transform="matrix(8.9594956e-2,0,0,8.9594956e-2,251.4428,699.28018)"
         id="g10157"
         style="display:inline">
        <path
           style="fill:#d62766;fill-opacity:1;fill-rule:evenodd;stroke:none"
           d="M -197.20376,569.03603 C -205.34799,569.14521 -195.6699,573.21732 -185.03109,574.8549 C -182.08345,572.55683 -179.41965,570.2533 -177.05608,567.99344 C -183.66644,569.61465 -190.42418,569.63102 -197.2256,569.0142"
           id="path10159" />
        <path
           style="fill:#d62766;fill-opacity:1;fill-rule:evenodd;stroke:none"
           d="M -153.42581,558.14067 C -148.56765,551.44297 -145.02502,544.11208 -143.79138,536.51917 C -144.87764,541.91226 -147.79799,546.58482 -150.57096,551.50848 C -165.81682,561.10469 -152.00111,545.81516 -150.57096,539.99629 C -166.94675,560.63525 -152.80898,552.36002 -153.40943,558.14067"
           id="path10161" />
        <path
           style="fill:#d62766;fill-opacity:1;fill-rule:evenodd;stroke:none"
           d="M -137.26835,516.09309 C -136.28581,501.42038 -140.14504,506.0711 -141.44418,511.65525 C -139.95399,512.44675 -138.73672,521.99929 -137.26835,516.09309"
           id="path10163" />
        <path
           style="fill:#d62766;fill-opacity:1;fill-rule:evenodd;stroke:none"
           d="M -228.1431,315.32028 C -223.79259,316.08454 -218.73793,316.68493 -219.46393,317.72758 C -214.70949,316.68493 -213.62323,315.74605 -228.1431,315.32028"
           id="path10165" />
        <path
           style="fill:#d62766;fill-opacity:1;fill-rule:evenodd;stroke:none"
           d="M -219.44209,317.72758 L -222.49345,318.34445 L -219.63314,318.0879 L -219.44209,317.72758"
           id="path10167" />
        <path
           style="fill:#d62766;fill-opacity:1;fill-rule:evenodd;stroke:none"
           d="M -83.703131,521.6554 C -83.211857,534.83246 -87.540525,541.25177 -91.465257,552.5729 L -98.50139,556.07186 C -104.26021,567.26745 -97.944613,563.1735 -102.0604,572.08739 C -111.06162,580.08424 -129.37522,597.12052 -135.23776,598.69806 C -139.50638,598.61072 -132.36107,593.6434 -131.4222,591.72197 C -143.46932,599.9972 -141.10575,604.13482 -159.52852,609.16765 L -160.058,607.97222 C -205.51721,629.359 -268.67865,586.98936 -267.86532,529.13914 C -268.33476,532.80732 -269.22997,531.89027 -270.23435,533.3641 C -272.58155,503.62019 -256.50052,473.72345 -229.36036,461.50711 C -202.83158,448.3901 -171.70119,453.76682 -152.70527,471.48543 C -163.13119,457.8171 -183.91753,443.31906 -208.54673,444.66187 C -232.66282,445.04398 -255.24504,460.37718 -262.79428,477.03136 C -275.13617,484.78803 -276.58816,507.00998 -281.95942,511.0821 C -289.20844,564.3471 -268.33476,587.35509 -233.00671,614.42974 C -227.46077,618.16342 -231.44555,618.74203 -230.70318,621.59688 C -242.42825,616.11644 -253.17623,607.82483 -262.00278,597.65001 C -257.31385,604.49509 -252.25918,611.17095 -245.71433,616.41667 C -256.7789,612.68299 -271.55533,589.61495 -275.86216,588.67607 C -256.80074,622.83598 -198.48107,648.56781 -167.9293,635.80015 C -182.04524,636.3078 -199.99857,636.07308 -215.88309,630.23238 C -222.55349,626.79892 -231.62022,619.69728 -229.99902,618.3763 C -188.33354,633.92239 -145.28158,630.14504 -109.2057,601.25268 C -100.03526,594.11284 -90.01327,581.95654 -87.114754,581.78732 C -91.465257,588.33218 -86.366927,584.92056 -89.696671,590.72305 C -80.569895,575.99029 -93.659614,584.7295 -80.269672,565.28598 L -75.324182,572.10923 C -77.158271,559.86559 -60.143821,545.00729 -61.868738,525.64564 C -57.96584,519.73943 -57.518235,532.02128 -61.677687,545.62411 C -55.918866,530.52562 -60.160197,528.09655 -58.691834,515.64549 C -57.114299,519.82131 -55.001821,524.28099 -53.91556,528.69154 C -57.649241,514.11162 -50.1,504.12784 -48.200408,495.64518 C -50.056331,494.83185 -53.981063,502.08087 -54.876274,484.87537 C -54.745267,477.39163 -52.807465,480.95064 -52.059637,479.11655 C -53.511624,478.28684 -57.370853,472.54985 -59.712592,461.52894 C -58.031343,458.94703 -55.192872,468.22118 -52.872968,468.60875 C -54.341331,459.86407 -56.923248,453.18821 -57.026961,446.47413 C -63.790164,432.33636 -59.417827,448.35189 -64.89826,440.42054 C -72.081775,417.96387 -58.948388,435.21304 -58.053178,425.02184 C -47.157816,440.82448 -40.929555,465.32267 -38.074708,475.4702 C -40.24723,463.10648 -43.768026,451.1194 -48.07486,439.52533 C -44.745115,440.90636 -53.402452,414.08281 -43.768026,431.86692 C -54.062942,393.97879 -87.840748,358.54146 -118.92746,341.93095 C -115.15557,345.40273 -110.33563,349.75317 -112.06055,350.45733 C -127.5193,341.27046 -124.79,340.54446 -127.01165,336.6634 C -139.58826,331.54334 -140.42342,337.06739 -148.7587,336.6634 C -172.49269,324.08139 -177.05608,325.4242 -198.90685,317.53653 L -197.92976,322.18185 C -213.64506,316.95797 -216.24335,324.14683 -233.24143,322.18185 C -234.26219,321.39576 -227.79921,319.2615 -222.47161,318.49719 C -237.65198,320.50055 -236.94782,315.51133 -251.83341,319.02678 C -248.18707,316.47205 -244.28417,314.76356 -240.38127,312.56915 C -252.77229,313.31163 -269.97779,319.77455 -264.66658,313.89018 C -284.87977,322.90779 -320.80826,335.57714 -340.96141,354.48583 L -341.57823,350.26628 C -350.81417,361.33091 -381.85722,383.35636 -384.30813,397.72885 L -386.7645,398.28562 C -391.55715,406.40802 -394.67401,415.63851 -398.46774,424.00108 C -404.73967,434.70539 -407.68185,428.11686 -406.78118,429.79811 C -419.12853,454.85308 -425.29129,475.91781 -430.58067,493.19427 C -426.80332,498.82209 -430.49333,527.20134 -429.06864,549.90911 C -435.24777,662.04509 -350.36657,770.91683 -257.5704,796.0373 C -243.98395,800.90091 -223.74893,800.72624 -206.54342,801.19567 C -226.84395,795.39864 -229.44224,798.14978 -249.22966,791.23919 C -263.4766,784.52512 -266.60984,776.84487 -276.7137,768.08382 L -272.72893,775.14179 C -292.53818,768.14932 -284.24111,766.46261 -300.36035,761.36428 L -296.09719,755.80197 C -302.5165,755.3107 -313.0898,744.98849 -315.99378,739.25696 L -323.00808,739.52989 C -331.43069,729.1258 -335.92858,721.62023 -335.60652,715.80136 L -337.87184,719.82981 C -340.42646,715.43564 -368.91489,680.76808 -354.13846,688.82497 C -356.86776,686.33039 -360.53594,684.75286 -364.47705,677.56934 L -361.47482,674.13588 C -368.57099,664.98727 -374.5427,653.26221 -374.0951,649.35931 C -370.3232,654.47401 -367.67578,655.43473 -365.07749,656.3081 C -383.03082,611.76594 -384.0352,653.87903 -397.63803,610.95807 L -394.77772,610.74518 C -396.97754,607.41544 -398.32036,603.81276 -400.08894,600.27559 L -398.84984,587.81907 C -411.7758,572.89526 -402.45797,524.25915 -400.58021,497.60482 C -399.29744,486.77496 -389.78857,475.23548 -382.58322,457.11294 L -386.97739,456.36511 C -378.57661,441.69786 -338.93627,397.43408 -320.579,399.69394 C -311.68694,388.54203 -322.32575,399.65027 -324.0725,396.85547 C -304.54164,376.66412 -298.40072,382.59215 -285.22366,378.94581 C -271.02039,370.52319 -297.41817,382.22643 -290.68226,375.74707 C -266.11857,369.47514 -273.28025,361.48365 -241.21098,358.30674 C -237.84303,360.22276 -249.03861,361.27076 -251.85525,363.76545 C -231.3855,353.74335 -187.0726,356.04688 -158.28942,369.30593 C -124.89917,384.91752 -87.371309,431.05905 -85.875653,474.47128 L -84.216239,474.91888 C -85.045946,492.16806 -81.590653,512.12469 -87.627863,530.46558 L -83.51208,521.78641"
           id="path10169" />
        <path
           style="fill:#d62766;fill-opacity:1;fill-rule:evenodd;stroke:none"
           d="M -286.24442,580.23162 L -287.39618,585.94677 C -282.04675,593.21762 -277.78359,601.1053 -270.93851,606.79862 C -275.84033,597.2024 -279.50851,593.23946 -286.24442,580.23162"
           id="path10171" />
        <path
           style="fill:#d62766;fill-opacity:1;fill-rule:evenodd;stroke:none"
           d="M -273.55863,579.74035 C -276.39711,576.60711 -278.05652,572.82976 -279.95611,569.0797 C -278.16569,575.69007 -274.47568,581.36155 -271.04222,587.13675 L -273.55863,579.74035"
           id="path10173" />
        <path
           style="fill:#d62766;fill-opacity:1;fill-rule:evenodd;stroke:none"
           d="M -49.308503,530.99506 L -50.503936,534.00275 C -52.676458,549.59251 -57.430897,565.02942 -64.707209,579.35824 C -56.688528,564.25976 -51.486484,547.73658 -49.308503,530.99506"
           id="path10175" />
        <path
           style="fill:#d62766;fill-opacity:1;fill-rule:evenodd;stroke:none"
           d="M -226.52189,311.41738 C -221.01963,309.41408 -212.98457,310.33112 -207.11658,308.98296 C -214.73132,309.60513 -222.32423,309.98729 -229.8298,310.94794 L -226.52189,311.3956"
           id="path10177" />
        <path
           style="fill:#d62766;fill-opacity:1;fill-rule:evenodd;stroke:none"
           d="M -420.15475,414.3612 C -418.89381,426.1081 -428.9813,430.67149 -417.9331,422.91482 C -411.98868,409.51942 -420.23663,419.22481 -420.15475,414.3612"
           id="path10179" />
        <path
           style="fill:#d62766;fill-opacity:1;fill-rule:evenodd;stroke:none"
           d="M -433.17896,468.82163 C -430.62434,460.994 -430.17673,456.28323 -429.19419,451.74168 C -436.25215,460.75928 -432.43659,462.68071 -433.17896,468.82163"
           id="path10181" />
      </g>
    </g>
    <g
       id="g10233"
       transform="translate(-152.28422,3.4227986)">
      <g
         transform="matrix(8.9594956e-2,0,0,8.9594956e-2,378.92387,783.42588)"
         id="g10203"
         style="display:inline">
        <path
           style="fill:#d62766;fill-opacity:1;fill-rule:evenodd;stroke:none"
           d="M -197.20376,569.03603 C -205.34799,569.14521 -195.6699,573.21732 -185.03109,574.8549 C -182.08345,572.55683 -179.41965,570.2533 -177.05608,567.99344 C -183.66644,569.61465 -190.42418,569.63102 -197.2256,569.0142"
           id="path10205" />
        <path
           style="fill:#d62766;fill-opacity:1;fill-rule:evenodd;stroke:none"
           d="M -153.42581,558.14067 C -148.56765,551.44297 -145.02502,544.11208 -143.79138,536.51917 C -144.87764,541.91226 -147.79799,546.58482 -150.57096,551.50848 C -165.81682,561.10469 -152.00111,545.81516 -150.57096,539.99629 C -166.94675,560.63525 -152.80898,552.36002 -153.40943,558.14067"
           id="path10207" />
        <path
           style="fill:#d62766;fill-opacity:1;fill-rule:evenodd;stroke:none"
           d="M -137.26835,516.09309 C -136.28581,501.42038 -140.14504,506.0711 -141.44418,511.65525 C -139.95399,512.44675 -138.73672,521.99929 -137.26835,516.09309"
           id="path10209" />
        <path
           style="fill:#d62766;fill-opacity:1;fill-rule:evenodd;stroke:none"
           d="M -228.1431,315.32028 C -223.79259,316.08454 -218.73793,316.68493 -219.46393,317.72758 C -214.70949,316.68493 -213.62323,315.74605 -228.1431,315.32028"
           id="path10211" />
        <path
           style="fill:#d62766;fill-opacity:1;fill-rule:evenodd;stroke:none"
           d="M -219.44209,317.72758 L -222.49345,318.34445 L -219.63314,318.0879 L -219.44209,317.72758"
           id="path10213" />
        <path
           style="fill:#d62766;fill-opacity:1;fill-rule:evenodd;stroke:none"
           d="M -83.703131,521.6554 C -83.211857,534.83246 -87.540525,541.25177 -91.465257,552.5729 L -98.50139,556.07186 C -104.26021,567.26745 -97.944613,563.1735 -102.0604,572.08739 C -111.06162,580.08424 -129.37522,597.12052 -135.23776,598.69806 C -139.50638,598.61072 -132.36107,593.6434 -131.4222,591.72197 C -143.46932,599.9972 -141.10575,604.13482 -159.52852,609.16765 L -160.058,607.97222 C -205.51721,629.359 -268.67865,586.98936 -267.86532,529.13914 C -268.33476,532.80732 -269.22997,531.89027 -270.23435,533.3641 C -272.58155,503.62019 -256.50052,473.72345 -229.36036,461.50711 C -202.83158,448.3901 -171.70119,453.76682 -152.70527,471.48543 C -163.13119,457.8171 -183.91753,443.31906 -208.54673,444.66187 C -232.66282,445.04398 -255.24504,460.37718 -262.79428,477.03136 C -275.13617,484.78803 -276.58816,507.00998 -281.95942,511.0821 C -289.20844,564.3471 -268.33476,587.35509 -233.00671,614.42974 C -227.46077,618.16342 -231.44555,618.74203 -230.70318,621.59688 C -242.42825,616.11644 -253.17623,607.82483 -262.00278,597.65001 C -257.31385,604.49509 -252.25918,611.17095 -245.71433,616.41667 C -256.7789,612.68299 -271.55533,589.61495 -275.86216,588.67607 C -256.80074,622.83598 -198.48107,648.56781 -167.9293,635.80015 C -182.04524,636.3078 -199.99857,636.07308 -215.88309,630.23238 C -222.55349,626.79892 -231.62022,619.69728 -229.99902,618.3763 C -188.33354,633.92239 -145.28158,630.14504 -109.2057,601.25268 C -100.03526,594.11284 -90.01327,581.95654 -87.114754,581.78732 C -91.465257,588.33218 -86.366927,584.92056 -89.696671,590.72305 C -80.569895,575.99029 -93.659614,584.7295 -80.269672,565.28598 L -75.324182,572.10923 C -77.158271,559.86559 -60.143821,545.00729 -61.868738,525.64564 C -57.96584,519.73943 -57.518235,532.02128 -61.677687,545.62411 C -55.918866,530.52562 -60.160197,528.09655 -58.691834,515.64549 C -57.114299,519.82131 -55.001821,524.28099 -53.91556,528.69154 C -57.649241,514.11162 -50.1,504.12784 -48.200408,495.64518 C -50.056331,494.83185 -53.981063,502.08087 -54.876274,484.87537 C -54.745267,477.39163 -52.807465,480.95064 -52.059637,479.11655 C -53.511624,478.28684 -57.370853,472.54985 -59.712592,461.52894 C -58.031343,458.94703 -55.192872,468.22118 -52.872968,468.60875 C -54.341331,459.86407 -56.923248,453.18821 -57.026961,446.47413 C -63.790164,432.33636 -59.417827,448.35189 -64.89826,440.42054 C -72.081775,417.96387 -58.948388,435.21304 -58.053178,425.02184 C -47.157816,440.82448 -40.929555,465.32267 -38.074708,475.4702 C -40.24723,463.10648 -43.768026,451.1194 -48.07486,439.52533 C -44.745115,440.90636 -53.402452,414.08281 -43.768026,431.86692 C -54.062942,393.97879 -87.840748,358.54146 -118.92746,341.93095 C -115.15557,345.40273 -110.33563,349.75317 -112.06055,350.45733 C -127.5193,341.27046 -124.79,340.54446 -127.01165,336.6634 C -139.58826,331.54334 -140.42342,337.06739 -148.7587,336.6634 C -172.49269,324.08139 -177.05608,325.4242 -198.90685,317.53653 L -197.92976,322.18185 C -213.64506,316.95797 -216.24335,324.14683 -233.24143,322.18185 C -234.26219,321.39576 -227.79921,319.2615 -222.47161,318.49719 C -237.65198,320.50055 -236.94782,315.51133 -251.83341,319.02678 C -248.18707,316.47205 -244.28417,314.76356 -240.38127,312.56915 C -252.77229,313.31163 -269.97779,319.77455 -264.66658,313.89018 C -284.87977,322.90779 -320.80826,335.57714 -340.96141,354.48583 L -341.57823,350.26628 C -350.81417,361.33091 -381.85722,383.35636 -384.30813,397.72885 L -386.7645,398.28562 C -391.55715,406.40802 -394.67401,415.63851 -398.46774,424.00108 C -404.73967,434.70539 -407.68185,428.11686 -406.78118,429.79811 C -419.12853,454.85308 -425.29129,475.91781 -430.58067,493.19427 C -426.80332,498.82209 -430.49333,527.20134 -429.06864,549.90911 C -435.24777,662.04509 -350.36657,770.91683 -257.5704,796.0373 C -243.98395,800.90091 -223.74893,800.72624 -206.54342,801.19567 C -226.84395,795.39864 -229.44224,798.14978 -249.22966,791.23919 C -263.4766,784.52512 -266.60984,776.84487 -276.7137,768.08382 L -272.72893,775.14179 C -292.53818,768.14932 -284.24111,766.46261 -300.36035,761.36428 L -296.09719,755.80197 C -302.5165,755.3107 -313.0898,744.98849 -315.99378,739.25696 L -323.00808,739.52989 C -331.43069,729.1258 -335.92858,721.62023 -335.60652,715.80136 L -337.87184,719.82981 C -340.42646,715.43564 -368.91489,680.76808 -354.13846,688.82497 C -356.86776,686.33039 -360.53594,684.75286 -364.47705,677.56934 L -361.47482,674.13588 C -368.57099,664.98727 -374.5427,653.26221 -374.0951,649.35931 C -370.3232,654.47401 -367.67578,655.43473 -365.07749,656.3081 C -383.03082,611.76594 -384.0352,653.87903 -397.63803,610.95807 L -394.77772,610.74518 C -396.97754,607.41544 -398.32036,603.81276 -400.08894,600.27559 L -398.84984,587.81907 C -411.7758,572.89526 -402.45797,524.25915 -400.58021,497.60482 C -399.29744,486.77496 -389.78857,475.23548 -382.58322,457.11294 L -386.97739,456.36511 C -378.57661,441.69786 -338.93627,397.43408 -320.579,399.69394 C -311.68694,388.54203 -322.32575,399.65027 -324.0725,396.85547 C -304.54164,376.66412 -298.40072,382.59215 -285.22366,378.94581 C -271.02039,370.52319 -297.41817,382.22643 -290.68226,375.74707 C -266.11857,369.47514 -273.28025,361.48365 -241.21098,358.30674 C -237.84303,360.22276 -249.03861,361.27076 -251.85525,363.76545 C -231.3855,353.74335 -187.0726,356.04688 -158.28942,369.30593 C -124.89917,384.91752 -87.371309,431.05905 -85.875653,474.47128 L -84.216239,474.91888 C -85.045946,492.16806 -81.590653,512.12469 -87.627863,530.46558 L -83.51208,521.78641"
           id="path10215" />
        <path
           style="fill:#d62766;fill-opacity:1;fill-rule:evenodd;stroke:none"
           d="M -286.24442,580.23162 L -287.39618,585.94677 C -282.04675,593.21762 -277.78359,601.1053 -270.93851,606.79862 C -275.84033,597.2024 -279.50851,593.23946 -286.24442,580.23162"
           id="path10217" />
        <path
           style="fill:#d62766;fill-opacity:1;fill-rule:evenodd;stroke:none"
           d="M -273.55863,579.74035 C -276.39711,576.60711 -278.05652,572.82976 -279.95611,569.0797 C -278.16569,575.69007 -274.47568,581.36155 -271.04222,587.13675 L -273.55863,579.74035"
           id="path10219" />
        <path
           style="fill:#d62766;fill-opacity:1;fill-rule:evenodd;stroke:none"
           d="M -49.308503,530.99506 L -50.503936,534.00275 C -52.676458,549.59251 -57.430897,565.02942 -64.707209,579.35824 C -56.688528,564.25976 -51.486484,547.73658 -49.308503,530.99506"
           id="path10221" />
        <path
           style="fill:#d62766;fill-opacity:1;fill-rule:evenodd;stroke:none"
           d="M -226.52189,311.41738 C -221.01963,309.41408 -212.98457,310.33112 -207.11658,308.98296 C -214.73132,309.60513 -222.32423,309.98729 -229.8298,310.94794 L -226.52189,311.3956"
           id="path10223" />
        <path
           style="fill:#d62766;fill-opacity:1;fill-rule:evenodd;stroke:none"
           d="M -420.15475,414.3612 C -418.89381,426.1081 -428.9813,430.67149 -417.9331,422.91482 C -411.98868,409.51942 -420.23663,419.22481 -420.15475,414.3612"
           id="path10225" />
        <path
           style="fill:#d62766;fill-opacity:1;fill-rule:evenodd;stroke:none"
           d="M -433.17896,468.82163 C -430.62434,460.994 -430.17673,456.28323 -429.19419,451.74168 C -436.25215,460.75928 -432.43659,462.68071 -433.17896,468.82163"
           id="path10227" />
      </g>
      <text
         sodipodi:linespacing="100%"
         id="text10229"
         y="840.9364"
         x="377.56558"
         style="font-size:9px;font-style:normal;font-variant:normal;font-weight:normal;font-stretch:normal;text-align:start;line-height:100%;writing-mode:lr-tb;text-anchor:start;fill:#000000;fill-opacity:1;stroke:none;stroke-width:1px;stroke-linecap:butt;stroke-linejoin:miter;stroke-opacity:1;font-family:Ume Mincho"
         xml:space="preserve"><tspan
           style="font-size:22px;font-style:normal;font-variant:normal;font-weight:normal;font-stretch:normal;text-align:start;line-height:100%;writing-mode:lr-tb;text-anchor:start;font-family:HGP創英角ｺﾞｼｯｸUB"
           y="840.9364"
           x="377.56558"
           id="tspan10231"
           sodipodi:role="line">もっと知りたかったら？ </tspan></text>
    </g>
    <flowRoot
       xml:space="preserve"
       id="flowRoot10274"
       style="font-size:9px;font-style:normal;font-variant:normal;font-weight:normal;font-stretch:normal;text-align:start;line-height:120%;writing-mode:lr;text-anchor:start;font-family:IPA明朝"
       transform="translate(-31.04512,-35.22416)"><flowRegion
         id="flowRegion10276"><rect
           id="rect10278"
           width="441.63364"
           height="39.47776"
           x="244.48032"
           y="658.47723"
           style="font-size:9px;font-style:normal;font-variant:normal;font-weight:normal;font-stretch:normal;text-align:start;line-height:120.00000477%;writing-mode:lr-tb;text-anchor:start;font-family:IPA明朝" /></flowRegion><flowPara
         id="flowPara10352"
         style="text-align:start;text-anchor:start;font-family:IPA明朝;font-weight:normal;font-style:normal;font-stretch:normal;font-variant:normal;font-size:9px;writing-mode:lr;line-height:120%">　完全な Debian GNU/Linux ディストリビューションは、少なくも２枚の DVD または12枚以上の CD で構成されています。これらのディスクにはアーキテクチャ毎のコンパイル済みバイナリが納められています。ソースコードが納められたディスクもあります。以下のようなソフトウェアが収録されています。 </flowPara><flowPara
         id="flowPara10354"
         style="text-align:start;text-anchor:start;font-family:IPA明朝;font-weight:normal;font-style:normal;font-stretch:normal;font-variant:normal;font-size:9px;writing-mode:lr;line-height:120%" /></flowRoot>    <flowRoot
       xml:space="preserve"
       id="flowRoot10290"
       style="font-size:9px;font-style:normal;font-variant:normal;font-weight:normal;font-stretch:normal;text-align:start;line-height:100%;writing-mode:lr-tb;text-anchor:start;font-family:Ume Mincho"
       transform="translate(-60.702319,-190.11803)"><flowRegion
         id="flowRegion10292"><rect
           id="rect10294"
           width="430.20801"
           height="154.43161"
           x="287.16736"
           y="848.6286"
           style="font-size:9px;font-style:normal;font-variant:normal;font-weight:normal;font-stretch:normal;text-align:start;line-height:100%;writing-mode:lr-tb;text-anchor:start;font-family:Ume Mincho" /></flowRegion><flowPara
         id="flowPara10328"
         style="font-size:9px;font-style:normal;font-variant:normal;font-weight:normal;font-stretch:normal;text-align:start;line-height:120.00000477%;writing-mode:lr-tb;text-anchor:start;font-family:HGP創英角ｺﾞｼｯｸUB">●<flowSpan
   style="font-weight:bold;font-family:Arial"
   id="flowSpan10400">GNU</flowSpan>ユーティリティの完全なセット</flowPara><flowPara
         id="flowPara10332"
         style="font-size:9px;font-style:normal;font-variant:normal;font-weight:normal;font-stretch:normal;text-align:start;line-height:120.00000477%;writing-mode:lr-tb;text-anchor:start;font-family:HGP創英角ｺﾞｼｯｸUB">エディタ（<flowSpan
   style="font-weight:bold;font-family:Arial"
   id="flowSpan10404">Emacs, vi</flowSpan> など）、ネットワークプログラム（チャットやファイル共有など）、Web ブラウザー（Iceweasel (Moziila) を含む）、プライバシー保護ツール（gpg, ssh など）、電子メールプログラムやあなたの思いつくあらゆる小さなツール</flowPara><flowPara
         id="flowPara10334"
         style="font-size:9px;font-style:normal;font-variant:normal;font-weight:normal;font-stretch:normal;text-align:start;line-height:120.00000477%;writing-mode:lr-tb;text-anchor:start;font-family:HGP創英角ｺﾞｼｯｸUB">●すべてのネットワークプロトコル（PPP, IPv4, IPv6, SMB など）</flowPara><flowPara
         id="flowPara10336"
         style="font-size:9px;font-style:normal;font-variant:normal;font-weight:normal;font-stretch:normal;text-align:start;line-height:120.00000477%;writing-mode:lr-tb;text-anchor:start;font-family:HGP創英角ｺﾞｼｯｸUB">●C, C++, Objective-C, Java, Python, Perl などの有名なプログラミング言語やその他のそれほど有名ではないプログラミング言語のための開発ツール</flowPara><flowPara
         id="flowPara10338"
         style="font-size:9px;font-style:normal;font-variant:normal;font-weight:normal;font-stretch:normal;text-align:start;line-height:120.00000477%;writing-mode:lr-tb;text-anchor:start;font-family:HGP創英角ｺﾞｼｯｸUB">●X11 ウィンドウシステムと全てのウィンドウマネージャ、及び２つの先進的なデスクトップ環境である Gnome と KDE</flowPara><flowPara
         id="flowPara10340"
         style="font-size:9px;font-style:normal;font-variant:normal;font-weight:normal;font-stretch:normal;text-align:start;line-height:120.00000477%;writing-mode:lr-tb;text-anchor:start;font-family:HGP創英角ｺﾞｼｯｸUB">●TeX/LaTeX 文書整型システム、PostScript(TM)とType1 フォントとツール、Ghostscript PostScript(TM)インタプリタ、XML/SGML/HTML 開発環境</flowPara><flowPara
         id="flowPara10342"
         style="font-size:9px;font-style:normal;font-variant:normal;font-weight:normal;font-stretch:normal;text-align:start;line-height:120.00000477%;writing-mode:lr-tb;text-anchor:start;font-family:HGP創英角ｺﾞｼｯｸUB">●GIMP（Adobe Photoshop のようなプログラム）</flowPara><flowPara
         id="flowPara10344"
         style="font-size:9px;font-style:normal;font-variant:normal;font-weight:normal;font-stretch:normal;text-align:start;line-height:120.00000477%;writing-mode:lr-tb;text-anchor:start;font-family:HGP創英角ｺﾞｼｯｸUB">●OpenOffice.org、Gnumeric やその他の表計算プログラム、WYSIWYG エディタ、カレンダ を含むオフィスアプリケーション一式</flowPara><flowPara
         id="flowPara10346"
         style="font-size:9px;font-style:normal;font-variant:normal;font-weight:normal;font-stretch:normal;text-align:start;line-height:120.00000477%;writing-mode:lr-tb;text-anchor:start;font-family:HGP創英角ｺﾞｼｯｸUB">●PostgreSQL や MySQL などのリレーショナルデータベースおよび開発用ツール（アプリケーションサーバ、サーバサイドスクリプト言語） </flowPara></flowRoot>    <flowRoot
       xml:space="preserve"
       id="flowRoot10382"
       transform="translate(-47.556349,-39.100505)"
       style="text-anchor:start;text-align:start;font-family:IPA明朝;font-weight:normal;font-style:normal;font-stretch:normal;font-variant:normal;font-size:9px;writing-mode:lr;line-height:120%"><flowRegion
         id="flowRegion10384"><rect
           id="rect10386"
           width="443.39697"
           height="38.431458"
           x="260"
           y="891.36218"
           style="text-anchor:start;text-align:start;font-family:IPA明朝;font-weight:normal;font-style:normal;font-stretch:normal;font-variant:normal;font-size:9px;writing-mode:lr;line-height:120%" /></flowRegion><flowPara
         id="flowPara10388"
         style="font-size:9px;font-style:normal;font-variant:normal;font-weight:normal;font-stretch:normal;text-align:start;line-height:120%;writing-mode:lr;text-anchor:start;font-family:IPA明朝">　Web ブラウザに、http://www.debian.org と入力してみましょう。</flowPara><flowPara
         id="flowPara10392"
         style="font-size:9px;font-style:normal;font-variant:normal;font-weight:normal;font-stretch:normal;text-align:start;line-height:120%;writing-mode:lr;text-anchor:start;font-family:IPA明朝"> Debian プロジェクトの公式 DVD/CD イメージについてのより詳細の情報は、http://www.debian.org/CD/ にあります。 </flowPara></flowRoot>    <path
       sodipodi:type="star"
       style="opacity:1;fill:#d62766;fill-opacity:1;stroke:none;stroke-width:3.54330707;stroke-miterlimit:4;stroke-dasharray:none;stroke-opacity:1"
       id="path10410"
       sodipodi:sides="5"
       sodipodi:cx="220.61732"
       sodipodi:cy="957.60986"
       sodipodi:r1="21.965883"
       sodipodi:r2="11.935228"
       sodipodi:arg1="0.57907427"
       sodipodi:arg2="1.2073928"
       inkscape:flatsided="false"
       inkscape:rounded="0"
       inkscape:randomized="0"
       d="M 239.0021,969.63068 L 224.85979,968.76563 L 214.86606,978.80946 L 211.31855,965.09201 L 198.67807,958.69112 L 210.6279,951.07832 L 212.80939,937.07852 L 223.74229,946.091 L 237.73101,943.83954 L 232.53808,957.02236 L 239.0021,969.63068 z "
       transform="translate(13.435029,-18.819805)" />
    <flowRoot
       xml:space="preserve"
       id="flowRoot10356"
       transform="translate(3.4852816,68.162952)"><flowRegion
         id="flowRegion10358"><rect
           id="rect10360"
           width="278.60007"
           height="19.091883"
           x="237.58788"
           y="863.5647" /></flowRegion><flowPara
         id="flowPara10362"
         style="font-size:12px;font-style:normal;font-variant:normal;font-weight:normal;font-stretch:normal;text-align:start;line-height:125%;writing-mode:lr-tb;text-anchor:start;font-family:HGP創英角ｺﾞｼｯｸUB">東京、関西で月一回勉強会を開催しています。</flowPara></flowRoot>    <flowRoot
       xml:space="preserve"
       id="flowRoot10416"
       style="font-size:9px;font-style:normal;font-variant:normal;font-weight:normal;font-stretch:normal;text-align:start;line-height:120.00000477%;writing-mode:lr-tb;text-anchor:start;font-family:IPA明朝"
       transform="translate(1.3910179,120.00716)"><flowRegion
         id="flowRegion10418"><rect
           id="rect10420"
           width="441"
           height="59.242638"
           x="213"
           y="50.362183"
           style="font-size:9px;font-style:normal;font-variant:normal;font-weight:normal;font-stretch:normal;text-align:start;line-height:120.00000477%;writing-mode:lr-tb;text-anchor:start;font-family:IPA明朝" /></flowRegion><flowPara
         id="flowPara10430">　Debianはあなたのコンピュータで利用できる自由な OS です。</flowPara><flowPara
         id="flowPara10432">　Debianは現在Linux カーネルを基盤に10,000 以上のソフトウェアパッケージがあります。これだけ多くのソフトウェアが利用できる自由なOSはDebianの他はありません。</flowPara><flowPara
         id="flowPara10434">　x86, IA-64, AMD64, Alpha, 68k, PowerPC, SPARC などの多くのアーキテクチャがサポートされています。</flowPara><flowPara
         id="flowPara10436">約 1,000 名のボランティア開発者が Debian の高品質を維持するべく活動しています。</flowPara></flowRoot>  </g>
</svg>
