<?xml version="1.0" encoding="UTF-8" standalone="no"?>
<!-- Created with Inkscape (http://www.inkscape.org/) -->
<svg
   xmlns:dc="http://purl.org/dc/elements/1.1/"
   xmlns:cc="http://web.resource.org/cc/"
   xmlns:rdf="http://www.w3.org/1999/02/22-rdf-syntax-ns#"
   xmlns:svg="http://www.w3.org/2000/svg"
   xmlns="http://www.w3.org/2000/svg"
   xmlns:xlink="http://www.w3.org/1999/xlink"
   xmlns:sodipodi="http://sodipodi.sourceforge.net/DTD/sodipodi-0.dtd"
   xmlns:inkscape="http://www.inkscape.org/namespaces/inkscape"
   width="1052.3622"
   height="744.09448"
   id="svg2219"
   sodipodi:version="0.32"
   inkscape:version="0.45.1"
   sodipodi:docbase=""
   sodipodi:docname="dvd-jacket.svg"
   inkscape:output_extension="org.inkscape.output.svg.inkscape"
   version="1.0"
   inkscape:export-filename="dvd-jacket.png"
   inkscape:export-xdpi="90"
   inkscape:export-ydpi="90">
  <sodipodi:namedview
     id="base"
     pagecolor="#ffffff"
     bordercolor="#666666"
     borderopacity="1.0"
     gridtolerance="10000"
     guidetolerance="10"
     objecttolerance="10"
     inkscape:pageopacity="0.0"
     inkscape:pageshadow="2"
     inkscape:zoom="1"
     inkscape:cx="326.89402"
     inkscape:cy="407.37725"
     inkscape:document-units="mm"
     inkscape:current-layer="layer1"
     inkscape:window-width="1280"
     inkscape:window-height="800"
     inkscape:window-x="3"
     inkscape:window-y="48"
     width="297.00001mm"
     height="210.00001mm"
     units="mm"
     showguides="true"
     inkscape:guide-bbox="true"
     gridspacingx="0.28222223mm"
     gridspacingy="0.28222223mm"
     gridanglex="8.4666669mm"
     gridanglez="8.4666669mm"
     grid_units="mm">
    <sodipodi:guide
       orientation="vertical"
       position="43.405512"
       id="guide2234" />
    <sodipodi:guide
       orientation="vertical"
       position="1008.9567"
       id="guide2236" />
    <sodipodi:guide
       orientation="horizontal"
       position="47.834646"
       id="guide2238" />
    <sodipodi:guide
       orientation="horizontal"
       position="696.25984"
       id="guide2240" />
  </sodipodi:namedview>
  <defs
     id="defs2221">
    <filter
       id="filter9239"
       inkscape:collect="always">
      <feGaussianBlur
         stdDeviation="5.0800152"
         id="feGaussianBlur9241"
         inkscape:collect="always" />
    </filter>
    <marker
       markerHeight="3"
       refY="5"
       id="ArrowStart"
       refX="10"
       markerWidth="4"
       markerUnits="strokeWidth"
       viewBox="0 0 10 10"
       orient="auto">
      <path
         id="path2248"
         d="M 10,0 L 0,5 L 10,10 L 10,0 z " />
    </marker>
    <marker
       markerHeight="3"
       refY="5"
       id="ArrowEnd"
       refX="0"
       markerWidth="4"
       markerUnits="strokeWidth"
       viewBox="0 0 10 10"
       orient="auto">
      <path
         id="path2245"
         d="M 0,0 L 10,5 L 0,10 L 0,0 z " />
    </marker>
  </defs>
  <metadata
     id="metadata2224">
    <rdf:RDF>
      <cc:Work
         rdf:about="">
        <dc:format>image/svg+xml</dc:format>
        <dc:type
           rdf:resource="http://purl.org/dc/dcmitype/StillImage" />
      </cc:Work>
    </rdf:RDF>
  </metadata>
  <g
     style="display:inline"
     inkscape:label="Layer 1"
     id="layer1"
     inkscape:groupmode="layer"
     sodipodi:insensitive="true">
    <rect
       style="fill:#cadede;fill-opacity:1;fill-rule:evenodd;stroke:none;stroke-width:1.54841828px;stroke-linecap:butt;stroke-linejoin:miter;stroke-opacity:1"
       y="47.834667"
       x="43.405514"
       height="648.42517"
       width="457.97244"
       id="rect3266" />
    <rect
       style="font-size:30px;fill:#003466;fill-opacity:1;fill-rule:evenodd;stroke:none;stroke-width:1.54841828px;stroke-linecap:butt;stroke-linejoin:miter;stroke-opacity:1"
       y="47.834667"
       x="501.37796"
       height="648.42517"
       width="49.6063"
       id="rect3270" />
    <text
       style="font-size:30px;font-style:italic;font-weight:bold;fill:#e9fff6;fill-opacity:1"
       transform="matrix(0,1,-1,0,0,0)"
       y="-518.64594"
       x="137.76212"
       id="text11084"
       xml:space="preserve"><tspan
         style="font-size:24px;font-style:normal;font-weight:bold;letter-spacing:-1.27165401;fill:#e9fff6;fill-opacity:1;font-family:DejaVu Sans"
         sodipodi:role="line"
         id="tspan11086"
         y="-518.64594"
         x="137.76212">Debian GNU/Linux 4.0r0 (etch)</tspan></text>
    <rect
       style="fill:#e9fff6;fill-opacity:1;fill-rule:evenodd;stroke:none;stroke-width:1.54841828px;stroke-linecap:butt;stroke-linejoin:miter;stroke-opacity:1"
       y="47.834667"
       x="550.98425"
       height="648.42517"
       width="457.97244"
       id="rect3268" />
    <g
       id="g2212"
       transform="matrix(2.9320685,0,0,2.9320685,679.12343,242.87863)">
      <polygon
         style="fill:#d62766"
         id="polygon30"
         points="66.934,111.532 63.098,115.368 59.262,111.532 63.098,107.696 66.934,111.532 " />
      <path
         id="path32"
         d="M 13.446,125.504 C 13.403,125.551 13.403,133.008 13.309,134.954 C 13.219,136.528 13.079,139.907 9.74298,139.907 C 6.31699,139.907 5.48099,135.969 5.20398,134.258 C 4.883,132.36 4.883,130.786 4.883,130.09 C 4.883,127.868 5.01999,121.657 10.258,121.657 C 11.833,121.657 12.711,122.122 13.407,122.489 L 13.446,125.504 z M 13.579,143.852 C 14.457,143.805 15.336,143.715 16.774,143.715 C 17.282,143.715 17.7,143.715 18.071,143.762 C 18.438,143.762 18.809,143.805 19.227,143.852 C 18.489,142.372 17.93,139.036 17.93,131.805 C 17.93,124.762 17.93,112.856 18.532,109.243 C 16.868,110.028 15.43,110.539 12.278,110.817 C 13.528,112.161 13.528,112.852 13.528,118.969 C 12.649,118.696 11.54,118.372 9.63699,118.372 C 1.34399,118.372 0,125.598 0,130.973 C 0,144.036 6.957,144.036 7.97699,144.036 C 10.848,144.036 12.704,142.461 13.489,139.731 L 13.579,143.852 z " />
      <path
         id="path34"
         d="M 25.137,128.61 C 25.184,124.766 25.969,121.336 29.258,121.336 C 32.872,121.336 33.149,125.321 33.055,128.61 L 25.137,128.61 z M 37.649,129.075 C 37.649,123.653 36.586,118.325 29.727,118.325 C 20.278,118.325 20.278,128.797 20.278,131.02 C 20.278,140.422 24.493,144.129 31.583,144.129 C 34.731,144.129 36.262,143.668 37.094,143.438 C 37.051,141.77 37.278,140.707 37.559,139.27 C 36.586,139.872 35.336,140.661 32.555,140.661 C 25.329,140.661 25.235,134.082 25.235,131.809 L 37.559,131.809 L 37.649,129.075 z " />
      <path
         id="path36"
         d="M 52.723,131.067 C 52.723,135.375 51.938,141.168 46.563,141.168 C 45.825,141.168 44.895,141.028 44.293,140.891 C 44.204,139.223 44.204,136.352 44.204,133.016 C 44.204,129.032 44.618,126.95 44.942,125.926 C 45.911,122.641 48.09,122.594 48.504,122.594 C 52.024,122.594 52.723,127.457 52.723,131.067 z M 39.426,136.118 C 39.426,139.543 39.426,141.493 38.872,142.973 C 40.77,143.711 43.133,144.129 45.961,144.129 C 47.766,144.129 53.004,144.129 55.829,138.34 C 57.172,135.657 57.633,132.039 57.633,129.305 C 57.633,127.637 57.45,123.981 56.106,121.661 C 54.809,119.485 52.723,118.375 50.5,118.375 C 46.055,118.375 44.758,122.079 44.063,123.981 C 44.063,121.622 44.106,113.372 44.477,109.157 C 41.469,110.547 39.614,110.774 37.622,110.961 C 39.426,111.7 39.426,114.758 39.426,124.723 L 39.426,136.118 z " />
      <path
         id="path38"
         d="M 66.543,143.852 C 65.618,143.715 64.969,143.622 63.625,143.622 C 62.149,143.622 61.125,143.711 60.063,143.852 C 60.524,142.973 60.707,142.555 60.848,139.543 C 61.032,135.418 61.079,124.391 60.758,122.075 C 60.528,120.313 60.114,120.039 59.461,119.575 C 63.258,119.207 64.325,118.926 66.086,118.094 C 65.719,120.129 65.672,121.153 65.672,124.254 C 65.583,140.243 65.536,141.954 66.543,143.852" />
      <path
         id="path40"
         d="M 81.379,130.739 C 81.29,133.657 81.243,135.696 80.454,137.317 C 79.481,139.403 77.86,140 76.657,140 C 73.875,140 73.274,137.688 73.274,135.415 C 73.274,131.063 77.165,130.739 78.922,130.739 L 81.379,130.739 z M 85.915,125.375 C 85.915,121.852 84.989,118.379 78.036,118.379 C 73.454,118.379 70.766,119.766 69.422,120.465 C 69.977,121.481 70.442,122.36 70.856,124.356 C 72.661,122.782 75.028,121.95 77.434,121.95 C 81.282,121.95 81.282,124.497 81.282,128.11 C 80.403,128.067 79.661,127.973 78.407,127.973 C 72.524,127.973 68.637,130.239 68.637,136.442 C 68.637,139.36 69.516,142.278 72.114,143.532 C 73.27,144.039 74.426,144.039 74.797,144.039 C 79.059,144.039 80.493,140.891 81.375,138.946 C 81.329,140.981 81.375,142.231 81.512,143.856 C 82.344,143.809 83.18,143.719 84.571,143.719 C 85.356,143.719 86.098,143.809 86.883,143.856 C 86.375,143.071 86.098,142.606 85.957,140.797 C 85.868,139.039 85.868,137.278 85.868,134.825 L 85.915,125.375 z " />
      <path
         id="path42"
         d="M 108.075,139.266 C 108.118,140.84 108.118,142.508 108.762,143.852 C 107.743,143.762 107.141,143.622 105.243,143.622 C 104.129,143.622 103.528,143.711 102.649,143.852 C 102.833,143.25 102.926,143.02 103.016,142.231 C 103.153,141.168 103.247,137.598 103.247,136.348 L 103.247,131.344 C 103.247,129.168 103.247,126.016 103.11,124.907 C 103.02,124.122 102.79,121.989 100.098,121.989 C 97.457,121.989 96.579,123.93 96.254,125.508 C 95.887,127.129 95.887,128.891 95.887,135.747 C 95.93,141.676 95.93,142.231 96.395,143.852 C 95.61,143.762 94.637,143.668 93.247,143.668 C 92.133,143.668 91.395,143.711 90.469,143.852 C 90.793,143.114 90.977,142.743 91.071,140.149 C 91.165,137.602 91.348,125.09 90.93,122.125 C 90.704,120.317 90.239,119.903 89.731,119.438 C 93.485,119.254 94.684,118.653 95.844,118.051 L 95.844,122.961 C 96.399,121.524 97.555,118.329 102.192,118.329 C 107.985,118.329 108.028,122.543 108.075,125.321 L 108.075,139.266 z " />
    </g>
    <text
       xml:space="preserve"
       style="font-size:12px;font-style:normal;font-weight:normal;fill:#000000;fill-opacity:1;stroke:none;stroke-width:1px;stroke-linecap:butt;stroke-linejoin:miter;stroke-opacity:1;font-family:Bitstream Vera Sans"
       id="text11058"
       y="682.28796"
       x="674.93549"><tspan
         style="font-size:20px;font-style:normal;font-weight:bold;letter-spacing:-0.61390203;font-family:DejaVu Sans"
         sodipodi:role="line"
         id="tspan11060"
         y="682.28796"
         x="674.93549">Debian GNU/Linux 4.0r0 (etch)</tspan></text>
    <g
       id="g12125"
       transform="translate(7.9842528,-12.401578)">
      <path
         style="color:#000000;fill:#003466;fill-opacity:0.44336572;fill-rule:nonzero;stroke:none;stroke-width:1;stroke-linecap:butt;stroke-linejoin:miter;marker:none;marker-start:none;marker-mid:none;marker-end:none;stroke-miterlimit:4;stroke-dasharray:none;stroke-dashoffset:0;stroke-opacity:1;visibility:visible;display:inline;overflow:visible;enable-background:accumulate"
         id="path7153"
         d="M 755.40625,84.1875 C 745.04512,85.026765 734.68134,85.516633 724.46875,86.8125 L 728.96875,87.3125 C 736.45551,84.610231 747.42186,86.006023 755.40625,84.1875 z M 710.1875,88.90625 C 693.32743,89.907736 669.8982,98.687413 677.125,90.75 C 649.62152,102.91382 600.85925,120.02543 573.4375,145.53125 L 572.65625,139.78125 C 566.85417,146.67197 554.71451,156.69279 543,167.40625 L 543,243.84375 C 562.94225,223.61405 586.87489,204.62449 601.21875,206.375 C 613.31789,191.33223 598.81425,206.48864 596.4375,202.71875 C 623.01254,175.4828 631.41415,183.23104 649.34375,178.3125 C 668.66969,166.95129 632.52216,182.86496 641.6875,174.125 C 675.11056,165.66483 665.48937,154.81656 709.125,150.53125 C 711.06008,151.62259 709.42522,152.54385 706.625,153.5 C 737.37346,145.37495 787.62017,149.85427 821.8125,165.46875 C 867.24559,186.52714 918.43365,248.78526 920.46875,307.34375 L 922.84375,307.84375 C 921.71479,331.11102 926.30839,358.10384 918.09375,382.84375 L 923.375,371.5625 C 923.90207,388.96555 918.09713,397.63808 912.8125,412.75 L 903.28125,417.46875 C 895.44541,432.57039 904.13146,426.94486 898.53125,438.96875 C 886.28358,449.75556 861.25821,472.74705 853.28125,474.875 C 847.47304,474.75719 857.28499,468.0293 858.5625,465.4375 C 842.17036,476.59993 845.28603,482.24255 820.21875,489.03125 L 819.4375,487.46875 C 757.58262,516.3173 671.79957,459.03374 672.90625,381 C 672.2675,385.94801 671.08538,384.79322 669.71875,386.78125 C 666.52498,346.65985 688.3525,306.22854 725.28125,289.75 C 761.37816,272.05657 803.62159,279.50573 829.46875,303.40625 C 815.28254,284.96911 787.07467,265.40743 753.5625,267.21875 C 720.74849,267.73414 690.05327,288.28528 679.78125,310.75 C 662.98804,321.21289 660.90225,351.13215 653.59375,356.625 C 643.73021,428.47379 672.18024,459.60418 720.25,496.125 C 727.79615,501.16133 722.39613,501.96163 723.40625,505.8125 C 707.45231,498.41996 692.85375,487.28726 680.84375,473.5625 C 687.22385,482.79574 694.15711,491.67416 703.0625,498.75 C 688.00725,493.71366 667.92268,462.51645 662.0625,461.25 C 687.9988,507.32803 767.27291,542.19094 808.84375,524.96875 C 789.63661,525.65344 765.14483,525.25344 743.53125,517.375 C 734.45504,512.7436 722.26283,503.15682 724.46875,501.375 C 781.16168,522.34501 839.63144,517.254 888.71875,478.28125 C 901.1967,468.65036 914.93108,452.29082 918.875,452.0625 C 913.69536,459.78729 918.28832,457.29796 916.5,461.78125 C 925.66165,445.65331 910.82446,454.73101 928.15625,429.78125 L 934.75,438.96875 C 932.25437,422.45337 955.34704,402.39805 953,376.28125 C 955.39818,372.68351 956.91372,374.34282 957.25,378.65625 C 956.93047,374.24442 956.68857,369.72724 957.5,362.90625 C 959.64655,368.53899 962.36571,374.55064 963.84375,380.5 C 958.76342,360.83326 969.19653,347.34846 971.78125,335.90625 C 969.25594,334.80915 963.74933,344.42714 962.53125,321.21875 C 962.70953,311.12401 965.48245,316.09899 966.5,313.625 C 964.52437,312.50581 959.37383,304.61603 956.1875,289.75 C 958.47511,286.26729 962.28087,298.94597 965.4375,299.46875 C 963.43952,287.67313 959.76612,278.61907 959.625,269.5625 C 950.42251,250.49213 956.4883,272.13604 949.03125,261.4375 C 939.25685,231.14581 957.09443,254.4656 958.3125,240.71875 C 973.1375,262.03483 981.64676,294.93705 985.53125,308.625 C 982.57515,291.94767 977.64142,275.76416 971.78125,260.125 C 976.31193,261.98786 964.76574,225.91737 977.875,249.90625 C 963.86707,198.79918 917.79872,150.90582 875.5,128.5 C 880.63233,133.18304 887.09704,139.08142 884.75,140.03125 C 863.71576,127.63913 867.42917,126.64139 864.40625,121.40625 C 847.29365,114.49986 846.3728,121.9512 835.03125,121.40625 C 802.73718,104.43447 796.51291,106.35838 766.78125,95.71875 L 768.125,101.75 C 746.74165,94.703536 743.09749,104.40055 719.96875,101.75 C 718.57982,100.68963 727.28217,98.062231 734.53125,97.03125 C 713.87578,99.733565 714.84812,92.820533 694.59375,97.5625 C 699.55524,94.116428 704.87695,91.866262 710.1875,88.90625 z M 706.625,153.5 C 704.35498,154.09984 702.16807,154.76216 700.125,155.5 C 702.34529,154.79591 704.74706,154.14124 706.625,153.5 z M 726.84375,92.5625 C 732.76336,93.593399 739.73784,94.562332 738.75,95.96875 C 745.2192,94.562326 746.60049,93.136819 726.84375,92.5625 z M 738.75,95.96875 L 734.53125,96.78125 L 738.5,96.25 L 738.75,95.96875 z M 848.78125,350.34375 C 847.41464,350.37964 845.69635,353.64004 844.8125,357.40625 C 846.84017,358.47391 848.6583,371.40434 850.65625,363.4375 C 851.32471,353.54153 850.14788,350.30785 848.78125,350.34375 z M 957.5,381.8125 C 957.3564,387.27647 955.83679,395.02733 953.28125,403.3125 C 957.19916,393.12938 957.71354,387.27682 957.5,381.8125 z M 970.1875,383.625 L 968.625,387.5625 C 966.40791,403.3342 962.32237,418.97258 956.1875,433.96875 C 963.12413,417.7916 967.9244,400.87033 970.1875,383.625 z M 841.65625,390.96875 C 840.17819,398.24344 836.17934,404.51476 832.40625,411.15625 C 811.66169,424.10049 830.46029,403.53654 832.40625,395.6875 C 810.12424,423.52724 829.50451,412.29625 828.6875,420.09375 C 835.29784,411.05925 839.97767,401.21077 841.65625,390.96875 z M 796.40625,433.46875 C 787.41173,435.65559 778.16072,435.61327 768.90625,434.78125 C 757.82462,434.92849 771.08661,440.41608 785.5625,442.625 C 789.57325,439.52512 793.19021,436.51706 796.40625,433.46875 z M 656.5,435.03125 C 658.93617,443.9479 663.73445,451.36617 668.40625,459.15625 L 665.21875,449.1875 C 661.35655,444.96115 659.08471,440.08967 656.5,435.03125 z M 647.78125,449.96875 L 646.1875,457.59375 C 653.46628,467.40136 659.34236,478.22659 668.65625,485.90625 C 661.9865,472.96194 656.94659,467.51492 647.78125,449.96875 z M 543,573.4375 L 543,579.5 L 545.40625,576.625 C 544.58982,575.58154 543.79047,574.52062 543,573.4375 z M 543,583.96875 L 543,647.8125 C 564.41538,671.74029 588.61616,692.38972 614.40625,708.65625 L 655.375,708.65625 C 642.31644,702.61813 646.83885,700.05655 628.71875,694.375 L 634.53125,686.75 C 625.7967,686.0872 611.23259,672.20001 607.28125,664.46875 L 597.78125,664.71875 C 586.32087,650.68468 580.15553,640.59899 580.59375,632.75 L 577.6875,638.25 C 574.21151,632.32272 535.36294,585.69461 555.46875,596.5625 C 552.11879,593.52708 547.7562,591.45383 543,583.96875 z M 660.71875,703.28125 L 663.8125,708.65625 L 666.53125,708.65625 C 664.75674,706.89403 662.85118,705.11427 660.71875,703.28125 z " />
      <path
         style="color:#000000;fill:#003466;fill-opacity:1;fill-rule:nonzero;stroke:none;stroke-width:1;stroke-linecap:butt;stroke-linejoin:miter;marker:none;marker-start:none;marker-mid:none;marker-end:none;stroke-miterlimit:4;stroke-dasharray:none;stroke-dashoffset:0;stroke-opacity:1;visibility:visible;display:inline;overflow:visible;enable-background:accumulate"
         id="path7155"
         d="M 745.96875,85.53125 C 735.60761,86.370517 725.24384,86.829134 715.03125,88.125 L 719.53125,88.65625 C 727.018,85.953982 737.98436,87.349773 745.96875,85.53125 z M 700.75,90.25 C 683.88992,91.251487 660.46069,99.999911 667.6875,92.0625 C 640.18401,104.22632 591.42175,121.36917 564,146.875 L 563.21875,141.09375 C 558.99559,146.1093 551.32996,152.88535 543,160.28125 L 543,236.03125 C 560.64405,219.62351 579.64164,206.23724 591.78125,207.71875 C 603.88038,192.67598 589.37675,207.80114 587,204.03125 C 613.57503,176.79529 621.97665,184.57479 639.90625,179.65625 C 659.23217,168.29503 623.08466,184.20871 632.25,175.46875 C 665.67306,167.00857 656.05187,156.12905 699.6875,151.84375 C 701.63993,152.94488 699.94023,153.90999 697.09375,154.875 C 727.83364,146.7157 778.14756,151.18199 812.375,166.8125 C 857.80807,187.87091 908.99616,250.09776 911.03125,308.65625 L 913.40625,309.1875 C 912.27728,332.45477 916.87089,359.44759 908.65625,384.1875 L 913.9375,372.90625 C 914.46456,390.30931 908.65963,398.95058 903.375,414.0625 L 893.84375,418.78125 C 886.0079,433.88288 894.69397,428.28861 889.09375,440.3125 C 876.84606,451.09933 851.82071,474.0908 843.84375,476.21875 C 838.03552,476.10094 847.8475,469.37305 849.125,466.78125 C 832.73284,477.94365 835.84853,483.58629 810.78125,490.375 L 810,488.8125 C 748.14511,517.66104 662.36207,460.37751 663.46875,382.34375 C 662.82999,387.29175 661.64789,386.13697 660.28125,388.125 C 657.08754,348.00359 678.88375,307.5723 715.8125,291.09375 C 751.90939,273.4003 794.1841,280.81823 820.03125,304.71875 C 805.84503,286.28161 777.63717,266.71993 744.125,268.53125 C 711.31104,269.04665 680.61577,289.59778 670.34375,312.0625 C 653.55054,322.52539 651.46475,352.4759 644.15625,357.96875 C 634.29276,429.81753 662.74275,460.94793 710.8125,497.46875 C 718.3587,502.50509 712.95863,503.30539 713.96875,507.15625 C 698.01486,499.76372 683.38501,488.63101 671.375,474.90625 C 677.75509,484.13951 684.68836,493.0179 693.59375,500.09375 C 678.53856,495.0574 658.48517,463.8602 652.625,462.59375 C 678.56128,508.6718 757.83541,543.5347 799.40625,526.3125 C 780.19916,526.99723 755.70732,526.56594 734.09375,518.6875 C 725.01753,514.05614 712.82533,504.50057 715.03125,502.71875 C 771.72417,523.68876 830.19394,518.59774 879.28125,479.625 C 891.75919,469.99409 905.49358,453.63457 909.4375,453.40625 C 904.25785,461.13106 908.85082,458.64171 907.0625,463.125 C 916.22413,446.99706 901.38695,456.07477 918.71875,431.125 L 925.3125,440.3125 C 922.81692,423.79712 945.90954,403.74181 943.5625,377.625 C 945.96068,374.02728 947.47623,375.68657 947.8125,380 C 947.49295,375.58817 947.25107,371.07099 948.0625,364.25 C 950.20904,369.88273 952.92821,375.86314 954.40625,381.8125 C 949.32596,362.14576 959.75903,348.69221 962.34375,337.25 C 959.81842,336.15292 954.31183,345.77089 953.09375,322.5625 C 953.27201,312.46776 956.04496,317.44274 957.0625,314.96875 C 955.08685,313.84956 949.93633,305.95979 946.75,291.09375 C 949.0376,287.61103 952.84338,300.28973 956,300.8125 C 954.00207,289.01688 950.32862,279.96283 950.1875,270.90625 C 940.98501,251.83591 947.0508,273.47978 939.59375,262.78125 C 929.81934,232.48955 947.62567,255.80936 948.84375,242.0625 C 963.66874,263.3786 972.20926,296.2808 976.09375,309.96875 C 973.13764,293.29141 968.20392,277.10791 962.34375,261.46875 C 966.87441,263.3316 955.32823,227.26112 968.4375,251.25 C 954.42955,200.14293 908.36122,152.24958 866.0625,129.84375 C 871.19482,134.5268 877.65954,140.42517 875.3125,141.375 C 854.27825,128.98287 857.99168,127.98514 854.96875,122.75 C 837.85615,115.84361 836.9353,123.29494 825.59375,122.75 C 793.29967,105.77822 787.0754,107.70213 757.34375,97.0625 L 758.6875,103.09375 C 737.3042,96.047287 733.65999,105.7443 710.53125,103.09375 C 709.1423,102.03338 717.84467,99.40598 725.09375,98.375 C 704.43827,101.07732 705.41062,94.133032 685.15625,98.875 C 690.11772,95.428921 695.43945,93.210012 700.75,90.25 z M 697.09375,154.875 C 694.85821,155.46838 692.70217,156.11617 690.6875,156.84375 C 692.87809,156.14908 695.22707,155.50784 697.09375,154.875 z M 717.40625,93.90625 C 723.32585,94.93715 730.30034,95.906083 729.3125,97.3125 C 735.78169,95.906077 737.16298,94.48057 717.40625,93.90625 z M 729.3125,97.3125 L 725.09375,98.09375 L 729.0625,97.59375 L 729.3125,97.3125 z M 839.34375,351.65625 C 837.97713,351.69213 836.25885,354.98378 835.375,358.75 C 837.40266,359.81765 839.2208,372.74809 841.21875,364.78125 C 841.88719,354.88528 840.71038,351.62035 839.34375,351.65625 z M 948.0625,383.125 C 947.9189,388.58896 946.39929,396.33982 943.84375,404.625 C 947.76171,394.44187 948.27603,388.58932 948.0625,383.125 z M 960.75,384.96875 L 959.1875,388.90625 C 956.9704,404.67797 952.88487,420.31634 946.75,435.3125 C 953.68662,419.13538 958.4869,402.21409 960.75,384.96875 z M 832.21875,392.3125 C 830.74068,399.58718 826.71059,405.85851 822.9375,412.5 C 802.19294,425.44426 820.99153,404.88028 822.9375,397.03125 C 800.65548,424.87099 820.067,413.60876 819.25,421.40625 C 825.86033,412.37175 830.54017,402.55452 832.21875,392.3125 z M 786.96875,434.78125 C 777.97422,436.96807 768.72322,436.92577 759.46875,436.09375 C 748.38717,436.24099 761.64911,441.75983 776.125,443.96875 C 780.13575,440.86887 783.75271,437.82956 786.96875,434.78125 z M 647.0625,436.375 C 649.49867,445.29165 654.29695,452.70991 658.96875,460.5 L 655.78125,450.53125 C 651.91904,446.3049 649.64722,441.43343 647.0625,436.375 z M 638.3125,451.3125 L 636.75,458.90625 C 644.02877,468.71387 649.90486,479.57034 659.21875,487.25 C 652.54899,474.30567 647.47784,468.85868 638.3125,451.3125 z M 543,595.46875 L 543,596.53125 C 543.80535,596.78967 544.78466,597.21807 546,597.875 C 545.07159,597.03377 544.0694,596.29527 543,595.46875 z M 543,604.25 L 543,659.28125 C 561.37763,678.29727 581.5303,694.98494 602.8125,708.65625 L 643.1875,708.65625 C 633.43684,703.54558 635.99843,700.92917 619.28125,695.6875 L 625.09375,688.09375 C 616.35919,687.43093 601.79509,673.54377 597.84375,665.8125 L 588.34375,666.0625 C 576.88337,652.02846 570.71803,641.91149 571.15625,634.0625 L 568.21875,639.59375 C 566.01397,635.83414 549.59596,615.70212 543,604.25 z M 651.28125,704.625 L 653.59375,708.65625 L 655.71875,708.65625 C 654.33884,707.32714 652.87351,705.9937 651.28125,704.625 z " />
    </g>
    <g
       style="display:inline"
       id="g11088"
       transform="matrix(1.2156929,0,0,1.2156929,351.264,509.85321)">
      <polygon
         style="fill:#d62766"
         id="polygon11090"
         points="66.934,111.532 63.098,115.368 59.262,111.532 63.098,107.696 66.934,111.532 " />
      <path
         id="path11092"
         d="M 13.446,125.504 C 13.403,125.551 13.403,133.008 13.309,134.954 C 13.219,136.528 13.079,139.907 9.74298,139.907 C 6.31699,139.907 5.48099,135.969 5.20398,134.258 C 4.883,132.36 4.883,130.786 4.883,130.09 C 4.883,127.868 5.01999,121.657 10.258,121.657 C 11.833,121.657 12.711,122.122 13.407,122.489 L 13.446,125.504 z M 13.579,143.852 C 14.457,143.805 15.336,143.715 16.774,143.715 C 17.282,143.715 17.7,143.715 18.071,143.762 C 18.438,143.762 18.809,143.805 19.227,143.852 C 18.489,142.372 17.93,139.036 17.93,131.805 C 17.93,124.762 17.93,112.856 18.532,109.243 C 16.868,110.028 15.43,110.539 12.278,110.817 C 13.528,112.161 13.528,112.852 13.528,118.969 C 12.649,118.696 11.54,118.372 9.63699,118.372 C 1.34399,118.372 0,125.598 0,130.973 C 0,144.036 6.957,144.036 7.97699,144.036 C 10.848,144.036 12.704,142.461 13.489,139.731 L 13.579,143.852 z " />
      <path
         id="path11094"
         d="M 25.137,128.61 C 25.184,124.766 25.969,121.336 29.258,121.336 C 32.872,121.336 33.149,125.321 33.055,128.61 L 25.137,128.61 z M 37.649,129.075 C 37.649,123.653 36.586,118.325 29.727,118.325 C 20.278,118.325 20.278,128.797 20.278,131.02 C 20.278,140.422 24.493,144.129 31.583,144.129 C 34.731,144.129 36.262,143.668 37.094,143.438 C 37.051,141.77 37.278,140.707 37.559,139.27 C 36.586,139.872 35.336,140.661 32.555,140.661 C 25.329,140.661 25.235,134.082 25.235,131.809 L 37.559,131.809 L 37.649,129.075 z " />
      <path
         id="path11096"
         d="M 52.723,131.067 C 52.723,135.375 51.938,141.168 46.563,141.168 C 45.825,141.168 44.895,141.028 44.293,140.891 C 44.204,139.223 44.204,136.352 44.204,133.016 C 44.204,129.032 44.618,126.95 44.942,125.926 C 45.911,122.641 48.09,122.594 48.504,122.594 C 52.024,122.594 52.723,127.457 52.723,131.067 z M 39.426,136.118 C 39.426,139.543 39.426,141.493 38.872,142.973 C 40.77,143.711 43.133,144.129 45.961,144.129 C 47.766,144.129 53.004,144.129 55.829,138.34 C 57.172,135.657 57.633,132.039 57.633,129.305 C 57.633,127.637 57.45,123.981 56.106,121.661 C 54.809,119.485 52.723,118.375 50.5,118.375 C 46.055,118.375 44.758,122.079 44.063,123.981 C 44.063,121.622 44.106,113.372 44.477,109.157 C 41.469,110.547 39.614,110.774 37.622,110.961 C 39.426,111.7 39.426,114.758 39.426,124.723 L 39.426,136.118 z " />
      <path
         id="path11098"
         d="M 66.543,143.852 C 65.618,143.715 64.969,143.622 63.625,143.622 C 62.149,143.622 61.125,143.711 60.063,143.852 C 60.524,142.973 60.707,142.555 60.848,139.543 C 61.032,135.418 61.079,124.391 60.758,122.075 C 60.528,120.313 60.114,120.039 59.461,119.575 C 63.258,119.207 64.325,118.926 66.086,118.094 C 65.719,120.129 65.672,121.153 65.672,124.254 C 65.583,140.243 65.536,141.954 66.543,143.852" />
      <path
         id="path11100"
         d="M 81.379,130.739 C 81.29,133.657 81.243,135.696 80.454,137.317 C 79.481,139.403 77.86,140 76.657,140 C 73.875,140 73.274,137.688 73.274,135.415 C 73.274,131.063 77.165,130.739 78.922,130.739 L 81.379,130.739 z M 85.915,125.375 C 85.915,121.852 84.989,118.379 78.036,118.379 C 73.454,118.379 70.766,119.766 69.422,120.465 C 69.977,121.481 70.442,122.36 70.856,124.356 C 72.661,122.782 75.028,121.95 77.434,121.95 C 81.282,121.95 81.282,124.497 81.282,128.11 C 80.403,128.067 79.661,127.973 78.407,127.973 C 72.524,127.973 68.637,130.239 68.637,136.442 C 68.637,139.36 69.516,142.278 72.114,143.532 C 73.27,144.039 74.426,144.039 74.797,144.039 C 79.059,144.039 80.493,140.891 81.375,138.946 C 81.329,140.981 81.375,142.231 81.512,143.856 C 82.344,143.809 83.18,143.719 84.571,143.719 C 85.356,143.719 86.098,143.809 86.883,143.856 C 86.375,143.071 86.098,142.606 85.957,140.797 C 85.868,139.039 85.868,137.278 85.868,134.825 L 85.915,125.375 z " />
      <path
         id="path11102"
         d="M 108.075,139.266 C 108.118,140.84 108.118,142.508 108.762,143.852 C 107.743,143.762 107.141,143.622 105.243,143.622 C 104.129,143.622 103.528,143.711 102.649,143.852 C 102.833,143.25 102.926,143.02 103.016,142.231 C 103.153,141.168 103.247,137.598 103.247,136.348 L 103.247,131.344 C 103.247,129.168 103.247,126.016 103.11,124.907 C 103.02,124.122 102.79,121.989 100.098,121.989 C 97.457,121.989 96.579,123.93 96.254,125.508 C 95.887,127.129 95.887,128.891 95.887,135.747 C 95.93,141.676 95.93,142.231 96.395,143.852 C 95.61,143.762 94.637,143.668 93.247,143.668 C 92.133,143.668 91.395,143.711 90.469,143.852 C 90.793,143.114 90.977,142.743 91.071,140.149 C 91.165,137.602 91.348,125.09 90.93,122.125 C 90.704,120.317 90.239,119.903 89.731,119.438 C 93.485,119.254 94.684,118.653 95.844,118.051 L 95.844,122.961 C 96.399,121.524 97.555,118.329 102.192,118.329 C 107.985,118.329 108.028,122.543 108.075,125.321 L 108.075,139.266 z " />
    </g>
    <g
       id="g21889"
       transform="translate(7.9724418,-12.401578)">
      <path
         style="color:#000000;fill:#003466;fill-opacity:0.44336572;fill-rule:nonzero;stroke:none;stroke-width:1;stroke-linecap:butt;stroke-linejoin:miter;marker:none;marker-start:none;marker-mid:none;marker-end:none;stroke-miterlimit:4;stroke-dasharray:none;stroke-dashoffset:0;stroke-opacity:1;visibility:visible;display:inline;overflow:visible;enable-background:accumulate"
         id="path17013"
         d="M 247.83932,84.1875 C 237.47819,85.026765 227.11441,85.516633 216.90182,86.8125 L 221.40182,87.3125 C 228.88858,84.610231 239.85493,86.006023 247.83932,84.1875 z M 202.62057,88.90625 C 185.7605,89.907736 162.33127,98.687413 169.55807,90.75 C 142.05459,102.91382 93.29232,120.02543 65.87057,145.53125 L 65.08932,139.78125 C 59.28724,146.67197 47.14758,156.69279 35.43307,167.40625 L 35.43307,243.84375 C 55.37532,223.61405 79.30796,204.62449 93.65182,206.375 C 105.75096,191.33223 91.24732,206.48864 88.87057,202.71875 C 115.44561,175.4828 123.84722,183.23104 141.77682,178.3125 C 161.10276,166.95129 124.95523,182.86496 134.12057,174.125 C 167.54363,165.66483 157.92244,154.81656 201.55807,150.53125 C 203.49315,151.62259 201.85829,152.54385 199.05807,153.5 C 229.80653,145.37495 280.05324,149.85427 314.24557,165.46875 C 359.67866,186.52714 410.86672,248.78526 412.90182,307.34375 L 415.27682,307.84375 C 414.14786,331.11102 418.74146,358.10384 410.52682,382.84375 L 415.80807,371.5625 C 416.33514,388.96555 410.5302,397.63808 405.24557,412.75 L 395.71432,417.46875 C 387.87848,432.57039 396.56453,426.94486 390.96432,438.96875 C 378.71665,449.75556 353.69128,472.74705 345.71432,474.875 C 339.90611,474.75719 349.71806,468.0293 350.99557,465.4375 C 334.60343,476.59993 337.7191,482.24255 312.65182,489.03125 L 311.87057,487.46875 C 250.01569,516.3173 164.23264,459.03374 165.33932,381 C 164.70057,385.94801 163.51845,384.79322 162.15182,386.78125 C 158.95805,346.65985 180.78557,306.22854 217.71432,289.75 C 253.81123,272.05657 296.05466,279.50573 321.90182,303.40625 C 307.71561,284.96911 279.50774,265.40743 245.99557,267.21875 C 213.18156,267.73414 182.48634,288.28528 172.21432,310.75 C 155.42111,321.21289 153.33532,351.13215 146.02682,356.625 C 136.16328,428.47379 164.61331,459.60418 212.68307,496.125 C 220.22922,501.16133 214.8292,501.96163 215.83932,505.8125 C 199.88538,498.41996 185.28682,487.28726 173.27682,473.5625 C 179.65692,482.79574 186.59018,491.67416 195.49557,498.75 C 180.44032,493.71366 160.35575,462.51645 154.49557,461.25 C 180.43187,507.32803 259.70598,542.19094 301.27682,524.96875 C 282.06968,525.65344 257.5779,525.25344 235.96432,517.375 C 226.88811,512.7436 214.6959,503.15682 216.90182,501.375 C 273.59475,522.34501 332.06451,517.254 381.15182,478.28125 C 393.62977,468.65036 407.36415,452.29082 411.30807,452.0625 C 406.12843,459.78729 410.72139,457.29796 408.93307,461.78125 C 418.09472,445.65331 403.25753,454.73101 420.58932,429.78125 L 427.18307,438.96875 C 424.68744,422.45337 447.78011,402.39805 445.43307,376.28125 C 447.83125,372.68351 449.34679,374.34282 449.68307,378.65625 C 449.36354,374.24442 449.12164,369.72724 449.93307,362.90625 C 452.07962,368.53899 454.79878,374.55064 456.27682,380.5 C 451.19649,360.83326 461.6296,347.34846 464.21432,335.90625 C 461.68901,334.80915 456.1824,344.42714 454.96432,321.21875 C 455.1426,311.12401 457.91552,316.09899 458.93307,313.625 C 456.95744,312.50581 451.8069,304.61603 448.62057,289.75 C 450.90818,286.26729 454.71394,298.94597 457.87057,299.46875 C 455.87259,287.67313 452.19919,278.61907 452.05807,269.5625 C 442.85558,250.49213 448.92137,272.13604 441.46432,261.4375 C 431.68992,231.14581 449.5275,254.4656 450.74557,240.71875 C 465.57057,262.03483 474.07983,294.93705 477.96432,308.625 C 475.00822,291.94767 470.07449,275.76416 464.21432,260.125 C 468.745,261.98786 457.19881,225.91737 470.30807,249.90625 C 456.30014,198.79918 410.23179,150.90582 367.93307,128.5 C 373.0654,133.18304 379.53011,139.08142 377.18307,140.03125 C 356.14883,127.63913 359.86224,126.64139 356.83932,121.40625 C 339.72672,114.49986 338.80587,121.9512 327.46432,121.40625 C 295.17025,104.43447 288.94598,106.35838 259.21432,95.71875 L 260.55807,101.75 C 239.17472,94.703536 235.53056,104.40055 212.40182,101.75 C 211.01289,100.68963 219.71524,98.062231 226.96432,97.03125 C 206.30885,99.733565 207.28119,92.820533 187.02682,97.5625 C 191.98831,94.116428 197.31002,91.866262 202.62057,88.90625 z M 199.05807,153.5 C 196.78805,154.09984 194.60114,154.76216 192.55807,155.5 C 194.77836,154.79591 197.18013,154.14124 199.05807,153.5 z M 219.27682,92.5625 C 225.19643,93.593399 232.17091,94.562332 231.18307,95.96875 C 237.65227,94.562326 239.03356,93.136819 219.27682,92.5625 z M 231.18307,95.96875 L 226.96432,96.78125 L 230.93307,96.25 L 231.18307,95.96875 z M 341.21432,350.34375 C 339.84771,350.37964 338.12942,353.64004 337.24557,357.40625 C 339.27324,358.47391 341.09137,371.40434 343.08932,363.4375 C 343.75778,353.54153 342.58095,350.30785 341.21432,350.34375 z M 449.93307,381.8125 C 449.78947,387.27647 448.26986,395.02733 445.71432,403.3125 C 449.63223,393.12938 450.14661,387.27682 449.93307,381.8125 z M 462.62057,383.625 L 461.05807,387.5625 C 458.84098,403.3342 454.75544,418.97258 448.62057,433.96875 C 455.5572,417.7916 460.35747,400.87033 462.62057,383.625 z M 334.08932,390.96875 C 332.61126,398.24344 328.61241,404.51476 324.83932,411.15625 C 304.09476,424.10049 322.89336,403.53654 324.83932,395.6875 C 302.55731,423.52724 321.93758,412.29625 321.12057,420.09375 C 327.73091,411.05925 332.41074,401.21077 334.08932,390.96875 z M 288.83932,433.46875 C 279.8448,435.65559 270.59379,435.61327 261.33932,434.78125 C 250.25769,434.92849 263.51968,440.41608 277.99557,442.625 C 282.00632,439.52512 285.62328,436.51706 288.83932,433.46875 z M 148.93307,435.03125 C 151.36924,443.9479 156.16752,451.36617 160.83932,459.15625 L 157.65182,449.1875 C 153.78962,444.96115 151.51778,440.08967 148.93307,435.03125 z M 140.21432,449.96875 L 138.62057,457.59375 C 145.89935,467.40136 151.77543,478.22659 161.08932,485.90625 C 154.41957,472.96194 149.37966,467.51492 140.21432,449.96875 z M 35.43307,573.4375 L 35.43307,579.5 L 37.83932,576.625 C 37.02289,575.58154 36.22354,574.52062 35.43307,573.4375 z M 35.43307,583.96875 L 35.43307,647.8125 C 56.84845,671.74029 81.04923,692.38972 106.83932,708.65625 L 147.80807,708.65625 C 134.74951,702.61813 139.27192,700.05655 121.15182,694.375 L 126.96432,686.75 C 118.22977,686.0872 103.66566,672.20001 99.71432,664.46875 L 90.21432,664.71875 C 78.75394,650.68468 72.5886,640.59899 73.02682,632.75 L 70.12057,638.25 C 66.64458,632.32272 27.79601,585.69461 47.90182,596.5625 C 44.55186,593.52708 40.18927,591.45383 35.43307,583.96875 z M 153.15182,703.28125 L 156.24557,708.65625 L 158.96432,708.65625 C 157.18981,706.89403 155.28425,705.11427 153.15182,703.28125 z " />
      <path
         style="color:#000000;fill:#e9fff6;fill-opacity:1;fill-rule:nonzero;stroke:none;stroke-width:1;stroke-linecap:butt;stroke-linejoin:miter;marker:none;marker-start:none;marker-mid:none;marker-end:none;stroke-miterlimit:4;stroke-dasharray:none;stroke-dashoffset:0;stroke-opacity:1;visibility:visible;display:inline;overflow:visible;enable-background:accumulate"
         id="path17015"
         d="M 238.40182,85.53125 C 228.04068,86.370517 217.67691,86.829134 207.46432,88.125 L 211.96432,88.65625 C 219.45107,85.953982 230.41743,87.349773 238.40182,85.53125 z M 193.18307,90.25 C 176.32299,91.251487 152.89376,99.999911 160.12057,92.0625 C 132.61708,104.22632 83.85482,121.36917 56.43307,146.875 L 55.65182,141.09375 C 51.42866,146.1093 43.76303,152.88535 35.43307,160.28125 L 35.43307,236.03125 C 53.07712,219.62351 72.07471,206.23724 84.21432,207.71875 C 96.31345,192.67598 81.80982,207.80114 79.43307,204.03125 C 106.0081,176.79529 114.40972,184.57479 132.33932,179.65625 C 151.66524,168.29503 115.51773,184.20871 124.68307,175.46875 C 158.10613,167.00857 148.48494,156.12905 192.12057,151.84375 C 194.073,152.94488 192.3733,153.90999 189.52682,154.875 C 220.26671,146.7157 270.58063,151.18199 304.80807,166.8125 C 350.24114,187.87091 401.42923,250.09776 403.46432,308.65625 L 405.83932,309.1875 C 404.71035,332.45477 409.30396,359.44759 401.08932,384.1875 L 406.37057,372.90625 C 406.89763,390.30931 401.0927,398.95058 395.80807,414.0625 L 386.27682,418.78125 C 378.44097,433.88288 387.12704,428.28861 381.52682,440.3125 C 369.27913,451.09933 344.25378,474.0908 336.27682,476.21875 C 330.46859,476.10094 340.28057,469.37305 341.55807,466.78125 C 325.16591,477.94365 328.2816,483.58629 303.21432,490.375 L 302.43307,488.8125 C 240.57818,517.66104 154.79514,460.37751 155.90182,382.34375 C 155.26306,387.29175 154.08096,386.13697 152.71432,388.125 C 149.52061,348.00359 171.31682,307.5723 208.24557,291.09375 C 244.34246,273.4003 286.61717,280.81823 312.46432,304.71875 C 298.2781,286.28161 270.07024,266.71993 236.55807,268.53125 C 203.74411,269.04665 173.04884,289.59778 162.77682,312.0625 C 145.98361,322.52539 143.89782,352.4759 136.58932,357.96875 C 126.72583,429.81753 155.17582,460.94793 203.24557,497.46875 C 210.79177,502.50509 205.3917,503.30539 206.40182,507.15625 C 190.44793,499.76372 175.81808,488.63101 163.80807,474.90625 C 170.18816,484.13951 177.12143,493.0179 186.02682,500.09375 C 170.97163,495.0574 150.91824,463.8602 145.05807,462.59375 C 170.99435,508.6718 250.26848,543.5347 291.83932,526.3125 C 272.63223,526.99723 248.14039,526.56594 226.52682,518.6875 C 217.4506,514.05614 205.2584,504.50057 207.46432,502.71875 C 264.15724,523.68876 322.62701,518.59774 371.71432,479.625 C 384.19226,469.99409 397.92665,453.63457 401.87057,453.40625 C 396.69092,461.13106 401.28389,458.64171 399.49557,463.125 C 408.6572,446.99706 393.82002,456.07477 411.15182,431.125 L 417.74557,440.3125 C 415.24999,423.79712 438.34261,403.74181 435.99557,377.625 C 438.39375,374.02728 439.9093,375.68657 440.24557,380 C 439.92602,375.58817 439.68414,371.07099 440.49557,364.25 C 442.64211,369.88273 445.36128,375.86314 446.83932,381.8125 C 441.75903,362.14576 452.1921,348.69221 454.77682,337.25 C 452.25149,336.15292 446.7449,345.77089 445.52682,322.5625 C 445.70508,312.46776 448.47803,317.44274 449.49557,314.96875 C 447.51992,313.84956 442.3694,305.95979 439.18307,291.09375 C 441.47067,287.61103 445.27645,300.28973 448.43307,300.8125 C 446.43514,289.01688 442.76169,279.96283 442.62057,270.90625 C 433.41808,251.83591 439.48387,273.47978 432.02682,262.78125 C 422.25241,232.48955 440.05874,255.80936 441.27682,242.0625 C 456.10181,263.3786 464.64233,296.2808 468.52682,309.96875 C 465.57071,293.29141 460.63699,277.10791 454.77682,261.46875 C 459.30748,263.3316 447.7613,227.26112 460.87057,251.25 C 446.86262,200.14293 400.79429,152.24958 358.49557,129.84375 C 363.62789,134.5268 370.09261,140.42517 367.74557,141.375 C 346.71132,128.98287 350.42475,127.98514 347.40182,122.75 C 330.28922,115.84361 329.36837,123.29494 318.02682,122.75 C 285.73274,105.77822 279.50847,107.70213 249.77682,97.0625 L 251.12057,103.09375 C 229.73727,96.047287 226.09306,105.7443 202.96432,103.09375 C 201.57537,102.03338 210.27774,99.40598 217.52682,98.375 C 196.87134,101.07732 197.84369,94.133032 177.58932,98.875 C 182.55079,95.428921 187.87252,93.210012 193.18307,90.25 z M 189.52682,154.875 C 187.29128,155.46838 185.13524,156.11617 183.12057,156.84375 C 185.31116,156.14908 187.66014,155.50784 189.52682,154.875 z M 209.83932,93.90625 C 215.75892,94.93715 222.73341,95.906083 221.74557,97.3125 C 228.21476,95.906077 229.59605,94.48057 209.83932,93.90625 z M 221.74557,97.3125 L 217.52682,98.09375 L 221.49557,97.59375 L 221.74557,97.3125 z M 331.77682,351.65625 C 330.4102,351.69213 328.69192,354.98378 327.80807,358.75 C 329.83573,359.81765 331.65387,372.74809 333.65182,364.78125 C 334.32026,354.88528 333.14345,351.62035 331.77682,351.65625 z M 440.49557,383.125 C 440.35197,388.58896 438.83236,396.33982 436.27682,404.625 C 440.19478,394.44187 440.7091,388.58932 440.49557,383.125 z M 453.18307,384.96875 L 451.62057,388.90625 C 449.40347,404.67797 445.31794,420.31634 439.18307,435.3125 C 446.11969,419.13538 450.91997,402.21409 453.18307,384.96875 z M 324.65182,392.3125 C 323.17375,399.58718 319.14366,405.85851 315.37057,412.5 C 294.62601,425.44426 313.4246,404.88028 315.37057,397.03125 C 293.08855,424.87099 312.50007,413.60876 311.68307,421.40625 C 318.2934,412.37175 322.97324,402.55452 324.65182,392.3125 z M 279.40182,434.78125 C 270.40729,436.96807 261.15629,436.92577 251.90182,436.09375 C 240.82024,436.24099 254.08218,441.75983 268.55807,443.96875 C 272.56882,440.86887 276.18578,437.82956 279.40182,434.78125 z M 139.49557,436.375 C 141.93174,445.29165 146.73002,452.70991 151.40182,460.5 L 148.21432,450.53125 C 144.35211,446.3049 142.08029,441.43343 139.49557,436.375 z M 130.74557,451.3125 L 129.18307,458.90625 C 136.46184,468.71387 142.33793,479.57034 151.65182,487.25 C 144.98206,474.30567 139.91091,468.85868 130.74557,451.3125 z M 35.43307,595.46875 L 35.43307,596.53125 C 36.23842,596.78967 37.21773,597.21807 38.43307,597.875 C 37.50466,597.03377 36.50247,596.29527 35.43307,595.46875 z M 35.43307,604.25 L 35.43307,659.28125 C 53.8107,678.29727 73.96337,694.98494 95.24557,708.65625 L 135.62057,708.65625 C 125.86991,703.54558 128.4315,700.92917 111.71432,695.6875 L 117.52682,688.09375 C 108.79226,687.43093 94.22816,673.54377 90.27682,665.8125 L 80.77682,666.0625 C 69.31644,652.02846 63.1511,641.91149 63.58932,634.0625 L 60.65182,639.59375 C 58.44704,635.83414 42.02903,615.70212 35.43307,604.25 z M 143.71432,704.625 L 146.02682,708.65625 L 148.15182,708.65625 C 146.77191,707.32714 145.30658,705.9937 143.71432,704.625 z " />
    </g>
    <rect
       rx="8.8582678"
       style="fill:#ffffff;fill-opacity:0.50491806;stroke:none;stroke-width:0.5;stroke-linecap:round;stroke-linejoin:round;stroke-miterlimit:4;stroke-dasharray:none;stroke-opacity:1"
       ry="9.9747152"
       y="69.684364"
       x="58.138378"
       height="555.9425"
       width="428.50671"
       id="rect8230" />
    <flowRoot
       style="font-weight:normal"
       id="flowRoot2988"
       xml:space="preserve"
       transform="translate(-5.1130618,-176.05367)"><flowRegion
         id="flowRegion2990"><rect
           style="font-weight:normal"
           y="265.23245"
           x="81.675064"
           height="450.14307"
           width="396.02838"
           id="rect2992" /></flowRegion><flowPara
         style="font-size:12px;font-weight:normal"
         id="flowPara3175">Debian とは何か?</flowPara><flowPara
         style="font-size:8px;font-weight:normal"
         id="flowPara8192">Debian はあなたのコンピュータのためのフリーなオペレーティングシステム (OS) です。オペレーティングシステムは、コンピュータを動作させるために必要な基本プログラムとユーティリティの集合体です。 Debian は現在、OS の中核として Linux カーネルを利用しています。しかし、OS の基本ツールのほとんどが GNU プロジェクト に由来しているため GNU/Linux と名づけています。</flowPara><flowPara
         style="font-size:8px;font-weight:normal"
         id="flowPara8224">Debian GNU/Linux は、純粋な OS 以上の機能を提供します。あなたのコンピュータに手軽にインストールできるよう 18733 を越すコンパイル済ソフトウェアが パッケージ として付属しています。</flowPara><flowPara
         style="font-size:8px;font-weight:normal"
         id="flowPara3173" /><flowPara
         style="font-size:8px;font-weight:normal"
         id="flowPara3139" /></flowRoot>    <g
       style="fill:#e9fff6;fill-opacity:1"
       id="g2415"
       transform="matrix(0.9186857,0,0,0.9186857,-17.765318,-608.51376)">
      <path
         style="fill:#e9fff6;fill-opacity:1;fill-rule:evenodd;stroke:none"
         id="path2252"
         d="M 595.48099,766.91038 C 594.76615,766.91996 595.61562,767.27738 596.54941,767.42112 C 596.80814,767.21941 597.04194,767.01722 597.2494,766.81887 C 596.66919,766.96117 596.07605,766.96261 595.47907,766.90847" />
      <path
         style="fill:#e9fff6;fill-opacity:1;fill-rule:evenodd;stroke:none"
         id="path2254"
         d="M 599.32349,765.95407 C 599.7499,765.36619 600.06085,764.72274 600.16913,764.05629 C 600.07379,764.52966 599.81746,764.93978 599.57407,765.37194 C 598.2359,766.21423 599.44854,764.87222 599.57407,764.36149 C 598.13672,766.17302 599.37763,765.44668 599.32493,765.95407" />
      <path
         style="fill:#e9fff6;fill-opacity:1;fill-rule:evenodd;stroke:none"
         id="path2256"
         d="M 600.74167,762.26344 C 600.82791,760.97558 600.48918,761.38378 600.37515,761.87392 C 600.50595,761.94339 600.61279,762.78184 600.74167,762.26344" />
      <path
         style="fill:#e9fff6;fill-opacity:1;fill-rule:evenodd;stroke:none"
         id="path2258"
         d="M 592.76536,744.64108 C 593.14721,744.70816 593.59088,744.76086 593.52715,744.85238 C 593.94446,744.76086 594.03981,744.67845 592.76536,744.64108" />
      <path
         style="fill:#e9fff6;fill-opacity:1;fill-rule:evenodd;stroke:none"
         id="path2260"
         d="M 593.52907,744.85238 L 593.26124,744.90652 L 593.5123,744.884 L 593.52907,744.85238" />
      <path
         style="fill:#e9fff6;fill-opacity:1;fill-rule:evenodd;stroke:none"
         id="path2262"
         d="M 605.44323,762.75166 C 605.48635,763.90824 605.10642,764.47168 604.76193,765.46537 L 604.14435,765.77248 C 603.63889,766.75515 604.19322,766.39581 603.83197,767.17821 C 603.04191,767.88011 601.43448,769.37543 600.9199,769.5139 C 600.54524,769.50623 601.1724,769.07023 601.25481,768.90159 C 600.1974,769.62792 600.40486,769.99109 598.78784,770.43284 L 598.74137,770.32791 C 594.75129,772.20509 589.20745,768.48619 589.27884,763.40853 C 589.23763,763.73049 589.15906,763.65 589.0709,763.77936 C 588.86488,761.16866 590.27635,758.54455 592.65852,757.47229 C 594.98702,756.32097 597.71941,756.7929 599.38674,758.34811 C 598.47162,757.1484 596.64715,755.87587 594.48538,755.99373 C 592.36865,756.02727 590.38655,757.37311 589.72393,758.83489 C 588.64065,759.51571 588.51321,761.46619 588.04176,761.82361 C 587.40549,766.49882 589.23763,768.51829 592.33847,770.89471 C 592.82525,771.22242 592.47549,771.27321 592.54065,771.52378 C 591.51151,771.04275 590.56814,770.31498 589.79341,769.4219 C 590.20497,770.02272 590.64863,770.60867 591.22309,771.0691 C 590.25192,770.74139 588.95495,768.71665 588.57693,768.63424 C 590.25,771.63254 595.36887,773.89109 598.05048,772.77044 C 596.81149,772.815 595.23568,772.7944 593.84145,772.28175 C 593.25597,771.98038 592.46016,771.35705 592.60246,771.24111 C 596.25955,772.60563 600.03833,772.27408 603.20481,769.73812 C 604.00972,769.11144 604.88938,768.04445 605.14379,768.0296 C 604.76193,768.60405 605.20943,768.30461 604.91717,768.81391 C 605.71825,767.52077 604.56933,768.28784 605.7446,766.58123 L 606.17868,767.18012 C 606.01769,766.10547 607.5111,764.80132 607.3597,763.10189 C 607.70226,762.58349 607.74155,763.6615 607.37647,764.85546 C 607.88193,763.53022 607.50966,763.31702 607.63854,762.22415 C 607.77701,762.59068 607.96242,762.98211 608.05777,763.36924 C 607.73005,762.08952 608.39267,761.21322 608.5594,760.46867 C 608.3965,760.39729 608.05202,761.03355 607.97344,759.52338 C 607.98494,758.86651 608.15503,759.17889 608.22067,759.01791 C 608.09322,758.94509 607.75449,758.44154 607.54895,757.4742 C 607.69651,757.24758 607.94565,758.0616 608.14928,758.09561 C 608.0204,757.32807 607.79378,756.74211 607.78467,756.1528 C 607.19105,754.91189 607.57482,756.31762 607.09379,755.62146 C 606.46327,753.65038 607.61602,755.16439 607.6946,754.26988 C 608.65091,755.65692 609.19758,757.80719 609.44816,758.69786 C 609.25747,757.61267 608.94844,756.56053 608.57042,755.54289 C 608.86268,755.6641 608.1028,753.30973 608.94844,754.87069 C 608.04483,751.54515 605.08006,748.43472 602.3515,746.97677 C 602.68257,747.2815 603.10563,747.66335 602.95423,747.72515 C 601.59737,746.9188 601.83693,746.85508 601.64193,746.51443 C 600.53805,746.06502 600.46475,746.54988 599.73314,746.51443 C 597.64994,745.41007 597.2494,745.52793 595.3315,744.83561 L 595.41726,745.24334 C 594.03789,744.78483 593.80983,745.41581 592.31787,745.24334 C 592.22827,745.17434 592.79554,744.98701 593.26316,744.91993 C 591.93074,745.09577 591.99255,744.65785 590.686,744.96641 C 591.00605,744.74218 591.34861,744.59222 591.69118,744.39961 C 590.60359,744.46478 589.09342,745.03205 589.5596,744.51556 C 587.78543,745.30706 584.63189,746.41908 582.863,748.07875 L 582.80886,747.70839 C 581.9982,748.67956 579.27347,750.61279 579.05834,751.8743 L 578.84274,751.92317 C 578.42208,752.63609 578.1485,753.44628 577.81552,754.18028 C 577.26501,755.11983 577.00677,754.54154 577.08583,754.6891 C 576.00207,756.88824 575.46114,758.73715 574.99688,760.25355 C 575.32843,760.74752 575.00455,763.23844 575.1296,765.23156 C 574.58724,775.07403 582.03748,784.62999 590.18245,786.83488 C 591.37497,787.26177 593.15105,787.24644 594.66122,787.28764 C 592.87939,786.77882 592.65133,787.0203 590.91454,786.41374 C 589.66404,785.82442 589.38903,785.15031 588.50219,784.38133 L 588.85194,785.00082 C 587.11323,784.38708 587.84149,784.23903 586.42666,783.79154 L 586.80085,783.30332 C 586.23741,783.2602 585.30936,782.35419 585.05447,781.85112 L 584.43881,781.87508 C 583.69954,780.96188 583.30474,780.3031 583.33301,779.79236 L 583.13418,780.14595 C 582.90995,779.76026 580.40945,776.7174 581.70642,777.42457 C 581.46686,777.20562 581.14489,777.06715 580.79897,776.43664 L 581.06248,776.13527 C 580.43963,775.33227 579.91548,774.30313 579.95477,773.96057 C 580.28584,774.4095 580.51821,774.49382 580.74627,774.57048 C 579.17046,770.6609 579.0823,774.35727 577.88834,770.58999 L 578.1394,770.5713 C 577.94632,770.27904 577.82845,769.96283 577.67322,769.65236 L 577.78198,768.55902 C 576.64743,767.24912 577.46528,762.9802 577.6301,760.64068 C 577.74269,759.69011 578.57731,758.67726 579.20974,757.0866 L 578.82406,757.02096 C 579.56142,755.73358 583.04075,751.84843 584.65202,752.04678 C 585.4325,751.06795 584.4987,752.04295 584.34538,751.79764 C 586.05966,750.02539 586.59866,750.54571 587.75525,750.22566 C 589.00191,749.48639 586.6849,750.51361 587.27613,749.9449 C 589.43215,749.3944 588.80355,748.69296 591.61836,748.41412 C 591.91397,748.58229 590.93131,748.67428 590.68408,748.89324 C 592.48076,748.01358 596.37022,748.21576 598.8966,749.37955 C 601.82735,750.74982 605.12127,754.79978 605.25255,758.61018 L 605.3982,758.64947 C 605.32537,760.16348 605.62865,761.91512 605.09875,763.52495 L 605.46,762.76316" />
      <path
         style="fill:#e9fff6;fill-opacity:1;fill-rule:evenodd;stroke:none"
         id="path2264"
         d="M 587.66565,767.89305 L 587.56456,768.39468 C 588.03409,769.03286 588.40828,769.72519 589.00909,770.2249 C 588.57885,769.38262 588.25688,769.03478 587.66565,767.89305" />
      <path
         style="fill:#e9fff6;fill-opacity:1;fill-rule:evenodd;stroke:none"
         id="path2266"
         d="M 588.77912,767.84993 C 588.52998,767.57491 588.38433,767.24337 588.21759,766.91421 C 588.37474,767.49442 588.69863,767.99222 588.99999,768.49913 L 588.77912,767.84993" />
      <path
         style="fill:#e9fff6;fill-opacity:1;fill-rule:evenodd;stroke:none"
         id="path2268"
         d="M 608.46214,763.57143 L 608.35721,763.83542 C 608.16653,765.20377 607.74922,766.55871 607.11056,767.81639 C 607.81438,766.49116 608.27097,765.04087 608.46214,763.57143" />
      <path
         style="fill:#e9fff6;fill-opacity:1;fill-rule:evenodd;stroke:none"
         id="path2270"
         d="M 592.90766,744.29852 C 593.3906,744.12268 594.09586,744.20317 594.61091,744.08484 C 593.94255,744.13945 593.2761,744.17299 592.61731,744.25731 L 592.90766,744.2966" />
      <path
         style="fill:#e9fff6;fill-opacity:1;fill-rule:evenodd;stroke:none"
         id="path2272"
         d="M 575.91199,753.33416 C 576.02267,754.36522 575.13726,754.76576 576.10699,754.08494 C 576.62875,752.90919 575.90481,753.76106 575.91199,753.33416" />
      <path
         style="fill:#e9fff6;fill-opacity:1;fill-rule:evenodd;stroke:none"
         id="path2274"
         d="M 574.76882,758.1143 C 574.99305,757.42725 575.03234,757.01377 575.11858,756.61515 C 574.49908,757.40665 574.83398,757.5753 574.76882,758.1143" />
    </g>
    <flowRoot
       style="font-weight:normal;display:inline"
       id="flowRoot3418"
       xml:space="preserve"
       transform="translate(-3.7814514,91.745299)"><flowRegion
         id="flowRegion3420"><rect
           style="font-weight:normal"
           y="265.23245"
           x="81.675064"
           height="450.14307"
           width="396.02838"
           id="rect3422" /></flowRegion><flowPara
         style="font-size:12px;font-weight:normal"
         id="flowPara3432">Debian GNU/Linux のインストール</flowPara><flowPara
         style="font-size:8px;font-weight:normal"
         id="flowPara3434">Debian GNU/Linux のインストールについては「クイックインストール解説 (Etch 編)」[1]をご覧ください。また、Debian GNU/Linux 4.0やインストールについて、より詳しい解説をご希望なら「Debian GNU/Linux 4.0 リリースノート」[2]や、「Debian GNU/Linux 4.0 インストールガイド」[3]を参照ください。</flowPara><flowPara
         style="font-size:8px;font-weight:normal"
         id="flowPara3436" /><flowPara
         style="font-size:8px;font-weight:normal"
         id="flowPara3438">　[1] http://www.debian.or.jp/using/quick-etch/</flowPara><flowPara
         style="font-size:8px;font-weight:normal"
         id="flowPara3440">　[2] http://www.debian.org/releases/stable/releasenotes</flowPara><flowPara
         style="font-size:8px;font-weight:normal"
         id="flowPara3442">　[3] http://www.debian.org/releases/stable/installmanual</flowPara><flowPara
         style="font-size:8px;font-weight:normal"
         id="flowPara3444" /><flowPara
         style="font-size:12px;font-weight:normal"
         id="flowPara3446">その他</flowPara><flowPara
         style="font-size:8px;font-weight:normal"
         id="flowPara3448">Debianについてわからないことを尋ねてみたい、使っている方のお話を実際に聞いてみたいという方は勉強会に参加されてみてはいかがでしょうか。関東・関西ではほぼ月一回の割合で勉強会を開催しています。 </flowPara><flowPara
         style="font-size:8px;font-weight:normal"
         id="flowPara3450" /><flowPara
         style="font-size:8px;font-weight:normal"
         id="flowPara3452">　・関西Debian勉強会：http://wiki.debian.org/KansaiDebianMeeting</flowPara><flowPara
         style="font-size:8px;font-weight:normal"
         id="flowPara3454">　・東京エリアDebian勉強会：http://tokyodebian.alioth.debian.org/</flowPara><flowPara
         style="font-size:8px;font-weight:normal"
         id="flowPara3456" /><flowPara
         style="font-size:8px;font-weight:normal"
         id="flowPara3458">Debian に関する情報は,以下のウェブサイトを参照ください。</flowPara><flowPara
         style="font-size:8px;font-weight:normal"
         id="flowPara3460" /><flowPara
         style="font-size:8px;font-weight:normal"
         id="flowPara3462">　・Debian JP Project：http://www.debian.or.jp/</flowPara><flowPara
         style="font-size:8px;font-weight:normal"
         id="flowPara3638">　・Debian 公式ウェブサイト：http://www.debian.org/</flowPara><flowPara
         style="font-size:8px;font-weight:normal"
         id="flowPara3632" /><flowPara
         style="font-size:8px;font-weight:normal"
         id="flowPara3634" /></flowRoot>    <g
       id="g3414"
       transform="translate(29.006498,131.13441)">
      <rect
         style="opacity:0.6;fill:#000000;fill-opacity:1;stroke:#000000;stroke-width:0.37570095;stroke-linecap:round;stroke-linejoin:round;stroke-miterlimit:4;stroke-dasharray:none;stroke-opacity:1;display:inline;filter:url(#filter9239)"
         y="78.037224"
         x="70.873322"
         height="132.49831"
         width="176.78966"
         id="rect7968" />
      <image
         sodipodi:absref="ScreenShot-1.png"
         y="75.849373"
         x="68.685471"
         height="132.87401"
         xlink:href="ScreenShot-1.png"
         width="177.16536"
         id="image2322" />
    </g>
    <g
       id="g3410"
       transform="translate(-19.47866,109.10643)">
      <rect
         style="opacity:0.6;fill:#000000;fill-opacity:1;stroke:#000000;stroke-width:0.37570095;stroke-linecap:round;stroke-linejoin:round;stroke-miterlimit:4;stroke-dasharray:none;stroke-opacity:1;display:inline;filter:url(#filter9239)"
         y="78.037224"
         x="290.32507"
         height="132.49831"
         width="176.78966"
         id="rect2226" />
      <image
         sodipodi:absref="ScreenShot-2.png"
         style="display:inline"
         y="75.849373"
         x="288.13721"
         height="132.87401"
         xlink:href="ScreenShot-2.png"
         width="177.16536"
         id="image2228" />
    </g>
  </g>
  <g
     style="display:inline"
     inkscape:label="frame"
     sodipodi:insensitive="true"
     id="layer3"
     inkscape:groupmode="layer">
    <rect
       style="fill:none;fill-opacity:1;fill-rule:evenodd;stroke:#003466;stroke-width:0.49967799;stroke-linecap:butt;stroke-linejoin:miter;stroke-miterlimit:4;stroke-dasharray:none;stroke-opacity:1;display:inline"
       y="48.084461"
       x="43.65535"
       height="647.92554"
       width="965.05151"
       id="rect2294" />
  </g>
</svg>
