<?xml version="1.0" encoding="UTF-8" standalone="no"?>
<!-- Created with Inkscape (http://www.inkscape.org/) -->
<svg
   xmlns:dc="http://purl.org/dc/elements/1.1/"
   xmlns:cc="http://web.resource.org/cc/"
   xmlns:rdf="http://www.w3.org/1999/02/22-rdf-syntax-ns#"
   xmlns:svg="http://www.w3.org/2000/svg"
   xmlns="http://www.w3.org/2000/svg"
   xmlns:sodipodi="http://sodipodi.sourceforge.net/DTD/sodipodi-0.dtd"
   xmlns:inkscape="http://www.inkscape.org/namespaces/inkscape"
   width="210mm"
   height="297mm"
   id="svg2577"
   sodipodi:version="0.32"
   inkscape:version="0.45.1"
   sodipodi:docbase="/home/takaya/debian/kansai_monthly-report/image200712"
   sodipodi:docname="kansaidebianlogo.svg"
   inkscape:output_extension="org.inkscape.output.svg.inkscape">
  <defs
     id="defs3" />
  <sodipodi:namedview
     inkscape:document-units="mm"
     id="base"
     pagecolor="#ffffff"
     bordercolor="#666666"
     borderopacity="1.0"
     inkscape:pageopacity="0.0"
     inkscape:pageshadow="2"
     inkscape:zoom="0.7071068"
     inkscape:cx="551.94972"
     inkscape:cy="554.77006"
     inkscape:current-layer="g2179"
     inkscape:window-width="1270"
     inkscape:window-height="911"
     inkscape:window-x="0"
     inkscape:window-y="25"
     showgrid="true"
     showguides="true"
     inkscape:guide-bbox="true">
    <sodipodi:guide
       orientation="vertical"
       position="53.740115"
       id="guide2186" />
    <sodipodi:guide
       orientation="horizontal"
       position="997.02056"
       id="guide2188" />
    <sodipodi:guide
       orientation="vertical"
       position="691.55043"
       id="guide2190" />
  </sodipodi:namedview>
  <metadata
     id="metadata4">
    <rdf:RDF>
      <cc:Work
         rdf:about="">
        <dc:format>image/svg+xml</dc:format>
        <dc:type
           rdf:resource="http://purl.org/dc/dcmitype/StillImage" />
      </cc:Work>
    </rdf:RDF>
  </metadata>
  <g
     inkscape:label="Layer 1"
     inkscape:groupmode="layer"
     id="layer1">
    <g
       id="g2179"
       transform="translate(283.45935,42.749741)">
      <g
         id="g13116"
         inkscape:export-filename="/home/takaya/debian/kansai_monthly-report/image200712/kansaidebianlogo.png"
         inkscape:export-xdpi="90"
         inkscape:export-ydpi="90">
        <g
           style="fill:#888888"
           transform="matrix(6.6087718,0,0,6.6087718,-199.28091,125.08722)"
           id="g2748">
          <path
             id="path2750"
             d="M 52.0662,57.293 C 50.2692,57.317 52.4062,58.219 54.7502,58.578 C 55.3982,58.074 55.9842,57.563 56.5072,57.067 C 55.0462,57.422 53.5622,57.43 52.0622,57.293"
             style="fill:#888888;fill-rule:evenodd;stroke:none" />
          <path
             id="path2752"
             d="M 61.7112,54.891 C 62.7812,53.414 63.5582,51.797 63.8322,50.125 C 63.5932,51.317 62.9492,52.344 62.3392,53.43 C 58.9842,55.543 62.0272,52.176 62.3392,50.895 C 58.7302,55.442 61.8472,53.617 61.7142,54.887"
             style="fill:#888888;fill-rule:evenodd;stroke:none" />
          <path
             id="path2754"
             d="M 65.2732,45.625 C 65.4882,42.391 64.6362,43.414 64.3512,44.649 C 64.6832,44.821 64.9492,46.926 65.2732,45.625"
             style="fill:#888888;fill-rule:evenodd;stroke:none" />
          <path
             id="path2756"
             d="M 45.2532,1.39899 C 46.2112,1.57098 47.3242,1.69901 47.1682,1.92999 C 48.2142,1.703 48.4532,1.48801 45.2532,1.39899"
             style="fill:#888888;fill-rule:evenodd;stroke:none" />
          <path
             id="path2758"
             d="M 47.1682,1.92999 L 46.4922,2.06699 L 47.1212,2.01199 L 47.1642,1.92999"
             style="fill:#888888;fill-rule:evenodd;stroke:none" />
          <path
             id="path2760"
             d="M 77.0742,46.856 C 77.1792,49.758 76.2262,51.168 75.3632,53.664 L 73.8122,54.438 C 72.5432,56.903 73.9332,56.004 73.0272,57.965 C 71.0462,59.727 67.0072,63.481 65.7182,63.824 C 64.7772,63.805 66.3552,62.715 66.5622,62.285 C 63.9102,64.106 64.4332,65.02 60.3712,66.129 L 60.2532,65.867 C 50.2382,70.578 36.3202,61.242 36.5032,48.5 C 36.3982,49.309 36.2032,49.106 35.9802,49.434 C 35.4642,42.879 39.0072,36.293 44.9842,33.606 C 50.8322,30.711 57.6872,31.903 61.8752,35.801 C 59.5742,32.789 54.9962,29.594 49.5662,29.895 C 44.2502,29.977 39.2772,33.356 37.6172,37.024 C 34.8942,38.738 34.5782,43.633 33.3902,44.528 C 31.7932,56.262 36.3902,61.332 44.1752,67.297 C 45.3982,68.121 44.5192,68.246 44.6832,68.875 C 42.0972,67.664 39.7302,65.84 37.7852,63.602 C 38.8162,65.11 39.9292,66.582 41.3712,67.735 C 38.9332,66.91 35.6792,61.828 34.7262,61.621 C 38.9252,69.145 51.7772,74.817 58.5032,72.004 C 55.3902,72.117 51.4372,72.067 47.9372,70.778 C 46.4682,70.024 44.4722,68.457 44.8282,68.164 C 54.0072,71.594 63.4922,70.762 71.4372,64.395 C 73.4572,62.824 75.6642,60.145 76.3042,60.11 C 75.3432,61.551 76.4642,60.801 75.7342,62.078 C 77.7462,58.832 74.8592,60.758 77.8122,56.473 L 78.9022,57.977 C 78.5002,55.281 82.2502,52.008 81.8672,47.742 C 82.7262,46.442 82.8282,49.145 81.9142,52.145 C 83.1792,48.821 82.2462,48.285 82.5702,45.539 C 82.9212,46.461 83.3822,47.442 83.6212,48.414 C 82.7962,45.199 84.4642,43 84.8782,41.133 C 84.4722,40.953 83.6052,42.555 83.4102,38.758 C 83.4372,37.11 83.8672,37.895 84.0312,37.488 C 83.7112,37.305 82.8592,36.039 82.3432,33.613 C 82.7142,33.047 83.3432,35.09 83.8512,35.172 C 83.5272,33.246 82.9612,31.774 82.9372,30.293 C 81.4492,27.18 82.4142,30.707 81.2032,28.957 C 79.6212,24.012 82.5152,27.813 82.7142,25.563 C 85.1172,29.043 86.4882,34.442 87.1172,36.676 C 86.6362,33.953 85.8632,31.313 84.9142,28.754 C 85.6442,29.059 83.7422,23.149 85.8632,27.067 C 83.5932,18.715 76.1482,10.914 69.3002,7.25 C 70.1362,8.01599 71.1952,8.97699 70.8162,9.129 C 67.4142,7.10199 68.0112,6.94501 67.5232,6.086 C 64.7502,4.957 64.5702,6.17599 62.7302,6.086 C 57.5032,3.31299 56.4962,3.60999 51.6792,1.871 L 51.8982,2.89099 C 48.4332,1.73801 47.8632,3.328 44.1172,2.89499 C 43.8902,2.71899 45.3122,2.254 46.4922,2.082 C 43.1442,2.52399 43.3002,1.42599 40.0232,2.203 C 40.8282,1.63699 41.6832,1.26199 42.5462,0.781006 C 39.8162,0.945007 36.0272,2.371 37.1952,1.07401 C 32.7422,3.05899 24.8282,5.85199 20.3862,10.016 L 20.2502,9.086 C 18.2182,11.528 11.3782,16.379 10.8322,19.543 L 10.2892,19.668 C 9.23022,21.461 8.54623,23.492 7.70721,25.336 C 6.32422,27.695 5.67923,26.242 5.87521,26.613 C 3.15222,32.133 1.80023,36.774 0.632233,40.582 C 1.46423,41.824 0.652222,48.074 0.964233,53.078 C -0.402771,77.781 18.3002,101.766 38.7462,107.305 C 41.7422,108.375 46.1952,108.332 49.9882,108.445 C 45.5152,107.168 44.9372,107.77 40.5822,106.25 C 37.4412,104.774 36.7532,103.082 34.5272,101.153 L 35.4062,102.707 C 31.0432,101.164 32.8712,100.797 29.3162,99.672 L 30.2532,98.445 C 28.8392,98.34 26.5072,96.063 25.8712,94.801 L 24.3242,94.86 C 22.4642,92.567 21.4762,90.914 21.5462,89.629 L 21.0462,90.52 C 20.4802,89.547 14.2072,81.914 17.4612,83.692 C 16.8592,83.141 16.0542,82.793 15.1832,81.207 L 15.8432,80.453 C 14.2772,78.438 12.9612,75.856 13.0622,74.992 C 13.8982,76.121 14.4762,76.332 15.0502,76.524 C 11.0972,66.707 10.8752,75.985 7.87521,66.531 L 8.50723,66.481 C 8.02322,65.75 7.73022,64.957 7.33524,64.176 L 7.60922,61.426 C 4.76523,58.141 6.81622,47.426 7.22623,41.551 C 7.50723,39.164 9.60123,36.621 11.1952,32.633 L 10.2262,32.469 C 12.0782,29.238 20.8122,19.485 24.8552,19.985 C 26.8122,17.524 24.4682,19.977 24.0852,19.356 C 28.3862,14.906 29.7382,16.211 32.6442,15.41 C 35.7732,13.555 29.9572,16.133 31.4452,14.703 C 36.8552,13.321 35.2812,11.563 42.3432,10.86 C 43.0852,11.281 40.6172,11.512 39.9962,12.063 C 44.5032,9.85999 54.2692,10.36 60.6092,13.285 C 67.9682,16.723 76.2342,26.887 76.5582,36.453 L 76.9292,36.551 C 76.7462,40.352 77.5072,44.746 76.1792,48.785 L 77.0852,46.875"
             style="fill:#d70751;fill-rule:evenodd;stroke:none;fill-opacity:1" />
          <path
             id="path2762"
             d="M 32.4532,59.762 L 32.2032,61.02 C 33.3822,62.621 34.3202,64.36 35.8282,65.613 C 34.7462,63.5 33.9372,62.625 32.4572,59.762"
             style="fill:#888888;fill-rule:evenodd;stroke:none" />
          <path
             id="path2764"
             d="M 35.2462,59.653 C 34.6212,58.961 34.2532,58.129 33.8392,57.301 C 34.2342,58.754 35.0432,60.008 35.8002,61.281 L 35.2502,59.653"
             style="fill:#888888;fill-rule:evenodd;stroke:none" />
          <path
             id="path2766"
             d="M 84.6482,48.914 L 84.3862,49.574 C 83.9062,53.012 82.8592,56.414 81.2572,59.567 C 83.0232,56.242 84.1682,52.602 84.6482,48.914"
             style="fill:#888888;fill-rule:evenodd;stroke:none" />
          <path
             id="path2768"
             d="M 45.6092,0.535004 C 46.8242,0.0939941 48.5932,0.292999 49.8822,0 C 48.2032,0.140991 46.5352,0.222992 44.8782,0.437988 L 45.6052,0.535004"
             style="fill:#888888;fill-rule:evenodd;stroke:none" />
          <path
             id="path2770"
             d="M 2.95322,23.215 C 3.23022,25.805 1.00323,26.813 3.44522,25.102 C 4.75323,22.153 2.93323,24.289 2.95322,23.215"
             style="fill:#888888;fill-rule:evenodd;stroke:none" />
          <path
             id="path2772"
             d="M 0.0822144,35.211 C 0.644226,33.485 0.746216,32.445 0.961212,31.445 C -0.593781,33.434 0.246216,33.856 0.0822144,35.211"
             style="fill:#888888;fill-rule:evenodd;stroke:none" />
        </g>
        <rect
           style="fill:none;fill-opacity:1;fill-rule:evenodd;stroke:#323232;stroke-width:10.49245071;stroke-linecap:round;stroke-linejoin:round;stroke-miterlimit:0;stroke-dasharray:none;stroke-dashoffset:0;stroke-opacity:1"
           id="rect2229"
           width="441.98788"
           height="513.56165"
           x="-132.40605"
           y="226.65053" />
        <g
           transform="translate(-609.15689,-20.741064)"
           id="g2198">
          <text
             xml:space="preserve"
             style="font-size:12px;font-style:normal;font-weight:normal;line-height:125%;fill:#000000;fill-opacity:1;stroke:none;stroke-width:1px;stroke-linecap:butt;stroke-linejoin:miter;stroke-opacity:1;font-family:Bitstream Vera Sans"
             x="1129.9565"
             y="297.17215"
             id="text2186"
             transform="translate(-283.45935,-42.749741)"
             sodipodi:linespacing="125%"><tspan
               sodipodi:role="line"
               id="tspan2188"
               x="297.17215"
               y="1129.9565"
               style="font-size:130px;font-style:normal;font-variant:normal;font-weight:normal;font-stretch:normal;text-align:start;line-height:125%;writing-mode:tb-rl;text-anchor:start;font-family:Dejima">関西</tspan></text>
          <text
             xml:space="preserve"
             style="font-size:12px;font-style:normal;font-weight:normal;line-height:100%;fill:#000000;fill-opacity:1;stroke:none;stroke-width:1px;stroke-linecap:butt;stroke-linejoin:miter;stroke-opacity:1;font-family:Bitstream Vera Sans"
             x="707.45471"
             y="240.89241"
             id="text2190"
             sodipodi:linespacing="100%"><tspan
               sodipodi:role="line"
               id="tspan2192"
               x="240.89241"
               y="707.45471"
               style="font-size:120px;font-style:normal;font-variant:normal;font-weight:normal;font-stretch:normal;text-align:start;line-height:100%;writing-mode:tb-rl;text-anchor:start;font-family:Dejima">でびあん</tspan></text>
          <text
             xml:space="preserve"
             style="font-size:12px;font-style:normal;font-weight:normal;line-height:125%;fill:#000000;fill-opacity:1;stroke:none;stroke-width:1px;stroke-linecap:butt;stroke-linejoin:miter;stroke-opacity:1;font-family:Bitstream Vera Sans"
             x="549.51239"
             y="254.81241"
             id="text2194"
             sodipodi:linespacing="125%"><tspan
               sodipodi:role="line"
               id="tspan2196"
               x="254.81241"
               y="549.51239"
               style="font-size:130px;font-style:normal;font-variant:normal;font-weight:normal;font-stretch:normal;text-align:start;line-height:125%;writing-mode:tb-rl;text-anchor:start;font-family:Dejima">勉強会</tspan></text>
        </g>
      </g>
    </g>
  </g>
</svg>
