<?xml version="1.0" encoding="UTF-8" standalone="no"?>
<!-- Created with Inkscape (http://www.inkscape.org/) -->
<svg
   xmlns:dc="http://purl.org/dc/elements/1.1/"
   xmlns:cc="http://web.resource.org/cc/"
   xmlns:rdf="http://www.w3.org/1999/02/22-rdf-syntax-ns#"
   xmlns:svg="http://www.w3.org/2000/svg"
   xmlns="http://www.w3.org/2000/svg"
   xmlns:sodipodi="http://sodipodi.sourceforge.net/DTD/sodipodi-0.dtd"
   xmlns:inkscape="http://www.inkscape.org/namespaces/inkscape"
   width="744.09448"
   height="1052.3622"
   id="svg2"
   sodipodi:version="0.32"
   inkscape:version="0.45.1"
   version="1.0"
   sodipodi:docbase="/home/jun/Desktop/kansai_debian/flyer"
   sodipodi:docname="debian_flyer2.svg"
   inkscape:output_extension="org.inkscape.output.svg.inkscape"
   inkscape:export-filename="/home/jun/Desktop/kansai_debian/flyer/debian_flyer2.png"
   inkscape:export-xdpi="300.01077"
   inkscape:export-ydpi="300.01077">
  <defs
     id="defs4">
    <marker
       orient="auto"
       markerHeight="3"
       markerWidth="4"
       markerUnits="strokeWidth"
       refY="5"
       refX="10"
       viewBox="0 0 10 10"
       id="ArrowStart">
      <path
         id="path4139"
         d="M 10,0 L 0,5 L 10,10 L 10,0 z " />
    </marker>
    <marker
       orient="auto"
       markerHeight="3"
       markerWidth="4"
       markerUnits="strokeWidth"
       refY="5"
       refX="0"
       viewBox="0 0 10 10"
       id="ArrowEnd">
      <path
         id="path4136"
         d="M 0,0 L 10,5 L 0,10 L 0,0 z " />
    </marker>
  </defs>
  <sodipodi:namedview
     id="base"
     pagecolor="#ffffff"
     bordercolor="#666666"
     borderopacity="1.0"
     gridtolerance="50"
     guidetolerance="50"
     objecttolerance="10"
     inkscape:pageopacity="0.0"
     inkscape:pageshadow="2"
     inkscape:zoom="0.51503181"
     inkscape:cx="372.04724"
     inkscape:cy="526.18109"
     inkscape:document-units="mm"
     inkscape:current-layer="layer1"
     width="210.00001mm"
     height="297.00001mm"
     units="mm"
     gridspacingx="0.28222223mm"
     gridspacingy="0.28222223mm"
     gridanglex="8.4666669mm"
     gridanglez="8.4666669mm"
     grid_units="mm"
     showguides="false"
     inkscape:guide-bbox="true"
     inkscape:window-width="1280"
     inkscape:window-height="752"
     inkscape:window-x="3"
     inkscape:window-y="48"
     showgrid="false"
     inkscape:object-paths="false"
     inkscape:grid-bbox="false"
     inkscape:guide-points="true">
    <sodipodi:guide
       orientation="vertical"
       position="17.716535"
       id="guide3134" />
    <sodipodi:guide
       orientation="vertical"
       position="726.37795"
       id="guide3136" />
    <sodipodi:guide
       orientation="horizontal"
       position="35.433071"
       id="guide3138" />
    <sodipodi:guide
       orientation="horizontal"
       position="1016.9291"
       id="guide3140" />
    <sodipodi:guide
       orientation="vertical"
       position="223.22835"
       id="guide10083" />
    <sodipodi:guide
       orientation="vertical"
       position="201.9685"
       id="guide10085" />
    <sodipodi:guide
       orientation="vertical"
       position="212.59843"
       id="guide10087" />
    <sodipodi:guide
       orientation="vertical"
       position="655.51181"
       id="guide10183" />
    <sodipodi:guide
       orientation="vertical"
       position="690.94488"
       id="guide2784" />
    <sodipodi:guide
       orientation="vertical"
       position="187.79528"
       id="guide2796" />
  </sodipodi:namedview>
  <metadata
     id="metadata7">
    <rdf:RDF>
      <cc:Work
         rdf:about="">
        <dc:format>image/svg+xml</dc:format>
        <dc:type
           rdf:resource="http://purl.org/dc/dcmitype/StillImage" />
      </cc:Work>
    </rdf:RDF>
  </metadata>
  <g
     inkscape:label="Layer 1"
     inkscape:groupmode="layer"
     id="layer1"
     style="display:inline"
     sodipodi:insensitive="true">
    <rect
       style="fill:#ffffff;fill-opacity:1;stroke:none"
       id="rect2338"
       width="744.09448"
       height="1052.3622"
       x="0"
       y="0" />
    <path
       style="opacity:1;fill:#d62766;fill-opacity:1;stroke:none;stroke-width:2.17509913;stroke-miterlimit:4;stroke-dasharray:none;stroke-opacity:1"
       d="M -0.65625,0.09375 L -0.65625,49.40625 C 1.8236995,47.128722 3.9572077,45.07351 5.375,43.375 L 5.8125,46.46875 C 20.597951,32.596296 46.982998,23.303308 61.8125,16.6875 C 57.915901,21.004596 70.534269,16.263473 79.625,15.71875 C 76.761621,17.328691 73.893905,18.563207 71.21875,20.4375 C 82.13964,17.858376 81.612858,21.532274 92.75,20.0625 C 88.841387,20.623241 84.094865,22.17328 84.84375,22.75 C 97.314469,24.191622 99.22039,18.917477 110.75,22.75 L 110.03125,19.34375 C 126.06217,25.13058 129.43119,24.144146 146.84375,33.375 C 152.95896,33.67139 153.55436,29.618648 162.78125,33.375 C 164.41117,36.222361 162.40863,36.760003 173.75,43.5 C 175.0155,42.98339 171.48601,39.797086 168.71875,37.25 C 171.28888,38.623292 173.90721,40.16809 176.5,41.875 L 176.5,0.09375 L -0.65625,0.09375 z M 96.21875,48.71875 C 86.280589,48.788388 77.288451,50.294192 71.1875,53.28125 C 73.253939,51.45101 81.470915,50.68695 79,49.28125 C 55.472231,51.612001 60.740019,57.46107 42.71875,62.0625 C 37.776917,66.816111 57.139048,58.226957 46.71875,64.40625 C 37.051339,67.081408 32.547662,62.749013 18.21875,77.5625 C 19.500262,79.61292 27.30495,71.443348 20.78125,79.625 C 15.337079,78.954799 7.3455841,83.891783 -0.65625,90.6875 L -0.65625,302.53125 C 3.1076541,307.79811 7.2996313,313.13405 8.09375,314.5 L 9.75,311.53125 C 9.5137211,315.80029 12.820708,321.33574 19,328.96875 L 24.15625,328.75 C 26.286765,332.95496 34.040441,340.54584 38.75,340.90625 L 35.625,344.96875 C 47.450958,348.70917 41.341849,349.96371 55.875,355.09375 L 52.96875,349.90625 C 60.381499,356.33384 62.672661,361.98045 73.125,366.90625 C 87.642135,371.97623 89.543919,369.93448 104.4375,374.1875 C 91.8146,373.84309 76.967765,373.97446 67,370.40625 C 42.794815,363.85376 19.339366,349.52649 -0.65625,330.09375 L -0.65625,1053.6875 L 176.5,1053.6875 L 176.5,226.96875 C 176.28304,227.14398 176.05961,227.33193 175.84375,227.5 C 149.37652,248.69702 117.78683,251.46798 87.21875,240.0625 C 87.181581,240.09279 87.178397,240.14914 87.15625,240.1875 C 87.380506,239.43681 87.208372,238.6532 85.03125,237.1875 C 59.112659,217.32405 43.806723,200.42186 49.125,161.34375 C 53.065651,158.35622 54.132813,142.06572 63.1875,136.375 C 68.726037,124.15658 85.275872,112.90533 102.96875,112.625 C 121.03808,111.63984 136.28847,122.28466 143.9375,132.3125 C 130.00105,119.31316 107.15047,115.34539 87.6875,124.96875 C 67.775999,133.93133 55.996718,155.86574 57.71875,177.6875 C 58.45562,176.60622 59.093092,177.28493 59.4375,174.59375 C 58.840795,217.03585 105.17988,248.12801 138.53125,232.4375 L 138.9375,233.3125 C 152.45345,229.62014 150.72407,226.57116 159.5625,220.5 C 158.87368,221.90967 153.61831,225.56092 156.75,225.625 C 160.22457,224.69004 169.52034,216.48112 176.5,210.21875 L 176.5,90.15625 C 166.24815,75.430425 152.63841,63.325881 139.84375,57.34375 C 127.30558,51.568011 110.74376,48.616972 96.21875,48.71875 z M 154.375,157.8125 C 155.11187,157.79298 155.61043,159.6489 155.25,165.03125 C 154.17273,169.36436 153.28079,162.36194 152.1875,161.78125 C 152.66406,159.73283 153.63813,157.83202 154.375,157.8125 z M 150.46875,180 C 149.56584,185.55726 146.98858,190.93948 143.4375,195.84375 C 143.82093,191.66714 133.5171,197.66494 145.5,182.5625 C 144.45076,186.83154 134.31478,198.04031 145.5,191 C 147.5344,187.38774 149.67181,183.95667 150.46875,180 z M 126.0625,203.09375 C 124.32846,204.7517 122.3813,206.43901 120.21875,208.125 C 112.41353,206.92358 105.30619,203.95509 111.28125,203.875 L 111.28125,203.84375 C 116.27114,204.29629 121.21278,204.28314 126.0625,203.09375 z M 50.59375,203.90625 C 51.987395,206.65749 53.198791,209.42004 55.28125,211.71875 L 57.125,217.15625 C 54.606027,212.91925 51.907301,208.75597 50.59375,203.90625 z M 45.96875,212.09375 C 50.910582,221.63702 53.591255,224.52219 57.1875,231.5625 C 52.165573,227.38557 49.049634,221.61554 45.125,216.28125 L 45.96875,212.09375 z M 53.59375,218.28125 C 56.753479,218.97006 67.601169,235.88576 75.71875,238.625 C 70.917083,234.77646 67.19006,229.89692 63.75,224.875 C 70.225643,232.33981 78.116596,238.41676 86.71875,242.4375 C 86.482249,241.52802 86.87885,240.91847 87.09375,240.3125 C 86.862427,241.69268 93.005834,246.41972 97.59375,248.78125 C 109.24751,253.06631 122.42503,253.21619 132.78125,252.84375 C 110.3668,262.21081 67.578254,243.34283 53.59375,218.28125 z "
       id="rect2160" />
    <path
       style="fill:#ffffff;fill-rule:evenodd;stroke:none"
       d="M 88.594845,17.730753 C 91.786612,18.291454 95.494989,18.731934 94.96236,19.496877 C 98.450477,18.731934 99.247418,18.043121 88.594845,17.730753"
       id="path5239" />
    <path
       style="fill:#ffff00;fill-rule:evenodd;stroke:none"
       d="M 94.978379,19.496877 L 92.739737,19.949451 L 94.838214,19.761229 L 94.978379,19.496877"
       id="path5241" />
    <path
       style="fill:#ffffff;fill-rule:evenodd;stroke:none"
       d="M 89.784249,14.867373 C 93.821013,13.397638 99.715971,14.070432 104.02105,13.081345 C 98.434458,13.537804 92.863883,13.818175 87.357384,14.522967 L 89.784249,14.851394"
       id="path5251" />
    <path
       style="fill:none;fill-opacity:1;fill-rule:evenodd;stroke:#d62766;stroke-width:2.36405325;stroke-linecap:butt;stroke-linejoin:miter;stroke-miterlimit:4;stroke-dasharray:none;stroke-opacity:1"
       d="M 173.41336,146.66885 L 744.08495,146.66885"
       id="path5710" />
    <g
       id="g2380"
       transform="translate(-12.44755,2)">
      <g
         transform="matrix(2.2805426,0,0,2.2805426,-646.50108,-964.57622)"
         id="g5347">
        <path
           style="fill:#000000;fill-rule:evenodd;stroke:none"
           d="M 385.49324,465.80169 C 385.45024,465.84869 385.45024,473.30569 385.35624,475.25169 C 385.26624,476.82569 385.12624,480.20469 381.79022,480.20469 C 378.36423,480.20469 377.52823,476.26669 377.25122,474.55569 C 376.93024,472.65769 376.93024,471.08369 376.93024,470.38769 C 376.93024,468.16569 377.06723,461.95469 382.30524,461.95469 C 383.88024,461.95469 384.75824,462.41969 385.45424,462.78669 L 385.49724,465.79769 L 385.49324,465.80169 z M 372.05524,471.27069 C 372.05524,484.33369 379.00424,484.33369 380.02423,484.33369 C 382.89524,484.33369 384.75124,482.75869 385.53624,480.02869 L 385.62624,484.14969 C 386.50424,484.10269 387.38324,484.01269 388.82124,484.01269 C 389.32924,484.01269 389.74724,484.01269 390.11824,484.05969 C 390.48524,484.05969 390.85624,484.10269 391.27424,484.14969 C 390.53624,482.66969 389.97724,479.33369 389.97724,472.10269 C 389.97724,465.05969 389.97724,453.15369 390.57924,449.54069 C 388.91524,450.32569 387.47724,450.83669 384.32524,451.11469 C 385.57524,452.45869 385.57524,453.14969 385.57524,459.26669 C 384.69624,458.99369 383.58724,458.66969 381.68423,458.66969 C 373.39123,458.66969 372.04724,465.89569 372.04724,471.27069"
           id="path5349" />
        <path
           style="fill:#000000;fill-rule:evenodd;stroke:none"
           d="M 397.18424,468.90769 C 397.23124,465.06369 398.01624,461.63369 401.30524,461.63369 C 404.91924,461.63369 405.19624,465.61869 405.10224,468.90769 L 397.18024,468.90769 L 397.18424,468.90769 z M 409.69624,469.37269 C 409.69624,463.95069 408.63324,458.62269 401.77424,458.62269 C 392.32524,458.62269 392.32524,469.09469 392.32524,471.31769 C 392.32524,480.71969 396.54024,484.42669 403.63024,484.42669 C 406.77824,484.42669 408.30924,483.96569 409.14124,483.73569 C 409.09824,482.06769 409.32524,481.00469 409.60624,479.56769 C 408.63324,480.16969 407.38324,480.95869 404.60224,480.95869 C 397.37624,480.95869 397.28224,474.37969 397.28224,472.10669 L 409.60624,472.10669 L 409.69624,469.37669"
           id="path5351" />
        <path
           style="fill:#000000;fill-rule:evenodd;stroke:none"
           d="M 424.77024,471.36469 C 424.77024,475.67269 423.98524,481.46569 418.61024,481.46569 C 417.87224,481.46569 416.94224,481.32569 416.34024,481.18869 C 416.25124,479.52069 416.25124,476.64969 416.25124,473.31369 C 416.25124,469.32969 416.66524,467.24769 416.98924,466.22369 C 417.95824,462.93869 420.13724,462.89169 420.55124,462.89169 C 424.07124,462.89169 424.76624,467.75469 424.76624,471.36869 L 424.77024,471.36469 z M 411.47324,476.41569 C 411.47324,479.84069 411.47324,481.79069 410.91924,483.27069 C 412.81724,484.00869 415.18024,484.42669 418.00824,484.42669 C 419.81324,484.42669 425.05124,484.42669 427.87624,478.63769 C 429.21924,475.95469 429.68024,472.33669 429.68024,469.60269 C 429.68024,467.93469 429.49724,464.27869 428.15324,461.95869 C 426.85624,459.78269 424.77024,458.67269 422.54724,458.67269 C 418.10224,458.67269 416.80524,462.37669 416.11024,464.27869 C 416.11024,461.91969 416.15324,453.66969 416.52424,449.45469 C 413.51624,450.84469 411.66124,451.07169 409.66924,451.25869 C 411.47324,451.99769 411.47324,455.05569 411.47324,465.02069 L 411.47324,476.41969"
           id="path5353" />
        <path
           style="fill:#000000;fill-rule:evenodd;stroke:none"
           d="M 438.59024,484.14969 C 437.66524,484.01269 437.01624,483.91969 435.67224,483.91969 C 434.19624,483.91969 433.17224,484.00869 432.11024,484.14969 C 432.57124,483.27069 432.75424,482.85269 432.89524,479.84069 C 433.07924,475.71569 433.12624,464.68869 432.80524,462.37269 C 432.57524,460.61069 432.16124,460.33669 431.50824,459.87269 C 435.30524,459.50469 436.37224,459.22369 438.13324,458.39169 C 437.76624,460.42669 437.71924,461.45069 437.71924,464.55169 C 437.63024,480.54069 437.58324,482.25169 438.59824,484.15369"
           id="path5355" />
        <path
           style="fill:#000000;fill-rule:evenodd;stroke:none"
           d="M 453.42624,471.03669 C 453.33724,473.95469 453.29024,475.99369 452.50124,477.61469 C 451.52824,479.70069 449.90724,480.29769 448.70424,480.29769 C 445.92224,480.29769 445.32124,477.98569 445.32124,475.71269 C 445.32124,471.36069 449.21224,471.03269 450.96924,471.03269 L 453.42224,471.03269 L 453.42624,471.03669 z M 440.68424,476.73969 C 440.68424,479.65769 441.56324,482.57569 444.16124,483.82969 C 445.31724,484.33669 446.47324,484.33669 446.84424,484.33669 C 451.10624,484.33669 452.54024,481.18869 453.42224,479.24369 C 453.37624,481.27869 453.42224,482.52869 453.55924,484.15369 C 454.39124,484.10669 455.22724,484.01669 456.61824,484.01669 C 457.40324,484.01669 458.14524,484.10669 458.93024,484.15369 C 458.42224,483.36869 458.14524,482.90369 458.00424,481.09469 C 457.91524,479.33669 457.91524,477.57569 457.91524,475.12269 L 457.96224,465.67269 C 457.96224,462.14969 457.03624,458.67669 450.08324,458.67669 C 445.50124,458.67669 442.81324,460.06369 441.46924,460.76269 C 442.02424,461.77869 442.48924,462.65769 442.90324,464.65369 C 444.70824,463.07969 447.07524,462.24769 449.48124,462.24769 C 453.32924,462.24769 453.32924,464.79469 453.32924,468.40769 C 452.45024,468.36469 451.70824,468.27069 450.45424,468.27069 C 444.57124,468.27069 440.67624,470.53669 440.67624,476.74769"
           id="path5357" />
        <path
           style="fill:#000000;fill-rule:evenodd;stroke:none"
           d="M 480.11824,479.56369 C 480.16524,481.13769 480.16524,482.80569 480.80924,484.14969 C 479.79024,484.05969 479.18824,483.91969 477.29024,483.91969 C 476.17624,483.91969 475.57524,484.00869 474.69624,484.14969 C 474.88024,483.54769 474.97324,483.31769 475.06324,482.52869 C 475.20024,481.46569 475.29424,477.89569 475.29424,476.64569 L 475.29424,471.64169 C 475.29424,469.46569 475.29424,466.31369 475.15724,465.20469 C 475.06724,464.41969 474.83724,462.28669 472.14524,462.28669 C 469.50424,462.28669 468.62624,464.22769 468.30124,465.80569 C 467.93424,467.42669 467.93424,469.18869 467.93424,476.04469 C 467.97724,481.97369 467.97724,482.52869 468.44224,484.14969 C 467.65724,484.05969 466.68424,483.96569 465.29424,483.96569 C 464.18024,483.96569 463.44224,484.00869 462.51624,484.14969 C 462.84024,483.41169 463.02424,483.04069 463.11824,480.44669 C 463.21224,477.89969 463.39524,465.38769 462.97724,462.42269 C 462.75124,460.61469 462.28624,460.20069 461.77824,459.73569 C 465.53224,459.55169 466.73124,458.95069 467.89124,458.34869 L 467.89124,463.25869 C 468.44624,461.82169 469.60224,458.62669 474.23924,458.62669 C 480.03224,458.62669 480.07524,462.84069 480.12224,465.61869 L 480.12224,479.56369"
           id="path5359" />
        <path
           style="fill:#d62766;fill-rule:evenodd;stroke:none"
           d="M 438.98124,451.82969 L 435.14524,455.66569 L 431.30924,451.82969 L 435.14524,447.99369 L 438.98124,451.82969"
           id="path5361" />
      </g>
      <path
         id="text10250"
         d="M 483.9372,84.435482 L 480.2892,84.435482 L 480.2892,104.97948 L 476.3852,104.97948 L 476.3852,84.435482 L 472.7052,84.435482 L 472.7052,80.531482 L 483.9372,80.531482 L 483.9372,84.435482 M 496.70478,104.97948 L 492.80078,104.97948 L 492.80078,94.707482 L 489.37678,94.707482 L 489.37678,104.97948 L 485.47278,104.97948 L 485.47278,80.531482 L 489.37678,80.531482 L 489.37678,90.803482 L 492.80078,90.803482 L 492.80078,80.531482 L 496.70478,80.531482 L 496.70478,104.97948 M 508.60875,104.97948 L 498.84875,104.97948 L 498.84875,80.563482 L 508.60875,80.563482 L 508.60875,84.467482 L 502.75275,84.467482 L 502.75275,90.803482 L 507.39275,90.803482 L 507.39275,94.739482 L 502.75275,94.739482 L 502.75275,101.07548 L 508.60875,101.07548 L 508.60875,104.97948 M 528.0329,99.347482 C 528.03289,100.90482 527.47823,102.23815 526.3689,103.34748 C 525.28089,104.43548 523.9689,104.97948 522.4329,104.97948 C 520.87557,104.97948 519.54223,104.43548 518.4329,103.34748 C 517.3449,102.23815 516.8009,100.90482 516.8009,99.347482 L 516.8009,80.531482 L 520.7049,80.531482 L 520.7049,99.347482 C 520.7049,99.81682 520.8649,100.22215 521.1849,100.56348 C 521.52623,100.88349 521.94223,101.04349 522.4329,101.04348 C 522.90223,101.04349 523.2969,100.88349 523.6169,100.56348 C 523.95823,100.22215 524.1289,99.81682 524.1289,99.347482 L 524.1289,80.531482 L 528.0329,80.531482 L 528.0329,99.347482 M 541.28095,104.97948 L 537.37695,104.97948 L 537.37695,104.94748 L 533.95295,92.755482 L 533.95295,104.97948 L 530.04895,104.97948 L 530.04895,80.531482 L 533.95295,80.531482 L 533.95295,80.563482 L 537.37695,92.755482 L 537.37695,80.531482 L 541.28095,80.531482 L 541.28095,104.97948 M 547.32893,104.97948 L 543.42493,104.97948 L 543.42493,80.531482 L 547.32893,80.531482 L 547.32893,104.97948 M 562.17678,80.531482 L 558.01678,104.97948 L 553.79278,104.97948 L 549.47278,80.531482 L 553.37678,80.531482 L 555.87278,94.611482 L 558.27278,80.531482 L 562.17678,80.531482 M 573.66442,104.97948 L 563.90442,104.97948 L 563.90442,80.563482 L 573.66442,80.563482 L 573.66442,84.467482 L 567.80842,84.467482 L 567.80842,90.803482 L 572.44842,90.803482 L 572.44842,94.739482 L 567.80842,94.739482 L 567.80842,101.07548 L 573.66442,101.07548 L 573.66442,104.97948 M 586.40009,104.97948 L 582.91209,104.97948 C 582.67742,104.70215 582.53875,103.61415 582.49609,101.71548 C 582.49608,100.54215 582.50675,99.36882 582.52809,98.195482 C 582.50675,97.107489 582.43208,96.254157 582.30409,95.635482 C 582.21875,95.166158 581.89875,94.846158 581.34409,94.675482 C 580.89609,94.526159 580.13875,94.451492 579.07209,94.451482 L 579.07209,104.97948 L 575.16809,104.97948 L 575.16809,80.531482 L 582.97609,80.531482 C 583.85075,80.531506 584.59741,80.840839 585.21609,81.459482 C 585.85608,82.078171 586.17608,82.824837 586.17609,83.699482 L 586.17609,89.587482 C 586.17608,90.462163 585.85608,91.208829 585.21609,91.827482 C 584.59741,92.446161 583.85075,92.755494 582.97609,92.755482 C 583.95742,92.968827 584.67208,93.256827 585.12009,93.619482 C 585.65341,94.024826 585.92008,95.016825 585.92009,96.595482 C 585.92008,100.73415 585.92008,102.48348 585.92009,101.84348 C 585.96275,103.72082 586.12275,104.76615 586.40009,104.97948 M 582.75209,88.691482 L 582.75209,85.939482 C 582.75208,85.384834 582.54942,84.904835 582.14409,84.499482 C 581.76008,84.094169 581.28008,83.891503 580.70409,83.891482 L 579.07209,83.891482 L 579.07209,90.739482 L 580.70409,90.739482 C 581.28008,90.739496 581.76008,90.536829 582.14409,90.131482 C 582.54942,89.726163 582.75208,89.246164 582.75209,88.691482 M 601.15198,97.619482 C 601.13064,100.73415 600.12797,102.88882 598.14398,104.08348 C 597.14131,104.65948 595.82931,104.94748 594.20798,104.94748 C 593.22664,104.94748 592.26664,104.61682 591.32798,103.95548 C 590.38931,103.29415 589.66398,102.47282 589.15198,101.49148 C 588.44798,99.72082 588.15998,97.971489 588.28798,96.243482 L 592.12798,96.275482 C 592.06398,96.27549 592.06398,96.648823 592.12798,97.395482 C 592.19198,98.078155 592.24531,98.494155 592.28798,98.643482 C 592.52264,99.518154 592.91731,100.13682 593.47198,100.49948 C 593.94131,100.81949 594.38931,100.97949 594.81598,100.97948 C 595.47731,100.97949 596.03197,100.68082 596.47998,100.08348 C 596.92797,99.46482 597.15197,98.771488 597.15198,98.003482 C 597.15197,97.683489 597.10931,97.374156 597.02398,97.075482 C 596.55464,96.030157 595.69064,95.027491 594.43198,94.067482 C 593.34398,93.320826 592.25598,92.563494 591.16798,91.795482 C 590.03731,90.878162 589.35465,89.86483 589.11998,88.755482 C 588.94931,88.030165 588.86398,87.315499 588.86398,86.611482 C 588.86398,85.054168 589.25865,83.795503 590.04798,82.835482 C 591.28531,81.256839 592.84264,80.467506 594.71998,80.467482 C 595.25331,80.467506 595.78664,80.531506 596.31998,80.659482 C 597.72797,81.022172 598.84797,81.950171 599.67998,83.443482 C 600.23464,84.446169 600.51197,85.715501 600.51198,87.251482 C 600.0853,87.251499 599.45597,87.251499 598.62398,87.251482 C 597.70664,87.230166 597.06664,87.219499 596.70398,87.219482 C 596.72531,87.006166 596.68264,86.632833 596.57598,86.099482 C 596.36264,85.160835 595.85064,84.638169 595.03998,84.531482 C 594.37864,84.467502 593.86664,84.627502 593.50398,85.011482 C 593.14131,85.395501 592.95998,85.886167 592.95998,86.483482 C 592.95998,86.974166 593.07731,87.422166 593.31198,87.827482 C 593.65331,88.424831 594.27198,88.990164 595.16798,89.523482 C 596.53331,90.355496 597.26931,90.814162 597.37598,90.899482 C 599.91464,92.92616 601.1733,95.166158 601.15198,97.619482 M 615.42385,104.97948 L 611.51985,104.97948 L 611.10385,102.77148 L 607.00785,102.77148 L 606.62385,104.97948 L 602.71985,104.97948 L 606.84785,80.531482 L 611.07185,80.531482 L 615.42385,104.97948 M 610.62385,100.08348 L 609.02385,90.899482 L 607.45585,100.08348 L 610.62385,100.08348 M 627.07165,104.97948 L 617.31165,104.97948 L 617.31165,80.531482 L 621.21565,80.531482 L 621.21565,101.04348 L 627.07165,101.04348 L 627.07165,104.97948 M 484.9292,134.00348 C 484.92919,135.71015 484.33186,137.17149 483.1372,138.38748 C 481.94252,139.58215 480.50253,140.17948 478.8172,140.17948 C 477.13186,140.17948 475.69186,139.58215 474.4972,138.38748 C 473.30253,137.17149 472.7052,135.71015 472.7052,134.00348 L 472.7052,121.65148 C 472.7052,119.94484 473.30253,118.49417 474.4972,117.29948 C 475.69186,116.10484 477.13186,115.50751 478.8172,115.50748 C 480.50253,115.50751 481.94252,116.10484 483.1372,117.29948 C 484.33186,118.49417 484.92919,119.94484 484.9292,121.65148 L 484.9292,134.00348 M 481.0252,134.00348 L 481.0252,121.65148 C 481.02519,121.05417 480.80119,120.54217 480.3532,120.11548 C 479.92653,119.6675 479.41453,119.4435 478.8172,119.44348 C 478.19853,119.4435 477.67586,119.6675 477.2492,120.11548 C 476.82253,120.54217 476.6092,121.05417 476.6092,121.65148 L 476.6092,134.00348 C 476.6092,134.62215 476.82253,135.14482 477.2492,135.57148 C 477.67586,135.99815 478.19853,136.21149 478.8172,136.21148 C 479.41453,136.21149 479.92653,135.99815 480.3532,135.57148 C 480.80119,135.14482 481.02519,134.62215 481.0252,134.00348 M 498.08075,126.00348 C 498.08074,127.00616 497.71808,127.87016 496.99275,128.59548 C 496.28875,129.29949 495.43541,129.65149 494.43275,129.65148 L 490.75275,129.65148 L 490.75275,140.17948 L 486.84875,140.17948 L 486.84875,115.73148 L 494.43275,115.73148 C 495.43541,115.73151 496.28875,116.09417 496.99275,116.81948 C 497.71808,117.5235 498.08074,118.3875 498.08075,119.41148 L 498.08075,126.00348 M 494.65675,124.53148 L 494.65675,120.85148 C 494.65675,120.38217 494.48608,119.9875 494.14475,119.66748 C 493.82475,119.32617 493.43008,119.1555 492.96075,119.15548 L 490.75275,119.15548 L 490.75275,126.25948 L 492.96075,126.25948 L 492.96075,126.22748 C 493.43008,126.2275 493.82475,126.0675 494.14475,125.74748 C 494.48608,125.40616 494.65675,125.00083 494.65675,124.53148 M 509.63317,140.17948 L 499.87317,140.17948 L 499.87317,115.76348 L 509.63317,115.76348 L 509.63317,119.66748 L 503.77717,119.66748 L 503.77717,126.00348 L 508.41717,126.00348 L 508.41717,129.93948 L 503.77717,129.93948 L 503.77717,136.27548 L 509.63317,136.27548 L 509.63317,140.17948 M 522.36884,140.17948 L 518.88084,140.17948 C 518.64617,139.90215 518.5075,138.81415 518.46484,136.91548 C 518.46483,135.74215 518.4755,134.56882 518.49684,133.39548 C 518.4755,132.30749 518.40083,131.45416 518.27284,130.83548 C 518.1875,130.36616 517.8675,130.04616 517.31284,129.87548 C 516.86484,129.72616 516.1075,129.65149 515.04084,129.65148 L 515.04084,140.17948 L 511.13684,140.17948 L 511.13684,115.73148 L 518.94484,115.73148 C 519.8195,115.73151 520.56616,116.04084 521.18484,116.65948 C 521.82483,117.27817 522.14483,118.02484 522.14484,118.89948 L 522.14484,124.78748 C 522.14483,125.66216 521.82483,126.40883 521.18484,127.02748 C 520.56616,127.64616 519.8195,127.95549 518.94484,127.95548 C 519.92617,128.16883 520.64083,128.45683 521.08884,128.81948 C 521.62216,129.22483 521.88883,130.21683 521.88884,131.79548 C 521.88883,135.93415 521.88883,137.68348 521.88884,137.04348 C 521.9315,138.92082 522.0915,139.96615 522.36884,140.17948 M 518.72084,123.89148 L 518.72084,121.13948 C 518.72083,120.58484 518.51817,120.10484 518.11284,119.69948 C 517.72883,119.29417 517.24883,119.0915 516.67284,119.09148 L 515.04084,119.09148 L 515.04084,125.93948 L 516.67284,125.93948 C 517.24883,125.9395 517.72883,125.73683 518.11284,125.33148 C 518.51817,124.92616 518.72083,124.44616 518.72084,123.89148 M 536.92873,140.17948 L 533.02473,140.17948 L 532.60873,137.97148 L 528.51273,137.97148 L 528.12873,140.17948 L 524.22473,140.17948 L 528.35273,115.73148 L 532.57673,115.73148 L 536.92873,140.17948 M 532.12873,135.28348 L 530.52873,126.09948 L 528.96073,135.28348 L 532.12873,135.28348 M 546.86103,119.63548 L 543.21303,119.63548 L 543.21303,140.17948 L 539.30903,140.17948 L 539.30903,119.63548 L 535.62903,119.63548 L 535.62903,115.73148 L 546.86103,115.73148 L 546.86103,119.63548 M 552.36506,140.17948 L 548.46106,140.17948 L 548.46106,115.73148 L 552.36506,115.73148 L 552.36506,140.17948 M 565.74091,140.17948 L 561.83691,140.17948 L 561.83691,140.14748 L 558.41291,127.95548 L 558.41291,140.17948 L 554.50891,140.17948 L 554.50891,115.73148 L 558.41291,115.73148 L 558.41291,115.76348 L 561.83691,127.95548 L 561.83691,115.73148 L 565.74091,115.73148 L 565.74091,140.17948 M 579.91689,134.48348 C 579.91688,136.06215 579.33021,137.40615 578.15689,138.51548 C 576.98355,139.62482 575.56488,140.17948 573.90089,140.17948 C 572.23688,140.17948 570.81822,139.62482 569.64489,138.51548 C 568.47155,137.40615 567.88489,136.06215 567.88489,134.48348 L 567.88489,121.17148 C 567.88489,119.59284 568.47155,118.2595 569.64489,117.17148 C 570.81822,116.06217 572.23688,115.50751 573.90089,115.50748 C 575.56488,115.50751 576.98355,116.06217 578.15689,117.17148 C 579.33021,118.2595 579.91688,119.59284 579.91689,121.17148 L 579.91689,126.35548 L 575.72489,126.35548 L 575.72489,121.17148 C 575.72488,120.70217 575.54355,120.29684 575.18089,119.95548 C 574.83955,119.61417 574.41288,119.4435 573.90089,119.44348 C 573.38888,119.4435 572.95155,119.61417 572.58889,119.95548 C 572.24755,120.29684 572.07688,120.70217 572.07689,121.17148 L 572.07689,134.48348 C 572.07688,134.97415 572.24755,135.39015 572.58889,135.73148 C 572.95155,136.05149 573.38888,136.21149 573.90089,136.21148 C 574.41288,136.21149 574.83955,136.05149 575.18089,135.73148 C 575.54355,135.39015 575.72488,134.97415 575.72489,134.48348 L 575.72489,131.28348 L 573.77289,131.28348 L 573.77289,127.82748 L 579.91689,127.82748 L 579.91689,134.48348 M 601.35706,132.81948 C 601.33571,135.93415 600.33305,138.08882 598.34906,139.28348 C 597.34638,139.85948 596.03439,140.14748 594.41306,140.14748 C 593.43172,140.14748 592.47172,139.81682 591.53306,139.15548 C 590.59439,138.49415 589.86906,137.67282 589.35706,136.69148 C 588.65306,134.92082 588.36506,133.17149 588.49306,131.44348 L 592.33306,131.47548 C 592.26906,131.47549 592.26906,131.84882 592.33306,132.59548 C 592.39706,133.27816 592.45039,133.69416 592.49306,133.84348 C 592.72772,134.71815 593.12239,135.33682 593.67706,135.69948 C 594.14639,136.01949 594.59439,136.17949 595.02106,136.17948 C 595.68239,136.17949 596.23705,135.88082 596.68506,135.28348 C 597.13305,134.66482 597.35705,133.97149 597.35706,133.20348 C 597.35705,132.88349 597.31438,132.57416 597.22906,132.27548 C 596.75972,131.23016 595.89572,130.22749 594.63706,129.26748 C 593.54905,128.52083 592.46106,127.76349 591.37306,126.99548 C 590.24239,126.07816 589.55973,125.06483 589.32506,123.95548 C 589.15439,123.23017 589.06906,122.5155 589.06906,121.81148 C 589.06906,120.25417 589.46373,118.9955 590.25306,118.03548 C 591.49039,116.45684 593.04772,115.66751 594.92506,115.66748 C 595.45839,115.66751 595.99172,115.73151 596.52506,115.85948 C 597.93305,116.22217 599.05305,117.15017 599.88506,118.64348 C 600.43971,119.64617 600.71705,120.9155 600.71706,122.45148 C 600.29038,122.4515 599.66105,122.4515 598.82906,122.45148 C 597.91172,122.43017 597.27172,122.4195 596.90906,122.41948 C 596.93038,122.20617 596.88772,121.83283 596.78106,121.29948 C 596.56772,120.36084 596.05572,119.83817 595.24506,119.73148 C 594.58372,119.6675 594.07172,119.8275 593.70906,120.21148 C 593.34639,120.5955 593.16505,121.08617 593.16506,121.68348 C 593.16505,122.17417 593.28239,122.62217 593.51706,123.02748 C 593.85839,123.62483 594.47705,124.19016 595.37306,124.72348 C 596.73838,125.5555 597.47438,126.01416 597.58106,126.09948 C 600.11971,128.12616 601.37838,130.36616 601.35706,132.81948 M 614.35893,115.73148 L 609.71893,130.38748 L 609.71893,130.38748 L 609.71893,140.17948 L 605.81493,140.17948 L 605.81493,130.38748 L 605.81493,130.38748 L 601.17493,115.73148 L 605.33493,115.73148 L 607.76693,123.89148 L 610.19893,115.73148 L 614.35893,115.73148 M 627.15979,132.81948 C 627.13845,135.93415 626.13578,138.08882 624.15179,139.28348 C 623.14912,139.85948 621.83712,140.14748 620.21579,140.14748 C 619.23446,140.14748 618.27446,139.81682 617.33579,139.15548 C 616.39713,138.49415 615.67179,137.67282 615.15979,136.69148 C 614.45579,134.92082 614.16779,133.17149 614.29579,131.44348 L 618.13579,131.47548 C 618.07179,131.47549 618.07179,131.84882 618.13579,132.59548 C 618.19979,133.27816 618.25312,133.69416 618.29579,133.84348 C 618.53046,134.71815 618.92512,135.33682 619.47979,135.69948 C 619.94912,136.01949 620.39712,136.17949 620.82379,136.17948 C 621.48512,136.17949 622.03979,135.88082 622.48779,135.28348 C 622.93579,134.66482 623.15979,133.97149 623.15979,133.20348 C 623.15979,132.88349 623.11712,132.57416 623.03179,132.27548 C 622.56245,131.23016 621.69845,130.22749 620.43979,129.26748 C 619.35179,128.52083 618.26379,127.76349 617.17579,126.99548 C 616.04513,126.07816 615.36246,125.06483 615.12779,123.95548 C 614.95713,123.23017 614.87179,122.5155 614.87179,121.81148 C 614.87179,120.25417 615.26646,118.9955 616.05579,118.03548 C 617.29312,116.45684 618.85046,115.66751 620.72779,115.66748 C 621.26112,115.66751 621.79445,115.73151 622.32779,115.85948 C 623.73578,116.22217 624.85578,117.15017 625.68779,118.64348 C 626.24245,119.64617 626.51978,120.9155 626.51979,122.45148 C 626.09312,122.4515 625.46378,122.4515 624.63179,122.45148 C 623.71445,122.43017 623.07445,122.4195 622.71179,122.41948 C 622.73312,122.20617 622.69045,121.83283 622.58379,121.29948 C 622.37045,120.36084 621.85845,119.83817 621.04779,119.73148 C 620.38645,119.6675 619.87446,119.8275 619.51179,120.21148 C 619.14912,120.5955 618.96779,121.08617 618.96779,121.68348 C 618.96779,122.17417 619.08512,122.62217 619.31979,123.02748 C 619.66112,123.62483 620.27979,124.19016 621.17579,124.72348 C 622.54112,125.5555 623.27712,126.01416 623.38379,126.09948 C 625.92245,128.12616 627.18111,130.36616 627.15979,132.81948 M 639.95966,119.63548 L 636.31166,119.63548 L 636.31166,140.17948 L 632.40766,140.17948 L 632.40766,119.63548 L 628.72766,119.63548 L 628.72766,115.73148 L 639.95966,115.73148 L 639.95966,119.63548 M 651.31969,140.17948 L 641.55969,140.17948 L 641.55969,115.76348 L 651.31969,115.76348 L 651.31969,119.66748 L 645.46369,119.66748 L 645.46369,126.00348 L 650.10369,126.00348 L 650.10369,129.93948 L 645.46369,129.93948 L 645.46369,136.27548 L 651.31969,136.27548 L 651.31969,140.17948 M 667.95936,140.17948 L 664.05536,140.17948 L 664.05536,127.89148 L 661.33536,140.17948 L 659.38336,140.17948 L 659.38336,140.14748 L 659.38336,140.17948 L 656.72736,128.24348 L 656.72736,140.17948 L 652.82336,140.17948 L 652.82336,115.73148 L 656.88736,115.73148 L 660.34336,131.18748 L 663.83136,115.73148 L 667.95936,115.73148 L 667.95936,140.17948"
         style="font-size:22px;font-style:normal;font-variant:normal;font-weight:normal;font-stretch:normal;text-align:start;line-height:110.00000238%;writing-mode:lr-tb;text-anchor:start;fill:#000000;fill-opacity:1;stroke:none;stroke-width:1px;stroke-linecap:butt;stroke-linejoin:miter;stroke-opacity:1;font-family:QUICKONE" />
    </g>
    <path
       style="fill:none;fill-opacity:1;fill-rule:evenodd;stroke:#d62766;stroke-width:2.37401581;stroke-linecap:butt;stroke-linejoin:miter;stroke-miterlimit:4;stroke-dasharray:none;stroke-opacity:1;display:inline"
       d="M 169.9685,997.6111 L 744.81946,997.6111"
       id="path2698" />
  </g>
  <g
     inkscape:groupmode="layer"
     id="layer4"
     inkscape:label="text"
     style="display:inline"
     sodipodi:insensitive="true">
    <text
       xml:space="preserve"
       style="font-size:9px;font-style:normal;font-variant:normal;font-weight:normal;font-stretch:normal;text-align:start;line-height:100%;writing-mode:lr-tb;text-anchor:start;fill:#000000;fill-opacity:1;stroke:none;stroke-width:1px;stroke-linecap:butt;stroke-linejoin:miter;stroke-opacity:1;font-family:IPA P明朝"
       x="222.1346"
       y="993.54633"
       id="text2800"
       sodipodi:linespacing="100%"><tspan
         sodipodi:role="line"
         id="tspan2802"
         x="222.1346"
         y="993.54633"
         style="font-size:20px;font-style:normal;font-variant:normal;font-weight:bold;font-stretch:normal;text-align:start;line-height:100%;letter-spacing:-1.89447951;writing-mode:lr-tb;text-anchor:start;font-family:aqua_pfont"
         dx="0 -2 -1 0 0 0 0 -2 0 1 0 0 -2 0 0 0 0 0 0 0 0 0 0 -0.5 0 0 0 -1 2.6381797e-10 0 0 0.70710677"
         dy="0 0 0 0 0 0 0 0 0 0 0 0 0 0 0 0 0 0 0 0 0 0 0 0 0 0 0 1.5 -1.5 0.5 0 -2.8284271">ブースには勉強会のメンバーがいますので気軽に声をかけてください♪</tspan></text>
    <flowRoot
       xml:space="preserve"
       id="flowRoot2403"
       style="font-size:12px;font-style:normal;font-variant:normal;font-weight:normal;font-stretch:normal;text-align:start;line-height:120.00000477%;writing-mode:lr-tb;text-anchor:start;font-family:IPA P明朝"
       transform="translate(-588.52165,-315.49955)"><flowRegion
         id="flowRegion2405"><rect
           id="rect2407"
           width="467.54327"
           height="94.11731"
           x="811.75861"
           y="514.96106"
           style="font-size:12px;font-style:normal;font-variant:normal;font-weight:normal;font-stretch:normal;text-align:start;line-height:120.00000477%;writing-mode:lr-tb;text-anchor:start;font-family:IPA P明朝" /></flowRegion><flowPara
         id="flowPara2409"
         style="text-align:start;text-anchor:start">　Debianはあなたのコンピュータのための「フリー」な OS です。Debianは現在 Linuxカーネルを基盤とし、18,000 以上もの各種ソフトウェアパッケージを収録しています。これほど多くのソフトウェアを利用できるのは、Debianをおいて他にありません。 </flowPara><flowPara
         id="flowPara2411"
         style="text-align:start;text-anchor:start"> 　Intel x86，IA64，AMD64，Alpha，m68k，PowerPC，SPARCといった多数のアーキテクチャがサポートされており、1,000名にものぼるボランティア開発者たちが、Debianの高品質を維持すべく活動しています。</flowPara></flowRoot>    <rect
       style="opacity:0.6;fill:none;fill-opacity:1;stroke:none;stroke-width:1.25;stroke-miterlimit:4;stroke-dasharray:none;stroke-opacity:1;display:inline"
       id="rect2918"
       width="467.71194"
       height="34.803677"
       x="223.23294"
       y="343.77963" />
    <rect
       style="opacity:0.6;fill:none;fill-opacity:1;stroke:none;stroke-width:1.25;stroke-miterlimit:4;stroke-dasharray:none;stroke-opacity:1;display:inline"
       id="rect2920"
       width="467.71194"
       height="48.945812"
       x="223.22835"
       y="437.42068" />
    <rect
       style="opacity:0.6;fill:none;fill-opacity:1;stroke:none;stroke-width:1.25;stroke-miterlimit:4;stroke-dasharray:none;stroke-opacity:1;display:inline"
       id="rect2922"
       width="467.71194"
       height="44.703171"
       x="223.22835"
       y="539.41925" />
    <g
       id="g3071"
       transform="translate(0,2)">
      <text
         id="text5694"
         y="432.46127"
         x="221.51836"
         style="font-size:12px;font-style:normal;font-weight:normal;fill:#000000;fill-opacity:1;stroke:none;stroke-width:1px;stroke-linecap:butt;stroke-linejoin:miter;stroke-opacity:1;font-family:Systema"
         xml:space="preserve"><tspan
           style="font-size:18px;letter-spacing:-0.54392827;font-family:IPA Pゴシック"
           y="432.46127"
           x="221.51836"
           id="tspan5696"
           sodipodi:role="line">Debianは長く使えます</tspan></text>
      <flowRoot
         style="font-size:12px;font-style:normal;font-variant:normal;font-weight:normal;font-stretch:normal;text-align:start;line-height:120.00000477%;writing-mode:lr-tb;text-anchor:start;font-family:IPA P明朝"
         transform="translate(-503.77165,183.62792)"
         xml:space="preserve"
         id="flowRoot2429"><flowRegion
           id="flowRegion2431"><rect
             style="font-size:12px;font-style:normal;font-variant:normal;font-weight:normal;font-stretch:normal;text-align:start;line-height:120.00000477%;writing-mode:lr-tb;text-anchor:start;font-family:IPA P明朝"
             id="rect2433"
             width="475.23401"
             height="73.798988"
             x="727"
             y="253.36218" /></flowRegion><flowPara
           style="text-align:justify;text-anchor:start"
           id="flowPara2503">　あるパッケージをインストールしようとすると、Debianは関連する他のパッケージも調べて提案してくれます。いらなくなったパッケージも、不要な依存パッケージと合わせて削除してくれます。</flowPara><flowPara
           style="text-align:justify;text-anchor:start"
           id="flowPara2505">　新しいバージョンがリリースされても、再インストールの必要はありません。今の環境を維持したままで、新しいバージョンに移行することができます。</flowPara></flowRoot>    </g>
    <g
       id="g3063"
       transform="translate(0,4)">
      <text
         sodipodi:linespacing="125%"
         id="text5690"
         y="356.23395"
         x="221.51836"
         style="font-size:18px;font-style:normal;font-variant:normal;font-weight:normal;font-stretch:normal;text-align:start;line-height:125%;writing-mode:lr-tb;text-anchor:start;fill:#000000;fill-opacity:1;stroke:none;stroke-width:1px;stroke-linecap:butt;stroke-linejoin:miter;stroke-opacity:1;font-family:Systema"
         xml:space="preserve"><tspan
           style="font-size:18px;font-style:normal;font-variant:normal;font-weight:normal;font-stretch:normal;text-align:start;line-height:125%;letter-spacing:-0.58925563;writing-mode:lr-tb;text-anchor:start;font-family:IPA Pゴシック"
           y="356.23395"
           x="221.51836"
           id="tspan5692"
           sodipodi:role="line">Debianは自由です </tspan></text>
      <flowRoot
         transform="translate(-525.77165,-41.599398)"
         style="font-size:12px;font-style:normal;font-variant:normal;font-weight:normal;font-stretch:normal;text-align:justify;line-height:120.00000477%;writing-mode:lr-tb;text-anchor:start;font-family:IPA P明朝"
         id="flowRoot2417"
         xml:space="preserve"><flowRegion
           id="flowRegion2419"><rect
             style="font-size:12px;font-style:normal;font-variant:normal;font-weight:normal;font-stretch:normal;text-align:justify;line-height:120.00000477%;writing-mode:lr-tb;text-anchor:start;font-family:IPA P明朝"
             y="401.36218"
             x="749"
             height="52.987804"
             width="468.8894"
             id="rect2421" /></flowRegion><flowPara
           id="flowPara2423">　Debian は無料で使用できるだけでなく、好きな場所で好きなように使う。友人と一緒に使う。ソースコードを読んだり変更する。そうやって変更したものを再配布する。といったことを自由に行うことができます。</flowPara></flowRoot>    </g>
    <g
       id="g3080">
      <text
         id="text5698"
         y="523.08862"
         x="221.51836"
         style="font-size:12px;font-style:normal;font-weight:normal;fill:#000000;fill-opacity:1;stroke:none;stroke-width:1px;stroke-linecap:butt;stroke-linejoin:miter;stroke-opacity:1;font-family:Systema"
         xml:space="preserve"><tspan
           style="font-size:18px;letter-spacing:-0.64282435;font-family:IPA Pゴシック"
           y="523.08862"
           x="221.51836"
           id="tspan5700"
           sodipodi:role="line">Debianは安全です</tspan></text>
      <flowRoot
         transform="translate(-723.77165,216.25525)"
         style="font-size:12px;font-style:normal;font-variant:normal;font-weight:normal;font-stretch:normal;text-align:justify;line-height:120.00000477%;writing-mode:lr-tb;text-anchor:start;font-family:IPA P明朝"
         id="flowRoot2439"
         xml:space="preserve"><flowRegion
           id="flowRegion2441"><rect
             style="font-size:12px;font-style:normal;font-variant:normal;font-weight:normal;font-stretch:normal;text-align:justify;line-height:120.00000477%;writing-mode:lr-tb;text-anchor:start;font-family:IPA P明朝"
             y="310.36218"
             x="947"
             height="45.878681"
             width="468.98126"
             id="rect2443" /></flowRegion><flowPara
           id="flowPara2507">　発見されたセキュリティ問題については、Debianセキュリティチームがほぼ48時間以内に対策を施します。Debianのパッケージ管理システムを使えば、これらの更新版をすぐに適用できますし、不要なパッケージを削除し、必要なパッケージだけを構成することも簡単にできます。</flowPara></flowRoot>    </g>
    <text
       xml:space="preserve"
       style="font-size:9px;font-style:normal;font-variant:normal;font-weight:normal;font-stretch:normal;text-align:start;line-height:125%;writing-mode:lr-tb;text-anchor:start;fill:#000000;fill-opacity:1;stroke:none;stroke-width:1px;stroke-linecap:butt;stroke-linejoin:miter;stroke-opacity:1;display:inline;font-family:IPA明朝"
       x="223.22835"
       y="771.49738"
       id="text8171"
       sodipodi:linespacing="125%"><tspan
         sodipodi:role="line"
         id="tspan8173"
         x="223.22835"
         y="771.49738"
         style="font-size:16px;letter-spacing:-1.01015258;font-family:IPA Pゴシック">インターネット上での情報は？</tspan></text>
    <text
       xml:space="preserve"
       style="font-size:9px;font-style:normal;font-variant:normal;font-weight:bold;font-stretch:normal;text-align:start;line-height:125%;writing-mode:lr-tb;text-anchor:start;fill:#000000;fill-opacity:1;stroke:none;stroke-width:1px;stroke-linecap:butt;stroke-linejoin:miter;stroke-opacity:1;display:inline;font-family:IPA明朝"
       x="223.22835"
       y="645.50177"
       id="text8163"
       sodipodi:linespacing="125%"><tspan
         sodipodi:role="line"
         id="tspan8165"
         x="223.22835"
         y="645.50177"
         style="font-size:16px;font-weight:normal;letter-spacing:-0.74432296;font-family:IPA Pゴシック">関東・関西にて毎月勉強会を開いています</tspan></text>
    <flowRoot
       xml:space="preserve"
       id="flowRoot2481"
       style="font-size:10px;font-style:normal;font-variant:normal;font-weight:bold;font-stretch:normal;text-align:start;line-height:100%;writing-mode:lr-tb;text-anchor:start;display:inline;font-family:Sans"
       transform="translate(17.04835,-236.35203)"><flowRegion
         id="flowRegion2483"><rect
           id="rect2485"
           width="453.51181"
           height="66.566933"
           x="202"
           y="950.36218"
           style="font-size:10px;font-style:normal;font-variant:normal;font-weight:bold;font-stretch:normal;text-align:start;line-height:100%;writing-mode:lr-tb;text-anchor:start;font-family:Sans" /></flowRegion><flowPara
         id="flowPara2489"
         style="font-size:10px;font-style:normal;font-variant:normal;font-weight:bold;font-stretch:normal;text-align:start;line-height:129.99999523%;writing-mode:lr-tb;text-anchor:start;font-family:Sans">・関西Debian勉強会：http://wiki.debian.org/KansaiDebianMeeting</flowPara><flowPara
         id="flowPara2527"
         style="font-size:10px;font-style:normal;font-variant:normal;font-weight:bold;font-stretch:normal;text-align:start;line-height:129.99999523%;writing-mode:lr-tb;text-anchor:start;font-family:Sans">・東京エリアDebian勉強会：http://tokyodebian.alioth.debian.org/</flowPara></flowRoot>    <flowRoot
       xml:space="preserve"
       id="flowRoot2536"
       transform="translate(0.3696599,204.70058)"
       style="font-size:12px;font-style:normal;font-variant:normal;font-weight:normal;font-stretch:normal;text-align:start;line-height:120.00000477%;writing-mode:lr-tb;text-anchor:start;font-family:IPA P明朝"><flowRegion
         id="flowRegion2538"><rect
           id="rect2540"
           width="465.94489"
           height="95"
           x="224"
           y="685.36218"
           style="font-size:12px;font-style:normal;font-variant:normal;font-weight:normal;font-stretch:normal;text-align:start;line-height:120.00000477%;writing-mode:lr-tb;text-anchor:start;font-family:IPA P明朝" /></flowRegion><flowPara
         id="flowPara2548"
         style="text-align:justify;text-anchor:start">　ブースでは2007年4月にリリースされたDebian GNU/Linux 4.0r0 (Etch)を配布しています。配布しているDVDは二種類で、一つはi386, amd64(Intel64), PowerPCの3アーキテキクチャで使えるインストールDVD（一部ネットワークよりダウンロードが必要になります）</flowPara><flowPara
         style="text-align:justify;text-anchor:start"
         id="flowPara2784">　もう一つはi386のみですが、ネットワーク環境がなくてもデスクトップ環境と日本語環境がインストールできるDVDです。</flowPara><flowPara
         id="flowPara2550"
         style="text-align:justify;text-anchor:start" /></flowRoot>    <flowRoot
       xml:space="preserve"
       id="flowRoot2554"
       style="font-size:12px;font-style:normal;font-variant:normal;font-weight:normal;font-stretch:normal;text-align:start;line-height:120.00000477%;writing-mode:lr-tb;text-anchor:start;font-family:IPA P明朝"
       transform="translate(-12.77165,-181.79394)"><flowRegion
         id="flowRegion2556"><rect
           id="rect2558"
           width="454.94489"
           height="59"
           x="236"
           y="832.36218"
           style="font-size:12px;font-style:normal;font-variant:normal;font-weight:normal;font-stretch:normal;text-align:start;line-height:120.00000477%;writing-mode:lr-tb;text-anchor:start;font-family:IPA P明朝" /></flowRegion><flowPara
         id="flowPara2596">　東京／関西Debian勉強会では、Debianのさまざまなトピックについて、定期的に顔をつきあわせて話し合っています。参加者はDebianユーザのみならず、開発の最前線に立つDebianの公式開発者や開発者予備軍の方もおりますので、普段は聞けないような情報を得るチャンスです。興味を持たれた方は、お気軽にご参加ください。</flowPara><flowPara
         id="flowPara2598">　また、勉強会で話をしてみたい、協力したいという方も歓迎します</flowPara><flowPara
         id="flowPara2600" /><flowPara
         id="flowPara2602" /><flowPara
         id="flowPara2604" /><flowPara
         id="flowPara2606" /><flowPara
         id="flowPara2608" /></flowRoot>    <flowRoot
       xml:space="preserve"
       id="flowRoot2586"
       style="font-size:12px;font-style:normal;font-variant:normal;font-weight:normal;font-stretch:normal;text-align:start;line-height:120.00000477%;writing-mode:lr-tb;text-anchor:start;font-family:IPA P明朝"
       transform="translate(-20.771643,-123.37973)"><flowRegion
         id="flowRegion2588"><rect
           id="rect2590"
           width="482.37796"
           height="62"
           x="244"
           y="900.36218"
           style="font-size:12px;font-style:normal;font-variant:normal;font-weight:normal;font-stretch:normal;text-align:start;line-height:120.00000477%;writing-mode:lr-tb;text-anchor:start;font-family:IPA P明朝" /></flowRegion><flowPara
         id="flowPara2786">　Webブラウザで <flowSpan
   style="font-weight:bold;font-family:Sans"
   id="flowSpan2790">http://www.debian.or.jp/</flowSpan> を開いてみましょう。各種ドキュメントやコミュニティの案内をはじめ、日本語によるDebianの情報はここで得ることができます。また<flowSpan
   style="font-weight:bold;font-family:Sans"
   id="flowSpan2798">http://www.debian.org/</flowSpan>を見ることもお忘れなく。Debianは日本だけでなく全世界の人々によるプロジェクトです。世界に向けたDebianの情報は、ここから発信されています。</flowPara><flowPara
         id="flowPara2788" /></flowRoot>    <g
       id="g2747">
      <g
         id="g2752" />
    </g>
    <g
       id="g2728"
       transform="translate(2.5986516e-6,-118.62237)">
      <g
         transform="matrix(8.9594956e-2,0,0,8.9594956e-2,226.63965,670.95377)"
         id="g10203"
         style="display:inline">
        <path
           style="fill:#d62766;fill-opacity:1;fill-rule:evenodd;stroke:none"
           d="M -197.20376,569.03603 C -205.34799,569.14521 -195.6699,573.21732 -185.03109,574.8549 C -182.08345,572.55683 -179.41965,570.2533 -177.05608,567.99344 C -183.66644,569.61465 -190.42418,569.63102 -197.2256,569.0142"
           id="path10205" />
        <path
           style="fill:#d62766;fill-opacity:1;fill-rule:evenodd;stroke:none"
           d="M -153.42581,558.14067 C -148.56765,551.44297 -145.02502,544.11208 -143.79138,536.51917 C -144.87764,541.91226 -147.79799,546.58482 -150.57096,551.50848 C -165.81682,561.10469 -152.00111,545.81516 -150.57096,539.99629 C -166.94675,560.63525 -152.80898,552.36002 -153.40943,558.14067"
           id="path10207" />
        <path
           style="fill:#d62766;fill-opacity:1;fill-rule:evenodd;stroke:none"
           d="M -137.26835,516.09309 C -136.28581,501.42038 -140.14504,506.0711 -141.44418,511.65525 C -139.95399,512.44675 -138.73672,521.99929 -137.26835,516.09309"
           id="path10209" />
        <path
           style="fill:#d62766;fill-opacity:1;fill-rule:evenodd;stroke:none"
           d="M -228.1431,315.32028 C -223.79259,316.08454 -218.73793,316.68493 -219.46393,317.72758 C -214.70949,316.68493 -213.62323,315.74605 -228.1431,315.32028"
           id="path10211" />
        <path
           style="fill:#d62766;fill-opacity:1;fill-rule:evenodd;stroke:none"
           d="M -219.44209,317.72758 L -222.49345,318.34445 L -219.63314,318.0879 L -219.44209,317.72758"
           id="path10213" />
        <path
           style="fill:#d62766;fill-opacity:1;fill-rule:evenodd;stroke:none"
           d="M -83.703131,521.6554 C -83.211857,534.83246 -87.540525,541.25177 -91.465257,552.5729 L -98.50139,556.07186 C -104.26021,567.26745 -97.944613,563.1735 -102.0604,572.08739 C -111.06162,580.08424 -129.37522,597.12052 -135.23776,598.69806 C -139.50638,598.61072 -132.36107,593.6434 -131.4222,591.72197 C -143.46932,599.9972 -141.10575,604.13482 -159.52852,609.16765 L -160.058,607.97222 C -205.51721,629.359 -268.67865,586.98936 -267.86532,529.13914 C -268.33476,532.80732 -269.22997,531.89027 -270.23435,533.3641 C -272.58155,503.62019 -256.50052,473.72345 -229.36036,461.50711 C -202.83158,448.3901 -171.70119,453.76682 -152.70527,471.48543 C -163.13119,457.8171 -183.91753,443.31906 -208.54673,444.66187 C -232.66282,445.04398 -255.24504,460.37718 -262.79428,477.03136 C -275.13617,484.78803 -276.58816,507.00998 -281.95942,511.0821 C -289.20844,564.3471 -268.33476,587.35509 -233.00671,614.42974 C -227.46077,618.16342 -231.44555,618.74203 -230.70318,621.59688 C -242.42825,616.11644 -253.17623,607.82483 -262.00278,597.65001 C -257.31385,604.49509 -252.25918,611.17095 -245.71433,616.41667 C -256.7789,612.68299 -271.55533,589.61495 -275.86216,588.67607 C -256.80074,622.83598 -198.48107,648.56781 -167.9293,635.80015 C -182.04524,636.3078 -199.99857,636.07308 -215.88309,630.23238 C -222.55349,626.79892 -231.62022,619.69728 -229.99902,618.3763 C -188.33354,633.92239 -145.28158,630.14504 -109.2057,601.25268 C -100.03526,594.11284 -90.01327,581.95654 -87.114754,581.78732 C -91.465257,588.33218 -86.366927,584.92056 -89.696671,590.72305 C -80.569895,575.99029 -93.659614,584.7295 -80.269672,565.28598 L -75.324182,572.10923 C -77.158271,559.86559 -60.143821,545.00729 -61.868738,525.64564 C -57.96584,519.73943 -57.518235,532.02128 -61.677687,545.62411 C -55.918866,530.52562 -60.160197,528.09655 -58.691834,515.64549 C -57.114299,519.82131 -55.001821,524.28099 -53.91556,528.69154 C -57.649241,514.11162 -50.1,504.12784 -48.200408,495.64518 C -50.056331,494.83185 -53.981063,502.08087 -54.876274,484.87537 C -54.745267,477.39163 -52.807465,480.95064 -52.059637,479.11655 C -53.511624,478.28684 -57.370853,472.54985 -59.712592,461.52894 C -58.031343,458.94703 -55.192872,468.22118 -52.872968,468.60875 C -54.341331,459.86407 -56.923248,453.18821 -57.026961,446.47413 C -63.790164,432.33636 -59.417827,448.35189 -64.89826,440.42054 C -72.081775,417.96387 -58.948388,435.21304 -58.053178,425.02184 C -47.157816,440.82448 -40.929555,465.32267 -38.074708,475.4702 C -40.24723,463.10648 -43.768026,451.1194 -48.07486,439.52533 C -44.745115,440.90636 -53.402452,414.08281 -43.768026,431.86692 C -54.062942,393.97879 -87.840748,358.54146 -118.92746,341.93095 C -115.15557,345.40273 -110.33563,349.75317 -112.06055,350.45733 C -127.5193,341.27046 -124.79,340.54446 -127.01165,336.6634 C -139.58826,331.54334 -140.42342,337.06739 -148.7587,336.6634 C -172.49269,324.08139 -177.05608,325.4242 -198.90685,317.53653 L -197.92976,322.18185 C -213.64506,316.95797 -216.24335,324.14683 -233.24143,322.18185 C -234.26219,321.39576 -227.79921,319.2615 -222.47161,318.49719 C -237.65198,320.50055 -236.94782,315.51133 -251.83341,319.02678 C -248.18707,316.47205 -244.28417,314.76356 -240.38127,312.56915 C -252.77229,313.31163 -269.97779,319.77455 -264.66658,313.89018 C -284.87977,322.90779 -320.80826,335.57714 -340.96141,354.48583 L -341.57823,350.26628 C -350.81417,361.33091 -381.85722,383.35636 -384.30813,397.72885 L -386.7645,398.28562 C -391.55715,406.40802 -394.67401,415.63851 -398.46774,424.00108 C -404.73967,434.70539 -407.68185,428.11686 -406.78118,429.79811 C -419.12853,454.85308 -425.29129,475.91781 -430.58067,493.19427 C -426.80332,498.82209 -430.49333,527.20134 -429.06864,549.90911 C -435.24777,662.04509 -350.36657,770.91683 -257.5704,796.0373 C -243.98395,800.90091 -223.74893,800.72624 -206.54342,801.19567 C -226.84395,795.39864 -229.44224,798.14978 -249.22966,791.23919 C -263.4766,784.52512 -266.60984,776.84487 -276.7137,768.08382 L -272.72893,775.14179 C -292.53818,768.14932 -284.24111,766.46261 -300.36035,761.36428 L -296.09719,755.80197 C -302.5165,755.3107 -313.0898,744.98849 -315.99378,739.25696 L -323.00808,739.52989 C -331.43069,729.1258 -335.92858,721.62023 -335.60652,715.80136 L -337.87184,719.82981 C -340.42646,715.43564 -368.91489,680.76808 -354.13846,688.82497 C -356.86776,686.33039 -360.53594,684.75286 -364.47705,677.56934 L -361.47482,674.13588 C -368.57099,664.98727 -374.5427,653.26221 -374.0951,649.35931 C -370.3232,654.47401 -367.67578,655.43473 -365.07749,656.3081 C -383.03082,611.76594 -384.0352,653.87903 -397.63803,610.95807 L -394.77772,610.74518 C -396.97754,607.41544 -398.32036,603.81276 -400.08894,600.27559 L -398.84984,587.81907 C -411.7758,572.89526 -402.45797,524.25915 -400.58021,497.60482 C -399.29744,486.77496 -389.78857,475.23548 -382.58322,457.11294 L -386.97739,456.36511 C -378.57661,441.69786 -338.93627,397.43408 -320.579,399.69394 C -311.68694,388.54203 -322.32575,399.65027 -324.0725,396.85547 C -304.54164,376.66412 -298.40072,382.59215 -285.22366,378.94581 C -271.02039,370.52319 -297.41817,382.22643 -290.68226,375.74707 C -266.11857,369.47514 -273.28025,361.48365 -241.21098,358.30674 C -237.84303,360.22276 -249.03861,361.27076 -251.85525,363.76545 C -231.3855,353.74335 -187.0726,356.04688 -158.28942,369.30593 C -124.89917,384.91752 -87.371309,431.05905 -85.875653,474.47128 L -84.216239,474.91888 C -85.045946,492.16806 -81.590653,512.12469 -87.627863,530.46558 L -83.51208,521.78641"
           id="path10215" />
        <path
           style="fill:#d62766;fill-opacity:1;fill-rule:evenodd;stroke:none"
           d="M -286.24442,580.23162 L -287.39618,585.94677 C -282.04675,593.21762 -277.78359,601.1053 -270.93851,606.79862 C -275.84033,597.2024 -279.50851,593.23946 -286.24442,580.23162"
           id="path10217" />
        <path
           style="fill:#d62766;fill-opacity:1;fill-rule:evenodd;stroke:none"
           d="M -273.55863,579.74035 C -276.39711,576.60711 -278.05652,572.82976 -279.95611,569.0797 C -278.16569,575.69007 -274.47568,581.36155 -271.04222,587.13675 L -273.55863,579.74035"
           id="path10219" />
        <path
           style="fill:#d62766;fill-opacity:1;fill-rule:evenodd;stroke:none"
           d="M -49.308503,530.99506 L -50.503936,534.00275 C -52.676458,549.59251 -57.430897,565.02942 -64.707209,579.35824 C -56.688528,564.25976 -51.486484,547.73658 -49.308503,530.99506"
           id="path10221" />
        <path
           style="fill:#d62766;fill-opacity:1;fill-rule:evenodd;stroke:none"
           d="M -226.52189,311.41738 C -221.01963,309.41408 -212.98457,310.33112 -207.11658,308.98296 C -214.73132,309.60513 -222.32423,309.98729 -229.8298,310.94794 L -226.52189,311.3956"
           id="path10223" />
        <path
           style="fill:#d62766;fill-opacity:1;fill-rule:evenodd;stroke:none"
           d="M -420.15475,414.3612 C -418.89381,426.1081 -428.9813,430.67149 -417.9331,422.91482 C -411.98868,409.51942 -420.23663,419.22481 -420.15475,414.3612"
           id="path10225" />
        <path
           style="fill:#d62766;fill-opacity:1;fill-rule:evenodd;stroke:none"
           d="M -433.17896,468.82163 C -430.62434,460.994 -430.17673,456.28323 -429.19419,451.74168 C -436.25215,460.75928 -432.43659,462.68071 -433.17896,468.82163"
           id="path10227" />
      </g>
      <text
         sodipodi:linespacing="100%"
         id="text10229"
         y="729.17133"
         x="223.22835"
         style="font-size:9px;font-style:normal;font-variant:normal;font-weight:normal;font-stretch:normal;text-align:start;line-height:100%;writing-mode:lr-tb;text-anchor:start;fill:#000000;fill-opacity:1;stroke:none;stroke-width:1px;stroke-linecap:butt;stroke-linejoin:miter;stroke-opacity:1;font-family:Ume Mincho"
         xml:space="preserve"><tspan
           style="font-size:24px;font-style:normal;font-variant:normal;font-weight:normal;font-stretch:normal;text-align:start;line-height:100%;letter-spacing:-0.67343503;writing-mode:lr-tb;text-anchor:start;font-family:HGP創英角ｺﾞｼｯｸUB"
           y="729.17133"
           x="223.22835"
           id="tspan10231"
           sodipodi:role="line"
           dx="0 0 0 0 0 0 0 0 0 0 0 0 0 0 0 0 0 -5"><tspan
   style="font-weight:bold;font-family:Arial"
   id="tspan2803">Debian</tspan>についてもっと知りたい！ </tspan></text>
      <path
         id="path6043"
         d="M 223.75985,733.94231 L 726.44467,733.94231"
         style="fill:none;fill-opacity:1;fill-rule:evenodd;stroke:#d62766;stroke-width:1.41732287;stroke-linecap:butt;stroke-linejoin:miter;marker-mid:none;marker-end:none;stroke-miterlimit:4;stroke-dasharray:1.41732283, 2.83464567;stroke-dashoffset:0;stroke-opacity:1;display:inline" />
    </g>
    <g
       id="g2708"
       transform="translate(-3.3720139e-2,264.70058)">
      <text
         id="text5706"
         y="614.36359"
         x="223.22835"
         style="font-size:12px;font-style:normal;font-weight:normal;fill:#000000;fill-opacity:1;stroke:none;stroke-width:1px;stroke-linecap:butt;stroke-linejoin:miter;stroke-opacity:1;font-family:Systema"
         xml:space="preserve"><tspan
           style="font-size:24px;letter-spacing:-0.37037036;font-family:HGP創英角ｺﾞｼｯｸUB"
           y="614.36359"
           x="223.22835"
           id="tspan5708"
           sodipodi:role="line">インストール<tspan
   style="font-size:24px;font-weight:bold;font-family:Arial"
   id="tspan4199">DVD<tspan
   style="font-family:HGP創英角ｺﾞｼｯｸUB"
   id="tspan2552">を配布しています</tspan></tspan></tspan></text>
      <g
         transform="matrix(8.9594956e-2,0,0,8.9594956e-2,226.63965,555.6304)"
         id="g10157"
         style="display:inline">
        <path
           style="fill:#d62766;fill-opacity:1;fill-rule:evenodd;stroke:none"
           d="M -197.20376,569.03603 C -205.34799,569.14521 -195.6699,573.21732 -185.03109,574.8549 C -182.08345,572.55683 -179.41965,570.2533 -177.05608,567.99344 C -183.66644,569.61465 -190.42418,569.63102 -197.2256,569.0142"
           id="path10159" />
        <path
           style="fill:#d62766;fill-opacity:1;fill-rule:evenodd;stroke:none"
           d="M -153.42581,558.14067 C -148.56765,551.44297 -145.02502,544.11208 -143.79138,536.51917 C -144.87764,541.91226 -147.79799,546.58482 -150.57096,551.50848 C -165.81682,561.10469 -152.00111,545.81516 -150.57096,539.99629 C -166.94675,560.63525 -152.80898,552.36002 -153.40943,558.14067"
           id="path10161" />
        <path
           style="fill:#d62766;fill-opacity:1;fill-rule:evenodd;stroke:none"
           d="M -137.26835,516.09309 C -136.28581,501.42038 -140.14504,506.0711 -141.44418,511.65525 C -139.95399,512.44675 -138.73672,521.99929 -137.26835,516.09309"
           id="path10163" />
        <path
           style="fill:#d62766;fill-opacity:1;fill-rule:evenodd;stroke:none"
           d="M -228.1431,315.32028 C -223.79259,316.08454 -218.73793,316.68493 -219.46393,317.72758 C -214.70949,316.68493 -213.62323,315.74605 -228.1431,315.32028"
           id="path10165" />
        <path
           style="fill:#d62766;fill-opacity:1;fill-rule:evenodd;stroke:none"
           d="M -219.44209,317.72758 L -222.49345,318.34445 L -219.63314,318.0879 L -219.44209,317.72758"
           id="path10167" />
        <path
           style="fill:#d62766;fill-opacity:1;fill-rule:evenodd;stroke:none"
           d="M -83.703131,521.6554 C -83.211857,534.83246 -87.540525,541.25177 -91.465257,552.5729 L -98.50139,556.07186 C -104.26021,567.26745 -97.944613,563.1735 -102.0604,572.08739 C -111.06162,580.08424 -129.37522,597.12052 -135.23776,598.69806 C -139.50638,598.61072 -132.36107,593.6434 -131.4222,591.72197 C -143.46932,599.9972 -141.10575,604.13482 -159.52852,609.16765 L -160.058,607.97222 C -205.51721,629.359 -268.67865,586.98936 -267.86532,529.13914 C -268.33476,532.80732 -269.22997,531.89027 -270.23435,533.3641 C -272.58155,503.62019 -256.50052,473.72345 -229.36036,461.50711 C -202.83158,448.3901 -171.70119,453.76682 -152.70527,471.48543 C -163.13119,457.8171 -183.91753,443.31906 -208.54673,444.66187 C -232.66282,445.04398 -255.24504,460.37718 -262.79428,477.03136 C -275.13617,484.78803 -276.58816,507.00998 -281.95942,511.0821 C -289.20844,564.3471 -268.33476,587.35509 -233.00671,614.42974 C -227.46077,618.16342 -231.44555,618.74203 -230.70318,621.59688 C -242.42825,616.11644 -253.17623,607.82483 -262.00278,597.65001 C -257.31385,604.49509 -252.25918,611.17095 -245.71433,616.41667 C -256.7789,612.68299 -271.55533,589.61495 -275.86216,588.67607 C -256.80074,622.83598 -198.48107,648.56781 -167.9293,635.80015 C -182.04524,636.3078 -199.99857,636.07308 -215.88309,630.23238 C -222.55349,626.79892 -231.62022,619.69728 -229.99902,618.3763 C -188.33354,633.92239 -145.28158,630.14504 -109.2057,601.25268 C -100.03526,594.11284 -90.01327,581.95654 -87.114754,581.78732 C -91.465257,588.33218 -86.366927,584.92056 -89.696671,590.72305 C -80.569895,575.99029 -93.659614,584.7295 -80.269672,565.28598 L -75.324182,572.10923 C -77.158271,559.86559 -60.143821,545.00729 -61.868738,525.64564 C -57.96584,519.73943 -57.518235,532.02128 -61.677687,545.62411 C -55.918866,530.52562 -60.160197,528.09655 -58.691834,515.64549 C -57.114299,519.82131 -55.001821,524.28099 -53.91556,528.69154 C -57.649241,514.11162 -50.1,504.12784 -48.200408,495.64518 C -50.056331,494.83185 -53.981063,502.08087 -54.876274,484.87537 C -54.745267,477.39163 -52.807465,480.95064 -52.059637,479.11655 C -53.511624,478.28684 -57.370853,472.54985 -59.712592,461.52894 C -58.031343,458.94703 -55.192872,468.22118 -52.872968,468.60875 C -54.341331,459.86407 -56.923248,453.18821 -57.026961,446.47413 C -63.790164,432.33636 -59.417827,448.35189 -64.89826,440.42054 C -72.081775,417.96387 -58.948388,435.21304 -58.053178,425.02184 C -47.157816,440.82448 -40.929555,465.32267 -38.074708,475.4702 C -40.24723,463.10648 -43.768026,451.1194 -48.07486,439.52533 C -44.745115,440.90636 -53.402452,414.08281 -43.768026,431.86692 C -54.062942,393.97879 -87.840748,358.54146 -118.92746,341.93095 C -115.15557,345.40273 -110.33563,349.75317 -112.06055,350.45733 C -127.5193,341.27046 -124.79,340.54446 -127.01165,336.6634 C -139.58826,331.54334 -140.42342,337.06739 -148.7587,336.6634 C -172.49269,324.08139 -177.05608,325.4242 -198.90685,317.53653 L -197.92976,322.18185 C -213.64506,316.95797 -216.24335,324.14683 -233.24143,322.18185 C -234.26219,321.39576 -227.79921,319.2615 -222.47161,318.49719 C -237.65198,320.50055 -236.94782,315.51133 -251.83341,319.02678 C -248.18707,316.47205 -244.28417,314.76356 -240.38127,312.56915 C -252.77229,313.31163 -269.97779,319.77455 -264.66658,313.89018 C -284.87977,322.90779 -320.80826,335.57714 -340.96141,354.48583 L -341.57823,350.26628 C -350.81417,361.33091 -381.85722,383.35636 -384.30813,397.72885 L -386.7645,398.28562 C -391.55715,406.40802 -394.67401,415.63851 -398.46774,424.00108 C -404.73967,434.70539 -407.68185,428.11686 -406.78118,429.79811 C -419.12853,454.85308 -425.29129,475.91781 -430.58067,493.19427 C -426.80332,498.82209 -430.49333,527.20134 -429.06864,549.90911 C -435.24777,662.04509 -350.36657,770.91683 -257.5704,796.0373 C -243.98395,800.90091 -223.74893,800.72624 -206.54342,801.19567 C -226.84395,795.39864 -229.44224,798.14978 -249.22966,791.23919 C -263.4766,784.52512 -266.60984,776.84487 -276.7137,768.08382 L -272.72893,775.14179 C -292.53818,768.14932 -284.24111,766.46261 -300.36035,761.36428 L -296.09719,755.80197 C -302.5165,755.3107 -313.0898,744.98849 -315.99378,739.25696 L -323.00808,739.52989 C -331.43069,729.1258 -335.92858,721.62023 -335.60652,715.80136 L -337.87184,719.82981 C -340.42646,715.43564 -368.91489,680.76808 -354.13846,688.82497 C -356.86776,686.33039 -360.53594,684.75286 -364.47705,677.56934 L -361.47482,674.13588 C -368.57099,664.98727 -374.5427,653.26221 -374.0951,649.35931 C -370.3232,654.47401 -367.67578,655.43473 -365.07749,656.3081 C -383.03082,611.76594 -384.0352,653.87903 -397.63803,610.95807 L -394.77772,610.74518 C -396.97754,607.41544 -398.32036,603.81276 -400.08894,600.27559 L -398.84984,587.81907 C -411.7758,572.89526 -402.45797,524.25915 -400.58021,497.60482 C -399.29744,486.77496 -389.78857,475.23548 -382.58322,457.11294 L -386.97739,456.36511 C -378.57661,441.69786 -338.93627,397.43408 -320.579,399.69394 C -311.68694,388.54203 -322.32575,399.65027 -324.0725,396.85547 C -304.54164,376.66412 -298.40072,382.59215 -285.22366,378.94581 C -271.02039,370.52319 -297.41817,382.22643 -290.68226,375.74707 C -266.11857,369.47514 -273.28025,361.48365 -241.21098,358.30674 C -237.84303,360.22276 -249.03861,361.27076 -251.85525,363.76545 C -231.3855,353.74335 -187.0726,356.04688 -158.28942,369.30593 C -124.89917,384.91752 -87.371309,431.05905 -85.875653,474.47128 L -84.216239,474.91888 C -85.045946,492.16806 -81.590653,512.12469 -87.627863,530.46558 L -83.51208,521.78641"
           id="path10169" />
        <path
           style="fill:#d62766;fill-opacity:1;fill-rule:evenodd;stroke:none"
           d="M -286.24442,580.23162 L -287.39618,585.94677 C -282.04675,593.21762 -277.78359,601.1053 -270.93851,606.79862 C -275.84033,597.2024 -279.50851,593.23946 -286.24442,580.23162"
           id="path10171" />
        <path
           style="fill:#d62766;fill-opacity:1;fill-rule:evenodd;stroke:none"
           d="M -273.55863,579.74035 C -276.39711,576.60711 -278.05652,572.82976 -279.95611,569.0797 C -278.16569,575.69007 -274.47568,581.36155 -271.04222,587.13675 L -273.55863,579.74035"
           id="path10173" />
        <path
           style="fill:#d62766;fill-opacity:1;fill-rule:evenodd;stroke:none"
           d="M -49.308503,530.99506 L -50.503936,534.00275 C -52.676458,549.59251 -57.430897,565.02942 -64.707209,579.35824 C -56.688528,564.25976 -51.486484,547.73658 -49.308503,530.99506"
           id="path10175" />
        <path
           style="fill:#d62766;fill-opacity:1;fill-rule:evenodd;stroke:none"
           d="M -226.52189,311.41738 C -221.01963,309.41408 -212.98457,310.33112 -207.11658,308.98296 C -214.73132,309.60513 -222.32423,309.98729 -229.8298,310.94794 L -226.52189,311.3956"
           id="path10177" />
        <path
           style="fill:#d62766;fill-opacity:1;fill-rule:evenodd;stroke:none"
           d="M -420.15475,414.3612 C -418.89381,426.1081 -428.9813,430.67149 -417.9331,422.91482 C -411.98868,409.51942 -420.23663,419.22481 -420.15475,414.3612"
           id="path10179" />
        <path
           style="fill:#d62766;fill-opacity:1;fill-rule:evenodd;stroke:none"
           d="M -433.17896,468.82163 C -430.62434,460.994 -430.17673,456.28323 -429.19419,451.74168 C -436.25215,460.75928 -432.43659,462.68071 -433.17896,468.82163"
           id="path10181" />
      </g>
      <path
         id="path10249"
         d="M 223.93701,618.36218 L 726.62182,618.36218"
         style="fill:none;fill-opacity:1;fill-rule:evenodd;stroke:#d62766;stroke-width:1.41732287;stroke-linecap:butt;stroke-linejoin:miter;marker-mid:none;marker-end:none;stroke-miterlimit:4;stroke-dasharray:1.41732283, 2.83464567;stroke-dashoffset:0;stroke-opacity:1;display:inline" />
    </g>
    <g
       id="g2746">
      <text
         id="text8655"
         y="330.34293"
         x="223.22835"
         style="font-size:12px;font-style:normal;font-weight:normal;fill:#000000;fill-opacity:1;stroke:none;stroke-width:1px;stroke-linecap:butt;stroke-linejoin:miter;stroke-opacity:1;font-family:Systema"
         xml:space="preserve"><tspan
           style="font-size:24px;font-weight:bold;letter-spacing:-0.78567398;font-family:HGP創英角ｺﾞｼｯｸUB"
           y="330.34293"
           x="223.22835"
           id="tspan8657"
           sodipodi:role="line"><tspan
   id="tspan8663"
   style="font-size:24px;letter-spacing:-0.78567398;font-family:Arial">Debian GNU/Linux</tspan>の特徴</tspan></text>
      <g
         transform="matrix(8.9594956e-2,0,0,8.9594956e-2,226.63965,272.2191)"
         id="g9893"
         style="display:inline">
        <path
           style="fill:#d62766;fill-opacity:1;fill-rule:evenodd;stroke:none"
           d="M -197.20376,569.03603 C -205.34799,569.14521 -195.6699,573.21732 -185.03109,574.8549 C -182.08345,572.55683 -179.41965,570.2533 -177.05608,567.99344 C -183.66644,569.61465 -190.42418,569.63102 -197.2256,569.0142"
           id="path9895" />
        <path
           style="fill:#d62766;fill-opacity:1;fill-rule:evenodd;stroke:none"
           d="M -153.42581,558.14067 C -148.56765,551.44297 -145.02502,544.11208 -143.79138,536.51917 C -144.87764,541.91226 -147.79799,546.58482 -150.57096,551.50848 C -165.81682,561.10469 -152.00111,545.81516 -150.57096,539.99629 C -166.94675,560.63525 -152.80898,552.36002 -153.40943,558.14067"
           id="path9897" />
        <path
           style="fill:#d62766;fill-opacity:1;fill-rule:evenodd;stroke:none"
           d="M -137.26835,516.09309 C -136.28581,501.42038 -140.14504,506.0711 -141.44418,511.65525 C -139.95399,512.44675 -138.73672,521.99929 -137.26835,516.09309"
           id="path9899" />
        <path
           style="fill:#d62766;fill-opacity:1;fill-rule:evenodd;stroke:none"
           d="M -228.1431,315.32028 C -223.79259,316.08454 -218.73793,316.68493 -219.46393,317.72758 C -214.70949,316.68493 -213.62323,315.74605 -228.1431,315.32028"
           id="path9901" />
        <path
           style="fill:#d62766;fill-opacity:1;fill-rule:evenodd;stroke:none"
           d="M -219.44209,317.72758 L -222.49345,318.34445 L -219.63314,318.0879 L -219.44209,317.72758"
           id="path9903" />
        <path
           style="fill:#d62766;fill-opacity:1;fill-rule:evenodd;stroke:none"
           d="M -83.703131,521.6554 C -83.211857,534.83246 -87.540525,541.25177 -91.465257,552.5729 L -98.50139,556.07186 C -104.26021,567.26745 -97.944613,563.1735 -102.0604,572.08739 C -111.06162,580.08424 -129.37522,597.12052 -135.23776,598.69806 C -139.50638,598.61072 -132.36107,593.6434 -131.4222,591.72197 C -143.46932,599.9972 -141.10575,604.13482 -159.52852,609.16765 L -160.058,607.97222 C -205.51721,629.359 -268.67865,586.98936 -267.86532,529.13914 C -268.33476,532.80732 -269.22997,531.89027 -270.23435,533.3641 C -272.58155,503.62019 -256.50052,473.72345 -229.36036,461.50711 C -202.83158,448.3901 -171.70119,453.76682 -152.70527,471.48543 C -163.13119,457.8171 -183.91753,443.31906 -208.54673,444.66187 C -232.66282,445.04398 -255.24504,460.37718 -262.79428,477.03136 C -275.13617,484.78803 -276.58816,507.00998 -281.95942,511.0821 C -289.20844,564.3471 -268.33476,587.35509 -233.00671,614.42974 C -227.46077,618.16342 -231.44555,618.74203 -230.70318,621.59688 C -242.42825,616.11644 -253.17623,607.82483 -262.00278,597.65001 C -257.31385,604.49509 -252.25918,611.17095 -245.71433,616.41667 C -256.7789,612.68299 -271.55533,589.61495 -275.86216,588.67607 C -256.80074,622.83598 -198.48107,648.56781 -167.9293,635.80015 C -182.04524,636.3078 -199.99857,636.07308 -215.88309,630.23238 C -222.55349,626.79892 -231.62022,619.69728 -229.99902,618.3763 C -188.33354,633.92239 -145.28158,630.14504 -109.2057,601.25268 C -100.03526,594.11284 -90.01327,581.95654 -87.114754,581.78732 C -91.465257,588.33218 -86.366927,584.92056 -89.696671,590.72305 C -80.569895,575.99029 -93.659614,584.7295 -80.269672,565.28598 L -75.324182,572.10923 C -77.158271,559.86559 -60.143821,545.00729 -61.868738,525.64564 C -57.96584,519.73943 -57.518235,532.02128 -61.677687,545.62411 C -55.918866,530.52562 -60.160197,528.09655 -58.691834,515.64549 C -57.114299,519.82131 -55.001821,524.28099 -53.91556,528.69154 C -57.649241,514.11162 -50.1,504.12784 -48.200408,495.64518 C -50.056331,494.83185 -53.981063,502.08087 -54.876274,484.87537 C -54.745267,477.39163 -52.807465,480.95064 -52.059637,479.11655 C -53.511624,478.28684 -57.370853,472.54985 -59.712592,461.52894 C -58.031343,458.94703 -55.192872,468.22118 -52.872968,468.60875 C -54.341331,459.86407 -56.923248,453.18821 -57.026961,446.47413 C -63.790164,432.33636 -59.417827,448.35189 -64.89826,440.42054 C -72.081775,417.96387 -58.948388,435.21304 -58.053178,425.02184 C -47.157816,440.82448 -40.929555,465.32267 -38.074708,475.4702 C -40.24723,463.10648 -43.768026,451.1194 -48.07486,439.52533 C -44.745115,440.90636 -53.402452,414.08281 -43.768026,431.86692 C -54.062942,393.97879 -87.840748,358.54146 -118.92746,341.93095 C -115.15557,345.40273 -110.33563,349.75317 -112.06055,350.45733 C -127.5193,341.27046 -124.79,340.54446 -127.01165,336.6634 C -139.58826,331.54334 -140.42342,337.06739 -148.7587,336.6634 C -172.49269,324.08139 -177.05608,325.4242 -198.90685,317.53653 L -197.92976,322.18185 C -213.64506,316.95797 -216.24335,324.14683 -233.24143,322.18185 C -234.26219,321.39576 -227.79921,319.2615 -222.47161,318.49719 C -237.65198,320.50055 -236.94782,315.51133 -251.83341,319.02678 C -248.18707,316.47205 -244.28417,314.76356 -240.38127,312.56915 C -252.77229,313.31163 -269.97779,319.77455 -264.66658,313.89018 C -284.87977,322.90779 -320.80826,335.57714 -340.96141,354.48583 L -341.57823,350.26628 C -350.81417,361.33091 -381.85722,383.35636 -384.30813,397.72885 L -386.7645,398.28562 C -391.55715,406.40802 -394.67401,415.63851 -398.46774,424.00108 C -404.73967,434.70539 -407.68185,428.11686 -406.78118,429.79811 C -419.12853,454.85308 -425.29129,475.91781 -430.58067,493.19427 C -426.80332,498.82209 -430.49333,527.20134 -429.06864,549.90911 C -435.24777,662.04509 -350.36657,770.91683 -257.5704,796.0373 C -243.98395,800.90091 -223.74893,800.72624 -206.54342,801.19567 C -226.84395,795.39864 -229.44224,798.14978 -249.22966,791.23919 C -263.4766,784.52512 -266.60984,776.84487 -276.7137,768.08382 L -272.72893,775.14179 C -292.53818,768.14932 -284.24111,766.46261 -300.36035,761.36428 L -296.09719,755.80197 C -302.5165,755.3107 -313.0898,744.98849 -315.99378,739.25696 L -323.00808,739.52989 C -331.43069,729.1258 -335.92858,721.62023 -335.60652,715.80136 L -337.87184,719.82981 C -340.42646,715.43564 -368.91489,680.76808 -354.13846,688.82497 C -356.86776,686.33039 -360.53594,684.75286 -364.47705,677.56934 L -361.47482,674.13588 C -368.57099,664.98727 -374.5427,653.26221 -374.0951,649.35931 C -370.3232,654.47401 -367.67578,655.43473 -365.07749,656.3081 C -383.03082,611.76594 -384.0352,653.87903 -397.63803,610.95807 L -394.77772,610.74518 C -396.97754,607.41544 -398.32036,603.81276 -400.08894,600.27559 L -398.84984,587.81907 C -411.7758,572.89526 -402.45797,524.25915 -400.58021,497.60482 C -399.29744,486.77496 -389.78857,475.23548 -382.58322,457.11294 L -386.97739,456.36511 C -378.57661,441.69786 -338.93627,397.43408 -320.579,399.69394 C -311.68694,388.54203 -322.32575,399.65027 -324.0725,396.85547 C -304.54164,376.66412 -298.40072,382.59215 -285.22366,378.94581 C -271.02039,370.52319 -297.41817,382.22643 -290.68226,375.74707 C -266.11857,369.47514 -273.28025,361.48365 -241.21098,358.30674 C -237.84303,360.22276 -249.03861,361.27076 -251.85525,363.76545 C -231.3855,353.74335 -187.0726,356.04688 -158.28942,369.30593 C -124.89917,384.91752 -87.371309,431.05905 -85.875653,474.47128 L -84.216239,474.91888 C -85.045946,492.16806 -81.590653,512.12469 -87.627863,530.46558 L -83.51208,521.78641"
           id="path9905" />
        <path
           style="fill:#d62766;fill-opacity:1;fill-rule:evenodd;stroke:none"
           d="M -286.24442,580.23162 L -287.39618,585.94677 C -282.04675,593.21762 -277.78359,601.1053 -270.93851,606.79862 C -275.84033,597.2024 -279.50851,593.23946 -286.24442,580.23162"
           id="path9907" />
        <path
           style="fill:#d62766;fill-opacity:1;fill-rule:evenodd;stroke:none"
           d="M -273.55863,579.74035 C -276.39711,576.60711 -278.05652,572.82976 -279.95611,569.0797 C -278.16569,575.69007 -274.47568,581.36155 -271.04222,587.13675 L -273.55863,579.74035"
           id="path9909" />
        <path
           style="fill:#d62766;fill-opacity:1;fill-rule:evenodd;stroke:none"
           d="M -49.308503,530.99506 L -50.503936,534.00275 C -52.676458,549.59251 -57.430897,565.02942 -64.707209,579.35824 C -56.688528,564.25976 -51.486484,547.73658 -49.308503,530.99506"
           id="path9911" />
        <path
           style="fill:#d62766;fill-opacity:1;fill-rule:evenodd;stroke:none"
           d="M -226.52189,311.41738 C -221.01963,309.41408 -212.98457,310.33112 -207.11658,308.98296 C -214.73132,309.60513 -222.32423,309.98729 -229.8298,310.94794 L -226.52189,311.3956"
           id="path9913" />
        <path
           style="fill:#d62766;fill-opacity:1;fill-rule:evenodd;stroke:none"
           d="M -420.15475,414.3612 C -418.89381,426.1081 -428.9813,430.67149 -417.9331,422.91482 C -411.98868,409.51942 -420.23663,419.22481 -420.15475,414.3612"
           id="path9915" />
        <path
           style="fill:#d62766;fill-opacity:1;fill-rule:evenodd;stroke:none"
           d="M -433.17896,468.82163 C -430.62434,460.994 -430.17673,456.28323 -429.19419,451.74168 C -436.25215,460.75928 -432.43659,462.68071 -433.17896,468.82163"
           id="path9917" />
      </g>
      <path
         id="path10251"
         d="M 223.93701,335.36218 L 726.62182,335.36218"
         style="fill:none;fill-opacity:1;fill-rule:evenodd;stroke:#d62766;stroke-width:1.41732287;stroke-linecap:butt;stroke-linejoin:miter;marker-mid:none;marker-end:none;stroke-miterlimit:4;stroke-dasharray:1.41732283, 2.83464567;stroke-dashoffset:0;stroke-opacity:1;display:inline" />
    </g>
    <g
       id="g2765">
      <text
         id="text5540"
         y="190.0215"
         x="223.22835"
         style="font-size:12px;font-style:normal;font-weight:normal;fill:#000000;fill-opacity:1;stroke:none;stroke-width:1px;stroke-linecap:butt;stroke-linejoin:miter;stroke-opacity:1;font-family:Systema"
         xml:space="preserve"><tspan
           dx="0 0 0 0 0 0 0 0 0 0 0 0 0 0 0 0 0.70710677 0 -3.5355339"
           style="font-size:24px;letter-spacing:-0.70710677;font-family:HGP創英角ｺﾞｼｯｸUB"
           y="190.0215"
           x="223.22835"
           id="tspan5542"
           sodipodi:role="line"><tspan
   dx="0 0 0 0 0 0 0 0 0 0 0.70710677 0.70710677"
   id="tspan8659"
   style="font-size:24px;font-weight:bold;font-family:Arial">Debian GNU/Linux</tspan>とは？ </tspan></text>
      <g
         transform="matrix(8.9594956e-2,0,0,8.9594956e-2,226.63965,131.61642)"
         id="g8798"
         style="display:inline">
        <path
           style="fill:#d62766;fill-opacity:1;fill-rule:evenodd;stroke:none"
           d="M -197.20376,569.03603 C -205.34799,569.14521 -195.6699,573.21732 -185.03109,574.8549 C -182.08345,572.55683 -179.41965,570.2533 -177.05608,567.99344 C -183.66644,569.61465 -190.42418,569.63102 -197.2256,569.0142"
           id="path8800" />
        <path
           style="fill:#d62766;fill-opacity:1;fill-rule:evenodd;stroke:none"
           d="M -153.42581,558.14067 C -148.56765,551.44297 -145.02502,544.11208 -143.79138,536.51917 C -144.87764,541.91226 -147.79799,546.58482 -150.57096,551.50848 C -165.81682,561.10469 -152.00111,545.81516 -150.57096,539.99629 C -166.94675,560.63525 -152.80898,552.36002 -153.40943,558.14067"
           id="path8802" />
        <path
           style="fill:#d62766;fill-opacity:1;fill-rule:evenodd;stroke:none"
           d="M -137.26835,516.09309 C -136.28581,501.42038 -140.14504,506.0711 -141.44418,511.65525 C -139.95399,512.44675 -138.73672,521.99929 -137.26835,516.09309"
           id="path8804" />
        <path
           style="fill:#d62766;fill-opacity:1;fill-rule:evenodd;stroke:none"
           d="M -228.1431,315.32028 C -223.79259,316.08454 -218.73793,316.68493 -219.46393,317.72758 C -214.70949,316.68493 -213.62323,315.74605 -228.1431,315.32028"
           id="path8806" />
        <path
           style="fill:#d62766;fill-opacity:1;fill-rule:evenodd;stroke:none"
           d="M -219.44209,317.72758 L -222.49345,318.34445 L -219.63314,318.0879 L -219.44209,317.72758"
           id="path8808" />
        <path
           style="fill:#d62766;fill-opacity:1;fill-rule:evenodd;stroke:none"
           d="M -83.703131,521.6554 C -83.211857,534.83246 -87.540525,541.25177 -91.465257,552.5729 L -98.50139,556.07186 C -104.26021,567.26745 -97.944613,563.1735 -102.0604,572.08739 C -111.06162,580.08424 -129.37522,597.12052 -135.23776,598.69806 C -139.50638,598.61072 -132.36107,593.6434 -131.4222,591.72197 C -143.46932,599.9972 -141.10575,604.13482 -159.52852,609.16765 L -160.058,607.97222 C -205.51721,629.359 -268.67865,586.98936 -267.86532,529.13914 C -268.33476,532.80732 -269.22997,531.89027 -270.23435,533.3641 C -272.58155,503.62019 -256.50052,473.72345 -229.36036,461.50711 C -202.83158,448.3901 -171.70119,453.76682 -152.70527,471.48543 C -163.13119,457.8171 -183.91753,443.31906 -208.54673,444.66187 C -232.66282,445.04398 -255.24504,460.37718 -262.79428,477.03136 C -275.13617,484.78803 -276.58816,507.00998 -281.95942,511.0821 C -289.20844,564.3471 -268.33476,587.35509 -233.00671,614.42974 C -227.46077,618.16342 -231.44555,618.74203 -230.70318,621.59688 C -242.42825,616.11644 -253.17623,607.82483 -262.00278,597.65001 C -257.31385,604.49509 -252.25918,611.17095 -245.71433,616.41667 C -256.7789,612.68299 -271.55533,589.61495 -275.86216,588.67607 C -256.80074,622.83598 -198.48107,648.56781 -167.9293,635.80015 C -182.04524,636.3078 -199.99857,636.07308 -215.88309,630.23238 C -222.55349,626.79892 -231.62022,619.69728 -229.99902,618.3763 C -188.33354,633.92239 -145.28158,630.14504 -109.2057,601.25268 C -100.03526,594.11284 -90.01327,581.95654 -87.114754,581.78732 C -91.465257,588.33218 -86.366927,584.92056 -89.696671,590.72305 C -80.569895,575.99029 -93.659614,584.7295 -80.269672,565.28598 L -75.324182,572.10923 C -77.158271,559.86559 -60.143821,545.00729 -61.868738,525.64564 C -57.96584,519.73943 -57.518235,532.02128 -61.677687,545.62411 C -55.918866,530.52562 -60.160197,528.09655 -58.691834,515.64549 C -57.114299,519.82131 -55.001821,524.28099 -53.91556,528.69154 C -57.649241,514.11162 -50.1,504.12784 -48.200408,495.64518 C -50.056331,494.83185 -53.981063,502.08087 -54.876274,484.87537 C -54.745267,477.39163 -52.807465,480.95064 -52.059637,479.11655 C -53.511624,478.28684 -57.370853,472.54985 -59.712592,461.52894 C -58.031343,458.94703 -55.192872,468.22118 -52.872968,468.60875 C -54.341331,459.86407 -56.923248,453.18821 -57.026961,446.47413 C -63.790164,432.33636 -59.417827,448.35189 -64.89826,440.42054 C -72.081775,417.96387 -58.948388,435.21304 -58.053178,425.02184 C -47.157816,440.82448 -40.929555,465.32267 -38.074708,475.4702 C -40.24723,463.10648 -43.768026,451.1194 -48.07486,439.52533 C -44.745115,440.90636 -53.402452,414.08281 -43.768026,431.86692 C -54.062942,393.97879 -87.840748,358.54146 -118.92746,341.93095 C -115.15557,345.40273 -110.33563,349.75317 -112.06055,350.45733 C -127.5193,341.27046 -124.79,340.54446 -127.01165,336.6634 C -139.58826,331.54334 -140.42342,337.06739 -148.7587,336.6634 C -172.49269,324.08139 -177.05608,325.4242 -198.90685,317.53653 L -197.92976,322.18185 C -213.64506,316.95797 -216.24335,324.14683 -233.24143,322.18185 C -234.26219,321.39576 -227.79921,319.2615 -222.47161,318.49719 C -237.65198,320.50055 -236.94782,315.51133 -251.83341,319.02678 C -248.18707,316.47205 -244.28417,314.76356 -240.38127,312.56915 C -252.77229,313.31163 -269.97779,319.77455 -264.66658,313.89018 C -284.87977,322.90779 -320.80826,335.57714 -340.96141,354.48583 L -341.57823,350.26628 C -350.81417,361.33091 -381.85722,383.35636 -384.30813,397.72885 L -386.7645,398.28562 C -391.55715,406.40802 -394.67401,415.63851 -398.46774,424.00108 C -404.73967,434.70539 -407.68185,428.11686 -406.78118,429.79811 C -419.12853,454.85308 -425.29129,475.91781 -430.58067,493.19427 C -426.80332,498.82209 -430.49333,527.20134 -429.06864,549.90911 C -435.24777,662.04509 -350.36657,770.91683 -257.5704,796.0373 C -243.98395,800.90091 -223.74893,800.72624 -206.54342,801.19567 C -226.84395,795.39864 -229.44224,798.14978 -249.22966,791.23919 C -263.4766,784.52512 -266.60984,776.84487 -276.7137,768.08382 L -272.72893,775.14179 C -292.53818,768.14932 -284.24111,766.46261 -300.36035,761.36428 L -296.09719,755.80197 C -302.5165,755.3107 -313.0898,744.98849 -315.99378,739.25696 L -323.00808,739.52989 C -331.43069,729.1258 -335.92858,721.62023 -335.60652,715.80136 L -337.87184,719.82981 C -340.42646,715.43564 -368.91489,680.76808 -354.13846,688.82497 C -356.86776,686.33039 -360.53594,684.75286 -364.47705,677.56934 L -361.47482,674.13588 C -368.57099,664.98727 -374.5427,653.26221 -374.0951,649.35931 C -370.3232,654.47401 -367.67578,655.43473 -365.07749,656.3081 C -383.03082,611.76594 -384.0352,653.87903 -397.63803,610.95807 L -394.77772,610.74518 C -396.97754,607.41544 -398.32036,603.81276 -400.08894,600.27559 L -398.84984,587.81907 C -411.7758,572.89526 -402.45797,524.25915 -400.58021,497.60482 C -399.29744,486.77496 -389.78857,475.23548 -382.58322,457.11294 L -386.97739,456.36511 C -378.57661,441.69786 -338.93627,397.43408 -320.579,399.69394 C -311.68694,388.54203 -322.32575,399.65027 -324.0725,396.85547 C -304.54164,376.66412 -298.40072,382.59215 -285.22366,378.94581 C -271.02039,370.52319 -297.41817,382.22643 -290.68226,375.74707 C -266.11857,369.47514 -273.28025,361.48365 -241.21098,358.30674 C -237.84303,360.22276 -249.03861,361.27076 -251.85525,363.76545 C -231.3855,353.74335 -187.0726,356.04688 -158.28942,369.30593 C -124.89917,384.91752 -87.371309,431.05905 -85.875653,474.47128 L -84.216239,474.91888 C -85.045946,492.16806 -81.590653,512.12469 -87.627863,530.46558 L -83.51208,521.78641"
           id="path8810" />
        <path
           style="fill:#d62766;fill-opacity:1;fill-rule:evenodd;stroke:none"
           d="M -286.24442,580.23162 L -287.39618,585.94677 C -282.04675,593.21762 -277.78359,601.1053 -270.93851,606.79862 C -275.84033,597.2024 -279.50851,593.23946 -286.24442,580.23162"
           id="path8812" />
        <path
           style="fill:#d62766;fill-opacity:1;fill-rule:evenodd;stroke:none"
           d="M -273.55863,579.74035 C -276.39711,576.60711 -278.05652,572.82976 -279.95611,569.0797 C -278.16569,575.69007 -274.47568,581.36155 -271.04222,587.13675 L -273.55863,579.74035"
           id="path8814" />
        <path
           style="fill:#d62766;fill-opacity:1;fill-rule:evenodd;stroke:none"
           d="M -49.308503,530.99506 L -50.503936,534.00275 C -52.676458,549.59251 -57.430897,565.02942 -64.707209,579.35824 C -56.688528,564.25976 -51.486484,547.73658 -49.308503,530.99506"
           id="path8816" />
        <path
           style="fill:#d62766;fill-opacity:1;fill-rule:evenodd;stroke:none"
           d="M -226.52189,311.41738 C -221.01963,309.41408 -212.98457,310.33112 -207.11658,308.98296 C -214.73132,309.60513 -222.32423,309.98729 -229.8298,310.94794 L -226.52189,311.3956"
           id="path8818" />
        <path
           style="fill:#d62766;fill-opacity:1;fill-rule:evenodd;stroke:none"
           d="M -420.15475,414.3612 C -418.89381,426.1081 -428.9813,430.67149 -417.9331,422.91482 C -411.98868,409.51942 -420.23663,419.22481 -420.15475,414.3612"
           id="path8820" />
        <path
           style="fill:#d62766;fill-opacity:1;fill-rule:evenodd;stroke:none"
           d="M -433.17896,468.82163 C -430.62434,460.994 -430.17673,456.28323 -429.19419,451.74168 C -436.25215,460.75928 -432.43659,462.68071 -433.17896,468.82163"
           id="path8822" />
      </g>
      <path
         id="path10253"
         d="M 223.69313,194.36218 L 726.37795,194.36218"
         style="fill:none;fill-opacity:1;fill-rule:evenodd;stroke:#d62766;stroke-width:1.41732287;stroke-linecap:butt;stroke-linejoin:miter;marker-mid:none;marker-end:none;stroke-miterlimit:4;stroke-dasharray:1.41732283, 2.83464567;stroke-dashoffset:0;stroke-opacity:1;display:inline" />
    </g>
  </g>
</svg>
